<?xml version="1.0" encoding="utf-8"?>
<!-- Generator: Adobe Illustrator 21.1.0, SVG Export Plug-In . SVG Version: 6.00 Build 0)  -->
<svg version="1.1" id="Layer_1" xmlns="http://www.w3.org/2000/svg" xmlns:xlink="http://www.w3.org/1999/xlink" x="0px" y="0px"
	 viewBox="0 0 110 98" style="enable-background:new 0 0 110 98;" xml:space="preserve">
<style type="text/css">
	.st0{display:none;}
	.st1{display:inline;}
	.st2{fill:#5E5CA9;}
	.st3{fill:#658298;}
	.st4{fill:none;stroke:#FFFFFF;stroke-miterlimit:10;}
	.st5{fill:#FFFFFF;}
	.st6{display:inline;fill:#141B21;}
	.st7{fill:none;stroke:#5A9FAF;stroke-width:2;stroke-miterlimit:10;}
</style>
<g id="Layer_1_1_" class="st0">
	<g class="st1">
		<rect x="26" y="47.6" class="st2" width="33" height="2.8"/>
		<rect x="26" y="53.2" class="st2" width="33" height="2.8"/>
		<rect x="26" y="58.8" class="st2" width="33" height="2.8"/>
	</g>
</g>
<g id="Layer_2" class="st0">
	<g class="st1">
		<rect x="26" y="47.6" class="st3" width="33" height="2.8"/>
		<rect x="26" y="53.2" class="st3" width="33" height="2.8"/>
		<rect x="26" y="58.8" class="st3" width="33" height="2.8"/>
	</g>
</g>
<g id="Layer_3">
	<g>
		<path class="st4" d="M71.7,30.1c-0.6,0-0.9,0-1.5,0v33.2H38.8c0.3,18.3,14.8,32.9,32.9,32.9c18.3,0,32.9-14.8,32.9-32.9
			S90,30.1,71.7,30.1z"/>
		<path class="st5" d="M70.5,30.4V1.8h-62v62h30.3v-0.3C38.8,45.5,52.7,31,70.5,30.4z"/>
	</g>
</g>
</svg>
