<svg xmlns="http://www.w3.org/2000/svg" viewBox="0 0 16.21 16.24"><title>Asset 26</title><g id="Layer_2" data-name="Layer 2"><g id="Layer_1-2" data-name="Layer 1"><path d="M.1,4a4.64,4.64,0,0,1,4.5-4c2.33,0,4.65,0,7,0a4.76,4.76,0,0,1,4.58,4.59q.07,3.49,0,7a4.76,4.76,0,0,1-4.63,4.6q-3.46.06-6.93,0A4.78,4.78,0,0,1,0,11.59ZM1.61,8.09c0,1.06,0,2.12,0,3.19a3.21,3.21,0,0,0,3.32,3.32h6.27a3.21,3.21,0,0,0,3.35-3.34q0-3.14,0-6.27a3.21,3.21,0,0,0-3.35-3.34H4.94A3.21,3.21,0,0,0,1.61,5C1.61,6,1.61,7,1.61,8.09Z"/><path d="M8.1,3.94A4.18,4.18,0,1,1,3.91,8.1,4.15,4.15,0,0,1,8.1,3.94Zm2.54,4.19a2.55,2.55,0,1,0-2.59,2.54A2.54,2.54,0,0,0,10.64,8.13Z"/><ellipse cx="12.29" cy="3.96" rx="1" ry="0.99" transform="translate(8.24 16.22) rotate(-89.61)"/></g></g></svg>