<svg xmlns="http://www.w3.org/2000/svg" viewBox="0 0 109.95 16.97"><title>Asset 6</title><g id="Layer_2" data-name="Layer 2"><g id="Layer_1-2" data-name="Layer 1"><path d="M58.16,10.55c.62,0,1.21,0,1.79,0a.52.52,0,0,0,.61-.54c0-.47.08-.93.15-1.4s-.14-.7-.65-.68-1.24,0-1.91,0c0-.69,0-1.33,0-2a.86.86,0,0,1,.81-.8c.13,0,.27,0,.41,0,.41-.06,1.12,0,1.16-.21a6.13,6.13,0,0,0,.07-1.84c0-.1-.29-.26-.45-.26A14.87,14.87,0,0,0,58,2.93a2.69,2.69,0,0,0-2.35,2.41c-.1.83-.1,1.67-.14,2.6-.37,0-.76,0-1.13,0-.55,0-.74.2-.7.72a12,12,0,0,1,0,1.23c0,.46.16.69.65.66s.77,0,1.2,0v5.79a1.22,1.22,0,0,1-.27.06c-1.85,0-3.71,0-5.56,0a2.18,2.18,0,0,1-2.24-2.27q0-5.91,0-11.83A2.18,2.18,0,0,1,49.75,0q5.91,0,11.83,0a2.17,2.17,0,0,1,2.27,2.25q0,5.94,0,11.89a2.12,2.12,0,0,1-1.92,2.22c-1.24.08-2.49,0-3.77,0Z"/><path d="M0,14.19a7.82,7.82,0,0,0,5.47-1.63A4,4,0,0,1,1.91,9.83H3.39A4.32,4.32,0,0,1,.53,5.94l1.5.4a4.31,4.31,0,0,1-1-5.23A11.85,11.85,0,0,0,4.62,4,10.27,10.27,0,0,0,9,5.18a11.83,11.83,0,0,1,.12-1.71,3.82,3.82,0,0,1,6.28-2.12.65.65,0,0,0,.74.16C16.74,1.27,17.38,1,18,.8a5,5,0,0,1-1.38,2l1.81-.47.09.09c-.49.5-1,1-1.47,1.52a1.31,1.31,0,0,0-.35.73c-.16,4-1.7,7.33-5.12,9.51a10.6,10.6,0,0,1-11.41.22A1.25,1.25,0,0,1,0,14.29S0,14.26,0,14.19Z"/><path d="M93.85,4.74a4.64,4.64,0,0,1,4.5-4c2.33,0,4.65,0,7,0a4.76,4.76,0,0,1,4.58,4.59q.07,3.49,0,7a4.76,4.76,0,0,1-4.63,4.6q-3.46.06-6.93,0a4.78,4.78,0,0,1-4.61-4.62Zm1.51,4.08c0,1.06,0,2.12,0,3.19a3.21,3.21,0,0,0,3.32,3.32H105A3.21,3.21,0,0,0,108.31,12q0-3.14,0-6.27A3.21,3.21,0,0,0,105,2.38H98.69a3.21,3.21,0,0,0-3.33,3.31C95.35,6.73,95.35,7.78,95.35,8.82Z"/><path d="M101.85,4.68a4.18,4.18,0,1,1-4.19,4.16A4.15,4.15,0,0,1,101.85,4.68Zm2.54,4.19a2.55,2.55,0,1,0-2.59,2.54A2.54,2.54,0,0,0,104.38,8.87Z"/><ellipse cx="106.03" cy="4.7" rx="1" ry="0.99" transform="translate(100.62 110.69) rotate(-89.61)"/></g></g></svg>