<svg xmlns="http://www.w3.org/2000/svg" viewBox="0 0 16.41 16.41"><title>Asset 25</title><g id="Layer_2" data-name="Layer 2"><g id="Layer_1-2" data-name="Layer 1"><path d="M10.71,10.55c.62,0,1.21,0,1.79,0a.52.52,0,0,0,.61-.54c0-.47.08-.93.15-1.4s-.14-.7-.65-.68-1.24,0-1.91,0c0-.69,0-1.33,0-2a.86.86,0,0,1,.81-.8c.13,0,.27,0,.41,0,.41-.06,1.12,0,1.16-.21a6.13,6.13,0,0,0,.07-1.84c0-.1-.29-.26-.45-.26a14.87,14.87,0,0,0-2.16.09A2.69,2.69,0,0,0,8.2,5.34c-.1.83-.1,1.67-.14,2.6-.37,0-.76,0-1.13,0-.55,0-.74.2-.7.72a12,12,0,0,1,0,1.23c0,.46.16.69.65.66s.77,0,1.2,0v5.79a1.22,1.22,0,0,1-.27.06c-1.85,0-3.71,0-5.56,0A2.18,2.18,0,0,1,0,14.12Q0,8.21,0,2.3A2.18,2.18,0,0,1,2.3,0Q8.22,0,14.13,0A2.17,2.17,0,0,1,16.4,2.26q0,5.94,0,11.89a2.12,2.12,0,0,1-1.92,2.22c-1.24.08-2.49,0-3.77,0Z"/></g></g></svg>