<svg xmlns="http://www.w3.org/2000/svg" viewBox="0 0 109.72 109.72"><defs><style>.cls-1,.cls-2{fill:none;stroke:#000;stroke-miterlimit:10;}.cls-2{stroke-width:0.25px;}</style></defs><title>Asset 9</title><g id="Layer_2" data-name="Layer 2"><g id="Layer_2-2" data-name="Layer 2"><circle class="cls-1" cx="54.86" cy="54.86" r="54.36"/><circle class="cls-2" cx="54.49" cy="55.23" r="47.75"/><circle class="cls-2" cx="54.49" cy="55.23" r="46.6"/><circle class="cls-2" cx="54.49" cy="55.23" r="45.78"/><line class="cls-2" x1="54.86" y1="4.3" x2="56.74" y2="4.3"/><line class="cls-2" x1="52.98" y1="4.3" x2="54.86" y2="4.3"/><line class="cls-2" x1="54.86" y1="6.18" x2="54.86" y2="4.3"/><line class="cls-2" x1="54.86" y1="4.3" x2="54.86" y2="2.43"/><line class="cls-2" x1="44.23" y1="5.4" x2="46.08" y2="5.07"/><line class="cls-2" x1="46.08" y1="5.07" x2="47.93" y2="4.74"/><line class="cls-2" x1="46.41" y1="6.92" x2="46.08" y2="5.07"/><line class="cls-2" x1="46.08" y1="5.07" x2="45.75" y2="3.22"/><line class="cls-2" x1="35.8" y1="7.99" x2="37.57" y2="7.35"/><line class="cls-2" x1="37.57" y1="7.35" x2="39.33" y2="6.71"/><line class="cls-2" x1="37.57" y1="7.35" x2="36.93" y2="5.59"/><line class="cls-2" x1="38.21" y1="9.12" x2="37.57" y2="7.35"/><line class="cls-2" x1="27.96" y1="12.01" x2="29.58" y2="11.08"/><line class="cls-2" x1="29.58" y1="11.08" x2="31.21" y2="10.14"/><line class="cls-2" x1="30.52" y1="12.7" x2="29.58" y2="11.08"/><line class="cls-2" x1="29.58" y1="11.08" x2="28.64" y2="9.45"/><line class="cls-2" x1="20.92" y1="17.34" x2="22.36" y2="16.13"/><line class="cls-2" x1="22.36" y1="16.13" x2="23.8" y2="14.92"/><line class="cls-2" x1="22.36" y1="16.13" x2="21.16" y2="14.69"/><line class="cls-2" x1="23.57" y1="17.57" x2="22.36" y2="16.13"/><line class="cls-2" x1="16.13" y1="22.36" x2="14.92" y2="23.8"/><line class="cls-2" x1="17.34" y1="20.92" x2="16.13" y2="22.36"/><line class="cls-2" x1="14.69" y1="21.16" x2="16.13" y2="22.36"/><line class="cls-2" x1="17.57" y1="23.57" x2="16.13" y2="22.36"/><line class="cls-2" x1="10.14" y1="31.21" x2="11.08" y2="29.58"/><line class="cls-2" x1="11.08" y1="29.58" x2="12.01" y2="27.96"/><line class="cls-2" x1="11.08" y1="29.58" x2="12.7" y2="30.52"/><line class="cls-2" x1="9.45" y1="28.64" x2="11.08" y2="29.58"/><line class="cls-2" x1="7.35" y1="37.57" x2="7.99" y2="35.8"/><line class="cls-2" x1="6.71" y1="39.33" x2="7.35" y2="37.57"/><line class="cls-2" x1="7.35" y1="37.57" x2="5.59" y2="36.93"/><line class="cls-2" x1="7.35" y1="37.57" x2="9.12" y2="38.21"/><line class="cls-2" x1="5.07" y1="46.08" x2="5.4" y2="44.23"/><line class="cls-2" x1="5.07" y1="46.08" x2="4.74" y2="47.93"/><line class="cls-2" x1="3.22" y1="45.75" x2="5.07" y2="46.08"/><line class="cls-2" x1="6.92" y1="46.41" x2="5.07" y2="46.08"/><line class="cls-2" x1="4.3" y1="54.86" x2="4.3" y2="56.74"/><line class="cls-2" x1="4.3" y1="54.86" x2="4.3" y2="52.98"/><line class="cls-2" x1="4.3" y1="54.86" x2="2.43" y2="54.86"/><line class="cls-2" x1="6.18" y1="54.86" x2="4.3" y2="54.86"/><line class="cls-2" x1="4.74" y1="61.79" x2="5.07" y2="63.64"/><line class="cls-2" x1="5.07" y1="63.64" x2="5.4" y2="65.49"/><line class="cls-2" x1="5.07" y1="63.64" x2="3.22" y2="63.96"/><line class="cls-2" x1="6.92" y1="63.31" x2="5.07" y2="63.64"/><line class="cls-2" x1="6.71" y1="70.39" x2="7.35" y2="72.15"/><line class="cls-2" x1="7.35" y1="72.15" x2="7.99" y2="73.91"/><line class="cls-2" x1="7.35" y1="72.15" x2="5.59" y2="72.79"/><line class="cls-2" x1="9.12" y1="71.51" x2="7.35" y2="72.15"/><line class="cls-2" x1="10.14" y1="78.51" x2="11.08" y2="80.14"/><line class="cls-2" x1="11.08" y1="80.14" x2="12.01" y2="81.76"/><line class="cls-2" x1="12.7" y1="79.2" x2="11.08" y2="80.14"/><line class="cls-2" x1="11.08" y1="80.14" x2="9.45" y2="81.08"/><line class="cls-2" x1="16.13" y1="87.36" x2="17.34" y2="88.79"/><line class="cls-2" x1="14.92" y1="85.92" x2="16.13" y2="87.36"/><line class="cls-2" x1="17.57" y1="86.15" x2="16.13" y2="87.36"/><line class="cls-2" x1="16.13" y1="87.36" x2="14.69" y2="88.56"/><line class="cls-2" x1="23.8" y1="94.79" x2="22.36" y2="93.59"/><line class="cls-2" x1="22.36" y1="93.59" x2="20.92" y2="92.38"/><line class="cls-2" x1="23.57" y1="92.15" x2="22.36" y2="93.59"/><line class="cls-2" x1="22.36" y1="93.59" x2="21.16" y2="95.03"/><line class="cls-2" x1="29.58" y1="98.64" x2="27.96" y2="97.7"/><line class="cls-2" x1="31.21" y1="99.58" x2="29.58" y2="98.64"/><line class="cls-2" x1="30.52" y1="97.02" x2="29.58" y2="98.64"/><line class="cls-2" x1="29.58" y1="98.64" x2="28.64" y2="100.27"/><line class="cls-2" x1="39.33" y1="103.01" x2="37.57" y2="102.37"/><line class="cls-2" x1="37.57" y1="102.37" x2="35.8" y2="101.72"/><line class="cls-2" x1="38.21" y1="100.6" x2="37.57" y2="102.37"/><line class="cls-2" x1="37.57" y1="102.37" x2="36.93" y2="104.13"/><line class="cls-2" x1="47.93" y1="104.97" x2="46.08" y2="104.65"/><line class="cls-2" x1="46.08" y1="104.65" x2="44.23" y2="104.32"/><line class="cls-2" x1="46.08" y1="104.65" x2="45.75" y2="106.5"/><line class="cls-2" x1="46.41" y1="102.8" x2="46.08" y2="104.65"/><line class="cls-2" x1="56.74" y1="105.42" x2="54.86" y2="105.42"/><line class="cls-2" x1="54.86" y1="105.42" x2="52.98" y2="105.42"/><line class="cls-2" x1="54.86" y1="105.42" x2="54.86" y2="107.29"/><line class="cls-2" x1="54.86" y1="103.54" x2="54.86" y2="105.42"/><line class="cls-2" x1="63.64" y1="104.65" x2="61.79" y2="104.97"/><line class="cls-2" x1="65.49" y1="104.32" x2="63.64" y2="104.65"/><line class="cls-2" x1="63.64" y1="104.65" x2="63.96" y2="106.5"/><line class="cls-2" x1="63.31" y1="102.8" x2="63.64" y2="104.65"/><line class="cls-2" x1="72.15" y1="102.37" x2="70.39" y2="103.01"/><line class="cls-2" x1="73.91" y1="101.72" x2="72.15" y2="102.37"/><line class="cls-2" x1="72.15" y1="102.37" x2="72.79" y2="104.13"/><line class="cls-2" x1="71.51" y1="100.6" x2="72.15" y2="102.37"/><line class="cls-2" x1="80.14" y1="98.64" x2="78.51" y2="99.58"/><line class="cls-2" x1="81.76" y1="97.7" x2="80.14" y2="98.64"/><line class="cls-2" x1="79.2" y1="97.02" x2="80.14" y2="98.64"/><line class="cls-2" x1="80.14" y1="98.64" x2="81.08" y2="100.27"/><line class="cls-2" x1="88.79" y1="92.38" x2="87.36" y2="93.59"/><line class="cls-2" x1="87.36" y1="93.59" x2="85.92" y2="94.79"/><line class="cls-2" x1="86.15" y1="92.15" x2="87.36" y2="93.59"/><line class="cls-2" x1="87.36" y1="93.59" x2="88.56" y2="95.03"/><line class="cls-2" x1="94.79" y1="85.92" x2="93.59" y2="87.36"/><line class="cls-2" x1="93.59" y1="87.36" x2="92.38" y2="88.79"/><line class="cls-2" x1="95.03" y1="88.56" x2="93.59" y2="87.36"/><line class="cls-2" x1="93.59" y1="87.36" x2="92.15" y2="86.15"/><line class="cls-2" x1="98.64" y1="80.14" x2="97.7" y2="81.76"/><line class="cls-2" x1="99.58" y1="78.51" x2="98.64" y2="80.14"/><line class="cls-2" x1="98.64" y1="80.14" x2="97.02" y2="79.2"/><line class="cls-2" x1="100.27" y1="81.08" x2="98.64" y2="80.14"/><line class="cls-2" x1="103.01" y1="70.39" x2="102.37" y2="72.15"/><line class="cls-2" x1="102.37" y1="72.15" x2="101.72" y2="73.91"/><line class="cls-2" x1="104.13" y1="72.79" x2="102.37" y2="72.15"/><line class="cls-2" x1="102.37" y1="72.15" x2="100.6" y2="71.51"/><line class="cls-2" x1="104.65" y1="63.64" x2="104.32" y2="65.49"/><line class="cls-2" x1="104.65" y1="63.64" x2="104.97" y2="61.79"/><line class="cls-2" x1="104.65" y1="63.64" x2="102.8" y2="63.31"/><line class="cls-2" x1="106.5" y1="63.96" x2="104.65" y2="63.64"/><line class="cls-2" x1="105.42" y1="54.86" x2="105.42" y2="56.74"/><line class="cls-2" x1="105.42" y1="54.86" x2="105.42" y2="52.98"/><line class="cls-2" x1="105.42" y1="54.86" x2="107.29" y2="54.86"/><line class="cls-2" x1="103.54" y1="54.86" x2="105.42" y2="54.86"/><line class="cls-2" x1="104.32" y1="44.23" x2="104.65" y2="46.08"/><line class="cls-2" x1="104.65" y1="46.08" x2="104.97" y2="47.93"/><line class="cls-2" x1="104.65" y1="46.08" x2="102.8" y2="46.41"/><line class="cls-2" x1="104.65" y1="46.08" x2="106.5" y2="45.75"/><line class="cls-2" x1="102.37" y1="37.57" x2="103.01" y2="39.33"/><line class="cls-2" x1="101.72" y1="35.8" x2="102.37" y2="37.57"/><line class="cls-2" x1="104.13" y1="36.93" x2="102.37" y2="37.57"/><line class="cls-2" x1="100.6" y1="38.21" x2="102.37" y2="37.57"/><line class="cls-2" x1="98.64" y1="29.58" x2="97.7" y2="27.96"/><line class="cls-2" x1="99.58" y1="31.21" x2="98.64" y2="29.58"/><line class="cls-2" x1="97.02" y1="30.52" x2="98.64" y2="29.58"/><line class="cls-2" x1="98.64" y1="29.58" x2="100.27" y2="28.64"/><line class="cls-2" x1="93.59" y1="22.36" x2="92.38" y2="20.92"/><line class="cls-2" x1="94.79" y1="23.8" x2="93.59" y2="22.36"/><line class="cls-2" x1="92.15" y1="23.57" x2="93.59" y2="22.36"/><line class="cls-2" x1="93.59" y1="22.36" x2="95.03" y2="21.16"/><line class="cls-2" x1="85.92" y1="14.92" x2="87.36" y2="16.13"/><line class="cls-2" x1="87.36" y1="16.13" x2="88.79" y2="17.34"/><line class="cls-2" x1="86.15" y1="17.57" x2="87.36" y2="16.13"/><line class="cls-2" x1="87.36" y1="16.13" x2="88.56" y2="14.69"/><line class="cls-2" x1="80.14" y1="11.08" x2="81.76" y2="12.01"/><line class="cls-2" x1="78.51" y1="10.14" x2="80.14" y2="11.08"/><line class="cls-2" x1="79.2" y1="12.7" x2="80.14" y2="11.08"/><line class="cls-2" x1="80.14" y1="11.08" x2="81.08" y2="9.45"/><line class="cls-2" x1="72.15" y1="7.35" x2="73.91" y2="7.99"/><line class="cls-2" x1="70.39" y1="6.71" x2="72.15" y2="7.35"/><line class="cls-2" x1="71.51" y1="9.12" x2="72.15" y2="7.35"/><line class="cls-2" x1="72.15" y1="7.35" x2="72.79" y2="5.59"/><line class="cls-2" x1="63.64" y1="5.07" x2="65.49" y2="5.4"/><line class="cls-2" x1="61.79" y1="4.74" x2="63.64" y2="5.07"/><line class="cls-2" x1="63.64" y1="5.07" x2="63.96" y2="3.22"/><line class="cls-2" x1="63.31" y1="6.92" x2="63.64" y2="5.07"/><path class="cls-2" d="M53.26,37a1.32,1.32,0,0,1-1.31.22,4.14,4.14,0,0,1-2.65-2.65,1.32,1.32,0,0,1,.22-1.31"/><line class="cls-2" x1="56.34" y1="33.9" x2="53.26" y2="36.98"/><line class="cls-2" x1="52.6" y1="30.15" x2="49.51" y2="33.23"/><path class="cls-2" d="M56.34,33.9a1.32,1.32,0,0,0,.22-1.31,4.14,4.14,0,0,0-2.65-2.65,1.32,1.32,0,0,0-1.31.22"/><path class="cls-2" d="M56.34,33.9a1.32,1.32,0,0,1-1.31.22,4.14,4.14,0,0,1-2.65-2.65,1.32,1.32,0,0,1,.22-1.31"/><line class="cls-2" x1="57.25" y1="40.98" x2="57.25" y2="40.98"/><path class="cls-2" d="M57.25,41A1.32,1.32,0,0,0,57,42.29a4.14,4.14,0,0,0,2.65,2.65A1.32,1.32,0,0,0,61,44.72"/><line class="cls-2" x1="61" y1="44.72" x2="64.09" y2="41.64"/><line class="cls-2" x1="60.34" y1="37.89" x2="57.25" y2="40.98"/><polyline class="cls-2" points="57.25 40.98 57.25 40.98 57.25 40.98"/><path class="cls-2" d="M64.09,41.64a1.32,1.32,0,0,0,.22-1.31,4.14,4.14,0,0,0-2.65-2.65,1.32,1.32,0,0,0-1.31.22"/><path class="cls-2" d="M64.09,41.64a1.32,1.32,0,0,1-1.31.22,4.14,4.14,0,0,1-2.65-2.65,1.32,1.32,0,0,1,.22-1.31"/><line class="cls-2" x1="64.99" y1="48.72" x2="64.99" y2="48.72"/><path class="cls-2" d="M65,48.72A1.32,1.32,0,0,0,64.78,50a4.14,4.14,0,0,0,2.65,2.65,1.32,1.32,0,0,0,1.31-.22"/><line class="cls-2" x1="68.08" y1="45.63" x2="64.99" y2="48.72"/><line class="cls-2" x1="71.83" y1="49.38" x2="68.74" y2="52.47"/><polyline class="cls-2" points="64.99 48.72 64.99 48.72 64.99 48.72"/><path class="cls-2" d="M71.83,49.38A1.32,1.32,0,0,0,72,48.07a4.14,4.14,0,0,0-2.65-2.65,1.32,1.32,0,0,0-1.31.22"/><path class="cls-2" d="M68.08,45.63a1.32,1.32,0,0,0-.22,1.31,4.14,4.14,0,0,0,2.65,2.65,1.32,1.32,0,0,0,1.31-.22"/><line class="cls-2" x1="76.48" y1="60.21" x2="76.48" y2="60.21"/><path class="cls-2" d="M76.48,60.21a1.32,1.32,0,0,1-1.31.22,4.14,4.14,0,0,1-2.65-2.65,1.32,1.32,0,0,1,.22-1.31"/><line class="cls-2" x1="75.82" y1="53.37" x2="72.74" y2="56.46"/><line class="cls-2" x1="79.57" y1="57.12" x2="76.48" y2="60.21"/><polyline class="cls-2" points="76.48 60.21 76.48 60.21 76.48 60.21"/><path class="cls-2" d="M79.57,57.12a1.32,1.32,0,0,0,.22-1.31,4.14,4.14,0,0,0-2.65-2.65,1.32,1.32,0,0,0-1.31.22"/><path class="cls-2" d="M79.57,57.12a1.32,1.32,0,0,1-1.31.22,4.14,4.14,0,0,1-2.65-2.65,1.32,1.32,0,0,1,.22-1.31"/><line class="cls-2" x1="42.81" y1="39.94" x2="42.81" y2="39.93"/><path class="cls-2" d="M42.81,39.94a1.32,1.32,0,0,0-.22,1.31,4.14,4.14,0,0,0,2.65,2.65,1.32,1.32,0,0,0,1.31-.22"/><line class="cls-2" x1="45.9" y1="36.85" x2="42.81" y2="39.93"/><line class="cls-2" x1="46.56" y1="43.68" x2="49.64" y2="40.6"/><polyline class="cls-2" points="42.81 39.94 42.81 39.94 42.81 39.94"/><path class="cls-2" d="M49.64,40.6a1.32,1.32,0,0,0,.22-1.31,4.14,4.14,0,0,0-2.65-2.65,1.32,1.32,0,0,0-1.31.22"/><path class="cls-2" d="M49.64,40.6a1.32,1.32,0,0,1-1.31.22,4.14,4.14,0,0,1-2.65-2.65,1.32,1.32,0,0,1,.22-1.31"/><line class="cls-2" x1="54.3" y1="51.42" x2="54.3" y2="51.42"/><path class="cls-2" d="M50.55,47.68A1.32,1.32,0,0,0,50.34,49,4.14,4.14,0,0,0,53,51.64a1.32,1.32,0,0,0,1.31-.22"/><line class="cls-2" x1="50.55" y1="47.68" x2="53.64" y2="44.59"/><line class="cls-2" x1="57.39" y1="48.34" x2="54.3" y2="51.42"/><polyline class="cls-2" points="54.3 51.42 54.3 51.42 54.3 51.42"/><path class="cls-2" d="M57.39,48.34A1.32,1.32,0,0,0,57.6,47,4.14,4.14,0,0,0,55,44.38a1.32,1.32,0,0,0-1.31.22"/><path class="cls-2" d="M53.64,44.59a1.32,1.32,0,0,0-.22,1.31,4.14,4.14,0,0,0,2.65,2.65,1.32,1.32,0,0,0,1.31-.22"/><path class="cls-2" d="M62,59.17a1.32,1.32,0,0,1-1.31.22,4.14,4.14,0,0,1-2.65-2.65,1.32,1.32,0,0,1,.22-1.31"/><line class="cls-2" x1="65.13" y1="56.08" x2="62.04" y2="59.17"/><line class="cls-2" x1="61.38" y1="52.33" x2="58.29" y2="55.42"/><path class="cls-2" d="M65.13,56.08a1.32,1.32,0,0,0,.22-1.31,4.14,4.14,0,0,0-2.65-2.65,1.32,1.32,0,0,0-1.31.22"/><path class="cls-2" d="M65.13,56.08a1.32,1.32,0,0,1-1.31.22,4.14,4.14,0,0,1-2.65-2.65,1.32,1.32,0,0,1,.22-1.31"/><path class="cls-2" d="M66,63.16a1.32,1.32,0,0,0-.22,1.31,4.14,4.14,0,0,0,2.65,2.65,1.32,1.32,0,0,0,1.31-.22"/><line class="cls-2" x1="66.04" y1="63.16" x2="66.04" y2="63.16"/><line class="cls-2" x1="72.87" y1="63.82" x2="69.78" y2="66.91"/><line class="cls-2" x1="69.12" y1="60.07" x2="66.04" y2="63.16"/><polyline class="cls-2" points="66.03 63.16 66.03 63.16 66.03 63.16"/><path class="cls-2" d="M72.87,63.82a1.32,1.32,0,0,0,.22-1.31,4.14,4.14,0,0,0-2.65-2.65,1.32,1.32,0,0,0-1.31.22"/><path class="cls-2" d="M72.87,63.82a1.32,1.32,0,0,1-1.31.22,4.14,4.14,0,0,1-2.65-2.65,1.32,1.32,0,0,1,.22-1.31"/><line class="cls-2" x1="39.86" y1="50.38" x2="39.86" y2="50.38"/><path class="cls-2" d="M36.11,46.64a1.32,1.32,0,0,0-.22,1.31,4.14,4.14,0,0,0,2.65,2.65,1.32,1.32,0,0,0,1.31-.22"/><line class="cls-2" x1="42.94" y1="47.3" x2="39.86" y2="50.38"/><line class="cls-2" x1="39.2" y1="43.55" x2="36.11" y2="46.64"/><polyline class="cls-2" points="39.86 50.38 39.86 50.38 39.86 50.38"/><path class="cls-2" d="M42.94,47.3A1.32,1.32,0,0,0,43.16,46a4.14,4.14,0,0,0-2.65-2.65,1.32,1.32,0,0,0-1.31.22"/><path class="cls-2" d="M39.2,43.55A1.32,1.32,0,0,0,39,44.86a4.14,4.14,0,0,0,2.65,2.65,1.32,1.32,0,0,0,1.31-.22"/><path class="cls-2" d="M47.6,58.13a1.32,1.32,0,0,1-1.31.22,4.14,4.14,0,0,1-2.65-2.65,1.32,1.32,0,0,1,.22-1.31"/><line class="cls-2" x1="46.94" y1="51.29" x2="43.85" y2="54.38"/><line class="cls-2" x1="50.69" y1="55.04" x2="47.6" y2="58.13"/><path class="cls-2" d="M50.69,55a1.32,1.32,0,0,0,.22-1.31,4.14,4.14,0,0,0-2.65-2.65,1.32,1.32,0,0,0-1.31.22"/><path class="cls-2" d="M50.69,55a1.32,1.32,0,0,1-1.31.22,4.14,4.14,0,0,1-2.65-2.65,1.32,1.32,0,0,1,.22-1.31"/><path class="cls-2" d="M51.59,62.12a1.32,1.32,0,0,0-.22,1.31A4.14,4.14,0,0,0,54,66.08a1.32,1.32,0,0,0,1.31-.22"/><line class="cls-2" x1="51.59" y1="62.12" x2="51.59" y2="62.12"/><line class="cls-2" x1="58.43" y1="62.78" x2="55.34" y2="65.87"/><line class="cls-2" x1="54.68" y1="59.03" x2="51.59" y2="62.12"/><polyline class="cls-2" points="51.59 62.12 51.59 62.12 51.59 62.12"/><path class="cls-2" d="M58.43,62.78a1.32,1.32,0,0,0,.22-1.31A4.14,4.14,0,0,0,56,58.82a1.32,1.32,0,0,0-1.31.22"/><path class="cls-2" d="M58.43,62.78a1.32,1.32,0,0,1-1.31.22,4.14,4.14,0,0,1-2.65-2.65A1.32,1.32,0,0,1,54.68,59"/><path class="cls-2" d="M59.33,69.86a1.32,1.32,0,0,0-.22,1.31,4.14,4.14,0,0,0,2.65,2.65,1.32,1.32,0,0,0,1.31-.22"/><line class="cls-2" x1="62.42" y1="66.78" x2="59.33" y2="69.86"/><line class="cls-2" x1="63.08" y1="73.61" x2="66.17" y2="70.52"/><path class="cls-2" d="M62.42,66.78a1.32,1.32,0,0,1,1.31-.22,4.14,4.14,0,0,1,2.65,2.65,1.32,1.32,0,0,1-.22,1.31"/><path class="cls-2" d="M62.42,66.78a1.32,1.32,0,0,0-.22,1.31,4.14,4.14,0,0,0,2.65,2.65,1.32,1.32,0,0,0,1.31-.22"/><path class="cls-2" d="M33.16,57.08a1.32,1.32,0,0,1-1.31.22,4.14,4.14,0,0,1-2.65-2.65,1.32,1.32,0,0,1,.22-1.31"/><line class="cls-2" x1="33.16" y1="57.08" x2="33.16" y2="57.08"/><line class="cls-2" x1="36.24" y1="54" x2="33.16" y2="57.08"/><line class="cls-2" x1="32.5" y1="50.25" x2="29.41" y2="53.34"/><polyline class="cls-2" points="33.16 57.08 33.16 57.08 33.16 57.08"/><path class="cls-2" d="M36.24,54a1.32,1.32,0,0,0,.22-1.31A4.14,4.14,0,0,0,33.81,50a1.32,1.32,0,0,0-1.31.22"/><path class="cls-2" d="M36.24,54a1.32,1.32,0,0,1-1.31.22,4.14,4.14,0,0,1-2.65-2.65,1.32,1.32,0,0,1,.22-1.31"/><path class="cls-2" d="M37.15,61.08a1.32,1.32,0,0,0-.22,1.31A4.14,4.14,0,0,0,39.59,65a1.32,1.32,0,0,0,1.31-.22"/><line class="cls-2" x1="40.9" y1="64.83" x2="43.98" y2="61.74"/><line class="cls-2" x1="37.15" y1="61.08" x2="40.24" y2="57.99"/><path class="cls-2" d="M44,61.74a1.32,1.32,0,0,0,.22-1.31,4.14,4.14,0,0,0-2.65-2.65,1.32,1.32,0,0,0-1.31.22"/><path class="cls-2" d="M44,61.74a1.32,1.32,0,0,1-1.31.22A4.14,4.14,0,0,1,40,59.31,1.32,1.32,0,0,1,40.24,58"/><line class="cls-2" x1="48.64" y1="72.57" x2="48.64" y2="72.57"/><path class="cls-2" d="M44.89,68.82a1.32,1.32,0,0,0-.22,1.31,4.14,4.14,0,0,0,2.65,2.65,1.32,1.32,0,0,0,1.31-.22"/><line class="cls-2" x1="47.98" y1="65.73" x2="44.89" y2="68.82"/><line class="cls-2" x1="51.73" y1="69.48" x2="48.64" y2="72.57"/><polyline class="cls-2" points="48.64 72.57 48.64 72.57 48.64 72.57"/><path class="cls-2" d="M48,65.73a1.32,1.32,0,0,1,1.31-.22,4.14,4.14,0,0,1,2.65,2.65,1.32,1.32,0,0,1-.22,1.31"/><path class="cls-2" d="M48,65.73A1.32,1.32,0,0,0,47.76,67a4.14,4.14,0,0,0,2.65,2.65,1.32,1.32,0,0,0,1.31-.22"/><line class="cls-2" x1="52.64" y1="76.56" x2="52.64" y2="76.56"/><path class="cls-2" d="M52.64,76.56a1.32,1.32,0,0,0-.22,1.31,4.14,4.14,0,0,0,2.65,2.65,1.32,1.32,0,0,0,1.31-.22"/><line class="cls-2" x1="56.38" y1="80.31" x2="59.47" y2="77.22"/><line class="cls-2" x1="52.64" y1="76.56" x2="55.72" y2="73.48"/><polyline class="cls-2" points="52.63 76.56 52.63 76.56 52.63 76.56"/><path class="cls-2" d="M55.72,73.48A1.32,1.32,0,0,1,57,73.26a4.14,4.14,0,0,1,2.65,2.65,1.32,1.32,0,0,1-.22,1.31"/><path class="cls-2" d="M55.72,73.48a1.32,1.32,0,0,0-.22,1.31,4.14,4.14,0,0,0,2.65,2.65,1.32,1.32,0,0,0,1.31-.22"/><line class="cls-2" x1="54.86" y1="14.69" x2="54.86" y2="11.08"/><rect class="cls-2" x="54.44" y="15.19" width="0.85" height="2.7"/><line class="cls-2" x1="51.01" y1="11.21" x2="51.32" y2="14.82"/><rect class="cls-2" x="51.06" y="15.3" width="0.85" height="2.7" transform="translate(-1.25 4.55) rotate(-5)"/><line class="cls-2" x1="47.19" y1="11.68" x2="47.81" y2="15.24"/><rect class="cls-2" x="47.71" y="15.71" width="0.85" height="2.7" transform="matrix(0.98, -0.17, 0.17, 0.98, -2.23, 8.62)"/><line class="cls-2" x1="43.42" y1="12.48" x2="44.35" y2="15.98"/><rect class="cls-2" x="44.41" y="16.41" width="0.85" height="2.7" transform="translate(-3.07 12.21) rotate(-15)"/><line class="cls-2" x1="39.74" y1="13.61" x2="40.97" y2="17.01"/><rect class="cls-2" x="41.18" y="17.39" width="0.85" height="2.7" transform="translate(-3.9 15.36) rotate(-20)"/><line class="cls-2" x1="36.16" y1="15.06" x2="37.69" y2="18.33"/><rect class="cls-2" x="38.05" y="18.66" width="0.85" height="2.7" transform="translate(-4.85 18.13) rotate(-25)"/><line class="cls-2" x1="32.73" y1="16.81" x2="34.54" y2="19.94"/><rect class="cls-2" x="35.04" y="20.19" width="0.85" height="2.7" transform="translate(-6.02 20.62) rotate(-30)"/><line class="cls-2" x1="29.47" y1="18.85" x2="31.54" y2="21.81"/><rect class="cls-2" x="32.17" y="21.97" width="0.85" height="2.7" transform="matrix(0.82, -0.57, 0.57, 0.82, -7.48, 22.92)"/><line class="cls-2" x1="26.39" y1="21.17" x2="28.72" y2="23.94"/><rect class="cls-2" x="29.48" y="24" width="0.85" height="2.7" transform="translate(-9.3 25.15) rotate(-40)"/><line class="cls-2" x1="23.53" y1="23.75" x2="26.09" y2="26.3"/><rect class="cls-2" x="26.97" y="26.26" width="0.85" height="2.7" transform="translate(-11.5 27.45) rotate(-45)"/><line class="cls-2" x1="23.67" y1="28.89" x2="20.9" y2="26.56"/><rect class="cls-2" x="24.66" y="28.73" width="0.85" height="2.7" transform="translate(-14.08 29.96) rotate(-50)"/><line class="cls-2" x1="21.5" y1="31.68" x2="18.53" y2="29.6"/><rect class="cls-2" x="22.58" y="31.38" width="0.85" height="2.7" transform="translate(-17 32.8) rotate(-55)"/><line class="cls-2" x1="19.57" y1="34.64" x2="16.44" y2="32.83"/><rect class="cls-2" x="20.74" y="34.21" width="0.85" height="2.7" transform="translate(-20.22 36.11) rotate(-60.01)"/><line class="cls-2" x1="17.91" y1="37.76" x2="14.63" y2="36.23"/><rect class="cls-2" x="19.15" y="37.19" width="0.85" height="2.7" transform="translate(-23.63 40) rotate(-65)"/><line class="cls-2" x1="16.52" y1="41.02" x2="13.13" y2="39.78"/><rect class="cls-2" x="17.83" y="40.3" width="0.85" height="2.7" transform="translate(-27.12 44.56) rotate(-70.01)"/><line class="cls-2" x1="15.43" y1="44.38" x2="11.94" y2="43.44"/><rect class="cls-2" x="16.79" y="43.51" width="0.85" height="2.7" transform="translate(-30.57 49.87) rotate(-75)"/><line class="cls-2" x1="14.63" y1="47.83" x2="11.07" y2="47.2"/><rect class="cls-2" x="16.02" y="46.8" width="0.85" height="2.7" transform="translate(-33.82 55.99) rotate(-80.01)"/><line class="cls-2" x1="14.14" y1="51.33" x2="10.54" y2="51.01"/><rect class="cls-2" x="15.55" y="50.14" width="0.85" height="2.7" transform="translate(-36.71 62.9) rotate(-84.99)"/><line class="cls-2" x1="13.95" y1="54.86" x2="10.34" y2="54.86"/><rect class="cls-2" x="14.45" y="54.44" width="2.7" height="0.85"/><line class="cls-2" x1="14.08" y1="58.39" x2="10.47" y2="58.71"/><rect class="cls-2" x="14.56" y="57.81" width="2.7" height="0.85" transform="translate(-5.03 1.61) rotate(-5.01)"/><line class="cls-2" x1="14.5" y1="61.9" x2="10.94" y2="62.53"/><rect class="cls-2" x="14.97" y="61.16" width="2.7" height="0.85" transform="translate(-10.44 3.77) rotate(-9.99)"/><line class="cls-2" x1="15.24" y1="65.36" x2="11.75" y2="66.3"/><rect class="cls-2" x="15.67" y="64.46" width="2.7" height="0.85" transform="translate(-16.22 6.62) rotate(-15)"/><line class="cls-2" x1="16.27" y1="68.75" x2="12.87" y2="69.98"/><rect class="cls-2" x="16.65" y="67.69" width="2.7" height="0.85" transform="translate(-22.21 10.26) rotate(-19.99)"/><line class="cls-2" x1="17.59" y1="72.03" x2="14.32" y2="73.55"/><rect class="cls-2" x="17.92" y="70.82" width="2.7" height="0.85" transform="translate(-28.31 14.82) rotate(-25)"/><line class="cls-2" x1="19.2" y1="75.18" x2="16.07" y2="76.99"/><rect class="cls-2" x="19.45" y="73.83" width="2.7" height="0.85" transform="translate(-34.35 20.35) rotate(-30.01)"/><line class="cls-2" x1="21.07" y1="78.18" x2="18.11" y2="80.25"/><rect class="cls-2" x="21.23" y="76.7" width="2.7" height="0.85" transform="translate(-40.15 26.9) rotate(-35)"/><line class="cls-2" x1="23.2" y1="81" x2="20.43" y2="83.33"/><rect class="cls-2" x="23.26" y="79.39" width="2.7" height="0.85" transform="translate(-45.54 34.48) rotate(-39.99)"/><line class="cls-2" x1="25.56" y1="83.63" x2="23.01" y2="86.19"/><rect class="cls-2" x="25.52" y="81.9" width="2.7" height="0.85" transform="translate(-50.35 43.12) rotate(-45)"/><line class="cls-2" x1="28.15" y1="86.04" x2="25.83" y2="88.81"/><rect class="cls-2" x="27.99" y="84.21" width="2.7" height="0.85" transform="translate(-54.35 52.7) rotate(-50)"/><line class="cls-2" x1="30.94" y1="88.22" x2="28.86" y2="91.18"/><rect class="cls-2" x="30.64" y="86.29" width="2.7" height="0.85" transform="translate(-57.39 63.18) rotate(-55)"/><line class="cls-2" x1="33.9" y1="90.15" x2="32.09" y2="93.28"/><rect class="cls-2" x="33.47" y="88.13" width="2.7" height="0.85" transform="translate(-59.28 74.43) rotate(-60)"/><line class="cls-2" x1="37.02" y1="91.81" x2="35.49" y2="95.09"/><rect class="cls-2" x="36.45" y="89.72" width="2.7" height="0.85" transform="translate(-59.87 86.31) rotate(-65)"/><line class="cls-2" x1="40.28" y1="93.19" x2="39.04" y2="96.59"/><rect class="cls-2" x="39.56" y="91.04" width="2.7" height="0.85" transform="translate(-59.03 98.62) rotate(-70)"/><line class="cls-2" x1="43.64" y1="94.29" x2="42.7" y2="97.78"/><rect class="cls-2" x="42.77" y="92.09" width="2.7" height="0.85" transform="translate(-56.66 111.18) rotate(-75)"/><line class="cls-2" x1="47.09" y1="95.09" x2="46.46" y2="98.65"/><rect class="cls-2" x="46.06" y="92.85" width="2.7" height="0.85" transform="translate(-52.68 123.77) rotate(-80)"/><line class="cls-2" x1="50.59" y1="95.58" x2="50.27" y2="99.18"/><rect class="cls-2" x="49.4" y="93.32" width="2.7" height="0.85" transform="translate(-47.06 136.13) rotate(-85)"/><line class="cls-2" x1="54.12" y1="95.77" x2="54.12" y2="99.38"/><rect class="cls-2" x="53.7" y="92.58" width="0.85" height="2.7"/><line class="cls-2" x1="57.97" y1="99.25" x2="57.65" y2="95.64"/><rect class="cls-2" x="57.07" y="92.46" width="0.85" height="2.7" transform="translate(-7.96 5.37) rotate(-5)"/><line class="cls-2" x1="61.79" y1="98.78" x2="61.16" y2="95.21"/><rect class="cls-2" x="60.42" y="92.05" width="0.85" height="2.7" transform="matrix(0.98, -0.17, 0.17, 0.98, -15.3, 11.99)"/><line class="cls-2" x1="65.56" y1="97.97" x2="64.62" y2="94.48"/><rect class="cls-2" x="63.72" y="91.35" width="0.85" height="2.7" transform="translate(-21.8 19.76) rotate(-15)"/><line class="cls-2" x1="69.24" y1="96.85" x2="68.01" y2="93.45"/><rect class="cls-2" x="66.95" y="90.37" width="0.85" height="2.7" transform="translate(-27.3 28.57) rotate(-20)"/><line class="cls-2" x1="72.81" y1="95.4" x2="71.29" y2="92.12"/><rect class="cls-2" x="70.08" y="89.11" width="0.85" height="2.7" transform="translate(-31.62 38.27) rotate(-25)"/><line class="cls-2" x1="76.25" y1="93.65" x2="74.44" y2="90.52"/><rect class="cls-2" x="73.09" y="87.58" width="0.85" height="2.7" transform="translate(-34.61 48.66) rotate(-29.99)"/><line class="cls-2" x1="79.51" y1="91.61" x2="77.44" y2="88.65"/><rect class="cls-2" x="75.96" y="85.79" width="0.85" height="2.7" transform="translate(-36.17 59.56) rotate(-35)"/><line class="cls-2" x1="82.59" y1="89.29" x2="80.26" y2="86.52"/><rect class="cls-2" x="78.65" y="83.76" width="0.85" height="2.7" transform="translate(-36.21 70.75) rotate(-40)"/><line class="cls-2" x1="85.45" y1="86.71" x2="82.89" y2="84.15"/><rect class="cls-2" x="81.17" y="81.5" width="0.85" height="2.7" transform="translate(-34.69 81.96) rotate(-45)"/><line class="cls-2" x1="85.3" y1="81.57" x2="88.07" y2="83.89"/><rect class="cls-2" x="83.47" y="79.04" width="0.85" height="2.7" transform="translate(-31.61 92.97) rotate(-50)"/><line class="cls-2" x1="87.48" y1="78.78" x2="90.45" y2="80.86"/><rect class="cls-2" x="85.55" y="76.38" width="0.85" height="2.7" transform="translate(-27.01 103.57) rotate(-55)"/><line class="cls-2" x1="89.41" y1="75.82" x2="92.54" y2="77.63"/><rect class="cls-2" x="87.39" y="73.55" width="0.85" height="2.7" transform="translate(-20.95 113.51) rotate(-60.01)"/><line class="cls-2" x1="91.07" y1="72.7" x2="94.35" y2="74.22"/><rect class="cls-2" x="88.98" y="70.57" width="0.85" height="2.7" transform="translate(-13.56 122.55) rotate(-65)"/><line class="cls-2" x1="92.45" y1="69.44" x2="95.85" y2="70.68"/><rect class="cls-2" x="90.3" y="67.46" width="0.85" height="2.7" transform="matrix(0.34, -0.94, 0.94, 0.34, -4.98, 130.51)"/><line class="cls-2" x1="93.55" y1="66.08" x2="97.04" y2="67.01"/><rect class="cls-2" x="91.35" y="64.25" width="0.85" height="2.7" transform="translate(4.65 137.26) rotate(-75)"/><line class="cls-2" x1="94.35" y1="62.63" x2="97.91" y2="63.26"/><rect class="cls-2" x="92.11" y="60.96" width="0.85" height="2.7" transform="translate(15.11 142.63) rotate(-80.01)"/><line class="cls-2" x1="94.84" y1="59.13" x2="98.44" y2="59.45"/><rect class="cls-2" x="92.58" y="57.62" width="0.85" height="2.7" transform="translate(26.16 146.49) rotate(-85.01)"/><line class="cls-2" x1="95.03" y1="55.6" x2="98.64" y2="55.6"/><rect class="cls-2" x="91.84" y="55.18" width="2.7" height="0.85"/><line class="cls-2" x1="94.9" y1="52.06" x2="98.51" y2="51.75"/><rect class="cls-2" x="91.72" y="51.8" width="2.7" height="0.85" transform="translate(-4.19 8.3) rotate(-4.99)"/><line class="cls-2" x1="94.47" y1="48.55" x2="98.04" y2="47.93"/><rect class="cls-2" x="91.31" y="48.45" width="2.7" height="0.85" transform="translate(-7.08 16.82) rotate(-9.99)"/><line class="cls-2" x1="93.74" y1="45.09" x2="97.23" y2="44.16"/><rect class="cls-2" x="90.61" y="45.15" width="2.7" height="0.85" transform="translate(-8.66 25.36) rotate(-15)"/><line class="cls-2" x1="92.71" y1="41.71" x2="96.11" y2="40.48"/><rect class="cls-2" x="89.63" y="41.92" width="2.7" height="0.85" transform="translate(-9 33.69) rotate(-20.01)"/><line class="cls-2" x1="91.38" y1="38.43" x2="94.66" y2="36.9"/><rect class="cls-2" x="88.37" y="38.79" width="2.7" height="0.85" transform="translate(-8.17 41.59) rotate(-25)"/><line class="cls-2" x1="89.78" y1="35.28" x2="92.91" y2="33.47"/><rect class="cls-2" x="86.84" y="35.78" width="2.7" height="0.85" transform="translate(-6.29 48.93) rotate(-29.99)"/><line class="cls-2" x1="87.91" y1="32.28" x2="90.87" y2="30.21"/><rect class="cls-2" x="85.05" y="32.91" width="2.7" height="0.85" transform="translate(-3.5 55.59) rotate(-35)"/><line class="cls-2" x1="85.78" y1="29.46" x2="88.55" y2="27.13"/><rect class="cls-2" x="83.02" y="30.22" width="2.7" height="0.85" transform="translate(0.05 61.41) rotate(-40)"/><line class="cls-2" x1="83.41" y1="26.83" x2="85.97" y2="24.27"/><rect class="cls-2" x="80.76" y="27.71" width="2.7" height="0.85" transform="translate(4.16 66.3) rotate(-45)"/><line class="cls-2" x1="80.83" y1="24.41" x2="83.15" y2="21.64"/><rect class="cls-2" x="78.3" y="25.4" width="2.7" height="0.85" transform="translate(8.67 70.24) rotate(-50)"/><line class="cls-2" x1="78.04" y1="22.24" x2="80.12" y2="19.27"/><rect class="cls-2" x="75.64" y="23.32" width="2.7" height="0.85" transform="translate(13.38 73.19) rotate(-55)"/><line class="cls-2" x1="75.08" y1="20.31" x2="76.89" y2="17.18"/><rect class="cls-2" x="72.81" y="21.48" width="2.7" height="0.85" transform="translate(18.11 75.17) rotate(-60)"/><line class="cls-2" x1="71.96" y1="18.65" x2="73.48" y2="15.37"/><rect class="cls-2" x="69.83" y="19.89" width="2.7" height="0.85" transform="translate(22.69 76.24) rotate(-65)"/><line class="cls-2" x1="68.7" y1="17.26" x2="69.94" y2="13.87"/><rect class="cls-2" x="66.72" y="18.57" width="2.7" height="0.85" transform="translate(26.94 76.46) rotate(-70)"/><line class="cls-2" x1="65.34" y1="16.17" x2="66.27" y2="12.68"/><rect class="cls-2" x="63.51" y="17.53" width="2.7" height="0.85" transform="translate(30.74 75.96) rotate(-75)"/><line class="cls-2" x1="61.89" y1="15.37" x2="62.52" y2="11.81"/><rect class="cls-2" x="60.22" y="16.76" width="2.7" height="0.85" transform="translate(33.95 74.84) rotate(-80)"/><line class="cls-2" x1="58.39" y1="14.88" x2="58.71" y2="11.28"/><rect class="cls-2" x="56.88" y="16.29" width="2.7" height="0.85" transform="translate(36.51 73.27) rotate(-85)"/></g></g></svg>