<svg xmlns="http://www.w3.org/2000/svg" viewBox="0 0 115.89 115.27"><defs><style>.cls-1,.cls-2{fill:none;stroke:#000;stroke-miterlimit:10;}.cls-1{stroke-width:0.5px;}.cls-2{stroke-width:0.25px;}.cls-3{font-size:5px;font-family:Akkurat-Mono, Akkurat-Mono;}</style></defs><title>Asset 8</title><g id="Layer_2" data-name="Layer 2"><g id="Layer_2-2" data-name="Layer 2"><path class="cls-1" d="M31.61,40c-2.75,3.56-2.88,7.79-1.14,12.26"/><path class="cls-1" d="M31.61,40q.28-.37.61-.73"/><path class="cls-1" d="M78.15,81.75a11.89,11.89,0,0,1-11.28,4.59"/><path class="cls-1" d="M42.21,33.68c14-3.16,34,6.32,38.87,25"/><path class="cls-1" d="M30.38,52.27A13.34,13.34,0,0,1,29.5,44c.8-3.12,3.07-5.86,7-8.13a19,19,0,0,1,5.71-2.14"/><path class="cls-1" d="M63.42,85.32"/><path class="cls-1" d="M81.08,58.72a28.26,28.26,0,0,1,.9,4.39c.78,6.08.09,11.43-1.81,15.49a13.72,13.72,0,0,1-6.87,7.09,11.91,11.91,0,0,1-9.88-.36"/><path class="cls-1" d="M31.61,40a10.53,10.53,0,0,0-2.06,4,13.34,13.34,0,0,0,.91,8.28"/><path class="cls-1" d="M31.61,40c.2-.24.39-.49.61-.73"/><path class="cls-1" d="M78.15,81.75a12.42,12.42,0,0,1-4.89,3.89,11.14,11.14,0,0,1-6.39.7"/><path class="cls-1" d="M66.87,86.34a13.57,13.57,0,0,1-3.39-1.07h0l0,0"/><path class="cls-1" d="M32.21,39.25c.16-.18.32-.35.5-.53"/><path class="cls-1" d="M78.15,81.75a16.49,16.49,0,0,0,1.9-3.14c1.89-4.05,2.57-9.38,1.79-15.44A31,31,0,0,0,75.37,48a37.46,37.46,0,0,0-3.15-3.58,39.17,39.17,0,0,0-9.88-7.17C52.8,32.34,43,32.14,36.5,35.92a19.18,19.18,0,0,0-3.67,2.68"/><path class="cls-1" d="M32.83,38.61l-.11.11"/><path class="cls-1" d="M42.21,33.68c5.92-1.24,13.15-.21,20.22,3.41A38.68,38.68,0,0,1,75.5,47.86a32.27,32.27,0,0,1,5.59,10.87"/><path class="cls-1" d="M27.74,53.93C25,56.23,24.67,59.44,26,63"/><path class="cls-1" d="M61.68,88.14a7.31,7.31,0,0,1-6.22,2.37"/><path class="cls-1" d="M62.2,69.7C57.34,58,44.7,50.8,35.36,51.2"/><path class="cls-1" d="M25.91,63.07a9.51,9.51,0,0,1-.58-5.51c.54-2.23,2.19-4,5-5.29"/><path class="cls-1" d="M63.42,85.32a8.08,8.08,0,0,1-4,4.63,8.32,8.32,0,0,1-6.74-.12"/><path class="cls-1" d="M30.45,52.24h0"/><path class="cls-1" d="M27.74,53.93a6.7,6.7,0,0,0-2.38,3.64,9.45,9.45,0,0,0,.58,5.49"/><path class="cls-1" d="M61.68,88.14a7.11,7.11,0,0,1-2.33,1.78,7.33,7.33,0,0,1-3.88.6"/><path class="cls-1" d="M34.49,51.26a12.53,12.53,0,0,0-4,1"/><path class="cls-1" d="M63.44,85.26c.06-.15.12-.29.17-.45,1-2.88,1-6.64,0-10.91a23.56,23.56,0,0,0-1.4-4.2"/><path class="cls-1" d="M35.36,51.2l-.49,0"/><path class="cls-1" d="M30.45,52.24l-.06,0h0"/><path class="cls-1" d="M27.74,53.93c.21-.17.43-.34.66-.5"/><path class="cls-1" d="M61.68,88.14l0-.05"/><path class="cls-1" d="M52.66,89.78a10.55,10.55,0,0,0,2.18.65"/><path class="cls-1" d="M55.47,90.51l-.2,0"/><path class="cls-1" d="M28.52,53.35a12.55,12.55,0,0,1,1.87-1c4.56-2.06,11.48-1.14,18.28,2.83a34.73,34.73,0,0,1,7.06,5.44,33.64,33.64,0,0,1,2.35,2.61,26.63,26.63,0,0,1,5.43,10.73c1,4.25,1,8,0,10.88a9.76,9.76,0,0,1-1.58,3"/><path class="cls-1" d="M55.27,90.49l-.43-.06"/><path class="cls-1" d="M62,87.81l-.22.27"/><path class="cls-1" d="M28.52,53.35l-.11.08"/><path class="cls-1" d="M34.87,51.23l-.38,0"/><path class="cls-1" d="M62.2,69.7a28.84,28.84,0,0,0-4-6.55,34.43,34.43,0,0,0-9.43-8.06A25.81,25.81,0,0,0,35.36,51.2"/><path class="cls-1" d="M23.11,70.95c.06.17.13.35.2.52"/><path class="cls-1" d="M22.67,69.5a5.21,5.21,0,0,1,1.08-5"/><path class="cls-1" d="M46.54,93.17a6.94,6.94,0,0,0,.77.09"/><path class="cls-1" d="M50.54,92.45l0,0"/><path class="cls-1" d="M50.54,92.45a5.28,5.28,0,0,1-3.24.8"/><path class="cls-1" d="M51.59,91.54a5.05,5.05,0,0,1-.54.53"/><path class="cls-1" d="M51.05,92.07a4.86,4.86,0,0,1-.47.36"/><path class="cls-1" d="M29.52,62.35c7-.14,17.08,5.85,21.45,14.87"/><path class="cls-1" d="M23.27,71.48a8,8,0,0,1-.73-4.82,5.18,5.18,0,0,1,3.36-3.59"/><path class="cls-1" d="M52.64,89.83a5.34,5.34,0,0,1-2.54,3,6.62,6.62,0,0,1-5.85-.34h0l-.05,0"/><path class="cls-1" d="M25.95,63.06h0"/><path class="cls-1" d="M23.11,70.95c.07.17.12.34.2.52"/><path class="cls-1" d="M22.67,69.5a6.41,6.41,0,0,1-.09-2.83,4.43,4.43,0,0,1,1.17-2.13"/><path class="cls-1" d="M47.3,93.25a7,7,0,0,1-.77-.09"/><path class="cls-1" d="M50.59,92.43l0,0"/><path class="cls-1" d="M50.59,92.43a4.7,4.7,0,0,0,.47-.36"/><path class="cls-1" d="M51.59,91.54a5.12,5.12,0,0,1-.54.53"/><path class="cls-1" d="M50.54,92.45a4.51,4.51,0,0,1-.47.3,5.26,5.26,0,0,1-2.77.5"/><path class="cls-1" d="M51,77.23a20.48,20.48,0,0,1,1.33,3.31A16.19,16.19,0,0,1,53,88.8a8,8,0,0,1-.31,1"/><path class="cls-1" d="M27.06,62.69c-.2.06-.42.09-.61.16L26,63"/><path class="cls-1" d="M29.52,62.35l-.51,0"/><path class="cls-1" d="M28.38,62.44a9,9,0,0,0-1.09.19"/><path class="cls-1" d="M25.91,63.07l0,0"/><path class="cls-1" d="M52.64,89.83l0,0"/><path class="cls-1" d="M45.72,93a9.75,9.75,0,0,1-1.44-.55h0l-.07,0"/><path class="cls-1" d="M46.54,93.17l-.43-.1"/><path class="cls-1" d="M22.7,69.62l0-.12"/><path class="cls-1" d="M51.76,91.34l-.16.2"/><path class="cls-1" d="M52,90.93a7.08,7.08,0,0,0,.87-2.12,16.15,16.15,0,0,0-.67-8.24,23.47,23.47,0,0,0-4.56-8.18q-.88-1.05-1.85-2A31,31,0,0,0,40.41,66c-5.23-3.28-10.5-4.37-14-3.12a8.63,8.63,0,0,0-1.47.67"/><path class="cls-1" d="M24.94,63.6a6.37,6.37,0,0,0-.57.38"/><path class="cls-1" d="M23.11,70.95c-.05-.14-.11-.28-.16-.42"/><path class="cls-1" d="M23.81,64.47l-.07.08"/><path class="cls-1" d="M24.38,64a5.46,5.46,0,0,0-.56.48"/><path class="cls-1" d="M23,70.53q-.15-.46-.26-.91"/><path class="cls-1" d="M25,63.58l0,0"/><path class="cls-1" d="M52,90.93c-.09.14-.18.28-.28.41"/><path class="cls-1" d="M46.11,93.07l-.38-.1"/><path class="cls-1" d="M27.29,62.63l-.22.06"/><path class="cls-1" d="M29,62.38l-.64.06"/><path class="cls-1" d="M29.52,62.35A21.1,21.1,0,0,1,40.45,66a30.78,30.78,0,0,1,7.29,6.36A25.74,25.74,0,0,1,51,77.23"/><path class="cls-1" d="M42.48,95a3.65,3.65,0,0,1-1.48.52"/><path class="cls-1" d="M41,95.54a5,5,0,0,1-1.44-.06"/><path class="cls-1" d="M20.2,75.65a3.78,3.78,0,0,1,.52-2.48"/><path class="cls-1" d="M41.84,82.52c-3.49-6-10-10.32-15-11.13"/><path class="cls-1" d="M44.11,92.82a4.8,4.8,0,0,1-.28.71"/><path class="cls-1" d="M44.21,92.42c0,.11-.05.21-.08.32"/><path class="cls-1" d="M23.27,71.48h0a3.79,3.79,0,0,0-3,2.81,6.22,6.22,0,0,0,.51,3.5"/><path class="cls-1" d="M43.79,93.58a3.57,3.57,0,0,1-1.44,1.57A5,5,0,0,1,37.93,95"/><path class="cls-1" d="M41,95.54a3.6,3.6,0,0,0,1.33-.41l.15-.11"/><path class="cls-1" d="M41,95.54a4.94,4.94,0,0,1-1.44-.06"/><path class="cls-1" d="M20.2,75.65a4.49,4.49,0,0,1,0-1.36,3.2,3.2,0,0,1,.48-1.13"/><path class="cls-1" d="M23.31,71.47h0"/><path class="cls-1" d="M26.81,71.39a8.07,8.07,0,0,0-3.5.08"/><path class="cls-1" d="M44.36,91.23a7.91,7.91,0,0,1-.06.81c0,.12-.06.22-.09.34"/><path class="cls-1" d="M44.13,88.45a17.89,17.89,0,0,0-2.29-5.93"/><path class="cls-1" d="M44.32,89.66c0-.32-.08-.66-.14-1"/><path class="cls-1" d="M44.39,90.91c0-.26,0-.54,0-.82"/><path class="cls-1" d="M23.27,71.48h0"/><path class="cls-1" d="M44.22,92.39v0"/><path class="cls-1" d="M42.48,95a3.31,3.31,0,0,0,.5-.37"/><path class="cls-1" d="M43.11,94.51a3.62,3.62,0,0,0,.45-.55"/><path class="cls-1" d="M20.39,76.71l-.07-.29"/><path class="cls-1" d="M20.55,77.27c.06.17.13.34.19.51"/><path class="cls-1" d="M22.09,72a6.1,6.1,0,0,1,1.16-.45c2.63-.77,6.67.29,10.71,3a27.43,27.43,0,0,1,4.21,3.45c.51.51,1,1,1.44,1.56a20.42,20.42,0,0,1,3.74,6.28A13,13,0,0,1,44.26,92a5.08,5.08,0,0,1-.66,1.84"/><path class="cls-1" d="M39.54,95.48l-.43-.1"/><path class="cls-1" d="M21.09,72.72a3.56,3.56,0,0,1,.39-.34"/><path class="cls-1" d="M37.93,95a8.08,8.08,0,0,0,1,.35"/><path class="cls-1" d="M21.61,72.26a4.43,4.43,0,0,1,.47-.28"/><path class="cls-1" d="M20.72,73.17l.06-.08"/><path class="cls-1" d="M41,95.54h0"/><path class="cls-1" d="M20.21,75.8s0-.1,0-.15"/><path class="cls-1" d="M21.48,72.37l.14-.11"/><path class="cls-1" d="M39.11,95.39l-.21-.06"/><path class="cls-1" d="M22.09,72h0"/><path class="cls-1" d="M43,94.65l.13-.14"/><path class="cls-1" d="M43.6,93.89l0,.07"/><path class="cls-1" d="M20.55,77.27c-.06-.19-.11-.37-.16-.55"/><path class="cls-1" d="M20.32,76.42c0-.21-.08-.41-.11-.62"/><path class="cls-1" d="M21.09,72.72a3.25,3.25,0,0,0-.31.37"/><path class="cls-1" d="M43.82,93.52l0,.06"/><path class="cls-1" d="M44.12,92.74l0,.07"/><path class="cls-1" d="M44.18,88.66l0-.21"/><path class="cls-1" d="M44.35,90.08c0-.14,0-.28,0-.43"/><path class="cls-1" d="M44.36,91.23c0-.11,0-.21,0-.33"/><path class="cls-1" d="M41.84,82.52a23.1,23.1,0,0,0-2.2-3.05,27.32,27.32,0,0,0-5.66-5,19.34,19.34,0,0,0-7.18-3.06"/><path class="cls-1" d="M18.48,80.29a2.91,2.91,0,0,1,.18-.84"/><path class="cls-1" d="M36.71,96.8l-.14.09"/><path class="cls-1" d="M27.11,79a22.23,22.23,0,0,1,7.79,6.59"/><path class="cls-1" d="M24.77,78c.39.12.8.27,1.2.44"/><path class="cls-1" d="M34.9,85.59c.3.41.6.83.87,1.26"/><path class="cls-1" d="M27,78.92c-.33-.16-.66-.32-1-.45"/><path class="cls-1" d="M27.11,79,27,78.92"/><path class="cls-1" d="M18.79,82.43a5,5,0,0,1-.31-2.5,2.78,2.78,0,0,1,2.24-2.15"/><path class="cls-1" d="M37.93,95a2.92,2.92,0,0,1-1.28,1.89,3.85,3.85,0,0,1-3.35.05"/><path class="cls-1" d="M18.48,80.29a3.28,3.28,0,0,1,0-.35,2.68,2.68,0,0,1,.15-.49"/><path class="cls-1" d="M36.57,96.9l0,0,.09-.07"/><path class="cls-1" d="M35.77,86.85a15.75,15.75,0,0,1,1.34,2.6A13.52,13.52,0,0,1,38,92.62"/><path class="cls-1" d="M24.77,78l-.1,0"/><path class="cls-1" d="M23.77,77.78a6.44,6.44,0,0,0-2.84-.05l-.17.05"/><path class="cls-1" d="M38.05,93.68A5.56,5.56,0,0,1,37.93,95"/><path class="cls-1" d="M38,92.74q0,.4.06.77"/><path class="cls-1" d="M20.72,77.79h0"/><path class="cls-1" d="M37.93,95v0"/><path class="cls-1" d="M18.51,81.21c0-.12,0-.23,0-.34"/><path class="cls-1" d="M18.48,80.29c0,.08,0,.15,0,.23"/><path class="cls-1" d="M35.44,97.25h.08"/><path class="cls-1" d="M36.71,96.8a2.5,2.5,0,0,0,.39-.32"/><path class="cls-1" d="M18.69,79.39l0,.07"/><path class="cls-1" d="M36.45,97l.12-.06"/><path class="cls-1" d="M18.56,81.52c0,.16.07.33.12.5"/><path class="cls-1" d="M36,97.15l.11,0"/><path class="cls-1" d="M33.3,96.92l.51.16"/><path class="cls-1" d="M18.74,82.22l.07.2"/><path class="cls-1" d="M34.87,97.27l-.22,0"/><path class="cls-1" d="M34.33,97.2l-.4-.09"/><path class="cls-1" d="M19.15,78.7a3.51,3.51,0,0,1,1.78-.93c2.08-.52,5.28.45,8.52,2.66a23.55,23.55,0,0,1,3.32,2.76,19.09,19.09,0,0,1,4.3,6.27A10.56,10.56,0,0,1,38,94.39a3.52,3.52,0,0,1-.82,2"/><path class="cls-1" d="M19,78.92l-.08.13"/><path class="cls-1" d="M18.56,81.52c0-.1,0-.21-.05-.31"/><path class="cls-1" d="M18.46,80.52c0,.11,0,.23,0,.35"/><path class="cls-1" d="M18.74,82.22l-.06-.2"/><path class="cls-1" d="M18.69,79.39a2.4,2.4,0,0,1,.18-.34"/><path class="cls-1" d="M19.15,78.7a2.45,2.45,0,0,0-.19.23"/><path class="cls-1" d="M35.51,97.24a3.12,3.12,0,0,0,.46-.09"/><path class="cls-1" d="M36.08,97.11a2.74,2.74,0,0,0,.37-.16"/><path class="cls-1" d="M37.18,96.4l-.07.08"/><path class="cls-1" d="M33.93,97.12l-.12,0"/><path class="cls-1" d="M34.65,97.25l-.33,0"/><path class="cls-1" d="M35.44,97.25a3.78,3.78,0,0,1-.57,0"/><path class="cls-1" d="M38,92.62l0,.13"/><path class="cls-1" d="M24.66,78c-.3-.09-.6-.17-.9-.23"/><path class="cls-1" d="M38.05,93.51c0,.06,0,.11,0,.17"/><path class="cls-1" d="M27.11,79a20.53,20.53,0,0,1,2.35,1.4A23.79,23.79,0,0,1,34,84.45c.32.38.62.76.91,1.14"/><path class="cls-1" d="M26,78.48c-.41-.17-.81-.32-1.2-.44"/><path class="cls-1" d="M27.11,79,27,78.92"/><path class="cls-1" d="M35.77,86.85c-.27-.42-.56-.84-.87-1.26"/><path class="cls-1" d="M26,78.48c.32.13.65.28,1,.45"/><path class="cls-1" d="M32.36,98.17l.08-.05"/><path class="cls-1" d="M17.23,84.11c0,.06,0,.12,0,.18"/><path class="cls-1" d="M22.4,82.63c.31.1.62.23.94.36"/><path class="cls-1" d="M30.85,89.08a19.46,19.46,0,0,0-6.56-5.64"/><path class="cls-1" d="M24.22,83.4c-.29-.15-.59-.29-.88-.42"/><path class="cls-1" d="M24.22,83.4l.07,0"/><path class="cls-1" d="M31,98.53h-.12"/><path class="cls-1" d="M31.77,98.44l-.14,0"/><path class="cls-1" d="M31,98.53h.28"/><path class="cls-1" d="M31.63,98.47l-.22,0"/><path class="cls-1" d="M30.06,98.41l.2.05"/><path class="cls-1" d="M29.42,98.21c-.12,0-.23-.07-.35-.12a19.77,19.77,0,0,1-5-3.32c-.52-.46-1-.94-1.54-1.44-.23-.23-.45-.49-.68-.73"/><path class="cls-1" d="M21.64,92.32c-.32-.35-.64-.7-.94-1.06"/><path class="cls-1" d="M17.56,83.29a2.09,2.09,0,0,0-.36.83c-.25,1.42.63,3.53,2.39,5.82.27.34.55.67.83,1"/><path class="cls-1" d="M33.29,96.95a2.27,2.27,0,0,1-.87,1.23,2,2,0,0,1-.65.26"/><path class="cls-1" d="M30.06,98.41h0"/><path class="cls-1" d="M30,98.41l-.25-.07"/><path class="cls-1" d="M30.89,98.53a3.79,3.79,0,0,1-.48,0"/><path class="cls-1" d="M18.25,82.67a2.86,2.86,0,0,1,.4-.19"/><line class="cls-1" x1="18.79" y1="82.43" x2="18.79" y2="82.43"/><path class="cls-1" d="M17.57,83.28a2.07,2.07,0,0,1,.58-.55"/><path class="cls-1" d="M32.36,98.17h0l0,0"/><path class="cls-1" d="M17.23,84.11v0s0,.11,0,.16"/><path class="cls-1" d="M31.47,90A13.75,13.75,0,0,1,32.6,92.1a11.19,11.19,0,0,1,.78,2.62"/><path class="cls-1" d="M31,89.27l-.13-.19"/><path class="cls-1" d="M21.57,82.39a5.32,5.32,0,0,0-2.34-.1,3.63,3.63,0,0,0-.41.13"/><path class="cls-1" d="M22.4,82.63,22,82.52"/><path class="cls-1" d="M33.39,94.82c0,.22.06.44.06.64"/><path class="cls-1" d="M33.46,95.63c0,.16,0,.32,0,.47a3.58,3.58,0,0,1-.17.83"/><path class="cls-1" d="M18.79,82.43h0"/><path class="cls-1" d="M33.3,96.92v0"/><path class="cls-1" d="M18.79,82.43l-.14,0"/><path class="cls-1" d="M31.41,98.51h-.12"/><path class="cls-1" d="M18.15,82.73l.1-.07"/><path class="cls-1" d="M29.79,98.34l-.37-.13"/><path class="cls-1" d="M17.56,83.29v0"/><path class="cls-1" d="M30.41,98.48l-.15,0"/><path class="cls-1" d="M21.9,92.6l-.26-.28"/><path class="cls-1" d="M17.23,84.11a2.17,2.17,0,0,1,.19-.57"/><path class="cls-1" d="M31.63,98.47h0"/><path class="cls-1" d="M32.79,97.82a2,2,0,0,1-.34.3"/><path class="cls-1" d="M30.89,98.53h0"/><line class="cls-1" x1="30.06" y1="98.41" x2="30.06" y2="98.41"/><path class="cls-1" d="M17.48,83.44a2.48,2.48,0,0,1,1.75-1.12c1.69-.38,4.32.47,7,2.34A20.5,20.5,0,0,1,29,87a16.65,16.65,0,0,1,3.61,5.16,8.88,8.88,0,0,1,.87,4,2.89,2.89,0,0,1-.62,1.7"/><path class="cls-1" d="M32.36,98.17a2.18,2.18,0,0,1-.6.26"/><path class="cls-1" d="M30.89,98.53a4.13,4.13,0,0,1-.83-.12"/><path class="cls-1" d="M17.38,85.88c0-.16-.08-.31-.11-.45"/><path class="cls-1" d="M31.77,98.44h0"/><path class="cls-1" d="M17.23,85.2c0-.12,0-.23,0-.35"/><path class="cls-1" d="M31,98.53h0"/><path class="cls-1" d="M31.63,98.47a2.84,2.84,0,0,1-.61.06"/><path class="cls-1" d="M17.42,86a13.14,13.14,0,0,0,2.19,3.89,35.45,35.45,0,0,0,4.52,4.83,19.74,19.74,0,0,0,5,3.32,6,6,0,0,0,.95.33"/><path class="cls-1" d="M17.19,84.62a2.89,2.89,0,0,1,0-.33"/><path class="cls-1" d="M32.81,97.79l0,0"/><path class="cls-1" d="M31.76,98.44l-.11,0"/><path class="cls-1" d="M30,98.4h0"/><path class="cls-1" d="M30,98.41h0"/><path class="cls-1" d="M17.27,85.43c0-.08,0-.15,0-.22"/><path class="cls-1" d="M17.42,86l0-.15"/><path class="cls-1" d="M31,98.53h-.08"/><path class="cls-1" d="M17.43,83.54l.06-.11"/><path class="cls-1" d="M17.2,84.85c0-.08,0-.16,0-.23"/><path class="cls-1" d="M20.42,90.94l.27.32"/><path class="cls-1" d="M33.46,95.47c0,.06,0,.11,0,.16"/><path class="cls-1" d="M33.38,94.72l0,.1"/><path class="cls-1" d="M22,82.52l-.46-.13"/><path class="cls-1" d="M31.47,90c-.15-.24-.32-.48-.49-.71"/><path class="cls-1" d="M23.34,83c.29.12.58.26.88.42"/><path class="cls-1" d="M24.29,83.44l-.07,0"/><path class="cls-1" d="M30.85,89.08a20.21,20.21,0,0,0-4.6-4.45,17.67,17.67,0,0,0-2-1.19"/><path class="cls-1" d="M23.34,83c-.32-.14-.64-.26-.94-.36"/><line class="cls-2" x1="11.4" y1="101.76" x2="114.14" y2="101.76"/><line class="cls-2" x1="13.32" y1="1.26" x2="13.32" y2="103.99"/><line class="cls-2" x1="16.58" y1="100.15" x2="16.58" y2="103.36"/><line class="cls-2" x1="19.21" y1="100.15" x2="19.21" y2="103.36"/><line class="cls-2" x1="21.83" y1="100.15" x2="21.83" y2="103.36"/><line class="cls-2" x1="24.46" y1="100.15" x2="24.46" y2="103.36"/><line class="cls-2" x1="27.08" y1="100.15" x2="27.08" y2="103.36"/><line class="cls-2" x1="29.71" y1="100.15" x2="29.71" y2="103.36"/><line class="cls-2" x1="32.34" y1="100.15" x2="32.34" y2="103.36"/><line class="cls-2" x1="34.96" y1="100.15" x2="34.96" y2="103.36"/><line class="cls-2" x1="37.59" y1="100.15" x2="37.59" y2="103.36"/><line class="cls-2" x1="40.22" y1="100.15" x2="40.22" y2="103.36"/><line class="cls-2" x1="42.84" y1="100.15" x2="42.84" y2="103.36"/><line class="cls-2" x1="45.47" y1="100.15" x2="45.47" y2="103.36"/><line class="cls-2" x1="48.1" y1="100.15" x2="48.1" y2="103.36"/><line class="cls-2" x1="50.72" y1="100.15" x2="50.72" y2="103.36"/><line class="cls-2" x1="53.35" y1="100.15" x2="53.35" y2="103.36"/><line class="cls-2" x1="55.97" y1="100.15" x2="55.97" y2="103.36"/><line class="cls-2" x1="58.6" y1="100.15" x2="58.6" y2="103.36"/><line class="cls-2" x1="61.23" y1="100.15" x2="61.23" y2="103.36"/><line class="cls-2" x1="63.85" y1="100.15" x2="63.85" y2="103.36"/><line class="cls-2" x1="66.48" y1="100.15" x2="66.48" y2="103.36"/><line class="cls-2" x1="69.11" y1="100.15" x2="69.11" y2="103.36"/><line class="cls-2" x1="71.73" y1="100.15" x2="71.73" y2="103.36"/><line class="cls-2" x1="74.36" y1="100.15" x2="74.36" y2="103.36"/><line class="cls-2" x1="76.98" y1="100.15" x2="76.98" y2="103.36"/><line class="cls-2" x1="79.61" y1="100.15" x2="79.61" y2="103.36"/><line class="cls-2" x1="82.24" y1="100.15" x2="82.24" y2="103.36"/><line class="cls-2" x1="84.86" y1="100.15" x2="84.86" y2="103.36"/><line class="cls-2" x1="87.49" y1="100.15" x2="87.49" y2="103.36"/><line class="cls-2" x1="90.12" y1="100.15" x2="90.12" y2="103.36"/><line class="cls-2" x1="92.74" y1="100.15" x2="92.74" y2="103.36"/><line class="cls-2" x1="95.37" y1="100.15" x2="95.37" y2="103.36"/><line class="cls-2" x1="98" y1="100.15" x2="98" y2="103.36"/><line class="cls-2" x1="100.62" y1="100.15" x2="100.62" y2="103.36"/><line class="cls-2" x1="103.25" y1="100.15" x2="103.25" y2="103.36"/><line class="cls-2" x1="105.87" y1="100.15" x2="105.87" y2="103.36"/><line class="cls-2" x1="108.5" y1="100.15" x2="108.5" y2="103.36"/><line class="cls-2" x1="11.72" y1="98.75" x2="14.93" y2="98.75"/><line class="cls-2" x1="11.72" y1="96.12" x2="14.93" y2="96.12"/><line class="cls-2" x1="11.72" y1="93.5" x2="14.93" y2="93.5"/><line class="cls-2" x1="11.72" y1="90.87" x2="14.93" y2="90.87"/><line class="cls-2" x1="11.72" y1="88.24" x2="14.93" y2="88.24"/><line class="cls-2" x1="11.72" y1="85.62" x2="14.93" y2="85.62"/><line class="cls-2" x1="11.72" y1="82.99" x2="14.93" y2="82.99"/><line class="cls-2" x1="11.72" y1="80.37" x2="14.93" y2="80.37"/><line class="cls-2" x1="11.72" y1="77.74" x2="14.93" y2="77.74"/><line class="cls-2" x1="11.72" y1="75.11" x2="14.93" y2="75.11"/><line class="cls-2" x1="11.72" y1="72.49" x2="14.93" y2="72.49"/><line class="cls-2" x1="11.72" y1="69.86" x2="14.93" y2="69.86"/><line class="cls-2" x1="11.72" y1="67.23" x2="14.93" y2="67.23"/><line class="cls-2" x1="11.72" y1="64.61" x2="14.93" y2="64.61"/><line class="cls-2" x1="11.72" y1="61.98" x2="14.93" y2="61.98"/><line class="cls-2" x1="11.72" y1="59.36" x2="14.93" y2="59.36"/><line class="cls-2" x1="11.72" y1="56.73" x2="14.93" y2="56.73"/><line class="cls-2" x1="11.72" y1="54.1" x2="14.93" y2="54.1"/><line class="cls-2" x1="11.72" y1="51.48" x2="14.93" y2="51.48"/><line class="cls-2" x1="11.72" y1="48.85" x2="14.93" y2="48.85"/><line class="cls-2" x1="11.72" y1="46.22" x2="14.93" y2="46.22"/><line class="cls-2" x1="11.72" y1="43.6" x2="14.93" y2="43.6"/><line class="cls-2" x1="11.72" y1="40.97" x2="14.93" y2="40.97"/><line class="cls-2" x1="11.72" y1="38.34" x2="14.93" y2="38.34"/><line class="cls-2" x1="11.72" y1="35.72" x2="14.93" y2="35.72"/><line class="cls-2" x1="11.72" y1="33.09" x2="14.93" y2="33.09"/><line class="cls-2" x1="11.72" y1="30.47" x2="14.93" y2="30.47"/><line class="cls-2" x1="11.72" y1="27.84" x2="14.93" y2="27.84"/><line class="cls-2" x1="11.72" y1="25.21" x2="14.93" y2="25.21"/><line class="cls-2" x1="11.72" y1="22.59" x2="14.93" y2="22.59"/><line class="cls-2" x1="11.72" y1="19.96" x2="14.93" y2="19.96"/><line class="cls-2" x1="11.72" y1="17.33" x2="14.93" y2="17.33"/><line class="cls-2" x1="11.72" y1="14.71" x2="14.93" y2="14.71"/><line class="cls-2" x1="11.72" y1="12.08" x2="14.93" y2="12.08"/><line class="cls-2" x1="11.72" y1="9.45" x2="14.93" y2="9.45"/><line class="cls-2" x1="11.72" y1="6.83" x2="14.93" y2="6.83"/><line class="cls-2" x1="19.18" y1="95.33" x2="92.2" y2="22.32"/><text class="cls-3" transform="translate(4.27 47.69) rotate(-90)">transcedental <tspan x="0" y="6">enlightenment</tspan></text><text class="cls-3" transform="translate(76.98 107.82)">regressive <tspan x="0" y="6">corporealism</tspan></text><text class="cls-3" transform="translate(94.24 4.12) rotate(45)">Current <tspan x="-1.55" y="6">state of </tspan><tspan x="1.55" y="12">affairs</tspan></text></g></g></svg>