<?xml version="1.0" encoding="utf-8"?>
<!-- Generator: Adobe Illustrator 21.0.2, SVG Export Plug-In . SVG Version: 6.00 Build 0)  -->
<svg version="1.1" id="Layer_1" xmlns="http://www.w3.org/2000/svg" xmlns:xlink="http://www.w3.org/1999/xlink" x="0px" y="0px"
	 viewBox="0 0 134.9 134.9" style="enable-background:new 0 0 134.9 134.9;" xml:space="preserve">
<style type="text/css">
	.st0{fill:none;stroke:#000000;stroke-miterlimit:10;}
	.st1{fill:none;}
	.st2{fill:none;stroke:#000000;stroke-width:0.25;stroke-miterlimit:10;}
</style>
<title>Asset 12</title>
<g id="Layer_2-2">
	<polygon class="st0" points="134.8,116.8 134.8,89.6 116.8,89.6 116.8,116.8 89.6,116.8 89.6,134.8 116.8,134.8 134.8,134.8 	"/>
	<line class="st1" x1="22.4" y1="22.4" x2="112.2" y2="112.2"/>
	<polygon class="st2" points="0.6,45.3 0.6,45.7 1,45.7 1,46.2 1.5,46.2 1.5,46.6 1.9,46.6 1.9,47.1 2.4,47.1 2.4,47.5 2.8,47.5 
		2.8,48 3.3,48 3.3,48.4 3.7,48.4 3.7,48.9 4.2,48.9 4.2,49.3 4.6,49.3 4.6,49.8 5,49.8 5,50.2 5.5,50.2 5.5,50.6 5.9,50.6 
		5.9,51.1 6.4,51.1 6.4,51.5 6.8,51.5 6.8,52 7.3,52 7.3,52.4 7.7,52.4 7.7,52.9 8.2,52.9 8.2,53.3 8.6,53.3 8.6,53.8 9.1,53.8 
		9.1,54.2 9.5,54.2 9.5,54.7 10,54.7 10,55.1 10.4,55.1 10.4,55.6 10.9,55.6 10.9,56 11.3,56 11.3,56.5 11.8,56.5 11.8,56.9 
		12.2,56.9 12.2,57.4 12.7,57.4 12.7,57.8 13.1,57.8 13.1,58.3 13.6,58.3 13.6,58.7 14,58.7 14,59.1 14.4,59.1 14.4,59.6 14.9,59.6 
		14.9,60 15.3,60 15.3,60.5 15.8,60.5 15.8,60.9 16.2,60.9 16.2,61.4 16.7,61.4 16.7,61.8 17.1,61.8 17.1,62.3 17.6,62.3 17.6,62.7 
		18,62.7 18,63.2 18.5,63.2 18.5,63.6 18.9,63.6 18.9,64.1 19.4,64.1 19.4,64.5 19.8,64.5 19.8,65 20.3,65 20.3,65.4 20.7,65.4 
		20.7,65.9 21.2,65.9 21.2,66.3 21.6,66.3 21.6,66.8 22.1,66.8 22.1,67.2 22.5,67.2 22.5,67.6 22.9,67.6 22.9,68.1 23.4,68.1 
		23.4,68.5 23.8,68.5 23.8,69 24.3,69 24.3,69.4 24.7,69.4 24.7,69.9 25.2,69.9 25.2,70.3 25.6,70.3 25.6,70.8 26.1,70.8 26.1,71.2 
		26.5,71.2 26.5,71.7 27,71.7 27,72.1 27.4,72.1 27.4,72.6 27.9,72.6 27.9,73 28.3,73 28.3,73.5 28.8,73.5 28.8,73.9 29.2,73.9 
		29.2,74.4 29.7,74.4 29.7,74.8 30.1,74.8 30.1,75.3 30.6,75.3 30.6,75.7 31,75.7 31,76.1 31.4,76.1 31.4,76.6 31.9,76.6 31.9,77 
		32.3,77 32.3,77.5 32.8,77.5 32.8,77.9 33.2,77.9 33.2,78.4 33.7,78.4 33.7,78.8 34.1,78.8 34.1,79.3 34.6,79.3 34.6,79.7 35,79.7 
		35,80.2 35.5,80.2 35.5,80.6 35.9,80.6 35.9,81.1 36.4,81.1 36.4,81.5 36.8,81.5 36.8,82 37.3,82 37.3,82.4 37.7,82.4 37.7,82.9 
		38.2,82.9 38.2,83.3 38.6,83.3 38.6,83.8 39.1,83.8 39.1,84.2 39.5,84.2 39.5,84.7 39.9,84.7 39.9,85.1 40.4,85.1 40.4,85.5 
		40.8,85.5 40.8,86 41.3,86 41.3,86.4 41.7,86.4 41.7,86.9 42.2,86.9 42.2,87.3 42.6,87.3 42.6,87.8 43.1,87.8 43.1,88.2 43.5,88.2 
		43.5,88.7 44,88.7 44,89.1 44.4,89.1 44.4,89.6 44.9,89.6 44.9,90 45.3,90 45.3,90.5 45.8,90.5 45.8,90.9 46.2,90.9 46.2,91.4 
		46.7,91.4 46.7,91.8 47.1,91.8 47.1,92.3 47.6,92.3 47.6,92.7 48,92.7 48,93.2 48.4,93.2 48.4,93.6 48.9,93.6 48.9,94 49.3,94 
		49.3,94.5 49.8,94.5 49.8,94.9 50.2,94.9 50.2,95.4 50.7,95.4 50.7,95.8 51.1,95.8 51.1,96.3 51.6,96.3 51.6,96.7 52,96.7 52,97.2 
		52.5,97.2 52.5,97.6 52.9,97.6 52.9,98.1 53.4,98.1 53.4,98.5 53.8,98.5 53.8,99 54.3,99 54.3,99.4 54.7,99.4 54.7,99.9 55.2,99.9 
		55.2,100.3 55.6,100.3 55.6,100.8 56.1,100.8 56.1,101.2 56.5,101.2 56.5,101.7 56.9,101.7 56.9,102.1 57.4,102.1 57.4,102.5 
		57.8,102.5 57.8,103 58.3,103 58.3,103.4 58.7,103.4 58.7,103.9 59.2,103.9 59.2,104.3 59.6,104.3 59.6,104.8 60.1,104.8 
		60.1,105.2 60.5,105.2 60.5,105.7 61,105.7 61,106.1 61.4,106.1 61.4,106.6 61.9,106.6 61.9,107 62.3,107 62.3,107.5 62.8,107.5 
		62.8,107.9 63.2,107.9 63.2,108.4 63.7,108.4 63.7,108.8 64.1,108.8 64.1,109.3 64.6,109.3 64.6,109.7 65,109.7 65,110.2 
		65.5,110.2 65.5,110.6 65.9,110.6 65.9,111 66.3,111 66.3,111.5 66.8,111.5 66.8,111.9 67.2,111.9 67.2,112.4 67.7,112.4 
		67.7,112.8 68.1,112.8 68.1,113.3 68.6,113.3 68.6,113.7 69,113.7 69,114.2 69.5,114.2 69.5,114.6 69.9,114.6 69.9,115.1 
		70.4,115.1 70.4,115.5 70.8,115.5 70.8,116 71.3,116 71.3,116.4 71.7,116.4 71.7,116.9 72.2,116.9 72.2,117.3 72.6,117.3 
		72.6,117.8 73.1,117.8 73.1,118.2 73.5,118.2 73.5,118.7 74,118.7 74,119.1 74.4,119.1 74.4,119.5 74.8,119.5 74.8,120 75.3,120 
		75.3,120.4 75.7,120.4 75.7,120.9 76.2,120.9 76.2,121.3 76.6,121.3 76.6,121.8 77.1,121.8 77.1,122.2 77.5,122.2 77.5,122.7 
		78,122.7 78,123.1 78.4,123.1 78.4,123.6 78.9,123.6 78.9,124 79.3,124 79.3,124.5 79.8,124.5 79.8,124.9 80.2,124.9 80.2,125.4 
		80.7,125.4 80.7,125.8 81.1,125.8 81.1,126.3 81.6,126.3 81.6,126.7 82,126.7 82,127.2 82.5,127.2 82.5,127.6 82.9,127.6 82.9,128 
		83.3,128 83.3,128.5 83.8,128.5 83.8,128.9 84.2,128.9 84.2,129.4 84.7,129.4 84.7,129.8 85.1,129.8 85.1,130.3 85.6,130.3 
		85.6,130.7 86,130.7 86,131.2 86.5,131.2 86.5,131.6 86.9,131.6 86.9,132.1 87.4,132.1 87.4,132.5 87.8,132.5 87.8,133 88.3,133 
		88.3,133.4 88.7,133.4 88.7,133.9 89.2,133.9 89.2,134.3 89.6,134.3 89.6,134.8 116.8,134.8 134.8,134.8 134.8,116.8 134.8,89.6 
		134.3,89.6 134.3,89.2 133.9,89.2 133.9,88.7 133.4,88.7 133.4,88.3 133,88.3 133,87.8 132.5,87.8 132.5,87.4 132.1,87.4 
		132.1,86.9 131.6,86.9 131.6,86.5 131.2,86.5 131.2,86 130.7,86 130.7,85.6 130.3,85.6 130.3,85.1 129.8,85.1 129.8,84.7 
		129.4,84.7 129.4,84.2 128.9,84.2 128.9,83.8 128.5,83.8 128.5,83.3 128,83.3 128,82.9 127.6,82.9 127.6,82.5 127.2,82.5 127.2,82 
		126.7,82 126.7,81.6 126.3,81.6 126.3,81.1 125.8,81.1 125.8,80.7 125.4,80.7 125.4,80.2 124.9,80.2 124.9,79.8 124.5,79.8 
		124.5,79.3 124,79.3 124,78.9 123.6,78.9 123.6,78.4 123.1,78.4 123.1,78 122.7,78 122.7,77.5 122.2,77.5 122.2,77.1 121.8,77.1 
		121.8,76.6 121.3,76.6 121.3,76.2 120.9,76.2 120.9,75.7 120.4,75.7 120.4,75.3 120,75.3 120,74.8 119.5,74.8 119.5,74.4 
		119.1,74.4 119.1,74 118.7,74 118.7,73.5 118.2,73.5 118.2,73.1 117.8,73.1 117.8,72.6 117.3,72.6 117.3,72.2 116.9,72.2 
		116.9,71.7 116.4,71.7 116.4,71.3 116,71.3 116,70.8 115.5,70.8 115.5,70.4 115.1,70.4 115.1,69.9 114.6,69.9 114.6,69.5 
		114.2,69.5 114.2,69 113.7,69 113.7,68.6 113.3,68.6 113.3,68.1 112.8,68.1 112.8,67.7 112.4,67.7 112.4,67.2 111.9,67.2 
		111.9,66.8 111.5,66.8 111.5,66.3 111,66.3 111,65.9 110.6,65.9 110.6,65.5 110.2,65.5 110.2,65 109.7,65 109.7,64.6 109.3,64.6 
		109.3,64.1 108.8,64.1 108.8,63.7 108.4,63.7 108.4,63.2 107.9,63.2 107.9,62.8 107.5,62.8 107.5,62.3 107,62.3 107,61.9 
		106.6,61.9 106.6,61.4 106.1,61.4 106.1,61 105.7,61 105.7,60.5 105.2,60.5 105.2,60.1 104.8,60.1 104.8,59.6 104.3,59.6 
		104.3,59.2 103.9,59.2 103.9,58.7 103.4,58.7 103.4,58.3 103,58.3 103,57.8 102.5,57.8 102.5,57.4 102.1,57.4 102.1,56.9 
		101.7,56.9 101.7,56.5 101.2,56.5 101.2,56.1 100.8,56.1 100.8,55.6 100.3,55.6 100.3,55.2 99.9,55.2 99.9,54.7 99.4,54.7 
		99.4,54.3 99,54.3 99,53.8 98.5,53.8 98.5,53.4 98.1,53.4 98.1,52.9 97.6,52.9 97.6,52.5 97.2,52.5 97.2,52 96.7,52 96.7,51.6 
		96.3,51.6 96.3,51.1 95.8,51.1 95.8,50.7 95.4,50.7 95.4,50.2 94.9,50.2 94.9,49.8 94.5,49.8 94.5,49.3 94,49.3 94,48.9 93.6,48.9 
		93.6,48.4 93.2,48.4 93.2,48 92.7,48 92.7,47.6 92.3,47.6 92.3,47.1 91.8,47.1 91.8,46.7 91.4,46.7 91.4,46.2 90.9,46.2 90.9,45.8 
		90.5,45.8 90.5,45.3 90,45.3 90,44.9 89.6,44.9 89.6,44.4 89.1,44.4 89.1,44 88.7,44 88.7,43.5 88.2,43.5 88.2,43.1 87.8,43.1 
		87.8,42.6 87.3,42.6 87.3,42.2 86.9,42.2 86.9,41.7 86.4,41.7 86.4,41.3 86,41.3 86,40.8 85.5,40.8 85.5,40.4 85.1,40.4 85.1,39.9 
		84.6,39.9 84.6,39.5 84.2,39.5 84.2,39.1 83.8,39.1 83.8,38.6 83.3,38.6 83.3,38.2 82.9,38.2 82.9,37.7 82.4,37.7 82.4,37.3 
		82,37.3 82,36.8 81.5,36.8 81.5,36.4 81.1,36.4 81.1,35.9 80.6,35.9 80.6,35.5 80.2,35.5 80.2,35 79.7,35 79.7,34.6 79.3,34.6 
		79.3,34.1 78.8,34.1 78.8,33.7 78.4,33.7 78.4,33.2 77.9,33.2 77.9,32.8 77.5,32.8 77.5,32.3 77,32.3 77,31.9 76.6,31.9 76.6,31.4 
		76.1,31.4 76.1,31 75.7,31 75.7,30.6 75.3,30.6 75.3,30.1 74.8,30.1 74.8,29.7 74.4,29.7 74.4,29.2 73.9,29.2 73.9,28.8 73.5,28.8 
		73.5,28.3 73,28.3 73,27.9 72.6,27.9 72.6,27.4 72.1,27.4 72.1,27 71.7,27 71.7,26.5 71.2,26.5 71.2,26.1 70.8,26.1 70.8,25.6 
		70.3,25.6 70.3,25.2 69.9,25.2 69.9,24.7 69.4,24.7 69.4,24.3 69,24.3 69,23.8 68.5,23.8 68.5,23.4 68.1,23.4 68.1,22.9 67.6,22.9 
		67.6,22.5 67.2,22.5 67.2,22.1 66.8,22.1 66.8,21.6 66.3,21.6 66.3,21.2 65.9,21.2 65.9,20.7 65.4,20.7 65.4,20.3 65,20.3 65,19.8 
		64.5,19.8 64.5,19.4 64.1,19.4 64.1,18.9 63.6,18.9 63.6,18.5 63.2,18.5 63.2,18 62.7,18 62.7,17.6 62.3,17.6 62.3,17.1 61.8,17.1 
		61.8,16.7 61.4,16.7 61.4,16.2 60.9,16.2 60.9,15.8 60.5,15.8 60.5,15.3 60,15.3 60,14.9 59.6,14.9 59.6,14.4 59.1,14.4 59.1,14 
		58.7,14 58.7,13.6 58.3,13.6 58.3,13.1 57.8,13.1 57.8,12.7 57.4,12.7 57.4,12.2 56.9,12.2 56.9,11.8 56.5,11.8 56.5,11.3 56,11.3 
		56,10.9 55.6,10.9 55.6,10.4 55.1,10.4 55.1,10 54.7,10 54.7,9.5 54.2,9.5 54.2,9.1 53.8,9.1 53.8,8.6 53.3,8.6 53.3,8.2 52.9,8.2 
		52.9,7.7 52.4,7.7 52.4,7.3 52,7.3 52,6.8 51.5,6.8 51.5,6.4 51.1,6.4 51.1,5.9 50.6,5.9 50.6,5.5 50.2,5.5 50.2,5 49.8,5 
		49.8,4.6 49.3,4.6 49.3,4.2 48.9,4.2 48.9,3.7 48.4,3.7 48.4,3.3 48,3.3 48,2.8 47.5,2.8 47.5,2.4 47.1,2.4 47.1,1.9 46.6,1.9 
		46.6,1.5 46.2,1.5 46.2,1 45.7,1 45.7,0.6 45.3,0.6 45.3,0.1 27.3,0.1 27.3,27.3 0.1,27.3 0.1,45.3 	"/>
</g>
</svg>
