<svg xmlns="http://www.w3.org/2000/svg" viewBox="0 0 135.13 135.13"><defs><style>.cls-1{fill:none;stroke:#000;stroke-miterlimit:10;stroke-width:0.25px;}</style></defs><title>Asset 11</title><g id="Layer_2" data-name="Layer 2"><g id="Layer_2-2" data-name="Layer 2"><path class="cls-1" d="M.13,18.06V45.27H18.06l-1-2.1a22.31,22.31,0,0,1,16.74-31.9L44.18,9.73,18.38,8.36,18.06.13H.13Z"/><path class="cls-1" d="M4.4,4.4V49.55H22.33l-1-2.14a23.9,23.9,0,0,1-.8-18.05c2.29-6,8.55-10.94,15.19-12.86a22.09,22.09,0,0,1,2.85-.81l9.91-2.13L23,12.24,22.33,4.4Z"/><path class="cls-1" d="M8.67,8.67V53.82H26.61l-.93-2.19c-2.61-5.32-2.65-13.38-.76-18.36,2.17-5.71,9.49-10.39,15.79-12.21a21.69,21.69,0,0,1,2.71-1l9.41-2.72-25.3-1.24-.92-7.45Z"/><path class="cls-1" d="M12.94,12.94V58.09H30.88L30,55.86c-2.48-5-2.51-13.95-.72-18.66,2.06-5.41,10.42-9.84,16.39-11.57.83-.24,1.68-1,2.56-1.13l8.92-3.31L32.09,20l-1.21-7.06Z"/><path class="cls-1" d="M17.22,17.22V62.37H35.15l-.83-2.28c-2.34-4.76-2.37-14.51-.68-19C35.59,36,45,31.82,50.63,30.19c.78-.23,1.59-1.17,2.42-1.3L61.48,25,36.66,23.88l-1.51-6.66Z"/><path class="cls-1" d="M21.49,21.49V66.64H39.42l-.78-2.33C36.44,59.83,36.4,49.23,38,45c1.83-4.81,12.29-8.75,17.59-10.29.73-.21,1.5-1.34,2.28-1.46l7.93-4.49-24.57-1-1.81-6.27Z"/><path class="cls-1" d="M25.76,25.76V70.91H43.7L43,68.54c-2.06-4.2-2.1-15.65-.6-19.58,1.72-4.51,13.22-8.2,18.2-9.64.69-.2,1.4-1.51,2.14-1.62l7.43-5.08-24.32-1L43.7,25.76Z"/><path class="cls-1" d="M30,30V75.19H48l-.69-2.42c-1.93-3.92-2-16.21-.56-19.88,1.6-4.2,14.15-7.65,18.8-9,.64-.19,1.31-1.68,2-1.78l6.94-5.66-24.08-.91L48,30Z"/><path class="cls-1" d="M34.31,34.31V79.46H52.24L51.61,77c-1.79-3.64-1.82-16.78-.52-20.18,1.49-3.9,15.08-7.11,19.4-8.36.6-.17,1.21-1.85,1.85-1.94l6.44-6.25-23.83-.85-2.7-5.1Z"/><path class="cls-1" d="M38.58,38.58V83.73H56.52l-.59-2.52c-1.65-3.36-1.68-17.34-.48-20.49,1.37-3.6,16-6.56,20-7.71.55-.16,1.12-2,1.71-2.1l5.95-6.84-23.59-.78-3-4.7Z"/><path class="cls-1" d="M42.86,42.86V88H60.79l-.54-2.56c-1.51-3.08-1.54-17.91-.44-20.79,1.26-3.3,17-6,20.6-7.07.51-.15,1-2.18,1.57-2.26l5.45-7.43-23.34-.72-3.29-4.31Z"/><path class="cls-1" d="M47.13,47.13V92.28H65.06l-.49-2.61c-1.38-2.8-1.4-18.48-.4-21.1,1.14-3,17.88-5.47,21.2-6.43.46-.13.93-2.35,1.42-2.42l5-8L68.66,51l-3.59-3.92Z"/><path class="cls-1" d="M51.4,51.4V96.55H69.34L68.9,93.9c-1.24-2.52-1.26-19-.36-21.4,1-2.7,18.82-4.92,21.8-5.79.41-.12.84-2.52,1.28-2.59l4.46-8.6-22.85-.59L69.34,51.4Z"/><path class="cls-1" d="M55.68,55.68v45.15H73.61l-.39-2.7c-1.1-2.24-1.12-19.61-.32-21.71C73.81,74,92.65,72,95.3,71.27c.37-.11.75-2.69,1.14-2.75l4-9.19L77.8,58.81l-4.19-3.14Z"/><path class="cls-1" d="M59.95,59.95V105.1H77.88l-.34-2.75c-1-2-1-20.18-.28-22,.8-2.1,20.68-3.83,23-4.5.32-.09.65-2.86,1-2.91l3.47-9.78-22.36-.46-4.48-2.74Z"/><path class="cls-1" d="M64.22,64.22v45.15H82.16l-.29-2.79C81,104.9,81,85.83,81.62,84.26c.69-1.8,21.62-3.28,23.61-3.86.28-.08.56-3,.85-3.07l3-10.37-22.12-.39-4.78-2.35Z"/><path class="cls-1" d="M68.5,68.5v45.15H86.43l-.25-2.84c-.69-1.4-.7-21.31-.2-22.62.57-1.5,22.55-2.73,24.21-3.21.23-.07.47-3.19.71-3.23l2.48-11-21.88-.33-5.08-2Z"/><path class="cls-1" d="M72.77,72.77v45.15H90.7l-.2-2.89c-.55-1.12-.56-21.88-.16-22.92.46-1.2,23.48-2.19,24.81-2.57.18-.05.37-3.36.57-3.39l2-11.54-21.63-.26L90.7,72.77Z"/><path class="cls-1" d="M77,77v45.15H95l-.15-2.93c-.41-.84-.42-22.44-.12-23.23s24.42-1.64,25.41-1.93c.14,0,.28-3.53.43-3.55L122,78.41l-21.39-.2L95,77Z"/><path class="cls-1" d="M81.31,81.31v45.15H99.25l-.1-3c-.28-.56-.28-23-.08-23.53s25.35-1.09,26-1.29c.09,0,.19-3.7.28-3.71l1-12.72-21.14-.13-6-.78Z"/><path class="cls-1" d="M85.59,85.59v45.15h17.93l0-3c-.14-.28-.14-23.58,0-23.84s26.28-.55,26.61-.64c0,0,.09-3.87.14-3.88l.5-13.31L109.79,86l-6.27-.39Z"/><polygon class="cls-1" points="89.86 107.8 89.86 135.01 107.8 135.01 107.8 107.8 135.01 107.8 135.01 89.86 107.8 89.86 89.86 89.86 89.86 107.8"/></g></g></svg>