<svg xmlns="http://www.w3.org/2000/svg" viewBox="0 0 97.05 121.63"><defs><style>.cls-1,.cls-2,.cls-3{fill:none;}.cls-1,.cls-3{stroke:#000;stroke-miterlimit:10;}.cls-1{stroke-width:0.25px;}</style></defs><title>Asset 1</title><g id="Layer_2" data-name="Layer 2"><g id="Layer_2-2" data-name="Layer 2"><rect class="cls-1" x="36.35" y="36.5" width="24.29" height="24.29"/><rect class="cls-1" x="60.43" y="12.42" width="24.29" height="24.29"/><rect class="cls-1" x="60.43" y="60.79" width="24.29" height="48.58"/><rect class="cls-1" x="12.05" y="60.79" width="24.29" height="48.58"/><polygon points="91.02 0.13 81.86 0.13 81.86 6.16 91.02 6.16 91.02 15.32 97.06 15.32 97.06 6.16 97.06 0.13 91.02 0.13"/><polygon points="0.13 6.16 0.13 15.32 6.16 15.32 6.16 6.16 15.32 6.16 15.32 0.13 6.16 0.13 0.13 0.13 0.13 6.16"/><line class="cls-2" x1="37.92" y1="37.92" x2="7.72" y2="7.72"/><polygon class="cls-1" points="0.13 6.16 0.13 15.32 6.16 15.32 6.16 6.16 15.32 6.16 15.32 0.13 6.16 0.13 0.13 0.13 0.13 6.16"/><polygon class="cls-1" points="1.56 7.6 1.56 16.76 7.6 16.76 7.6 7.6 16.76 7.6 16.76 1.56 7.6 1.56 1.56 1.56 1.56 7.6"/><polygon class="cls-1" points="3 9.04 3 18.19 9.04 18.19 9.04 9.04 18.19 9.04 18.19 3 9.04 3 3 3 3 9.04"/><polygon class="cls-1" points="4.44 10.47 4.44 19.63 10.47 19.63 10.47 10.47 19.63 10.47 19.63 4.44 10.47 4.44 4.44 4.44 4.44 10.47"/><polygon class="cls-1" points="5.88 11.91 5.88 21.07 11.91 21.07 11.91 11.91 21.07 11.91 21.07 5.88 11.91 5.88 5.88 5.88 5.88 11.91"/><polygon class="cls-1" points="7.32 13.35 7.32 22.51 13.35 22.51 13.35 13.35 22.51 13.35 22.51 7.32 13.35 7.32 7.32 7.32 7.32 13.35"/><polygon class="cls-1" points="8.75 14.79 8.75 23.95 14.79 23.95 14.79 14.79 23.95 14.79 23.95 8.75 14.79 8.75 8.75 8.75 8.75 14.79"/><polygon class="cls-1" points="10.19 16.23 10.19 25.38 16.23 25.38 16.23 16.23 25.38 16.23 25.38 10.19 16.23 10.19 10.19 10.19 10.19 16.23"/><polygon class="cls-1" points="11.63 17.66 11.63 26.82 17.66 26.82 17.66 17.66 26.82 17.66 26.82 11.63 17.66 11.63 11.63 11.63 11.63 17.66"/><polygon class="cls-1" points="13.07 19.1 13.07 28.26 19.1 28.26 19.1 19.1 28.26 19.1 28.26 13.07 19.1 13.07 13.07 13.07 13.07 19.1"/><polygon class="cls-1" points="14.51 20.54 14.51 29.7 20.54 29.7 20.54 20.54 29.7 20.54 29.7 14.51 20.54 14.51 14.51 14.51 14.51 20.54"/><polygon class="cls-1" points="15.94 21.98 15.94 31.14 21.98 31.14 21.98 21.98 31.14 21.98 31.14 15.94 21.98 15.94 15.94 15.94 15.94 21.98"/><polygon class="cls-1" points="17.38 23.42 17.38 32.57 23.42 32.57 23.42 23.42 32.57 23.42 32.57 17.38 23.42 17.38 17.38 17.38 17.38 23.42"/><polygon class="cls-1" points="18.82 24.85 18.82 34.01 24.85 34.01 24.85 24.85 34.01 24.85 34.01 18.82 24.85 18.82 18.82 18.82 18.82 24.85"/><polygon class="cls-1" points="20.26 26.29 20.26 35.45 26.29 35.45 26.29 26.29 35.45 26.29 35.45 20.26 26.29 20.26 20.26 20.26 20.26 26.29"/><polygon class="cls-1" points="21.7 27.73 21.7 36.89 27.73 36.89 27.73 27.73 36.89 27.73 36.89 21.7 27.73 21.7 21.7 21.7 21.7 27.73"/><polygon class="cls-1" points="23.13 29.17 23.13 38.33 29.17 38.33 29.17 29.17 38.33 29.17 38.33 23.13 29.17 23.13 23.13 23.13 23.13 29.17"/><polygon class="cls-1" points="24.57 30.61 24.57 39.76 30.61 39.76 30.61 30.61 39.76 30.61 39.76 24.57 30.61 24.57 24.57 24.57 24.57 30.61"/><polygon class="cls-1" points="26.01 32.04 26.01 41.2 32.04 41.2 32.04 32.04 41.2 32.04 41.2 26.01 32.04 26.01 26.01 26.01 26.01 32.04"/><polygon class="cls-1" points="27.45 33.48 27.45 42.64 33.48 42.64 33.48 33.48 42.64 33.48 42.64 27.45 33.48 27.45 27.45 27.45 27.45 33.48"/><polygon class="cls-1" points="28.89 34.92 28.89 44.08 34.92 44.08 34.92 34.92 44.08 34.92 44.08 28.89 34.92 28.89 28.89 28.89 28.89 34.92"/><polygon class="cls-1" points="30.32 36.36 30.32 45.52 36.36 45.52 36.36 36.36 45.52 36.36 45.52 30.32 36.36 30.32 30.32 30.32 30.32 36.36"/><polygon class="cls-3" points="60.74 30.41 51.58 30.41 51.58 36.44 60.74 36.44 60.74 45.6 66.77 45.6 66.77 36.44 66.77 30.41 60.74 30.41"/><polygon class="cls-1" points="45.28 30.24 45.28 30.09 45.13 30.09 45.13 29.94 44.98 29.94 44.98 29.79 44.83 29.79 44.83 29.64 44.68 29.64 44.68 29.48 44.53 29.48 44.53 29.33 44.38 29.33 44.38 29.18 44.23 29.18 44.23 29.03 44.08 29.03 44.08 28.88 43.92 28.88 43.92 28.73 43.77 28.73 43.77 28.58 43.62 28.58 43.62 28.43 43.47 28.43 43.47 28.28 43.32 28.28 43.32 28.13 43.17 28.13 43.17 27.98 43.02 27.98 43.02 27.83 42.87 27.83 42.87 27.68 42.72 27.68 42.72 27.53 42.57 27.53 42.57 27.38 42.42 27.38 42.42 27.23 42.27 27.23 42.27 27.08 42.12 27.08 42.12 26.93 41.97 26.93 41.97 26.77 41.82 26.77 41.82 26.62 41.67 26.62 41.67 26.47 41.52 26.47 41.52 26.32 41.37 26.32 41.37 26.17 41.22 26.17 41.22 26.02 41.06 26.02 41.06 25.87 40.91 25.87 40.91 25.72 40.76 25.72 40.76 25.57 40.61 25.57 40.61 25.42 40.46 25.42 40.46 25.27 40.31 25.27 40.31 25.12 40.16 25.12 40.16 24.97 40.01 24.97 40.01 24.82 39.86 24.82 39.86 24.67 39.71 24.67 39.71 24.52 39.56 24.52 39.56 24.37 39.41 24.37 39.41 24.21 39.26 24.21 39.26 24.07 39.11 24.07 39.11 23.91 38.96 23.91 38.96 23.76 38.81 23.76 38.81 23.61 38.66 23.61 38.66 23.46 38.51 23.46 38.51 23.31 38.35 23.31 38.35 23.16 38.2 23.16 38.2 23.01 38.05 23.01 38.05 22.86 37.9 22.86 37.9 22.71 37.75 22.71 37.75 22.56 37.6 22.56 37.6 22.41 37.45 22.41 37.45 22.26 37.3 22.26 37.3 22.11 37.15 22.11 37.15 21.96 37 21.96 37 21.81 36.85 21.81 36.85 21.66 36.7 21.66 36.7 21.5 36.55 21.5 36.55 21.35 36.4 21.35 36.4 21.2 36.25 21.2 36.25 21.05 36.1 21.05 36.1 20.9 35.95 20.9 35.95 20.75 35.8 20.75 35.8 20.6 35.64 20.6 35.64 20.45 35.49 20.45 35.49 20.3 35.34 20.3 35.34 20.15 35.19 20.15 35.19 20 35.04 20 35.04 19.85 34.89 19.85 34.89 19.7 34.74 19.7 34.74 19.55 34.59 19.55 34.59 19.4 34.44 19.4 34.44 19.25 34.29 19.25 34.29 19.1 34.14 19.1 34.14 18.95 33.99 18.95 33.99 18.8 33.84 18.8 33.84 18.64 33.69 18.64 33.69 18.49 33.54 18.49 33.54 18.34 33.39 18.34 33.39 18.19 33.23 18.19 33.23 18.04 33.09 18.04 33.09 17.89 32.93 17.89 32.93 17.74 32.78 17.74 32.78 17.59 32.63 17.59 32.63 17.44 32.48 17.44 32.48 17.29 32.33 17.29 32.33 17.14 32.18 17.14 32.18 16.99 32.03 16.99 32.03 16.84 31.88 16.84 31.88 16.69 31.73 16.69 31.73 16.54 31.58 16.54 31.58 16.39 31.43 16.39 31.43 16.23 31.28 16.23 31.28 16.09 31.13 16.09 31.13 15.93 30.98 15.93 30.98 15.78 30.83 15.78 30.83 15.63 30.68 15.63 30.68 15.48 30.52 15.48 30.52 15.33 30.38 15.33 30.38 15.18 30.22 15.18 30.22 15.03 30.07 15.03 30.07 14.88 29.92 14.88 29.92 14.73 29.77 14.73 29.77 14.58 29.62 14.58 29.62 14.43 29.47 14.43 29.47 14.28 29.32 14.28 29.32 14.13 29.17 14.13 29.17 13.98 29.02 13.98 29.02 13.83 28.87 13.83 28.87 13.68 28.72 13.68 28.72 13.53 28.57 13.53 28.57 13.38 28.42 13.38 28.42 13.22 28.27 13.22 28.27 13.07 28.12 13.07 28.12 12.92 27.97 12.92 27.97 12.77 27.82 12.77 27.82 12.62 27.66 12.62 27.66 12.47 27.51 12.47 27.51 12.32 27.36 12.32 27.36 12.17 27.21 12.17 27.21 12.02 27.06 12.02 27.06 11.87 26.91 11.87 26.91 11.72 26.76 11.72 26.76 11.57 26.61 11.57 26.61 11.42 26.46 11.42 26.46 11.27 26.31 11.27 26.31 11.12 26.16 11.12 26.16 10.97 26.01 10.97 26.01 10.81 25.86 10.81 25.86 10.66 25.71 10.66 25.71 10.51 25.56 10.51 25.56 10.36 25.41 10.36 25.41 10.21 25.26 10.21 25.26 10.06 25.11 10.06 25.11 9.91 24.95 9.91 24.95 9.76 24.8 9.76 24.8 9.61 24.65 9.61 24.65 9.46 24.5 9.46 24.5 9.31 24.35 9.31 24.35 9.16 24.2 9.16 24.2 9.01 24.05 9.01 24.05 8.86 23.9 8.86 23.9 8.71 23.75 8.71 23.75 8.56 23.6 8.56 23.6 8.41 23.45 8.41 23.45 8.26 23.3 8.26 23.3 8.11 23.15 8.11 23.15 7.95 23 7.95 23 7.8 22.85 7.8 22.85 7.65 22.7 7.65 22.7 7.5 22.55 7.5 22.55 7.35 22.39 7.35 22.39 7.2 22.24 7.2 22.24 7.05 22.09 7.05 22.09 6.9 21.94 6.9 21.94 6.75 21.79 6.75 21.79 6.6 21.64 6.6 21.64 6.45 21.49 6.45 21.49 6.3 21.34 6.3 21.34 6.15 21.19 6.15 21.19 6 21.04 6 21.04 5.85 20.89 5.85 20.89 5.7 20.74 5.7 20.74 5.54 20.59 5.54 20.59 5.39 20.44 5.39 20.44 5.24 20.29 5.24 20.29 5.09 20.14 5.09 20.14 4.94 19.99 4.94 19.99 4.79 19.84 4.79 19.84 4.64 19.68 4.64 19.68 4.49 19.53 4.49 19.53 4.34 19.38 4.34 19.38 4.19 19.23 4.19 19.23 4.04 19.08 4.04 19.08 3.89 18.93 3.89 18.93 3.74 18.78 3.74 18.78 3.59 18.63 3.59 18.63 3.44 18.48 3.44 18.48 3.29 18.33 3.29 18.33 3.14 18.18 3.14 18.18 2.99 18.03 2.99 18.03 2.83 17.88 2.83 17.88 2.69 17.73 2.69 17.73 2.53 17.58 2.53 17.58 2.38 17.43 2.38 17.43 2.23 17.28 2.23 17.28 2.08 17.13 2.08 17.13 1.93 16.98 1.93 16.98 1.78 16.82 1.78 16.82 1.63 16.67 1.63 16.67 1.48 16.52 1.48 16.52 1.33 16.37 1.33 16.37 1.18 16.22 1.18 16.22 1.03 16.07 1.03 16.07 0.88 15.92 0.88 15.92 0.73 15.77 0.73 15.77 0.58 15.62 0.58 15.62 0.43 15.47 0.43 15.47 0.28 15.32 0.28 15.32 0.13 6.16 0.13 0.13 0.13 0.13 6.16 0.13 15.32 0.28 15.32 0.28 15.47 0.43 15.47 0.43 15.62 0.58 15.62 0.58 15.77 0.73 15.77 0.73 15.92 0.88 15.92 0.88 16.07 1.03 16.07 1.03 16.22 1.18 16.22 1.18 16.37 1.33 16.37 1.33 16.52 1.48 16.52 1.48 16.67 1.63 16.67 1.63 16.82 1.78 16.82 1.78 16.98 1.93 16.98 1.93 17.13 2.08 17.13 2.08 17.28 2.23 17.28 2.23 17.43 2.38 17.43 2.38 17.58 2.53 17.58 2.53 17.73 2.69 17.73 2.69 17.88 2.83 17.88 2.83 18.03 2.99 18.03 2.99 18.18 3.14 18.18 3.14 18.33 3.29 18.33 3.29 18.48 3.44 18.48 3.44 18.63 3.59 18.63 3.59 18.78 3.74 18.78 3.74 18.93 3.89 18.93 3.89 19.08 4.04 19.08 4.04 19.23 4.19 19.23 4.19 19.38 4.34 19.38 4.34 19.53 4.49 19.53 4.49 19.68 4.64 19.68 4.64 19.84 4.79 19.84 4.79 19.99 4.94 19.99 4.94 20.14 5.09 20.14 5.09 20.29 5.24 20.29 5.24 20.44 5.39 20.44 5.39 20.59 5.54 20.59 5.54 20.74 5.7 20.74 5.7 20.89 5.85 20.89 5.85 21.04 6 21.04 6 21.19 6.15 21.19 6.15 21.34 6.3 21.34 6.3 21.49 6.45 21.49 6.45 21.64 6.6 21.64 6.6 21.79 6.75 21.79 6.75 21.94 6.9 21.94 6.9 22.09 7.05 22.09 7.05 22.24 7.2 22.24 7.2 22.39 7.35 22.39 7.35 22.55 7.5 22.55 7.5 22.7 7.65 22.7 7.65 22.85 7.8 22.85 7.8 23 7.95 23 7.95 23.15 8.11 23.15 8.11 23.3 8.26 23.3 8.26 23.45 8.41 23.45 8.41 23.6 8.56 23.6 8.56 23.75 8.71 23.75 8.71 23.9 8.86 23.9 8.86 24.05 9.01 24.05 9.01 24.2 9.16 24.2 9.16 24.35 9.31 24.35 9.31 24.5 9.46 24.5 9.46 24.65 9.61 24.65 9.61 24.8 9.76 24.8 9.76 24.95 9.91 24.95 9.91 25.11 10.06 25.11 10.06 25.26 10.21 25.26 10.21 25.41 10.36 25.41 10.36 25.56 10.51 25.56 10.51 25.71 10.66 25.71 10.66 25.86 10.81 25.86 10.81 26.01 10.97 26.01 10.97 26.16 11.12 26.16 11.12 26.31 11.27 26.31 11.27 26.46 11.42 26.46 11.42 26.61 11.57 26.61 11.57 26.76 11.72 26.76 11.72 26.91 11.87 26.91 11.87 27.06 12.02 27.06 12.02 27.21 12.17 27.21 12.17 27.36 12.32 27.36 12.32 27.51 12.47 27.51 12.47 27.66 12.62 27.66 12.62 27.82 12.77 27.82 12.77 27.97 12.92 27.97 12.92 28.12 13.07 28.12 13.07 28.27 13.22 28.27 13.22 28.42 13.38 28.42 13.38 28.57 13.53 28.57 13.53 28.72 13.68 28.72 13.68 28.87 13.83 28.87 13.83 29.02 13.98 29.02 13.98 29.17 14.13 29.17 14.13 29.32 14.28 29.32 14.28 29.47 14.43 29.47 14.43 29.62 14.58 29.62 14.58 29.77 14.73 29.77 14.73 29.92 14.88 29.92 14.88 30.07 15.03 30.07 15.03 30.22 15.18 30.22 15.18 30.38 15.33 30.38 15.33 30.52 15.48 30.52 15.48 30.68 15.63 30.68 15.63 30.83 15.78 30.83 15.78 30.98 15.93 30.98 15.93 31.13 16.09 31.13 16.09 31.28 16.23 31.28 16.23 31.43 16.39 31.43 16.39 31.58 16.54 31.58 16.54 31.73 16.69 31.73 16.69 31.88 16.84 31.88 16.84 32.03 16.99 32.03 16.99 32.18 17.14 32.18 17.14 32.33 17.29 32.33 17.29 32.48 17.44 32.48 17.44 32.63 17.59 32.63 17.59 32.78 17.74 32.78 17.74 32.93 17.89 32.93 17.89 33.09 18.04 33.09 18.04 33.23 18.19 33.23 18.19 33.39 18.34 33.39 18.34 33.54 18.49 33.54 18.49 33.69 18.64 33.69 18.64 33.84 18.8 33.84 18.8 33.99 18.95 33.99 18.95 34.14 19.1 34.14 19.1 34.29 19.25 34.29 19.25 34.44 19.4 34.44 19.4 34.59 19.55 34.59 19.55 34.74 19.7 34.74 19.7 34.89 19.85 34.89 19.85 35.04 20 35.04 20 35.19 20.15 35.19 20.15 35.34 20.3 35.34 20.3 35.49 20.45 35.49 20.45 35.64 20.6 35.64 20.6 35.8 20.75 35.8 20.75 35.95 20.9 35.95 20.9 36.1 21.05 36.1 21.05 36.25 21.2 36.25 21.2 36.4 21.35 36.4 21.35 36.55 21.5 36.55 21.5 36.7 21.66 36.7 21.66 36.85 21.81 36.85 21.81 37 21.96 37 21.96 37.15 22.11 37.15 22.11 37.3 22.26 37.3 22.26 37.45 22.41 37.45 22.41 37.6 22.56 37.6 22.56 37.75 22.71 37.75 22.71 37.9 22.86 37.9 22.86 38.05 23.01 38.05 23.01 38.2 23.16 38.2 23.16 38.35 23.31 38.35 23.31 38.51 23.46 38.51 23.46 38.66 23.61 38.66 23.61 38.81 23.76 38.81 23.76 38.96 23.91 38.96 23.91 39.11 24.07 39.11 24.07 39.26 24.21 39.26 24.21 39.41 24.37 39.41 24.37 39.56 24.52 39.56 24.52 39.71 24.67 39.71 24.67 39.86 24.82 39.86 24.82 40.01 24.97 40.01 24.97 40.16 25.12 40.16 25.12 40.31 25.27 40.31 25.27 40.46 25.42 40.46 25.42 40.61 25.57 40.61 25.57 40.76 25.72 40.76 25.72 40.91 25.87 40.91 25.87 41.06 26.02 41.06 26.02 41.22 26.17 41.22 26.17 41.37 26.32 41.37 26.32 41.52 26.47 41.52 26.47 41.67 26.62 41.67 26.62 41.82 26.77 41.82 26.77 41.97 26.93 41.97 26.93 42.12 27.08 42.12 27.08 42.27 27.23 42.27 27.23 42.42 27.38 42.42 27.38 42.57 27.53 42.57 27.53 42.72 27.68 42.72 27.68 42.87 27.83 42.87 27.83 43.02 27.98 43.02 27.98 43.17 28.13 43.17 28.13 43.32 28.28 43.32 28.28 43.47 28.43 43.47 28.43 43.62 28.58 43.62 28.58 43.77 28.73 43.77 28.73 43.92 28.88 43.92 28.88 44.08 29.03 44.08 29.03 44.23 29.18 44.23 29.18 44.38 29.33 44.38 29.33 44.53 29.48 44.53 29.48 44.68 29.64 44.68 29.64 44.83 29.79 44.83 29.79 44.98 29.94 44.98 29.94 45.13 30.09 45.13 30.09 45.28 30.24 45.28 30.24 45.43 36.27 45.43 36.27 36.27 45.43 36.27 45.43 30.24 45.28 30.24"/><polygon points="91.02 121.63 81.86 121.63 81.86 115.6 91.02 115.6 91.02 106.44 97.06 106.44 97.06 115.6 97.06 121.63 91.02 121.63"/><polygon points="60.57 91.19 51.41 91.19 51.41 85.15 60.57 85.15 60.57 75.99 66.61 75.99 66.61 85.15 66.61 91.19 60.57 91.19"/><polygon points="6.16 121.63 15.32 121.63 15.32 115.6 6.16 115.6 6.16 106.44 0.13 106.44 0.13 115.6 0.13 121.63 6.16 121.63"/><polygon points="36.58 91.02 45.74 91.02 45.74 84.98 36.58 84.98 36.58 75.83 30.55 75.83 30.55 84.98 30.55 91.02 36.58 91.02"/><line class="cls-1" x1="36.35" y1="27.66" x2="35" y2="29"/><line class="cls-1" x1="36.35" y1="29" x2="35" y2="27.66"/><line class="cls-1" x1="20.83" y1="25.67" x2="19.49" y2="27.02"/><line class="cls-1" x1="20.83" y1="27.02" x2="19.49" y2="25.67"/><line class="cls-1" x1="18.71" y1="12.42" x2="17.36" y2="13.76"/><line class="cls-1" x1="18.71" y1="13.76" x2="17.36" y2="12.42"/><line class="cls-1" x1="73.92" y1="23.68" x2="72.58" y2="25.03"/><line class="cls-1" x1="73.92" y1="25.03" x2="72.58" y2="23.68"/><line class="cls-1" x1="49.17" y1="47.97" x2="47.82" y2="49.32"/><line class="cls-1" x1="49.17" y1="49.32" x2="47.82" y2="47.97"/><line class="cls-1" x1="24.87" y1="84.41" x2="23.53" y2="85.76"/><line class="cls-1" x1="24.87" y1="85.76" x2="23.53" y2="84.41"/><line class="cls-1" x1="74.59" y1="84.41" x2="73.25" y2="85.76"/><line class="cls-1" x1="74.59" y1="85.76" x2="73.25" y2="84.41"/></g></g></svg>