<svg xmlns="http://www.w3.org/2000/svg" viewBox="0 0 107.86 134.89"><defs><style>.cls-1{fill:none;stroke-width:0.5px;}.cls-1,.cls-2{stroke:#000;stroke-miterlimit:10;}.cls-2{fill:#272525;}</style></defs><title>Asset 7</title><g id="Layer_2" data-name="Layer 2"><g id="Layer_2-2" data-name="Layer 2"><line class="cls-1" x1="71.87" y1="31.25" x2="89.87" y2="41.55"/><polyline class="cls-1" points="44.97 26.06 53.84 20.93 71.87 31.25"/><line class="cls-1" x1="27.13" y1="36.37" x2="18.18" y2="41.55"/><line class="cls-1" x1="44.97" y1="26.06" x2="27.13" y2="36.37"/><line class="cls-1" x1="81.03" y1="88.15" x2="80.91" y2="88.08"/><line class="cls-1" x1="44.9" y1="77.77" x2="45.13" y2="77.63"/><line class="cls-1" x1="27.23" y1="87.98" x2="27.02" y2="88.11"/><line class="cls-1" x1="36.24" y1="82.78" x2="35.96" y2="82.94"/><line class="cls-1" x1="53.85" y1="72.6" x2="54.02" y2="72.7"/><line class="cls-1" x1="62.94" y1="77.8" x2="62.96" y2="77.81"/><line class="cls-1" x1="71.98" y1="82.97" x2="71.92" y2="82.94"/><line class="cls-1" x1="89.87" y1="51.9" x2="89.87" y2="41.55"/><line class="cls-1" x1="89.87" y1="51.9" x2="89.87" y2="62.24"/><line class="cls-1" x1="89.88" y1="83.03" x2="89.88" y2="72.69"/><line class="cls-1" x1="89.88" y1="72.69" x2="89.87" y2="62.24"/><line class="cls-1" x1="89.88" y1="83.03" x2="89.88" y2="93.21"/><line class="cls-1" x1="18.18" y1="41.55" x2="18.18" y2="93.21"/><line class="cls-1" x1="18.18" y1="41.55" x2="27.23" y2="46.77"/><line class="cls-1" x1="27.23" y1="46.77" x2="36.24" y2="51.98"/><line class="cls-1" x1="45.13" y1="57.11" x2="36.24" y2="51.98"/><line class="cls-1" x1="80.91" y1="46.72" x2="71.88" y2="51.94"/><line class="cls-1" x1="54.02" y1="62.25" x2="62.92" y2="57.11"/><line class="cls-1" x1="45.13" y1="57.11" x2="54.02" y2="62.25"/><line class="cls-1" x1="71.88" y1="51.94" x2="62.92" y2="57.11"/><line class="cls-1" x1="80.91" y1="46.72" x2="89.87" y2="41.55"/><line class="cls-1" x1="18.18" y1="93.21" x2="27.23" y2="98.44"/><polyline class="cls-1" points="54.02 113.91 54.03 113.91 62.96 108.75"/><line class="cls-1" x1="27.23" y1="98.44" x2="36.24" y2="103.64"/><line class="cls-1" x1="71.92" y1="103.58" x2="80.91" y2="98.39"/><line class="cls-1" x1="36.24" y1="103.64" x2="45.13" y2="108.77"/><line class="cls-1" x1="62.96" y1="108.75" x2="71.92" y2="103.58"/><line class="cls-1" x1="54.02" y1="113.91" x2="45.13" y2="108.77"/><line class="cls-1" x1="80.91" y1="98.39" x2="89.88" y2="93.21"/><line class="cls-1" x1="54.02" y1="103.7" x2="54.02" y2="93.29"/><line class="cls-1" x1="54.02" y1="72.7" x2="54.02" y2="82.94"/><line class="cls-1" x1="54.02" y1="113.91" x2="54.02" y2="103.7"/><line class="cls-1" x1="54.02" y1="72.7" x2="54.02" y2="72.49"/><line class="cls-1" x1="54.02" y1="72.49" x2="54.02" y2="62.25"/><line class="cls-1" x1="54.02" y1="113.91" x2="54.02" y2="113.91"/><line class="cls-1" x1="54.02" y1="93.29" x2="54.02" y2="82.94"/><line class="cls-1" x1="62.96" y1="77.81" x2="62.96" y2="77.78"/><polyline class="cls-1" points="62.96 67.36 62.96 57.13 62.92 57.11"/><line class="cls-1" x1="45.03" y1="46.74" x2="36.08" y2="41.56"/><line class="cls-1" x1="27.13" y1="36.37" x2="36.08" y2="41.56"/><line class="cls-1" x1="62.96" y1="88.15" x2="62.96" y2="77.81"/><line class="cls-1" x1="62.96" y1="88.15" x2="62.96" y2="98.6"/><line class="cls-1" x1="54" y1="51.95" x2="62.92" y2="57.11"/><line class="cls-1" x1="62.96" y1="108.86" x2="62.96" y2="108.75"/><line class="cls-1" x1="62.96" y1="67.36" x2="62.96" y2="77.78"/><line class="cls-1" x1="45.03" y1="46.74" x2="54" y2="51.95"/><line class="cls-1" x1="27.13" y1="36.37" x2="27.13" y2="36.37"/><line class="cls-1" x1="62.96" y1="108.75" x2="62.96" y2="98.6"/><line class="cls-1" x1="71.88" y1="51.94" x2="62.91" y2="46.76"/><line class="cls-1" x1="71.92" y1="83.01" x2="71.92" y2="93.42"/><line class="cls-1" x1="44.99" y1="36.42" x2="36.09" y2="31.28"/><line class="cls-1" x1="71.92" y1="82.94" x2="71.92" y2="83.01"/><line class="cls-1" x1="44.99" y1="36.42" x2="53.95" y2="41.59"/><line class="cls-1" x1="71.92" y1="103.64" x2="71.92" y2="103.58"/><polyline class="cls-1" points="71.88 51.94 71.92 51.96 71.92 62.21"/><line class="cls-1" x1="53.95" y1="41.59" x2="62.91" y2="46.76"/><line class="cls-1" x1="71.92" y1="103.58" x2="71.92" y2="93.42"/><line class="cls-1" x1="71.92" y1="72.61" x2="71.92" y2="62.21"/><line class="cls-1" x1="71.92" y1="72.61" x2="71.92" y2="82.94"/><line class="cls-1" x1="80.91" y1="57.05" x2="80.91" y2="67.42"/><line class="cls-1" x1="44.91" y1="26.03" x2="44.97" y2="26.06"/><line class="cls-1" x1="80.91" y1="77.84" x2="80.91" y2="67.42"/><line class="cls-1" x1="71.89" y1="41.53" x2="62.95" y2="36.4"/><line class="cls-1" x1="80.91" y1="98.39" x2="80.91" y2="88.22"/><line class="cls-1" x1="80.91" y1="88.08" x2="80.91" y2="77.84"/><line class="cls-1" x1="44.97" y1="26.06" x2="53.97" y2="31.23"/><line class="cls-1" x1="62.95" y1="36.4" x2="53.97" y2="31.23"/><line class="cls-1" x1="71.89" y1="41.53" x2="80.91" y2="46.72"/><polyline class="cls-1" points="80.91 46.72 80.91 46.72 80.91 57.05"/><line class="cls-1" x1="80.91" y1="88.08" x2="80.91" y2="88.22"/><line class="cls-1" x1="80.91" y1="98.57" x2="80.91" y2="98.39"/><line class="cls-1" x1="45.13" y1="108.77" x2="45.13" y2="98.56"/><line class="cls-1" x1="80.75" y1="36.37" x2="71.89" y2="41.53"/><line class="cls-1" x1="45.13" y1="77.63" x2="45.13" y2="67.54"/><line class="cls-1" x1="45.13" y1="88.25" x2="45.13" y2="98.56"/><polyline class="cls-1" points="54 51.95 45.13 57.11 45.13 57.11"/><line class="cls-1" x1="62.91" y1="46.76" x2="54" y2="51.95"/><line class="cls-1" x1="45.13" y1="88.25" x2="45.13" y2="77.91"/><line class="cls-1" x1="45.13" y1="67.54" x2="45.13" y2="57.11"/><line class="cls-1" x1="71.89" y1="41.53" x2="62.91" y2="46.76"/><line class="cls-1" x1="45.13" y1="108.77" x2="45.13" y2="108.77"/><line class="cls-1" x1="45.13" y1="77.91" x2="45.13" y2="77.63"/><line class="cls-1" x1="71.87" y1="31.25" x2="71.95" y2="31.2"/><line class="cls-1" x1="71.87" y1="31.25" x2="62.95" y2="36.4"/><line class="cls-1" x1="36.24" y1="93.43" x2="36.24" y2="103.64"/><line class="cls-1" x1="36.24" y1="82.78" x2="36.24" y2="72.76"/><line class="cls-1" x1="36.24" y1="83.1" x2="36.24" y2="82.78"/><line class="cls-1" x1="36.24" y1="62.37" x2="36.24" y2="72.76"/><polyline class="cls-1" points="45.03 46.74 36.24 51.82 36.24 51.98"/><line class="cls-1" x1="45.03" y1="46.74" x2="53.95" y2="41.59"/><line class="cls-1" x1="62.95" y1="36.4" x2="53.95" y2="41.59"/><line class="cls-1" x1="36.24" y1="93.43" x2="36.24" y2="83.1"/><line class="cls-1" x1="36.24" y1="103.64" x2="36.24" y2="103.64"/><line class="cls-1" x1="36.24" y1="51.98" x2="36.24" y2="62.37"/><line class="cls-1" x1="27.23" y1="57.14" x2="27.23" y2="67.55"/><line class="cls-1" x1="27.23" y1="77.89" x2="27.23" y2="67.55"/><polyline class="cls-1" points="27.23 46.77 27.23 46.67 36.08 41.56"/><line class="cls-1" x1="27.23" y1="77.89" x2="27.23" y2="87.98"/><line class="cls-1" x1="27.23" y1="98.57" x2="27.23" y2="98.44"/><line class="cls-1" x1="27.23" y1="98.44" x2="27.23" y2="88.23"/><line class="cls-1" x1="27.23" y1="46.77" x2="27.23" y2="57.14"/><line class="cls-1" x1="27.23" y1="88.23" x2="27.23" y2="87.98"/><line class="cls-1" x1="44.99" y1="36.42" x2="36.08" y2="41.56"/><line class="cls-1" x1="53.97" y1="31.23" x2="44.99" y2="36.42"/><line class="cls-1" x1="53.97" y1="31.23" x2="62.85" y2="26.1"/><line class="cls-1" x1="27.23" y1="57.14" x2="18.18" y2="51.89"/><line class="cls-1" x1="36.24" y1="62.37" x2="45.13" y2="67.54"/><line class="cls-1" x1="54.02" y1="72.49" x2="45.13" y2="67.54"/><line class="cls-1" x1="89.87" y1="51.9" x2="80.91" y2="57.05"/><line class="cls-1" x1="27.23" y1="57.14" x2="36.24" y2="62.37"/><line class="cls-1" x1="71.92" y1="62.21" x2="62.96" y2="67.36"/><line class="cls-1" x1="53.85" y1="72.6" x2="54.02" y2="72.49"/><line class="cls-1" x1="80.91" y1="57.05" x2="71.92" y2="62.21"/><line class="cls-1" x1="54.02" y1="72.49" x2="62.96" y2="67.36"/><line class="cls-1" x1="89.88" y1="51.9" x2="89.87" y2="51.9"/><line class="cls-1" x1="27.23" y1="67.55" x2="18.22" y2="62.34"/><line class="cls-1" x1="80.91" y1="67.42" x2="71.92" y2="72.61"/><line class="cls-1" x1="89.88" y1="62.24" x2="89.87" y2="62.24"/><line class="cls-1" x1="44.9" y1="77.77" x2="36.24" y2="72.76"/><line class="cls-1" x1="71.92" y1="72.61" x2="62.96" y2="77.78"/><line class="cls-1" x1="62.96" y1="77.78" x2="62.94" y2="77.8"/><line class="cls-1" x1="89.87" y1="62.24" x2="80.91" y2="67.42"/><line class="cls-1" x1="54.02" y1="82.94" x2="62.94" y2="77.8"/><line class="cls-1" x1="36.24" y1="72.76" x2="27.23" y2="67.55"/><line class="cls-1" x1="45.13" y1="77.91" x2="54.02" y2="82.94"/><line class="cls-1" x1="45.13" y1="77.91" x2="44.9" y2="77.77"/><line class="cls-1" x1="89.89" y1="72.68" x2="89.88" y2="72.69"/><line class="cls-1" x1="80.91" y1="77.84" x2="71.98" y2="82.97"/><line class="cls-1" x1="62.96" y1="88.15" x2="71.92" y2="83.01"/><line class="cls-1" x1="89.88" y1="72.69" x2="80.91" y2="77.84"/><line class="cls-1" x1="45.13" y1="88.25" x2="36.24" y2="83.1"/><line class="cls-1" x1="71.92" y1="83.01" x2="71.98" y2="82.97"/><line class="cls-1" x1="35.96" y1="82.94" x2="27.23" y2="77.89"/><line class="cls-1" x1="36.24" y1="83.1" x2="35.96" y2="82.94"/><line class="cls-1" x1="54.02" y1="93.29" x2="62.96" y2="88.15"/><polyline class="cls-1" points="45.13 88.25 54.02 93.29 54.02 93.29"/><line class="cls-1" x1="18.22" y1="72.68" x2="27.23" y2="77.89"/><polyline class="cls-1" points="54.02 103.7 54.02 103.7 62.96 98.61"/><line class="cls-1" x1="89.89" y1="83.02" x2="89.88" y2="83.03"/><line class="cls-1" x1="80.91" y1="88.22" x2="81.03" y2="88.15"/><line class="cls-1" x1="54.02" y1="103.7" x2="45.13" y2="98.56"/><line class="cls-1" x1="62.96" y1="98.6" x2="71.92" y2="93.42"/><line class="cls-1" x1="89.88" y1="83.03" x2="81.03" y2="88.15"/><line class="cls-1" x1="71.92" y1="93.42" x2="80.91" y2="88.22"/><line class="cls-1" x1="36.24" y1="93.43" x2="27.23" y2="88.23"/><line class="cls-1" x1="27.02" y1="88.11" x2="27.23" y2="88.23"/><line class="cls-1" x1="45.13" y1="98.56" x2="36.24" y2="93.43"/><line class="cls-1" x1="27.02" y1="88.11" x2="18.22" y2="83.02"/><polyline class="cls-1" points="107.61 31.27 98.65 26.1 89.69 31.27"/><path class="cls-1" d="M98.65,36.45"/><line class="cls-1" x1="98.65" y1="36.45" x2="98.65" y2="36.45"/><path class="cls-1" d="M98.65,36.45"/><path class="cls-1" d="M107.61,41.62"/><line class="cls-1" x1="107.61" y1="31.28" x2="98.65" y2="36.45"/><line class="cls-1" x1="89.69" y1="31.27" x2="98.65" y2="36.45"/><polyline class="cls-1" points="107.61 31.27 107.61 41.62 107.61 41.62 98.65 46.79 89.69 41.62 89.69 31.27"/><line class="cls-1" x1="98.65" y1="36.45" x2="98.65" y2="36.45"/><line class="cls-1" x1="98.65" y1="46.79" x2="98.65" y2="36.45"/><polyline class="cls-1" points="62.9 5.46 53.94 0.29 44.98 5.46"/><path class="cls-1" d="M53.94,10.63"/><line class="cls-1" x1="53.94" y1="10.63" x2="53.95" y2="10.64"/><path class="cls-1" d="M53.95,10.64"/><path class="cls-1" d="M62.9,15.81"/><line class="cls-1" x1="62.9" y1="5.46" x2="53.94" y2="10.63"/><line class="cls-1" x1="44.98" y1="5.46" x2="53.94" y2="10.63"/><polyline class="cls-1" points="62.9 5.46 62.9 15.81 62.9 15.81 53.95 20.98 44.98 15.81 44.98 5.46"/><line class="cls-1" x1="53.95" y1="10.63" x2="53.95" y2="10.64"/><line class="cls-1" x1="53.95" y1="20.98" x2="53.95" y2="10.64"/><polyline class="cls-1" points="107.61 93.43 98.65 88.26 89.69 93.43"/><path class="cls-1" d="M98.65,98.6"/><line class="cls-1" x1="98.65" y1="98.6" x2="98.65" y2="98.61"/><path class="cls-1" d="M98.65,98.61"/><path class="cls-1" d="M107.61,103.78"/><line class="cls-1" x1="107.61" y1="93.43" x2="98.65" y2="98.6"/><line class="cls-1" x1="89.69" y1="93.43" x2="98.65" y2="98.6"/><polyline class="cls-1" points="107.61 93.43 107.61 103.78 107.61 103.78 98.65 108.95 89.69 103.78 89.69 93.43"/><line class="cls-1" x1="98.65" y1="98.6" x2="98.65" y2="98.61"/><line class="cls-1" x1="98.65" y1="108.95" x2="98.65" y2="98.61"/><polyline class="cls-1" points="62.99 119.08 54.03 113.91 45.07 119.08"/><path class="cls-1" d="M54,124.25"/><line class="cls-1" x1="54.04" y1="124.25" x2="54.04" y2="124.25"/><path class="cls-1" d="M54,124.25"/><path class="cls-1" d="M63,129.43"/><line class="cls-1" x1="62.99" y1="119.08" x2="54.04" y2="124.25"/><line class="cls-1" x1="45.07" y1="119.08" x2="54.04" y2="124.25"/><polyline class="cls-1" points="62.99 119.08 63 129.43 63 129.43 54.04 134.6 45.08 129.42 45.07 119.08"/><line class="cls-1" x1="54.04" y1="124.25" x2="54.04" y2="124.25"/><line class="cls-1" x1="54.04" y1="134.6" x2="54.04" y2="124.25"/><polyline class="cls-1" points="18.17 93.4 9.21 88.22 0.25 93.4"/><path class="cls-1" d="M9.21,98.57"/><line class="cls-1" x1="9.21" y1="98.57" x2="9.22" y2="98.57"/><path class="cls-1" d="M9.22,98.57"/><path class="cls-1" d="M18.17,103.74"/><line class="cls-1" x1="18.17" y1="93.4" x2="9.21" y2="98.57"/><line class="cls-1" x1="0.25" y1="93.4" x2="9.21" y2="98.57"/><polyline class="cls-1" points="18.17 93.4 18.17 103.74 18.17 103.74 9.21 108.92 0.25 103.74 0.25 93.4"/><line class="cls-1" x1="9.22" y1="98.57" x2="9.22" y2="98.57"/><line class="cls-1" x1="9.22" y1="108.92" x2="9.22" y2="98.57"/><polyline class="cls-1" points="18.17 31.28 9.21 26.1 0.25 31.27"/><path class="cls-1" d="M9.21,36.45"/><line class="cls-1" x1="9.21" y1="36.45" x2="9.22" y2="36.45"/><path class="cls-1" d="M9.22,36.45"/><path class="cls-1" d="M18.17,41.62"/><line class="cls-1" x1="18.17" y1="31.28" x2="9.21" y2="36.45"/><line class="cls-1" x1="0.25" y1="31.28" x2="9.21" y2="36.45"/><polyline class="cls-1" points="18.17 31.28 18.17 41.62 18.17 41.62 9.21 46.8 0.25 41.62 0.25 31.27"/><line class="cls-1" x1="9.22" y1="36.45" x2="9.22" y2="36.45"/><line class="cls-1" x1="9.22" y1="46.8" x2="9.22" y2="36.45"/><circle class="cls-2" cx="80.88" cy="57.05" r="0.61"/><circle class="cls-2" cx="80.88" cy="46.72" r="0.61"/><circle class="cls-2" cx="80.75" cy="36.37" r="0.61"/><circle class="cls-2" cx="80.9" cy="67.42" r="0.61"/><circle class="cls-2" cx="71.9" cy="62.28" r="0.61"/><circle class="cls-2" cx="71.9" cy="51.89" r="0.61"/><circle class="cls-2" cx="71.9" cy="72.65" r="0.61"/><circle class="cls-2" cx="62.97" cy="77.82" r="0.61"/><circle class="cls-2" cx="62.97" cy="88.17" r="0.61"/><circle class="cls-2" cx="62.97" cy="98.6" r="0.61"/><circle class="cls-2" cx="62.97" cy="108.75" r="0.61"/><circle class="cls-2" cx="62.97" cy="67.36" r="0.61"/><circle class="cls-2" cx="54.04" cy="72.49" r="0.61"/><circle class="cls-2" cx="54.04" cy="62.24" r="0.61"/><circle class="cls-2" cx="45.14" cy="57.1" r="0.61"/><circle class="cls-2" cx="45.13" cy="67.54" r="0.61"/><circle class="cls-2" cx="36.24" cy="51.9" r="0.61"/><circle class="cls-2" cx="36.18" cy="62.37" r="0.61"/><circle class="cls-2" cx="45.13" cy="78.04" r="0.61"/><circle class="cls-2" cx="36.18" cy="72.88" r="0.61"/><circle class="cls-2" cx="45.13" cy="88.26" r="0.61"/><circle class="cls-2" cx="36.18" cy="83.09" r="0.61"/><circle class="cls-2" cx="45.13" cy="98.57" r="0.61"/><circle class="cls-2" cx="36.18" cy="93.41" r="0.61"/><circle class="cls-2" cx="27.11" cy="88.17" r="0.61"/><circle class="cls-2" cx="18.16" cy="83.01" r="0.61"/><circle class="cls-2" cx="27.11" cy="77.85" r="0.61"/><circle class="cls-2" cx="18.16" cy="72.68" r="0.61"/><circle class="cls-2" cx="27.11" cy="98.41" r="0.61"/><circle class="cls-2" cx="18.16" cy="93.24" r="0.61"/><circle class="cls-2" cx="27.11" cy="67.54" r="0.61"/><circle class="cls-2" cx="18.16" cy="62.37" r="0.61"/><circle class="cls-2" cx="27.11" cy="57.1" r="0.61"/><circle class="cls-2" cx="18.16" cy="51.94" r="0.61"/><circle class="cls-2" cx="27.11" cy="46.77" r="0.61"/><circle class="cls-2" cx="18.16" cy="41.61" r="0.61"/><circle class="cls-2" cx="45.13" cy="108.69" r="0.61"/><circle class="cls-2" cx="36.18" cy="103.53" r="0.61"/><circle class="cls-2" cx="54.04" cy="82.94" r="0.61"/><circle class="cls-2" cx="54.04" cy="93.29" r="0.61"/><circle class="cls-2" cx="54.04" cy="103.68" r="0.61"/><circle class="cls-2" cx="54.04" cy="113.91" r="0.61"/><circle class="cls-2" cx="62.97" cy="57.11" r="0.61"/><circle class="cls-2" cx="54.04" cy="51.96" r="0.61"/><circle class="cls-2" cx="44.99" cy="46.72" r="0.61"/><circle class="cls-2" cx="36.05" cy="41.62" r="0.61"/><circle class="cls-2" cx="44.97" cy="36.45" r="0.61"/><circle class="cls-2" cx="36.07" cy="31.31" r="0.61"/><circle class="cls-2" cx="53.95" cy="31.26" r="0.61"/><circle class="cls-2" cx="45.04" cy="26.12" r="0.61"/><circle class="cls-2" cx="62.85" cy="26.1" r="0.61"/><circle class="cls-2" cx="53.84" cy="20.93" r="0.61"/><circle class="cls-2" cx="27.13" cy="36.37" r="0.61"/><circle class="cls-2" cx="62.95" cy="46.78" r="0.61"/><circle class="cls-2" cx="53.96" cy="41.59" r="0.61"/><circle class="cls-2" cx="71.87" cy="41.59" r="0.61"/><circle class="cls-2" cx="62.95" cy="36.4" r="0.61"/><circle class="cls-2" cx="71.87" cy="31.28" r="0.61"/><circle class="cls-2" cx="71.9" cy="83.03" r="0.61"/><circle class="cls-2" cx="71.9" cy="93.42" r="0.61"/><circle class="cls-2" cx="71.9" cy="103.61" r="0.61"/><circle class="cls-2" cx="80.9" cy="77.8" r="0.61"/><circle class="cls-2" cx="80.91" cy="88.22" r="0.61"/><circle class="cls-2" cx="80.91" cy="98.46" r="0.61"/><circle class="cls-2" cx="89.88" cy="93.21" r="0.61"/><circle class="cls-2" cx="89.88" cy="83.03" r="0.61"/><circle class="cls-2" cx="89.88" cy="72.69" r="0.61"/><circle class="cls-2" cx="89.88" cy="62.28" r="0.61"/><circle class="cls-2" cx="89.88" cy="51.98" r="0.61"/><circle class="cls-2" cx="89.88" cy="41.55" r="0.61"/></g></g></svg>