<?xml version="1.0" encoding="utf-8"?>
<!-- Generator: Adobe Illustrator 21.0.2, SVG Export Plug-In . SVG Version: 6.00 Build 0)  -->
<svg version="1.1" id="Layer_1" xmlns="http://www.w3.org/2000/svg" xmlns:xlink="http://www.w3.org/1999/xlink" x="0px" y="0px"
	 viewBox="0 0 995 337.2" style="enable-background:new 0 0 995 337.2;" xml:space="preserve">
<style type="text/css">
	.st0{fill:#E5E5E5;}
</style>
<title>Asset 29</title>
<g id="Layer_2">
	<g id="Layer_4">
		<g>
			<path class="st0" d="M56.4,4.6c17,0,29.2,2.4,36.4,7.1c4.2,2.8,6.6,6.2,7.3,10.7H74.7c-2.6-5.6-9.8-8.4-22.1-8.4h-1.1
				c-10.8,0-21.4,0.8-21.4,9.8v0.1c0,8.9,10.9,9.8,21.1,10l14.2,0.3c14.4,0.4,24.3,2.3,30.2,5.7c5.2,3,7.6,7.4,7.6,14v1.5
				c0,6.9-2.2,11.5-7.2,15.1c-7.1,5.1-19.8,7.7-37.7,7.7l-9.6,0c-18.1,0-30.8-3.1-37.8-9.2c-3.6-3.2-5.6-7-6.2-11.9h25.6
				c2.9,9.1,13.8,11.1,23,11.1h1c11.5,0,23.3-1.4,23.3-11.4v-0.1c0-9.6-10.2-10.7-22.4-11.1l-14.6-0.4c-13.3-0.4-22.9-2.7-28.6-6.8
				c-4.3-3.1-6.3-7.2-6.3-12.9v-1c0-6,2.2-10.3,7.1-13.4C19.4,6.8,30.9,4.6,47,4.6H56.4 M56.4,0.6H47c-36.8,0-45.3,11.2-45.3,24v1
				c0,12.2,8.2,22.9,38.7,23.8L55,49.8c16.5,0.5,18.5,3.1,18.5,7.1V57c0,3.8-2.4,7.4-19.3,7.4h-1c-17.2,0-19.4-6.9-19.7-11.1H0.5
				v1.1c0,10.3,4.6,28,48.1,28l9.6,0c41.4,0,48.9-13.6,48.9-26.8V54c0-15.9-11.7-22.9-41.7-23.7l-14.2-0.3
				c-14.8-0.3-17.2-2.8-17.2-6v-0.1c0-3.1,1.6-5.8,17.4-5.8h1.1c17.1,0,18.8,5.5,19.1,8.4h32.7v-0.9C104.3,13,95.4,0.6,56.4,0.6
				L56.4,0.6z"/>
		</g>
		<g>
			<path class="st0" d="M186,6c30,0,33.4,12.6,33.4,22.1v1.7c0,15.1-10.9,22.4-33.4,22.4l-35.6,0l-4,0v4v20.7h-22.1V6H186
				 M146.4,40.4h4h32c6.8,0,14-2.9,14-11.2v-0.3c0-10.1-9.8-11.2-14-11.2h-32h-4v4v14.7V40.4 M186,2h-65.7v78.9h30.1V56.1l35.6,0
				c28.8,0,37.4-12.1,37.4-26.4v-1.7C223.4,13.5,215.1,2,186,2L186,2z M150.4,36.4V21.7h32c7.1,0,10,2.6,10,7.2v0.3
				c0,4.4-3.1,7.2-10,7.2H150.4L150.4,36.4z"/>
		</g>
		<g>
			<path class="st0" d="M319.8,6v11.3h-53.6h-4v4v9.9v4h4h52.4v11.2h-52.4h-4v4v10.8v4h4h54.4v11.7h-80.1V6H319.8 M323.8,2h-87.2
				v78.9h88.1V61.1h-58.4V50.3h56.4V31.1h-56.4v-9.9h57.6V2L323.8,2z"/>
		</g>
		<g>
			<path class="st0" d="M396.8,4.5c42.1,0,49.6,17,50.7,25.3h-24.4c-3.9-7.9-13.7-12.1-28.7-12.1c-11.3,0-30.4,2.9-30.4,22.4v1.3
				c0,17.4,15.8,23.6,30.5,23.6c19.1,0,26.2-7.1,28.8-12.9h24.2c-0.4,3.7-2.2,9.6-8.1,14.8c-8.6,7.6-23,11.4-42.6,11.4l-4.1,0
				c-20.2,0-34.7-4.4-43.2-13c-7.1-7.2-8.6-16.3-8.6-22.6v-3.1c0-23.3,17.4-35.1,51.8-35.1H396.8 M396.8,0.5h-4.1
				c-49.2,0-55.8,24.1-55.8,39.1v3.1c0,15,7.3,39.7,55.8,39.7l4.1,0c47.5,0,54.9-22.3,54.9-32.5v-1.7h-31.2
				c-0.5,1.8-2.8,12.9-26,12.9c-21.2,0-26.5-11.1-26.5-19.6v-1.3c0-8.8,4.7-18.4,26.4-18.4c22.9,0,25.4,10,26,12.1h31.3v-1.4
				C451.7,22.2,444.7,0.5,396.8,0.5L396.8,0.5z"/>
		</g>
		<g>
			<path class="st0" d="M569,6v33.6c0,5.5-1.1,15.9-8.3,24.4c-8,9.4-21.3,14.1-39.7,14.1h-4.2c-18.9,0-32.4-4.7-40.3-14.1
				c-6.6-7.9-8-17.6-8-24.4l0-33.6h22.2v31.3c0,6.9,1.9,12.6,5.6,16.8c4.8,5.5,12.4,8.4,22.6,8.4c25.3,0,28.1-17.6,28.1-25.2V6H569
				 M573,2h-30.1v35.3c0,9.7-4.5,21.2-24.1,21.2c-19.9,0-24.2-11.6-24.2-21.2V2h-30.2l0,37.6c0,15.3,6.5,42.5,52.4,42.5h4.2
				c44.6,0,51.9-27.2,51.9-42.5V2L573,2z"/>
		</g>
		<g>
			<path class="st0" d="M614.8,6v52.3v4h4h50.7v14.6h-76.8V6H614.8 M618.8,2h-30.1v78.9h84.8V58.3h-54.7V2L618.8,2z"/>
		</g>
		<g>
			<path class="st0" d="M759.4,6l37,70.9h-23.9l-5-10.4l-1.1-2.3h-2.5h-45h-2.5l-1.1,2.3l-4.9,10.4h-21.6L723.8,6H759.4 M721.7,52.4
				h6.3h26.2h6.4l-2.8-5.8l-13.3-27.1l-3.6-7.4l-3.6,7.5l-12.9,27.1L721.7,52.4 M761.8,2h-40.5l-39,78.9h30.6l6-12.7h45l6.1,12.7h33
				L761.8,2L761.8,2z M728.1,48.4L741,21.3l13.3,27.1H728.1L728.1,48.4z"/>
		</g>
		<g>
			<path class="st0" d="M888.2,6v13.5h-30h-4v4v53.4H832V23.5v-4h-4h-30V6H888.2 M892.2,2H794v21.5h34v57.4h30.2V23.5h34V2L892.2,2z
				"/>
		</g>
		<g>
			<path class="st0" d="M989.6,6v11.3H936h-4v4v9.9v4h4h52.4v11.2H936h-4v4v10.8v4h4h54.4v11.7h-80.1V6H989.6 M993.6,2h-87.2v78.9
				h88.1V61.1H936V50.3h56.4V31.1H936v-9.9h57.6V2L993.6,2z"/>
		</g>
		<g>
			<path class="st0" d="M37.8,152.8v14.6v4h4h16.3v8l-16.4,0l-4,0v4V198H26.4v-14.6v-4h-4H6.2v-8h16.2h4v-4v-14.6H37.8 M41.8,148.8
				H22.4v18.6H2.2v16h20.2V202h19.4v-18.6l20.3,0v-16H41.8V148.8L41.8,148.8z"/>
		</g>
		<g>
			<path class="st0" d="M61.3,258.9c42.1,0,49.6,17,50.7,25.3H87.7c-3.9-7.9-13.7-12.1-28.7-12.1c-11.3,0-30.4,2.9-30.4,22.4v1.3
				c0,17.4,15.8,23.6,30.5,23.6c19.1,0,26.2-7.1,28.8-12.9h24.2c-0.4,3.7-2.2,9.6-8.1,14.8c-8.6,7.6-23,11.4-42.6,11.4l-4.2,0
				c-20.2,0-34.7-4.4-43.2-13c-7.1-7.2-8.6-16.3-8.6-22.6V294c0-23.3,17.4-35.1,51.8-35.1H61.3 M61.3,254.9h-4.1
				C8,254.9,1.4,279,1.4,294v3.1c0,14.9,7.3,39.6,55.8,39.6l4.2,0c47.5,0,54.9-22.3,54.9-32.5v-1.7H85.1c-0.5,1.8-2.8,12.9-26,12.9
				c-21.2,0-26.5-11.1-26.5-19.6v-1.3c0-8.8,4.7-18.4,26.4-18.4c22.9,0,25.4,10,26,12.1h31.2v-1.4
				C116.2,276.6,109.2,254.9,61.3,254.9L61.3,254.9z"/>
		</g>
		<g>
			<path class="st0" d="M201.5,260.4c10.4,0,18.2,1.6,23.1,4.7c4.2,2.7,6.1,6.3,6.1,11.6v1.2c0,9.9-9.8,13-12.8,13.7l-16.9,3.9
				l16.9,3.8c10.9,2.5,13.1,9.4,13.1,14.9v11.7c0,2.2,0.1,4,0.3,5.4h-22.6c0,0,0-0.1,0-0.1v-9.2c0-11.9-6.5-17.7-20-17.7h-28.8h-4v4
				v23h-22.1v-70.9H201.5 M155.9,293.1h4h34.6c6.3,0,13.1-2.8,13.1-10.8v-0.1c0-2.5-0.9-10.7-13.1-10.7h-34.6h-4v4v13.6V293.1
				 M201.5,256.4h-71.7v78.9h30.1v-27h28.8c11.9,0,16,4.7,16,13.7v9.2c0,2.2,0.3,3.3,1,4.1h30.8v-0.5c-0.7-1.4-1.5-3.4-1.5-8.9
				v-11.7c0-10.2-6.5-16.5-16.2-18.8c5.9-1.4,15.9-6.1,15.9-17.6v-1.2C234.7,263.8,224.5,256.4,201.5,256.4L201.5,256.4z
				 M159.9,289.1v-13.6h34.6c6.8,0,9.1,3,9.1,6.7v0.1c0,3.8-2.4,6.8-9.1,6.8H159.9L159.9,289.1z"/>
		</g>
		<g>
			<path class="st0" d="M332.8,260.4v11.3h-53.6h-4v4v9.9v4h4h52.4v11.2h-52.4h-4v4v10.8v4h4h54.4v11.7h-80.1v-70.9H332.8
				 M336.8,256.4h-87.2v78.9h88.1v-19.7h-58.4v-10.8h56.4v-19.2h-56.4v-9.9h57.6V256.4L336.8,256.4z"/>
		</g>
		<g>
			<path class="st0" d="M423.2,260.4l37,70.9h-23.9l-5-10.4l-1.1-2.3h-2.5h-45.1h-2.5l-1.1,2.3l-4.9,10.4h-21.6l35-70.9H423.2
				 M385.7,306.8h6.3h26.2h6.4l-2.8-5.8l-13.3-27.1l-3.6-7.4l-3.6,7.5l-12.9,27.1L385.7,306.8 M425.6,256.4h-40.5l-39,78.9h30.6
				l6-12.7h45.1l6.1,12.7h33L425.6,256.4L425.6,256.4z M392,302.8l12.9-27.1l13.3,27.1H392L392,302.8z"/>
		</g>
		<g>
			<path class="st0" d="M552,260.4v13.5h-30h-4v4v53.4h-22.1l0-53.3l0-4h-4h-30v-13.5H552 M556,256.4h-98.1v21.5h34l0,57.4H522
				v-57.4h34V256.4L556,256.4z"/>
		</g>
		<g>
			<path class="st0" d="M653.5,260.4v11.3h-53.6h-4v4v9.9v4h4h52.4v11.2h-52.4h-4v4v10.8v4h4h54.4v11.7h-80.1v-70.9H653.5
				 M657.5,256.4h-87.2v78.9h88.1v-19.7h-58.4v-10.8h56.4v-19.2h-56.4v-9.9h57.6V256.4L657.5,256.4z"/>
		</g>
	</g>
</g>
</svg>
