<svg xmlns="http://www.w3.org/2000/svg" viewBox="0 0 133.48 150.27"><defs><style>.cls-1{fill:none;stroke:#000;stroke-miterlimit:10;stroke-width:0.25px;}.cls-2{font-size:5px;font-family:Akkurat-Mono, Akkurat-Mono;}</style></defs><title>Asset 3</title><g id="Layer_2" data-name="Layer 2"><g id="Layer_2-2" data-name="Layer 2"><path class="cls-1" d="M54.71,45.09c13.75-7.94,36.12-7.94,49.87,0,4.74,2.73,8,6.12,9.48,9.81a12.73,12.73,0,0,0,2.23-7c0-5.2-3.51-10.15-9.87-14L99,38.2l-1-1.76,6.35-3.67c-6.65-3.41-15.17-5.3-24.14-5.3s-17.49,1.89-24.14,5.3l6.58,3.8-1,1.76L54,33.91c-6.36,3.82-9.87,8.77-9.87,14a12.36,12.36,0,0,0,1.61,6C47.37,50.57,50.43,47.56,54.71,45.09Z"/><path class="cls-1" d="M104.58,74.37c-6.87,4-15.9,6-24.93,6s-18.06-2-24.94-6a23.1,23.1,0,0,1-8.4-7.72l-1,.57c.85,4.41,4.26,8.5,9.81,11.71,13.52,7.8,35.51,7.8,49,0,5.06-2.92,8.34-6.59,9.52-10.55l-1.33-.77A24.11,24.11,0,0,1,104.58,74.37Z"/><path class="cls-1" d="M114.07,58.2a26.91,26.91,0,0,1-5.67,4.8l4.29,2.48a12.16,12.16,0,0,0,1.49-5.75A11.49,11.49,0,0,0,114.07,58.2Z"/><path class="cls-1" d="M104.58,106.17c-6.87,4-15.9,6-24.93,6s-18.06-2-24.94-6c-4.84-2.79-8.11-6.27-9.57-10.06,0,.24,0,.47,0,.71,0,5.23,3.56,10.17,10,13.91,13.52,7.8,35.51,7.8,49,0,6.47-3.73,10-8.67,10-13.91,0-.24,0-.48,0-.71C112.69,99.9,109.42,103.37,104.58,106.17Z"/><path class="cls-1" d="M104.58,111.47c-6.87,4-15.9,6-24.93,6s-18.06-2-24.94-6c-4.54-2.62-7.69-5.83-9.28-9.34a12.54,12.54,0,0,0-1.9,6.5c0,4.7,2.94,9.29,8.26,12.94l7.57-4.37,1,1.76-6.65,3.84.17.1c13.51,7.8,35.68,8.13,49.88.84L97.24,120l1-1.76,7.6,4.39c6.36-3.82,9.87-8.77,9.87-14a12.53,12.53,0,0,0-1.88-6.47C112.26,105.66,109.11,108.86,104.58,111.47Z"/><path class="cls-1" d="M46.1,64.44l4.33-2.5a24.47,24.47,0,0,1-5-4.79,11.58,11.58,0,0,0-.3,2.58A11.91,11.91,0,0,0,46.1,64.44Z"/><path class="cls-1" d="M104.58,100.87c-6.87,4-15.9,6-24.93,6s-18.06-2-24.93-6c-4.84-2.79-8.11-6.27-9.57-10.06,0,.24,0,.47,0,.71,0,5.23,3.56,10.17,10,13.91,13.52,7.8,35.51,7.8,49,0,6.47-3.73,10-8.67,10-13.91,0-.24,0-.48,0-.71C112.69,94.6,109.42,98.07,104.58,100.87Z"/><path class="cls-1" d="M104.58,95.57c-6.87,4-15.9,6-24.93,6s-18.06-2-24.93-6c-4.84-2.8-8.11-6.27-9.57-10.06,0,.24,0,.47,0,.71,0,5.23,3.56,10.17,10,13.91,13.52,7.8,35.51,7.8,49,0,6.47-3.73,10-8.67,10-13.91,0-.24,0-.48,0-.71C112.69,89.3,109.42,92.77,104.58,95.57Z"/><path class="cls-1" d="M104.58,90.27c-6.87,4-15.9,6-24.93,6s-18.06-2-24.93-6C49.87,87.47,46.6,84,45.14,80.21c0,.24,0,.47,0,.71,0,5.23,3.56,10.17,10,13.91,13.52,7.8,35.51,7.8,49,0,6.47-3.73,10-8.67,10-13.91,0-.24,0-.48,0-.71C112.69,84,109.42,87.47,104.58,90.27Z"/><path class="cls-1" d="M55.14,73.63c13.52,7.8,35.51,7.8,49,0a23.49,23.49,0,0,0,7.47-6.44l-5.21-3C99.34,68.13,90,70.3,80.19,70.3c-10.11,0-19.6-2.27-26.75-6.39-.4-.23-.78-.47-1.16-.7l-5.26,3A22.38,22.38,0,0,0,55.14,73.63Z"/><path class="cls-1" d="M104.58,79.67c-6.87,4-15.9,6-24.93,6s-18.06-2-24.93-6c-4.84-2.79-8.11-6.27-9.57-10.06,0,.24,0,.47,0,.71,0,5.23,3.56,10.17,10,13.91,13.52,7.8,35.51,7.8,49,0,6.47-3.73,10-8.67,10-13.91,0-.24,0-.48,0-.71C112.69,73.4,109.42,76.87,104.58,79.67Z"/><path class="cls-1" d="M104.58,85c-6.87,4-15.9,6-24.93,6s-18.06-2-24.93-6c-4.84-2.79-8.11-6.27-9.57-10.06,0,.24,0,.47,0,.71,0,5.23,3.56,10.17,10,13.91,13.52,7.8,35.51,7.8,49,0,6.47-3.73,10-8.67,10-13.91,0-.24,0-.48,0-.71C112.69,78.7,109.42,82.17,104.58,85Z"/><path class="cls-1" d="M59.93,56.45l1,1.76L54.29,62l.17.1c13.51,7.8,35.68,8.13,49.88.84L97.8,59.22l1-1.76,7.6,4.39a24.27,24.27,0,0,0,7.05-6.12c-1.33-3.72-4.53-7.15-9.32-9.91C97.4,41.92,88.52,40,79.65,40s-17.75,2-24.51,5.85c-4.36,2.52-7.39,5.58-8.91,8.91a21.75,21.75,0,0,0,6.14,6.08Z"/><path class="cls-1" d="M117.75,108.62a15,15,0,0,0-3.07-8.87,13.41,13.41,0,0,1-.83,2.4,12.53,12.53,0,0,1,1.88,6.47c0,5.2-3.51,10.15-9.87,14l-7.6-4.39-1,1.76,6.54,3.78c-14.21,7.28-36.38,7-49.88-.84l-.17-.1L60.38,119l-1-1.76-7.57,4.37c-5.33-3.65-8.26-8.24-8.26-12.94a12.54,12.54,0,0,1,1.9-6.5,13.4,13.4,0,0,1-.83-2.4,15,15,0,0,0-3.1,8.9c0,5.22,2.89,10.06,8.36,14.06l-6.85,4,1,1.76,7.7-4.45c.38.24.76.48,1.16.7C60,128.77,69.53,131,79.63,131c9.85,0,19.14-2.17,26.22-6.11l7.74,4.47,1-1.76-6.77-3.91C114.24,119.61,117.75,114.27,117.75,108.62Z"/><path class="cls-1" d="M54.71,111.47c6.88,4,15.9,6,24.94,6s18.06-2,24.93-6c4.52-2.61,7.67-5.81,9.26-9.31a13.41,13.41,0,0,0,.83-2.4,12.12,12.12,0,0,0,.06-5.58,13.1,13.1,0,0,1-.58,1.94c0,.24,0,.47,0,.71,0,5.23-3.56,10.17-10,13.91-13.51,7.8-35.5,7.8-49,0-6.47-3.73-10-8.67-10-13.91,0-.24,0-.48,0-.71a13.1,13.1,0,0,1-.58-1.94,12.1,12.1,0,0,0,.05,5.54,13.4,13.4,0,0,0,.83,2.4C47,105.64,50.18,108.85,54.71,111.47Z"/><path class="cls-1" d="M54.71,106.17c6.87,4,15.9,6,24.94,6s18.06-2,24.93-6c4.84-2.79,8.11-6.27,9.57-10.05a13.1,13.1,0,0,0,.58-1.94,12,12,0,0,0,0-5.3,13.1,13.1,0,0,1-.58,1.94c0,.24,0,.47,0,.71,0,5.23-3.56,10.17-10,13.91-13.52,7.8-35.51,7.8-49,0-6.47-3.73-10-8.67-10-13.91,0-.24,0-.48,0-.71a13.1,13.1,0,0,1-.58-1.94,12,12,0,0,0,0,5.3,13.1,13.1,0,0,0,.58,1.94C46.6,99.9,49.87,103.37,54.71,106.17Z"/><path class="cls-1" d="M54.71,100.87c6.87,4,15.9,6,24.93,6s18.06-2,24.93-6c4.84-2.79,8.11-6.27,9.57-10.05a13.1,13.1,0,0,0,.58-1.94,12,12,0,0,0,0-5.3,13.1,13.1,0,0,1-.58,1.94c0,.24,0,.47,0,.71,0,5.23-3.56,10.17-10,13.91-13.51,7.8-35.5,7.8-49,0-6.47-3.73-10-8.67-10-13.91,0-.24,0-.48,0-.71a13.13,13.13,0,0,1-.58-1.94,12,12,0,0,0,0,5.3,13.1,13.1,0,0,0,.58,1.94C46.6,94.6,49.87,98.07,54.71,100.87Z"/><path class="cls-1" d="M54.71,95.57c6.87,4,15.9,6,24.93,6s18.06-2,24.93-6c4.84-2.79,8.11-6.27,9.57-10.06a13.1,13.1,0,0,0,.58-1.94,12,12,0,0,0,0-5.3,13.1,13.1,0,0,1-.58,1.94c0,.24,0,.47,0,.71,0,5.23-3.56,10.17-10,13.91-13.51,7.8-35.5,7.8-49,0-6.47-3.73-10-8.67-10-13.91,0-.24,0-.48,0-.71a13.13,13.13,0,0,1-.58-1.94,12,12,0,0,0,0,5.3,13.13,13.13,0,0,0,.58,1.94C46.6,89.3,49.87,92.77,54.71,95.57Z"/><path class="cls-1" d="M54.71,90.27c6.87,4,15.9,6,24.93,6s18.06-2,24.93-6c4.84-2.79,8.11-6.27,9.57-10.05a13.1,13.1,0,0,0,.58-1.94,12,12,0,0,0,0-5.3,13.1,13.1,0,0,1-.58,1.94c0,.24,0,.47,0,.71,0,5.23-3.56,10.17-10,13.91-13.51,7.8-35.5,7.8-49,0-6.47-3.73-10-8.67-10-13.91,0-.24,0-.48,0-.71A13.1,13.1,0,0,1,44.56,73a12,12,0,0,0,0,5.3,13.13,13.13,0,0,0,.58,1.94C46.6,84,49.87,87.47,54.71,90.27Z"/><path class="cls-1" d="M54.71,85c6.87,4,15.9,6,24.93,6s18.06-2,24.93-6c4.84-2.79,8.11-6.27,9.57-10.06a13.1,13.1,0,0,0,.58-1.94,12,12,0,0,0,0-5.3,13.1,13.1,0,0,1-.58,1.94c0,.24,0,.47,0,.71,0,5.23-3.56,10.17-10,13.91-13.51,7.8-35.5,7.8-49,0-6.47-3.73-10-8.67-10-13.91,0-.24,0-.48,0-.71a19.75,19.75,0,0,1-.58-1.94,12,12,0,0,0,0,5.3,13.1,13.1,0,0,0,.58,1.94C46.6,78.7,49.87,82.17,54.71,85Z"/><path class="cls-1" d="M45.11,65l.27-.16c-.08-.18-.17-.36-.24-.54C45.13,64.54,45.11,64.78,45.11,65Z"/><path class="cls-1" d="M114.16,64.31a14.42,14.42,0,0,1-.73,1.58l.69.4a11.51,11.51,0,0,0,.08-1.26C114.19,64.79,114.17,64.55,114.16,64.31Z"/><path class="cls-1" d="M45.14,64.31a13.13,13.13,0,0,1-.58-1.94,12.44,12.44,0,0,0-.3,2.65c0,.15,0,.3,0,.46l.82-.48C45.11,64.78,45.13,64.54,45.14,64.31Z"/><path class="cls-1" d="M114.19,65a11.51,11.51,0,0,1-.08,1.26l.79.45A11.93,11.93,0,0,0,115,65a12.43,12.43,0,0,0-.3-2.65,13.1,13.1,0,0,1-.58,1.94C114.17,64.55,114.19,64.79,114.19,65Z"/><path class="cls-1" d="M54.71,79.67c6.87,4,15.9,6,24.93,6s18.06-2,24.93-6c4.84-2.79,8.11-6.27,9.57-10.05a13.1,13.1,0,0,0,.58-1.94v0l-.59,1-.48-.28c-1.19,4-4.46,7.63-9.52,10.55-13.51,7.8-35.5,7.8-49,0-5.55-3.21-9-7.3-9.81-11.71l-.74.43-.05-.09s0,.08,0,.12a13.1,13.1,0,0,0,.58,1.94C46.6,73.4,49.87,76.87,54.71,79.67Z"/><path class="cls-1" d="M45.38,64.85l.72-.41a11.91,11.91,0,0,1-1-4.71,11.58,11.58,0,0,1,.3-2.58q-.34-.44-.65-.89a12.11,12.11,0,0,0-.21,6.12,13.13,13.13,0,0,0,.58,1.94C45.21,64.49,45.3,64.67,45.38,64.85Z"/><path class="cls-1" d="M55.14,45.82C61.9,41.92,70.77,40,79.65,40s17.75,2,24.51,5.85c4.79,2.77,8,6.19,9.32,9.91q.31-.42.59-.84c-1.51-3.69-4.74-7.08-9.48-9.81-13.75-7.94-36.12-7.94-49.87,0-4.29,2.48-7.34,5.48-9,8.77.16.3.33.59.52.88C47.75,51.4,50.78,48.34,55.14,45.82Z"/><path class="cls-1" d="M114.19,59.73a12.16,12.16,0,0,1-1.49,5.75l.72.42a14.42,14.42,0,0,0,.73-1.58,13.1,13.1,0,0,0,.58-1.94,12,12,0,0,0,.05-5q-.34.44-.72.87A11.49,11.49,0,0,1,114.19,59.73Z"/><path class="cls-1" d="M54.71,74.37c6.88,4,15.9,6,24.94,6s18.06-2,24.93-6a24.11,24.11,0,0,0,7.76-6.76l-.72-.41a23.49,23.49,0,0,1-7.47,6.44c-13.51,7.8-35.5,7.8-49,0A22.38,22.38,0,0,1,47,66.24l-.72.41A23.1,23.1,0,0,0,54.71,74.37Z"/><path class="cls-1" d="M45.33,67.22l1-.57.72-.41,5.26-3c.38.24.76.48,1.16.7C60.59,68,70.09,70.3,80.19,70.3c9.85,0,19.14-2.17,26.22-6.11l5.21,3,.72.41,1.33.77.48.28.59-1,.43-.74-.28-.16-.79-.45-.69-.4-.72-.42L108.41,63a26.91,26.91,0,0,0,5.67-4.8q.38-.43.72-.87a15.21,15.21,0,0,0,3.52-9.46c0-5.65-3.52-11-9.91-15.12l6.94-4-1-1.76-7.91,4.57c-14.53-8.08-37.92-8.08-52.45,0l-7.68-4.44-1,1.76L52,32.76c-6.39,4.12-9.91,9.47-9.91,15.12a14.74,14.74,0,0,0,2.69,8.37q.31.45.65.89a24.47,24.47,0,0,0,5,4.79l-4.33,2.5-.72.41-.27.16-.82.48-.71.41,1,1.66.05.09Zm.9-12.49c-.19-.29-.36-.59-.52-.88a12.36,12.36,0,0,1-1.61-6c0-5.2,3.51-10.15,9.87-14l7.66,4.42,1-1.76-6.58-3.8c6.65-3.41,15.17-5.3,24.14-5.3s17.49,1.89,24.14,5.3L98,36.44l1,1.76,7.43-4.29c6.36,3.82,9.87,8.77,9.87,14a12.73,12.73,0,0,1-2.23,7q-.28.42-.59.84a24.27,24.27,0,0,1-7.05,6.12l-7.6-4.39-1,1.76L104.34,63c-14.21,7.28-36.38,7-49.88-.84l-.17-.1,6.65-3.84-1-1.76-7.57,4.37A21.75,21.75,0,0,1,46.23,54.74Z"/><polyline class="cls-1" points="13.95 7.97 81.26 7.97 81.26 54.1"/><polyline class="cls-1" points="81.26 131.03 81.26 149.03 131.69 149.03"/><polygon points="131.32 150.27 133.48 149.03 131.32 147.78 131.32 150.27"/><line class="cls-1" x1="81.26" y1="117.42" x2="81.26" y2="128.98"/><text class="cls-2" transform="translate(0 4.27)">Apathy :/</text><text class="cls-2" transform="translate(86.62 145.8)">Empathy :)</text></g></g></svg>