<?xml version="1.0" encoding="utf-8"?>
<!-- Generator: Adobe Illustrator 21.0.2, SVG Export Plug-In . SVG Version: 6.00 Build 0)  -->
<svg version="1.1" id="Layer_1" xmlns="http://www.w3.org/2000/svg" xmlns:xlink="http://www.w3.org/1999/xlink" x="0px" y="0px"
	 viewBox="0 0 39 40" style="enable-background:new 0 0 39 40;" xml:space="preserve">
<title>Asset 28</title>
<g id="Layer_2">
	<g id="Layer_4">
		<g>
			<path d="M25.2,1.5L25.2,2l-0.3,1.6l1.3-0.4C33.3,6,38,12.9,38,20.6c0,10.2-8.3,18.5-18.5,18.5C9.3,39.1,1,30.8,1,20.5
				c0-9.9,7.8-18,17.5-18.5v0.5v0.5C11.7,3.4,5.8,7.7,3.3,14C-0.3,23,4.1,33.2,13,36.7c2.1,0.8,4.3,1.3,6.5,1.3
				c7.2,0,13.6-4.3,16.2-11c3.6-8.9-0.8-19.1-9.7-22.7l-1.1-0.5L24.6,5l-0.1,0.4l-3.1-2.6L25.2,1.5 M26.5,0l-7,2.5l5.7,4.8l0.4-2.1
				c8.4,3.4,12.6,13,9.2,21.4C32.2,33.1,26,37,19.5,37c-2,0-4.1-0.4-6.1-1.2c-8.4-3.4-12.6-13-9.2-21.4C6.7,8.1,12.8,4,19.5,4
				c0,0,0,0,0,0V2.6V1c0,0,0,0,0,0C8.7,1,0,9.8,0,20.5c0,10.8,8.7,19.5,19.5,19.5c0,0,0,0,0,0c10.8,0,19.5-8.7,19.5-19.5
				C39,12.4,33.9,5,26.2,2.2l0,0L26.5,0L26.5,0z"/>
		</g>
	</g>
</g>
</svg>
