<?xml version="1.0" encoding="utf-8"?>
<!-- Generator: Adobe Illustrator 22.1.0, SVG Export Plug-In . SVG Version: 6.00 Build 0)  -->
<svg version="1.1" id="Layer_1" xmlns="http://www.w3.org/2000/svg" xmlns:xlink="http://www.w3.org/1999/xlink" x="0px" y="0px"
	 viewBox="0 0 496 496.1" style="enable-background:new 0 0 496 496.1;" xml:space="preserve">
<path d="M336.5,152.2C322,62.9,287.8,0.2,248,0.2s-74,62.7-88.5,152H336.5z M152,248.2c0,22.2,1.2,43.5,3.3,64h185.3
	c2.1-20.5,3.3-41.8,3.3-64s-1.2-43.5-3.3-64H155.3C153.2,204.7,152,226,152,248.2z M476.7,152.2c-28.6-67.9-86.5-120.4-158-141.6
	c24.4,33.8,41.2,84.7,50,141.6H476.7z M177.2,10.6C105.8,31.8,47.8,84.3,19.3,152.2h108C136,95.3,152.8,44.4,177.2,10.6L177.2,10.6z
	 M487.4,184.2H372.7c2.1,21,3.3,42.5,3.3,64s-1.2,43-3.3,64h114.6c5.5-20.5,8.6-41.8,8.6-64S492.8,204.7,487.4,184.2L487.4,184.2z
	 M120,248.2c0-21.5,1.2-43,3.3-64H8.6C3.2,204.7,0,226,0,248.2s3.2,43.5,8.6,64h114.6C121.2,291.2,120,269.7,120,248.2z
	 M159.5,344.2c14.5,89.3,48.7,152,88.5,152s74-62.7,88.5-152H159.5z M318.8,485.8c71.4-21.2,129.4-73.7,158-141.6h-108
	C360,401.1,343.2,452,318.8,485.8z M19.3,344.2c28.6,67.9,86.5,120.4,158,141.6c-24.4-33.8-41.2-84.7-50-141.6
	C127.3,344.2,19.3,344.2,19.3,344.2z"/>
</svg>
