<svg xmlns="http://www.w3.org/2000/svg" viewBox="0 0 285 23.1"><defs><style>.cls-1{fill:#040000;}</style></defs><title>DAKECUI-logo</title><g id="图层_2" data-name="图层 2"><g id="Layer_1" data-name="Layer 1"><path class="cls-1" d="M0,.61A33.45,33.45,0,0,1,5.81.15C9.55.15,12.09.93,14,2.48c2.13,1.75,3.39,4.53,3.39,8.59,0,4.82-1.67,7.62-3.39,9.17C11.92,22.08,8.79,23,4.88,23A37.68,37.68,0,0,1,0,22.69ZM4.29,19.45A9.5,9.5,0,0,0,6,19.54c4.12,0,6.86-2.51,6.86-8.41,0-5.08-2.48-7.6-6.48-7.6a10.77,10.77,0,0,0-2,.18Z"/><path class="cls-1" d="M66.27,22.78H61.74l-1.61-5.93h-6l-1.55,5.93H48.19L54.56.32H60Zm-6.75-9.2L58.18,8.47c-.35-1.4-.73-3.21-1-4.59h-.09c-.29,1.41-.67,3.25-1,4.56l-1.34,5.14Z"/><path class="cls-1" d="M113.2,22.78h-4.94l-5.19-9.93L101.4,15.1v7.68H97.11V.32h4.29V10.48h.09c.47-.87,1-1.72,1.43-2.56l4.82-7.6h5.14L106.1,9.93Z"/><path class="cls-1" d="M156.6,22.78H144V.32h12.09V3.94h-7.77V9.38h7.33v3.53h-7.33v6.25h8.24Z"/><path class="cls-1" d="M202.89,22.23a12.67,12.67,0,0,1-5,.84c-6.74,0-10.48-4.58-10.48-11.24C187.44,4,192.49,0,198.45,0a10.49,10.49,0,0,1,4.64.85l-.84,3.5a8.87,8.87,0,0,0-3.6-.73c-3.7,0-6.68,2.54-6.68,8,0,5.09,2.6,7.8,6.66,7.8a10.11,10.11,0,0,0,3.65-.64Z"/><path class="cls-1" d="M249.84,13.46c0,6.58-3.13,9.64-8.21,9.64s-7.91-3-7.91-9.61V.29H238V13.87c0,4,1.49,5.67,3.71,5.67s3.76-1.67,3.76-5.67V.29h4.33Z"/><path class="cls-1" d="M280.68.32H285V22.78h-4.32Z"/></g></g></svg>