<svg xmlns="http://www.w3.org/2000/svg" viewBox="0 0 623.77 156.35"><defs><style>.cls-1{fill:#221e1f;}</style></defs><title>micaloogo</title><g id="图层_2" data-name="图层 2"><g id="Layer_1" data-name="Layer 1"><path class="cls-1" d="M97.79,129.86V104.05h11.06v-45C105.46,71,101.48,83,97.79,94.75,94,106.41,90.86,118.2,87.17,129.86H67.7C64,119.68,60.77,109.5,57.23,99.32,52.81,86.49,49,73.22,44,60.68v43.37H56.05v25.81H0V104.05H11.51V52.12H0V26.46H77.88c2.8,9.29,6.34,18.29,9,27.58,3-9.44,6.64-18.44,10.18-27.58h67.56V52.12H153.1v51.93h11.51v25.81Z"/><polygon class="cls-1" points="223.31 129.86 223.31 104.05 234.82 104.05 234.82 52.12 223.31 52.12 223.31 26.46 292.05 26.46 292.05 52.12 280.55 52.12 280.55 104.05 292.05 104.05 292.05 129.86 223.31 129.86 223.31 129.86"/><path class="cls-1" d="M426.57,74.69V73.36c.14-9.44-2.81-23-14.9-23-15.64,0-16.52,17-16.52,28.61,0,11.36,1.77,28.76,16.82,28.76,13.86,0,16.22-11.5,15-22.86h29.5v4.87c-.29,30.38-23.75,42-51.47,42-34.67,0-58.42-17.1-58.42-53.39,0-30.68,19-54,50.75-54,14.74,0,22.56,4.58,31.12,16.38l.29-14.31h28V74.69Z"/><path class="cls-1" d="M554.89,129.86V104.05h9.88c-1.18-4-2.36-8-3.39-12H543.83c-1,4-2.21,8-3.39,12h10.61v25.81H504V104.05h9.14c8.71-25.82,17.11-51.78,26-77.59H586c8.1,26,16.51,51.92,25.36,77.59h12.39v25.81ZM552.53,59.5c-1.62,6.93-3.68,13.86-5.76,20.65h11.52c-1.92-6.93-4.14-13.57-5.76-20.65Z"/><polygon class="cls-1" points="191.29 0.48 191.29 155.92 194.53 155.92 194.53 0.48 191.29 0.48 191.29 0.48"/><polygon class="cls-1" points="317.67 0.48 317.67 155.92 320.91 155.92 320.91 0.48 317.67 0.48 317.67 0.48"/><polygon class="cls-1" points="460.36 155.32 463.43 156.35 515.64 1.03 512.57 0 460.36 155.32 460.36 155.32"/></g></g></svg>