<?xml version="1.0" encoding="utf-8"?>
<!-- Generator: Adobe Illustrator 21.1.0, SVG Export Plug-In . SVG Version: 6.00 Build 0)  -->
<svg version="1.1" id="Layer_1" xmlns="http://www.w3.org/2000/svg" xmlns:xlink="http://www.w3.org/1999/xlink" x="0px" y="0px"
	 viewBox="0 0 1298 1024" style="enable-background:new 0 0 1298 1024;" xml:space="preserve">
<style type="text/css">
	.st0{fill:#141B21;}
	.st1{fill:#0E1013;}
	.st2{fill:none;stroke:#3A4255;stroke-width:2;stroke-miterlimit:10;}
	.st3{fill:none;stroke:#3A4255;stroke-miterlimit:10;}
	.st4{fill:none;stroke:#3A4255;stroke-miterlimit:10;stroke-dasharray:10;}
	.st5{fill:none;stroke:#3A4255;stroke-width:2;stroke-miterlimit:10;stroke-dasharray:10;}
</style>
<rect x="1.1" y="1.2" class="st0" width="1298" height="1024"/>
<circle class="st1" cx="638.6" cy="469.7" r="337.5"/>
<path class="st2" d="M640.3,346.7c20.5-20.3,72.1,84.8,72.1,84.8s-7.2,40.1-3.9,52.8c11.3,43.6,94.1,105.8,99.1,150.8
	c3.4,30.9-30.1,93.7-55.5,112.3c-17.6,12.9-82.3,27.3-82.3,27.3s-61.4-7.4-81.7-4c-31.9,5.2-86.3,48.3-117.4,41
	c-16.5-3.9-39.1-31.8-43.5-47.4c-5.5-19.2,6.8-56.8,7.6-76.9c0.8-19.5-14.7-61.8-8.1-81.5c3.2-9.6,20.8-21.5,31.5-26.4
	c21.4-9.9,52.5-5.9,73.8-16c14.2-6.8,61-39.3,67.2-53.6C615.7,471,614.5,372.4,640.3,346.7z"/>
<path class="st3" d="M651,294.7c10.8-0.4,27.4,8.5,34.5,16.3c22.2,24,53.2,89.1,54.4,119.6c1.1,25.6-7.6,66.7,4.3,79.7
	c20,21.9,60,67.2,72,94.4c4.6,10.4,9.6,44.8,9.6,44.8s38.4,51.9,31.8,70.6c-7.9,22.1-62.1,35-83.7,44.9c-10.2,4.7-27.4,20.7-38,24.2
	c-21.8,7.3-76.2,5.1-98.8,9c-18.3,3.1-57.9,8.2-73.4,13.3c-17.6,5.8-44.3,20.5-60,24.4c-25.1,6.2-70.4,20.4-89.9,4.6
	c-29-23.6-17.6-145.4-17.6-145.4s-29.8-104.5-7.7-129.2c19.9-22.3,62.6-14.6,62.6-14.6s56-15.7,80.1-30.3
	c14.3-8.7,39.2-28.5,46.2-42.4c17.3-33.9,18-124.9,36.5-158.2C621.2,307.7,639.9,295.2,651,294.7z"/>
<path class="st4" d="M1334.8,434.3c5.1,9.4-316.7-144.7-354.7-120.4c-45.8,29.2-53.1,159-105.6,170.6c-20,4.4-82.6-25.7-93.7-42.3
	c-8.1-12.1-35.4-46.4-35.4-46.4s-26.4-89.1-46.4-109.1c-16.8-16.8-60.1-22.3-83.9-16.6c-14.3,3.4-36.6,27.9-42,41.5
	c-9.3,23.8,4,76.1-1.7,100.8c-3.9,16.8-22.2,48.3-35.2,60.1c-19,17.1-86,51.4-86,51.4s-68.2-10.2-82.2,8.2
	C357.4,546,346.7,617,346.7,617s2.5,198.2,46.8,241.6c20.5,20.1,82.4,13.2,108.2,9.9c33.9-4.4,92.3-26.4,123.3-34.8
	c29.9-8.1,90.2-24.1,120.9-28.3c26.5-3.6,104.3-18.7,127.1-33c19.8-12.4,22.1-54.8,22.1-54.8s-21.1-80.2-4.6-86.5
	c18.5-7.2,78.6,33.4,97.4,53.6c19,20.4,39.6,75.4,61.2,93.1c33.8,27.7,122.2,56.2,166.8,57.6c51.2,1.6,203.8-32.3,203.8-32.3"/>
<path class="st3" d="M1361.1,414.2c0,0-298.3-179.6-391.6-130.2c-43.2,22.9-46.5,156.9-93.3,170.7c-21.1,6.2-46.8-32.7-62.8-46.9
	c-12.2-10.9-51.1-23.7-61.3-38.5c-15.2-22.1-12.3-80.8-33.8-102.2c-26.9-26.9-112-41.8-144.8-12.7c-36.2,32-45.9,160.3-78,187.5
	c-35.1,29.7-129.8-5.3-160.6,27.7c-22.2,23.8-20.6,110.1-24.4,141.9c-7.2,60.3,16.3,176.5,44.6,229.1c11.2,20.8,41.8,56.6,64.2,64.8
	c36,13.2,118,9.5,155.4-2.4c35-11.2,92.6-63.3,127.9-73.9c43.8-13.1,149.4-8.1,179.9-28.2c33.2-22,18.7-96.9,57.9-101.1
	c45.2-4.8,66.8,75.2,88.9,100.4c29.2,33.2,170.5,58.6,215.3,63.3c58.1,6,169.4-22.6,169.4-22.6"/>
<path class="st4" d="M656.6,401.9c26.1-1.3,24.7,80.3,34.9,103.7c7.1,16.3,28.8,39.5,38.9,50.9c17.6,19.9,56.7,58.7,57.1,84.4
	c0.3,18.4-21.1,54-36,65.4c-38.8,29.6-77.6,26.1-104.3,27.5c-21.9,1.1-67,3.3-87.1-4.7c-29.6-11.8-87.6-69.9-76.6-100.4
	c6.4-17.7,55.9-11.9,73-20.2c22.5-10.9,54.9-53.1,65-75.7C635.5,501.8,622.7,403.5,656.6,401.9z"/>
<path class="st2" d="M717.3,561.8c-14-9.1-59.5-9.8-74-0.4c-23.5,15.2-51.4,67.7-47.1,92.8c2.2,12.6,19.1,35.3,30.9,40.4
	c26.8,11.7,94.4,5.9,118.4-12.2c11.9-9,25.9-40.8,22.1-54.8c-3.3-11.9-34.4-35.4-34.4-35.4S724.5,566.5,717.3,561.8z"/>
<path class="st2" d="M662.7,586.9c16.2-10.3,69.9,22.2,70.6,41c0.7,20.1-54.3,42.4-72.4,33.9C626.3,645.4,646.5,597.1,662.7,586.9z"
	/>
<path class="st3" d="M1334,304.5c0,0-143.8-15.8-189.4-26.1c-51.8-11.8-144.2-67.7-194.2-48.5c-36.6,14-51,110.7-82.9,129.6
	c-19.6,11.6-75.2,0.4-90.8-16c-18.5-19.4-14.3-69.4-33.1-88.5c-42.1-42.6-207.1-71.7-267.4-54.3c-12.6,3.6-15.1,17.8-13.3,24.4
	c7,26.2,56.2,64.1,57.4,91.3c0.9,20.5-27.4,58.2-43.8,71.4c-15,12.1-48.5,34.7-67.4,37.2c-22.8,3-66.6-21-89.3-17.2
	c-12.4,2.1-30.7,19.6-35,31.4c-8.9,24.4,5.5,74.3,6.8,99.1c1.4,25.6-7.8,76.9-10.2,102.6c-3.4,37-9.6,106.6,0.3,142
	c8.7,31.1,45.8,100.6,72.2,120.3c42.4,31.7,166.3,47.7,217.4,40.3c22.5-3.3,38.2-29.2,51.2-39.1c22.2-16.7,56-51.4,80.7-61.6
	c34.1-14.1,101.2-0.9,138.5-8.5c13.1-2.6,50.8-17.9,62.3-31c13.9-15.7,17.3-81.5,37.8-85.7c32.3-6.6,56.2,81.9,80,104.9
	c42.2,40.6,160.5,75.2,219.1,74.6c55.4-0.5,218.2-45.6,218.2-45.6"/>
<path class="st2" d="M1341.6,227.6c0,0-271.8-29.9-362.2-17.5c-12.7,1.7-34.7,7.4-46,13.8c-12.3,7-30.2,43.8-45.1,43.9
	c-23.6,0.2-59.9-46.3-73.4-67.2c-9.3-14.4-14.8-41.7-31.2-47.3c-31.8-11-96.4,32.6-129.5,39.5c-21.2,4.4-64.9-0.5-85.5-5.8
	c-20.1-5.2-67.3-18.7-88.1-15.7c-20.6,3-51.1,32.5-58.7,51.9c-10.8,27.9,44.9,65.3,6,104.4C400.5,355.1,314,351.6,278,366
	c-21.7,8.7-50.1,39.4-56.1,61.7c-8.3,31.1,33.5,81.1,39.5,109.7c5.1,24.3-9.8,74.6-12.4,99.6c-2.1,19.8,1.6,79.4,1.6,79.4
	s-1.4,96.2,9.7,125.3c7.9,20.8,35.4,57.8,53.7,70.4c24.2,16.7,88.4,24.4,117.3,31.4c42.7,10.3,123.9,50.2,166.5,41.2
	c8.5-1.8,17.1-34.3,22.7-41c21.4-25.7,53.6-77.3,81-90.2c36-17.1,119.2,0.8,157.7-9c14.7-3.7,42.6-20,51.6-32.2
	c11.1-15,10.8-58,25.7-69.4c5-3.8,19.8-3.5,24.7,0.1c21.9,16.4,30.5,77.8,49.6,97.2c44.9,45.8,183,65.1,242.8,89.7
	c24.8,10.2,90.1,56.9,90.1,56.9"/>
<path class="st5" d="M646.6-81.2c0,0-28.4,98.4-56.9,112.1c-16.5,8-52.4-17.4-70.4-15c-11.5,1.5-31.6,18.2-37.3,28.4
	c-5.2,9.3-3.2,33.1-10.4,41.1c-12.2,13.7-41.6-6.2-70.3,20.5c-12.7,11.7-5.7,51.2-12.9,66.8c-14.7,31.7-91.8,54.3-110.2,84.1
	c-10.1,16.4,11.4,69.8-4.6,84.1c-21.2,18.9-81.3-23.6-109.3-20.9c-17.8,1.7-55.8,40.2-62.2,56.9c-9.2,24.1,4.2,78.4-0.1,99.6
	c-4.9,24.5-42,44.5-54.5,60.6c-13,16.7-19.1,60.8-31.1,78.3c-5.5,8-28.1,14.5-31,23.7c-6.9,21.6,31.1,59.3,37.1,80.8
	c8.1,29.4-18.4,93-11.9,122.8c8.6,39.4,88.3,86.7,97.2,127.3c4.7,21.5,51.7,33.8,73.8,29.1c29.9-6.5,43-45.3,73.3-48.8
	c23.8-2.8,106.7,46.5,106.7,46.5s92.5-7.7,123-6.2c31.5,1.6,87,22,113.3,3.6c13.9-9.7,22.8-50.6,22.8-50.6"/>
</svg>
