<?xml version="1.0" encoding="utf-8"?>
<!-- Generator: Adobe Illustrator 21.1.0, SVG Export Plug-In . SVG Version: 6.00 Build 0)  -->
<svg version="1.1" xmlns="http://www.w3.org/2000/svg" xmlns:xlink="http://www.w3.org/1999/xlink" x="0px" y="0px"
	 viewBox="0 0 1298 1896" style="enable-background:new 0 0 1298 1896;" xml:space="preserve">
<style type="text/css">
	.st0{display:none;}
	.st1{display:inline;}
	.st2{fill:#5E5CA9;}
	.st3{fill:#658298;}
	.st4{fill:none;stroke:#296C99;stroke-miterlimit:10;}
	.st5{fill:#296C99;}
	.st6{display:inline;fill:#141B21;}
	.st7{fill:none;stroke:#5A9FAF;stroke-width:2;stroke-miterlimit:10;}
	.st8{fill:#131B21;}
	.st9{opacity:0.48;fill:none;stroke:#424D63;stroke-miterlimit:10;}
	.st10{opacity:0.48;fill:none;stroke:#424D63;stroke-miterlimit:10;stroke-dasharray:12;}
	.st11{opacity:0.48;fill:none;stroke:#424D63;stroke-width:0.5;stroke-miterlimit:10;}
	.st12{opacity:0.48;fill:none;stroke:#434D63;stroke-miterlimit:10;stroke-dasharray:9;}
	.st13{opacity:0.48;fill:#424D63;}
	.st14{opacity:0.48;fill:none;stroke:#589FAF;stroke-width:0.75;stroke-miterlimit:10;}
	.st15{opacity:0.48;fill:none;stroke:#424D63;stroke-width:0.25;stroke-miterlimit:10;}
	.st16{opacity:0.48;fill:#434D63;}
</style>
<g id="Layer_1" class="st0">
	<g id="Layer_1_1_">
		<g class="st1">
			<rect x="772.5" y="236.6" class="st2" width="33" height="2.8"/>
			<rect x="772.5" y="242.2" class="st2" width="33" height="2.8"/>
			<rect x="772.5" y="247.8" class="st2" width="33" height="2.8"/>
		</g>
	</g>
	<g id="Layer_2">
		<g class="st1">
			<rect x="772.5" y="236.6" class="st3" width="33" height="2.8"/>
			<rect x="772.5" y="242.2" class="st3" width="33" height="2.8"/>
			<rect x="772.5" y="247.8" class="st3" width="33" height="2.8"/>
		</g>
	</g>
	<g id="Layer_3" class="st1">
		<g>
			<path class="st4" d="M804,230c-0.2,0-0.3,0-0.5,0v11.4h-10.8c0.1,6.2,5.1,11.2,11.3,11.2c6.3,0,11.3-5.1,11.3-11.3
				S810.3,230,804,230z"/>
			<path class="st5" d="M803.6,230.1v-9.8h-21.3v21.3h10.4v-0.1C792.7,235.3,797.5,230.3,803.6,230.1z"/>
		</g>
	</g>
	<g id="Layer_4">
		<rect x="-985.4" y="-1614.3" class="st6" width="1298" height="2881"/>
		<g class="st1">
			<line class="st7" x1="-673.9" y1="-764.8" x2="-303.9" y2="-1134.8"/>
			<line class="st7" x1="-621.9" y1="-764.8" x2="-304.4" y2="-1082.3"/>
			<line class="st7" x1="-571.4" y1="-764.3" x2="-303.9" y2="-1031.8"/>
			<line class="st7" x1="-519.4" y1="-764.3" x2="-304.4" y2="-979.3"/>
			<line class="st7" x1="-674.4" y1="-972.3" x2="-512.9" y2="-1133.8"/>
			<line class="st7" x1="-674.4" y1="-920.3" x2="-460.9" y2="-1133.8"/>
			<line class="st7" x1="-673.9" y1="-869.8" x2="-410.4" y2="-1133.3"/>
			<line class="st7" x1="-673.9" y1="-817.8" x2="-357.9" y2="-1133.8"/>
			<line class="st7" x1="-466.4" y1="-765.3" x2="-304.9" y2="-926.8"/>
			<line class="st7" x1="-414.9" y1="-764.8" x2="-303.4" y2="-876.3"/>
			<line class="st7" x1="-362.9" y1="-765.8" x2="-304.9" y2="-823.8"/>
			<line class="st7" x1="-339.9" y1="-764.8" x2="-303.9" y2="-800.8"/>
			<line class="st7" x1="-675.9" y1="-1129.8" x2="-670.4" y2="-1135.3"/>
			<line class="st7" x1="-673.9" y1="-1079.8" x2="-619.9" y2="-1133.8"/>
			<line class="st7" x1="-673.4" y1="-1027.3" x2="-566.9" y2="-1133.8"/>
			<line class="st7" x1="-674.4" y1="-894.3" x2="-434.9" y2="-1133.8"/>
			<line class="st7" x1="-674.4" y1="-843.3" x2="-383.9" y2="-1133.8"/>
			<line class="st7" x1="-672.9" y1="-792.8" x2="-332.9" y2="-1132.8"/>
			<line class="st7" x1="-674.4" y1="-999.3" x2="-539.4" y2="-1134.3"/>
			<line class="st7" x1="-647.4" y1="-764.3" x2="-304.4" y2="-1107.3"/>
			<line class="st7" x1="-673.9" y1="-1052.8" x2="-593.9" y2="-1132.8"/>
			<line class="st7" x1="-544.9" y1="-764.8" x2="-304.4" y2="-1005.3"/>
			<line class="st7" x1="-675.4" y1="-944.3" x2="-485.9" y2="-1133.8"/>
			<line class="st7" x1="-673.9" y1="-1106.8" x2="-646.4" y2="-1134.3"/>
			<line class="st7" x1="-595.9" y1="-764.8" x2="-303.9" y2="-1056.8"/>
			<line class="st7" x1="-492.4" y1="-764.3" x2="-302.9" y2="-953.8"/>
			<line class="st7" x1="-439.9" y1="-765.8" x2="-303.4" y2="-902.3"/>
			<line class="st7" x1="-391.4" y1="-763.3" x2="-304.4" y2="-850.3"/>
			<line class="st7" x1="-315.9" y1="-763.8" x2="-304.4" y2="-775.3"/>
		</g>
		<g class="st1">
			<line class="st7" x1="5.9" y1="127.4" x2="-401.1" y2="-279.6"/>
			<line class="st7" x1="-51.3" y1="127.4" x2="-400.5" y2="-221.9"/>
			<line class="st7" x1="-106.8" y1="127.9" x2="-401.1" y2="-166.3"/>
			<line class="st7" x1="-164" y1="127.9" x2="-400.5" y2="-108.6"/>
			<line class="st7" x1="6.5" y1="-100.9" x2="-171.2" y2="-278.5"/>
			<line class="st7" x1="6.5" y1="-43.7" x2="-228.4" y2="-278.5"/>
			<line class="st7" x1="5.9" y1="11.9" x2="-283.9" y2="-278"/>
			<line class="st7" x1="5.9" y1="69.1" x2="-341.7" y2="-278.5"/>
			<line class="st7" x1="-222.3" y1="126.8" x2="-400" y2="-50.8"/>
			<line class="st7" x1="-279" y1="127.4" x2="-401.6" y2="4.7"/>
			<line class="st7" x1="-336.2" y1="126.3" x2="-400" y2="62.5"/>
			<line class="st7" x1="-361.5" y1="127.4" x2="-401.1" y2="87.8"/>
			<line class="st7" x1="8.1" y1="-274.1" x2="2.1" y2="-280.2"/>
			<line class="st7" x1="5.9" y1="-219.1" x2="-53.5" y2="-278.5"/>
			<line class="st7" x1="5.4" y1="-161.4" x2="-111.8" y2="-278.5"/>
			<line class="st7" x1="6.5" y1="-15.1" x2="-257" y2="-278.5"/>
			<line class="st7" x1="6.5" y1="41" x2="-313.1" y2="-278.5"/>
			<line class="st7" x1="4.8" y1="96.6" x2="-369.2" y2="-277.4"/>
			<line class="st7" x1="6.5" y1="-130.6" x2="-142" y2="-279.1"/>
			<line class="st7" x1="-23.2" y1="127.9" x2="-400.5" y2="-249.4"/>
			<line class="st7" x1="5.9" y1="-189.4" x2="-82.1" y2="-277.4"/>
			<line class="st7" x1="-136" y1="127.4" x2="-400.5" y2="-137.2"/>
			<line class="st7" x1="7.6" y1="-70.1" x2="-200.9" y2="-278.5"/>
			<line class="st7" x1="5.9" y1="-248.8" x2="-24.3" y2="-279.1"/>
			<line class="st7" x1="-79.9" y1="127.4" x2="-401.1" y2="-193.8"/>
			<line class="st7" x1="-193.7" y1="127.9" x2="-402.2" y2="-80.5"/>
			<line class="st7" x1="-251.5" y1="126.3" x2="-401.6" y2="-23.9"/>
			<line class="st7" x1="-304.8" y1="129" x2="-400.5" y2="33.3"/>
			<line class="st7" x1="-387.9" y1="128.5" x2="-400.5" y2="115.8"/>
		</g>
		<g class="st1">
			<line class="st7" x1="-680" y1="971.3" x2="-267.7" y2="559"/>
			<line class="st7" x1="-622.1" y1="971.3" x2="-268.3" y2="617.5"/>
			<line class="st7" x1="-565.8" y1="971.9" x2="-267.7" y2="673.8"/>
			<line class="st7" x1="-507.9" y1="971.9" x2="-268.3" y2="732.3"/>
			<line class="st7" x1="-680.6" y1="740.1" x2="-500.6" y2="560.1"/>
			<line class="st7" x1="-680.6" y1="798.1" x2="-442.7" y2="560.1"/>
			<line class="st7" x1="-680" y1="854.3" x2="-386.4" y2="560.7"/>
			<line class="st7" x1="-680" y1="912.3" x2="-327.9" y2="560.1"/>
			<line class="st7" x1="-448.8" y1="970.8" x2="-268.8" y2="790.8"/>
			<line class="st7" x1="-391.4" y1="971.3" x2="-267.2" y2="847.1"/>
			<line class="st7" x1="-333.5" y1="970.2" x2="-268.8" y2="905.6"/>
			<line class="st7" x1="-307.8" y1="971.3" x2="-267.7" y2="931.2"/>
			<line class="st7" x1="-682.3" y1="564.6" x2="-676.1" y2="558.5"/>
			<line class="st7" x1="-680" y1="620.3" x2="-619.9" y2="560.1"/>
			<line class="st7" x1="-679.5" y1="678.8" x2="-560.8" y2="560.1"/>
			<line class="st7" x1="-680.6" y1="827" x2="-413.7" y2="560.1"/>
			<line class="st7" x1="-680.6" y1="883.9" x2="-356.9" y2="560.1"/>
			<line class="st7" x1="-678.9" y1="940.1" x2="-300" y2="561.3"/>
			<line class="st7" x1="-680.6" y1="710" x2="-530.2" y2="559.6"/>
			<line class="st7" x1="-650.5" y1="971.9" x2="-268.3" y2="589.7"/>
			<line class="st7" x1="-680" y1="650.4" x2="-590.9" y2="561.3"/>
			<line class="st7" x1="-536.3" y1="971.3" x2="-268.3" y2="703.3"/>
			<line class="st7" x1="-681.7" y1="771.3" x2="-470.5" y2="560.1"/>
			<line class="st7" x1="-680" y1="590.2" x2="-649.4" y2="559.6"/>
			<line class="st7" x1="-593.1" y1="971.3" x2="-267.7" y2="645.9"/>
			<line class="st7" x1="-477.8" y1="971.9" x2="-266.6" y2="760.7"/>
			<line class="st7" x1="-419.3" y1="970.2" x2="-267.2" y2="818.1"/>
			<line class="st7" x1="-365.2" y1="973" x2="-268.3" y2="876.1"/>
			<line class="st7" x1="-281.1" y1="972.4" x2="-268.3" y2="959.6"/>
		</g>
	</g>
</g>
<g id="Layer_2_1_">
	<rect class="st8" width="1298" height="1896"/>
	<polygon class="st9" points="153,445 483,127 917,267 1013,703 257.5,870.5 	"/>
	<polygon class="st9" points="110.5,728.5 730.5,68.5 1084.5,248.5 	"/>
	<polyline class="st10" points="629,1307 143,1041 112,728 1015,703 773,957 1087,249 	"/>
	
		<ellipse transform="matrix(0.9994 -3.331483e-02 3.331483e-02 0.9994 -43.1811 21.5796)" class="st11" cx="626" cy="1306.6" rx="19.9" ry="19.9"/>
	<polygon class="st12" points="482,127 239,1725 1397,1181 1013,703 	"/>
	<polyline class="st9" points="1398,1181 999,2145 483,127 	"/>
	<circle class="st13" cx="237.5" cy="1726.5" r="9.5"/>
	
		<ellipse transform="matrix(0.9994 -3.331483e-02 3.331483e-02 0.9994 -43.1671 21.5755)" class="st11" cx="625.9" cy="1306.2" rx="45.2" ry="45.2"/>
	<line class="st14" x1="1095.5" y1="807.5" x2="1098.5" y2="811.5"/>
	<line class="st14" x1="920.3" y1="802.3" x2="922.7" y2="799.7"/>
	<line class="st14" x1="918.5" y1="800.5" x2="920.5" y2="798.5"/>
	<line class="st14" x1="881.5" y1="733.8" x2="884.5" y2="733.2"/>
	<line class="st14" x1="880.5" y1="730.3" x2="883.5" y2="729.7"/>
	<line class="st14" x1="878.5" y1="708.5" x2="881.5" y2="708.5"/>
	<line class="st14" x1="878.5" y1="705.5" x2="881.5" y2="705.5"/>
	<line class="st14" x1="921.5" y1="606.5" x2="923.5" y2="608.5"/>
	<line class="st14" x1="924.5" y1="604.5" x2="925.5" y2="605.5"/>
	<line class="st14" x1="982.7" y1="572.5" x2="984.3" y2="579.5"/>
	<line class="st14" x1="985.5" y1="572.5" x2="986.5" y2="577.5"/>
	<circle class="st15" cx="65" cy="237" r="15.5"/>
	<circle class="st11" cx="668.5" cy="315.5" r="123"/>
	<circle class="st11" cx="1253.5" cy="1147" r="92.5"/>
	<circle class="st11" cx="1276" cy="1147" r="69.5"/>
	<circle class="st13" cx="731.5" cy="68.5" r="6.5"/>
	<circle class="st16" cx="209.5" cy="337.5" r="6.5"/>
	<circle class="st16" cx="633.5" cy="714.5" r="6.5"/>
	<circle class="st13" cx="769" cy="962" r="8"/>
	<circle class="st11" cx="768.5" cy="962.5" r="23"/>
</g>
</svg>
