<?xml version="1.0" encoding="utf-8"?>
<!-- Generator: Adobe Illustrator 21.1.0, SVG Export Plug-In . SVG Version: 6.00 Build 0)  -->
<svg version="1.1" xmlns="http://www.w3.org/2000/svg" xmlns:xlink="http://www.w3.org/1999/xlink" x="0px" y="0px"
	 viewBox="0 0 148 138.9" style="enable-background:new 0 0 148 138.9;" xml:space="preserve">
<style type="text/css">
	.st0{display:none;}
	.st1{display:inline;}
	.st2{fill:#5E5CA9;}
	.st3{fill:#658298;}
	.st4{fill:none;stroke:#A3CBD8;stroke-miterlimit:10;}
	.st5{fill:#A3CBD8;}
	.st6{display:inline;fill:#141B21;}
	.st7{fill:none;stroke:#5A9FAF;stroke-width:2;stroke-miterlimit:10;}
	.st8{display:inline;fill:#131B21;}
	.st9{display:inline;opacity:0.48;fill:none;stroke:#424D63;stroke-miterlimit:10;}
	.st10{display:inline;opacity:0.48;fill:none;stroke:#424D63;stroke-miterlimit:10;stroke-dasharray:12;}
	.st11{display:inline;opacity:0.48;fill:none;stroke:#424D63;stroke-width:0.5;stroke-miterlimit:10;}
	.st12{display:inline;opacity:0.48;fill:none;stroke:#434D63;stroke-miterlimit:10;stroke-dasharray:9;}
	.st13{display:inline;opacity:0.48;fill:#424D63;}
	.st14{display:inline;opacity:0.48;fill:none;stroke:#589FAF;stroke-width:0.75;stroke-miterlimit:10;}
	.st15{display:inline;opacity:0.48;fill:none;stroke:#424D63;stroke-width:0.25;stroke-miterlimit:10;}
	.st16{display:inline;opacity:0.48;fill:#434D63;}
	.st17{display:inline;fill:none;stroke:#273E68;stroke-width:5;stroke-miterlimit:10;}
	.st18{display:inline;fill:none;stroke:#2E4472;stroke-width:5;stroke-miterlimit:10;stroke-dasharray:10;}
</style>
<g id="Layer_1">
	<g id="Layer_1_1_" class="st0">
		<g class="st1">
			<rect x="208" y="-468.4" class="st2" width="33" height="2.8"/>
			<rect x="208" y="-462.8" class="st2" width="33" height="2.8"/>
			<rect x="208" y="-457.2" class="st2" width="33" height="2.8"/>
		</g>
	</g>
	<g id="Layer_2" class="st0">
		<g class="st1">
			<rect x="208" y="-468.4" class="st3" width="33" height="2.8"/>
			<rect x="208" y="-462.8" class="st3" width="33" height="2.8"/>
			<rect x="208" y="-457.2" class="st3" width="33" height="2.8"/>
		</g>
	</g>
	<path class="st4" d="M75.1,67c-0.2,0-0.3,0-0.5,0v11.4H63.8c0.1,6.2,5.1,11.2,11.3,11.2c6.3,0,11.3-5.1,11.3-11.3
		C86.4,72.1,81.4,67,75.1,67z"/>
	<path class="st5" d="M74.7,67.1v-9.8H53.4v21.3h10.4v-0.1C63.8,72.3,68.6,67.3,74.7,67.1z"/>
	<g id="Layer_4" class="st0">
		<rect x="-1549.9" y="-2319.3" class="st6" width="1298" height="2881"/>
		<g class="st1">
			<line class="st7" x1="-1238.4" y1="-1469.8" x2="-868.4" y2="-1839.8"/>
			<line class="st7" x1="-1186.4" y1="-1469.8" x2="-868.9" y2="-1787.3"/>
			<line class="st7" x1="-1135.9" y1="-1469.3" x2="-868.4" y2="-1736.8"/>
			<line class="st7" x1="-1083.9" y1="-1469.3" x2="-868.9" y2="-1684.3"/>
			<line class="st7" x1="-1238.9" y1="-1677.3" x2="-1077.4" y2="-1838.8"/>
			<line class="st7" x1="-1238.9" y1="-1625.3" x2="-1025.4" y2="-1838.8"/>
			<line class="st7" x1="-1238.4" y1="-1574.8" x2="-974.9" y2="-1838.3"/>
			<line class="st7" x1="-1238.4" y1="-1522.8" x2="-922.4" y2="-1838.8"/>
			<line class="st7" x1="-1030.9" y1="-1470.3" x2="-869.4" y2="-1631.8"/>
			<line class="st7" x1="-979.4" y1="-1469.8" x2="-867.9" y2="-1581.3"/>
			<line class="st7" x1="-927.4" y1="-1470.8" x2="-869.4" y2="-1528.8"/>
			<line class="st7" x1="-904.4" y1="-1469.8" x2="-868.4" y2="-1505.8"/>
			<line class="st7" x1="-1240.4" y1="-1834.8" x2="-1234.9" y2="-1840.3"/>
			<line class="st7" x1="-1238.4" y1="-1784.8" x2="-1184.4" y2="-1838.8"/>
			<line class="st7" x1="-1237.9" y1="-1732.3" x2="-1131.4" y2="-1838.8"/>
			<line class="st7" x1="-1238.9" y1="-1599.3" x2="-999.4" y2="-1838.8"/>
			<line class="st7" x1="-1238.9" y1="-1548.3" x2="-948.4" y2="-1838.8"/>
			<line class="st7" x1="-1237.4" y1="-1497.8" x2="-897.4" y2="-1837.8"/>
			<line class="st7" x1="-1238.9" y1="-1704.3" x2="-1103.9" y2="-1839.3"/>
			<line class="st7" x1="-1211.9" y1="-1469.3" x2="-868.9" y2="-1812.3"/>
			<line class="st7" x1="-1238.4" y1="-1757.8" x2="-1158.4" y2="-1837.8"/>
			<line class="st7" x1="-1109.4" y1="-1469.8" x2="-868.9" y2="-1710.3"/>
			<line class="st7" x1="-1239.9" y1="-1649.3" x2="-1050.4" y2="-1838.8"/>
			<line class="st7" x1="-1238.4" y1="-1811.8" x2="-1210.9" y2="-1839.3"/>
			<line class="st7" x1="-1160.4" y1="-1469.8" x2="-868.4" y2="-1761.8"/>
			<line class="st7" x1="-1056.9" y1="-1469.3" x2="-867.4" y2="-1658.8"/>
			<line class="st7" x1="-1004.4" y1="-1470.8" x2="-867.9" y2="-1607.3"/>
			<line class="st7" x1="-955.9" y1="-1468.3" x2="-868.9" y2="-1555.3"/>
			<line class="st7" x1="-880.4" y1="-1468.8" x2="-868.9" y2="-1480.3"/>
		</g>
		<g class="st1">
			<line class="st7" x1="-558.6" y1="-577.6" x2="-965.6" y2="-984.6"/>
			<line class="st7" x1="-615.8" y1="-577.6" x2="-965" y2="-926.9"/>
			<line class="st7" x1="-671.3" y1="-577.1" x2="-965.6" y2="-871.3"/>
			<line class="st7" x1="-728.5" y1="-577.1" x2="-965" y2="-813.6"/>
			<line class="st7" x1="-558" y1="-805.9" x2="-735.7" y2="-983.5"/>
			<line class="st7" x1="-558" y1="-748.7" x2="-792.9" y2="-983.5"/>
			<line class="st7" x1="-558.6" y1="-693.1" x2="-848.4" y2="-983"/>
			<line class="st7" x1="-558.6" y1="-635.9" x2="-906.2" y2="-983.5"/>
			<line class="st7" x1="-786.8" y1="-578.2" x2="-964.5" y2="-755.8"/>
			<line class="st7" x1="-843.5" y1="-577.6" x2="-966.1" y2="-700.3"/>
			<line class="st7" x1="-900.7" y1="-578.7" x2="-964.5" y2="-642.5"/>
			<line class="st7" x1="-926" y1="-577.6" x2="-965.6" y2="-617.2"/>
			<line class="st7" x1="-556.4" y1="-979.1" x2="-562.4" y2="-985.2"/>
			<line class="st7" x1="-558.6" y1="-924.1" x2="-618" y2="-983.5"/>
			<line class="st7" x1="-559.1" y1="-866.4" x2="-676.3" y2="-983.5"/>
			<line class="st7" x1="-558" y1="-720.1" x2="-821.5" y2="-983.5"/>
			<line class="st7" x1="-558" y1="-664" x2="-877.6" y2="-983.5"/>
			<line class="st7" x1="-559.7" y1="-608.4" x2="-933.7" y2="-982.4"/>
			<line class="st7" x1="-558" y1="-835.6" x2="-706.5" y2="-984.1"/>
			<line class="st7" x1="-587.7" y1="-577.1" x2="-965" y2="-954.4"/>
			<line class="st7" x1="-558.6" y1="-894.4" x2="-646.6" y2="-982.4"/>
			<line class="st7" x1="-700.5" y1="-577.6" x2="-965" y2="-842.2"/>
			<line class="st7" x1="-556.9" y1="-775.1" x2="-765.4" y2="-983.5"/>
			<line class="st7" x1="-558.6" y1="-953.8" x2="-588.8" y2="-984.1"/>
			<line class="st7" x1="-644.4" y1="-577.6" x2="-965.6" y2="-898.8"/>
			<line class="st7" x1="-758.2" y1="-577.1" x2="-966.7" y2="-785.5"/>
			<line class="st7" x1="-816" y1="-578.7" x2="-966.1" y2="-728.9"/>
			<line class="st7" x1="-869.3" y1="-576" x2="-965" y2="-671.7"/>
			<line class="st7" x1="-952.4" y1="-576.5" x2="-965" y2="-589.2"/>
		</g>
		<g class="st1">
			<line class="st7" x1="-1244.5" y1="266.3" x2="-832.2" y2="-146"/>
			<line class="st7" x1="-1186.6" y1="266.3" x2="-832.8" y2="-87.5"/>
			<line class="st7" x1="-1130.3" y1="266.9" x2="-832.2" y2="-31.2"/>
			<line class="st7" x1="-1072.4" y1="266.9" x2="-832.8" y2="27.3"/>
			<line class="st7" x1="-1245.1" y1="35.1" x2="-1065.1" y2="-144.9"/>
			<line class="st7" x1="-1245.1" y1="93.1" x2="-1007.2" y2="-144.9"/>
			<line class="st7" x1="-1244.5" y1="149.3" x2="-950.9" y2="-144.3"/>
			<line class="st7" x1="-1244.5" y1="207.3" x2="-892.4" y2="-144.9"/>
			<line class="st7" x1="-1013.3" y1="265.8" x2="-833.3" y2="85.8"/>
			<line class="st7" x1="-955.9" y1="266.3" x2="-831.7" y2="142.1"/>
			<line class="st7" x1="-898" y1="265.2" x2="-833.3" y2="200.6"/>
			<line class="st7" x1="-872.3" y1="266.3" x2="-832.2" y2="226.2"/>
			<line class="st7" x1="-1246.8" y1="-140.4" x2="-1240.6" y2="-146.5"/>
			<line class="st7" x1="-1244.5" y1="-84.7" x2="-1184.4" y2="-144.9"/>
			<line class="st7" x1="-1244" y1="-26.2" x2="-1125.3" y2="-144.9"/>
			<line class="st7" x1="-1245.1" y1="122" x2="-978.2" y2="-144.9"/>
			<line class="st7" x1="-1245.1" y1="178.9" x2="-921.4" y2="-144.9"/>
			<line class="st7" x1="-1243.4" y1="235.1" x2="-864.5" y2="-143.7"/>
			<line class="st7" x1="-1245.1" y1="5" x2="-1094.7" y2="-145.4"/>
			<line class="st7" x1="-1215" y1="266.9" x2="-832.8" y2="-115.3"/>
			<line class="st7" x1="-1244.5" y1="-54.6" x2="-1155.4" y2="-143.7"/>
			<line class="st7" x1="-1100.8" y1="266.3" x2="-832.8" y2="-1.7"/>
			<line class="st7" x1="-1246.2" y1="66.3" x2="-1035" y2="-144.9"/>
			<line class="st7" x1="-1244.5" y1="-114.8" x2="-1213.9" y2="-145.4"/>
			<line class="st7" x1="-1157.6" y1="266.3" x2="-832.2" y2="-59.1"/>
			<line class="st7" x1="-1042.3" y1="266.9" x2="-831.1" y2="55.7"/>
			<line class="st7" x1="-983.8" y1="265.2" x2="-831.7" y2="113.1"/>
			<line class="st7" x1="-929.7" y1="268" x2="-832.8" y2="171.1"/>
			<line class="st7" x1="-845.6" y1="267.4" x2="-832.8" y2="254.6"/>
		</g>
	</g>
</g>
<g id="Layer_2_1_" class="st0">
	<rect x="-564.5" y="-705" class="st8" width="1298" height="1896"/>
	<polygon class="st9" points="-411.5,-260 -81.5,-578 352.5,-438 448.5,-2 -307,165.5 	"/>
	<polygon class="st9" points="-454,23.5 166,-636.5 520,-456.5 	"/>
	<polyline class="st10" points="64.5,602 -421.5,336 -452.5,23 450.5,-2 208.5,252 522.5,-456 	"/>
	
		<ellipse transform="matrix(0.9994 -3.331483e-02 3.331483e-02 0.9994 -20.0075 2.3821)" class="st11" cx="61.5" cy="601.6" rx="19.9" ry="19.9"/>
	<polygon class="st12" points="-82.5,-578 -325.5,1020 832.5,476 448.5,-2 	"/>
	<polyline class="st9" points="833.5,476 434.5,1440 -81.5,-578 	"/>
	<circle class="st13" cx="-327" cy="1021.5" r="9.5"/>
	
		<ellipse transform="matrix(0.9994 -3.331483e-02 3.331483e-02 0.9994 -19.9935 2.378)" class="st11" cx="61.4" cy="601.2" rx="45.2" ry="45.2"/>
	<line class="st14" x1="531" y1="102.5" x2="534" y2="106.5"/>
	<line class="st14" x1="355.8" y1="97.3" x2="358.2" y2="94.7"/>
	<line class="st14" x1="354" y1="95.5" x2="356" y2="93.5"/>
	<line class="st14" x1="317" y1="28.8" x2="320" y2="28.2"/>
	<line class="st14" x1="316" y1="25.3" x2="319" y2="24.7"/>
	<line class="st14" x1="314" y1="3.5" x2="317" y2="3.5"/>
	<line class="st14" x1="314" y1="0.5" x2="317" y2="0.5"/>
	<line class="st14" x1="357" y1="-98.5" x2="359" y2="-96.5"/>
	<line class="st14" x1="360" y1="-100.5" x2="361" y2="-99.5"/>
	<line class="st14" x1="418.2" y1="-132.5" x2="419.8" y2="-125.5"/>
	<line class="st14" x1="421" y1="-132.5" x2="422" y2="-127.5"/>
	<circle class="st15" cx="-499.5" cy="-468" r="15.5"/>
	<circle class="st11" cx="104" cy="-389.5" r="123"/>
	<circle class="st11" cx="689" cy="442" r="92.5"/>
	<circle class="st11" cx="711.5" cy="442" r="69.5"/>
	<circle class="st13" cx="167" cy="-636.5" r="6.5"/>
	<circle class="st16" cx="-355" cy="-367.5" r="6.5"/>
	<circle class="st16" cx="69" cy="9.5" r="6.5"/>
	<circle class="st13" cx="204.5" cy="257" r="8"/>
	<circle class="st11" cx="204" cy="257.5" r="23"/>
</g>
<g id="Layer_3_1_" class="st0">
	<line class="st17" x1="667" y1="50" x2="-493" y2="50"/>
	<line class="st18" x1="-310.5" y1="-30" x2="-310.5" y2="49.5"/>
	<line class="st18" x1="73.5" y1="-30" x2="73.5" y2="48.5"/>
	<line class="st18" x1="451.5" y1="-30" x2="451.5" y2="48.5"/>
</g>
</svg>
