<?xml version="1.0" encoding="utf-8"?>
<!-- Generator: Adobe Illustrator 21.1.0, SVG Export Plug-In . SVG Version: 6.00 Build 0)  -->
<svg version="1.1" xmlns="http://www.w3.org/2000/svg" xmlns:xlink="http://www.w3.org/1999/xlink" x="0px" y="0px"
	 viewBox="0 0 1201 162.9" style="enable-background:new 0 0 1201 162.9;" xml:space="preserve">
<style type="text/css">
	.st0{display:none;}
	.st1{display:inline;}
	.st2{fill:#5E5CA9;}
	.st3{fill:#658298;}
	.st4{display:inline;fill:none;stroke:#A3CBD8;stroke-miterlimit:10;}
	.st5{display:inline;fill:#A3CBD8;}
	.st6{display:inline;fill:#141B21;}
	.st7{fill:none;stroke:#5A9FAF;stroke-width:2;stroke-miterlimit:10;}
	.st8{display:inline;fill:#131B21;}
	.st9{display:inline;opacity:0.48;fill:none;stroke:#424D63;stroke-miterlimit:10;}
	.st10{display:inline;opacity:0.48;fill:none;stroke:#424D63;stroke-miterlimit:10;stroke-dasharray:12;}
	.st11{display:inline;opacity:0.48;fill:none;stroke:#424D63;stroke-width:0.5;stroke-miterlimit:10;}
	.st12{display:inline;opacity:0.48;fill:none;stroke:#434D63;stroke-miterlimit:10;stroke-dasharray:9;}
	.st13{display:inline;opacity:0.48;fill:#424D63;}
	.st14{display:inline;opacity:0.48;fill:none;stroke:#589FAF;stroke-width:0.75;stroke-miterlimit:10;}
	.st15{display:inline;opacity:0.48;fill:none;stroke:#424D63;stroke-width:0.25;stroke-miterlimit:10;}
	.st16{display:inline;opacity:0.48;fill:#434D63;}
	.st17{fill:none;stroke:#273E68;stroke-width:5;stroke-miterlimit:10;}
	.st18{fill:none;stroke:#2E4472;stroke-width:5;stroke-miterlimit:10;stroke-dasharray:10;}
</style>
<g id="Layer_1" class="st0">
	<g id="Layer_1_1_">
		<g class="st1">
			<rect x="720" y="-444.4" class="st2" width="33" height="2.8"/>
			<rect x="720" y="-438.8" class="st2" width="33" height="2.8"/>
			<rect x="720" y="-433.2" class="st2" width="33" height="2.8"/>
		</g>
	</g>
	<g id="Layer_2">
		<g class="st1">
			<rect x="720" y="-444.4" class="st3" width="33" height="2.8"/>
			<rect x="720" y="-438.8" class="st3" width="33" height="2.8"/>
			<rect x="720" y="-433.2" class="st3" width="33" height="2.8"/>
		</g>
	</g>
	<path class="st4" d="M587.1,91c-0.2,0-0.3,0-0.5,0v11.4h-10.8c0.1,6.2,5.1,11.2,11.3,11.2c6.3,0,11.3-5.1,11.3-11.3
		C598.4,96.1,593.4,91,587.1,91z"/>
	<path class="st5" d="M586.7,91.1v-9.8h-21.3v21.3h10.4v-0.1C575.8,96.3,580.6,91.3,586.7,91.1z"/>
	<g id="Layer_4">
		<rect x="-1037.9" y="-2295.3" class="st6" width="1298" height="2881"/>
		<g class="st1">
			<line class="st7" x1="-726.4" y1="-1445.8" x2="-356.4" y2="-1815.8"/>
			<line class="st7" x1="-674.4" y1="-1445.8" x2="-356.9" y2="-1763.3"/>
			<line class="st7" x1="-623.9" y1="-1445.3" x2="-356.4" y2="-1712.8"/>
			<line class="st7" x1="-571.9" y1="-1445.3" x2="-356.9" y2="-1660.3"/>
			<line class="st7" x1="-726.9" y1="-1653.3" x2="-565.4" y2="-1814.8"/>
			<line class="st7" x1="-726.9" y1="-1601.3" x2="-513.4" y2="-1814.8"/>
			<line class="st7" x1="-726.4" y1="-1550.8" x2="-462.9" y2="-1814.3"/>
			<line class="st7" x1="-726.4" y1="-1498.8" x2="-410.4" y2="-1814.8"/>
			<line class="st7" x1="-518.9" y1="-1446.3" x2="-357.4" y2="-1607.8"/>
			<line class="st7" x1="-467.4" y1="-1445.8" x2="-355.9" y2="-1557.3"/>
			<line class="st7" x1="-415.4" y1="-1446.8" x2="-357.4" y2="-1504.8"/>
			<line class="st7" x1="-392.4" y1="-1445.8" x2="-356.4" y2="-1481.8"/>
			<line class="st7" x1="-728.4" y1="-1810.8" x2="-722.9" y2="-1816.3"/>
			<line class="st7" x1="-726.4" y1="-1760.8" x2="-672.4" y2="-1814.8"/>
			<line class="st7" x1="-725.9" y1="-1708.3" x2="-619.4" y2="-1814.8"/>
			<line class="st7" x1="-726.9" y1="-1575.3" x2="-487.4" y2="-1814.8"/>
			<line class="st7" x1="-726.9" y1="-1524.3" x2="-436.4" y2="-1814.8"/>
			<line class="st7" x1="-725.4" y1="-1473.8" x2="-385.4" y2="-1813.8"/>
			<line class="st7" x1="-726.9" y1="-1680.3" x2="-591.9" y2="-1815.3"/>
			<line class="st7" x1="-699.9" y1="-1445.3" x2="-356.9" y2="-1788.3"/>
			<line class="st7" x1="-726.4" y1="-1733.8" x2="-646.4" y2="-1813.8"/>
			<line class="st7" x1="-597.4" y1="-1445.8" x2="-356.9" y2="-1686.3"/>
			<line class="st7" x1="-727.9" y1="-1625.3" x2="-538.4" y2="-1814.8"/>
			<line class="st7" x1="-726.4" y1="-1787.8" x2="-698.9" y2="-1815.3"/>
			<line class="st7" x1="-648.4" y1="-1445.8" x2="-356.4" y2="-1737.8"/>
			<line class="st7" x1="-544.9" y1="-1445.3" x2="-355.4" y2="-1634.8"/>
			<line class="st7" x1="-492.4" y1="-1446.8" x2="-355.9" y2="-1583.3"/>
			<line class="st7" x1="-443.9" y1="-1444.3" x2="-356.9" y2="-1531.3"/>
			<line class="st7" x1="-368.4" y1="-1444.8" x2="-356.9" y2="-1456.3"/>
		</g>
		<g class="st1">
			<line class="st7" x1="-46.6" y1="-553.6" x2="-453.6" y2="-960.6"/>
			<line class="st7" x1="-103.8" y1="-553.6" x2="-453" y2="-902.9"/>
			<line class="st7" x1="-159.3" y1="-553.1" x2="-453.6" y2="-847.3"/>
			<line class="st7" x1="-216.5" y1="-553.1" x2="-453" y2="-789.6"/>
			<line class="st7" x1="-46" y1="-781.9" x2="-223.7" y2="-959.5"/>
			<line class="st7" x1="-46" y1="-724.7" x2="-280.9" y2="-959.5"/>
			<line class="st7" x1="-46.6" y1="-669.1" x2="-336.4" y2="-959"/>
			<line class="st7" x1="-46.6" y1="-611.9" x2="-394.2" y2="-959.5"/>
			<line class="st7" x1="-274.8" y1="-554.2" x2="-452.5" y2="-731.8"/>
			<line class="st7" x1="-331.5" y1="-553.6" x2="-454.1" y2="-676.3"/>
			<line class="st7" x1="-388.7" y1="-554.7" x2="-452.5" y2="-618.5"/>
			<line class="st7" x1="-414" y1="-553.6" x2="-453.6" y2="-593.2"/>
			<line class="st7" x1="-44.4" y1="-955.1" x2="-50.4" y2="-961.2"/>
			<line class="st7" x1="-46.6" y1="-900.1" x2="-106" y2="-959.5"/>
			<line class="st7" x1="-47.1" y1="-842.4" x2="-164.3" y2="-959.5"/>
			<line class="st7" x1="-46" y1="-696.1" x2="-309.5" y2="-959.5"/>
			<line class="st7" x1="-46" y1="-640" x2="-365.6" y2="-959.5"/>
			<line class="st7" x1="-47.7" y1="-584.4" x2="-421.7" y2="-958.4"/>
			<line class="st7" x1="-46" y1="-811.6" x2="-194.5" y2="-960.1"/>
			<line class="st7" x1="-75.7" y1="-553.1" x2="-453" y2="-930.4"/>
			<line class="st7" x1="-46.6" y1="-870.4" x2="-134.6" y2="-958.4"/>
			<line class="st7" x1="-188.5" y1="-553.6" x2="-453" y2="-818.2"/>
			<line class="st7" x1="-44.9" y1="-751.1" x2="-253.4" y2="-959.5"/>
			<line class="st7" x1="-46.6" y1="-929.8" x2="-76.8" y2="-960.1"/>
			<line class="st7" x1="-132.4" y1="-553.6" x2="-453.6" y2="-874.8"/>
			<line class="st7" x1="-246.2" y1="-553.1" x2="-454.7" y2="-761.5"/>
			<line class="st7" x1="-304" y1="-554.7" x2="-454.1" y2="-704.9"/>
			<line class="st7" x1="-357.3" y1="-552" x2="-453" y2="-647.7"/>
			<line class="st7" x1="-440.4" y1="-552.5" x2="-453" y2="-565.2"/>
		</g>
		<g class="st1">
			<line class="st7" x1="-732.5" y1="290.3" x2="-320.2" y2="-122"/>
			<line class="st7" x1="-674.6" y1="290.3" x2="-320.8" y2="-63.5"/>
			<line class="st7" x1="-618.3" y1="290.9" x2="-320.2" y2="-7.2"/>
			<line class="st7" x1="-560.4" y1="290.9" x2="-320.8" y2="51.3"/>
			<line class="st7" x1="-733.1" y1="59.1" x2="-553.1" y2="-120.9"/>
			<line class="st7" x1="-733.1" y1="117.1" x2="-495.2" y2="-120.9"/>
			<line class="st7" x1="-732.5" y1="173.3" x2="-438.9" y2="-120.3"/>
			<line class="st7" x1="-732.5" y1="231.3" x2="-380.4" y2="-120.9"/>
			<line class="st7" x1="-501.3" y1="289.8" x2="-321.3" y2="109.8"/>
			<line class="st7" x1="-443.9" y1="290.3" x2="-319.7" y2="166.1"/>
			<line class="st7" x1="-386" y1="289.2" x2="-321.3" y2="224.6"/>
			<line class="st7" x1="-360.3" y1="290.3" x2="-320.2" y2="250.2"/>
			<line class="st7" x1="-734.8" y1="-116.4" x2="-728.6" y2="-122.5"/>
			<line class="st7" x1="-732.5" y1="-60.7" x2="-672.4" y2="-120.9"/>
			<line class="st7" x1="-732" y1="-2.2" x2="-613.3" y2="-120.9"/>
			<line class="st7" x1="-733.1" y1="146" x2="-466.2" y2="-120.9"/>
			<line class="st7" x1="-733.1" y1="202.9" x2="-409.4" y2="-120.9"/>
			<line class="st7" x1="-731.4" y1="259.1" x2="-352.5" y2="-119.7"/>
			<line class="st7" x1="-733.1" y1="29" x2="-582.7" y2="-121.4"/>
			<line class="st7" x1="-703" y1="290.9" x2="-320.8" y2="-91.3"/>
			<line class="st7" x1="-732.5" y1="-30.6" x2="-643.4" y2="-119.7"/>
			<line class="st7" x1="-588.8" y1="290.3" x2="-320.8" y2="22.3"/>
			<line class="st7" x1="-734.2" y1="90.3" x2="-523" y2="-120.9"/>
			<line class="st7" x1="-732.5" y1="-90.8" x2="-701.9" y2="-121.4"/>
			<line class="st7" x1="-645.6" y1="290.3" x2="-320.2" y2="-35.1"/>
			<line class="st7" x1="-530.3" y1="290.9" x2="-319.1" y2="79.7"/>
			<line class="st7" x1="-471.8" y1="289.2" x2="-319.7" y2="137.1"/>
			<line class="st7" x1="-417.7" y1="292" x2="-320.8" y2="195.1"/>
			<line class="st7" x1="-333.6" y1="291.4" x2="-320.8" y2="278.6"/>
		</g>
	</g>
</g>
<g id="Layer_2_1_" class="st0">
	<rect x="-52.5" y="-681" class="st8" width="1298" height="1896"/>
	<polygon class="st9" points="100.5,-236 430.5,-554 864.5,-414 960.5,22 205,189.5 	"/>
	<polygon class="st9" points="58,47.5 678,-612.5 1032,-432.5 	"/>
	<polyline class="st10" points="576.5,626 90.5,360 59.5,47 962.5,22 720.5,276 1034.5,-432 	"/>
	
		<ellipse transform="matrix(0.9994 -3.331483e-02 3.331483e-02 0.9994 -20.5229 19.4526)" class="st11" cx="573.5" cy="625.6" rx="19.9" ry="19.9"/>
	<polygon class="st12" points="429.5,-554 186.5,1044 1344.5,500 960.5,22 	"/>
	<polyline class="st9" points="1345.5,500 946.5,1464 430.5,-554 	"/>
	<circle class="st13" cx="185" cy="1045.5" r="9.5"/>
	
		<ellipse transform="matrix(0.9994 -3.331483e-02 3.331483e-02 0.9994 -20.5088 19.4485)" class="st11" cx="573.4" cy="625.2" rx="45.2" ry="45.2"/>
	<line class="st14" x1="1043" y1="126.5" x2="1046" y2="130.5"/>
	<line class="st14" x1="867.8" y1="121.3" x2="870.2" y2="118.7"/>
	<line class="st14" x1="866" y1="119.5" x2="868" y2="117.5"/>
	<line class="st14" x1="829" y1="52.8" x2="832" y2="52.2"/>
	<line class="st14" x1="828" y1="49.3" x2="831" y2="48.7"/>
	<line class="st14" x1="826" y1="27.5" x2="829" y2="27.5"/>
	<line class="st14" x1="826" y1="24.5" x2="829" y2="24.5"/>
	<line class="st14" x1="869" y1="-74.5" x2="871" y2="-72.5"/>
	<line class="st14" x1="872" y1="-76.5" x2="873" y2="-75.5"/>
	<line class="st14" x1="930.2" y1="-108.5" x2="931.8" y2="-101.5"/>
	<line class="st14" x1="933" y1="-108.5" x2="934" y2="-103.5"/>
	<circle class="st15" cx="12.5" cy="-444" r="15.5"/>
	<circle class="st11" cx="616" cy="-365.5" r="123"/>
	<circle class="st11" cx="1201" cy="466" r="92.5"/>
	<circle class="st11" cx="1223.5" cy="466" r="69.5"/>
	<circle class="st13" cx="679" cy="-612.5" r="6.5"/>
	<circle class="st16" cx="157" cy="-343.5" r="6.5"/>
	<circle class="st16" cx="581" cy="33.5" r="6.5"/>
	<circle class="st13" cx="716.5" cy="281" r="8"/>
	<circle class="st11" cx="716" cy="281.5" r="23"/>
</g>
<g id="Layer_3_1_">
	<path class="st17" d="M1179,74"/>
	<line class="st17" x1="1167" y1="113.5" x2="29" y2="113"/>
	<line class="st18" x1="211.5" y1="33" x2="211.5" y2="112.5"/>
	<line class="st18" x1="587.5" y1="33" x2="587.5" y2="111.5"/>
	<line class="st18" x1="973.5" y1="33" x2="973.5" y2="111.5"/>
</g>
</svg>
