<?xml version="1.0" encoding="utf-8"?>
<!-- Generator: Adobe Illustrator 21.1.0, SVG Export Plug-In . SVG Version: 6.00 Build 0)  -->
<svg version="1.1" xmlns="http://www.w3.org/2000/svg" xmlns:xlink="http://www.w3.org/1999/xlink" x="0px" y="0px"
	 viewBox="0 0 110 98" style="enable-background:new 0 0 110 98;" xml:space="preserve">
<style type="text/css">
	.st0{display:none;}
	.st1{display:inline;}
	.st2{fill:#5E5CA9;}
	.st3{fill:#658298;}
	.st4{fill:none;stroke:#658298;stroke-miterlimit:10;}
	.st5{display:inline;fill:#141B21;}
	.st6{fill:none;stroke:#5A9FAF;stroke-width:2;stroke-miterlimit:10;}
</style>
<g id="Layer_1" class="st0">
	<g class="st1">
		<rect x="26" y="47.6" class="st2" width="33" height="2.8"/>
		<rect x="26" y="53.2" class="st2" width="33" height="2.8"/>
		<rect x="26" y="58.8" class="st2" width="33" height="2.8"/>
	</g>
</g>
<g id="Layer_2" class="st0">
	<g class="st1">
		<rect x="26" y="47.6" class="st3" width="33" height="2.8"/>
		<rect x="26" y="53.2" class="st3" width="33" height="2.8"/>
		<rect x="26" y="58.8" class="st3" width="33" height="2.8"/>
	</g>
</g>
<g id="Layer_3">
	<g>
		<path class="st4" d="M64.2,41c-0.2,0-0.3,0-0.5,0v11.4H52.9C53,58.7,58,63.7,64.2,63.7c6.3,0,11.3-5.1,11.3-11.3S70.5,41,64.2,41z
			"/>
		<path class="st3" d="M63.8,41.1v-9.8H42.5v21.3h10.4c0,0,0-0.1,0-0.1C52.9,46.3,57.7,41.3,63.8,41.1z"/>
	</g>
</g>
<g id="Layer_4" class="st0">
	<rect x="-1731.9" y="-1803.3" class="st5" width="1298" height="2881"/>
	<g class="st1">
		<line class="st6" x1="-1420.4" y1="-953.8" x2="-1050.4" y2="-1323.8"/>
		<line class="st6" x1="-1368.4" y1="-953.8" x2="-1050.9" y2="-1271.3"/>
		<line class="st6" x1="-1317.9" y1="-953.3" x2="-1050.4" y2="-1220.8"/>
		<line class="st6" x1="-1265.9" y1="-953.3" x2="-1050.9" y2="-1168.3"/>
		<line class="st6" x1="-1420.9" y1="-1161.3" x2="-1259.4" y2="-1322.8"/>
		<line class="st6" x1="-1420.9" y1="-1109.3" x2="-1207.4" y2="-1322.8"/>
		<line class="st6" x1="-1420.4" y1="-1058.8" x2="-1156.9" y2="-1322.3"/>
		<line class="st6" x1="-1420.4" y1="-1006.8" x2="-1104.4" y2="-1322.8"/>
		<line class="st6" x1="-1212.9" y1="-954.3" x2="-1051.4" y2="-1115.8"/>
		<line class="st6" x1="-1161.4" y1="-953.8" x2="-1049.9" y2="-1065.3"/>
		<line class="st6" x1="-1109.4" y1="-954.8" x2="-1051.4" y2="-1012.8"/>
		<line class="st6" x1="-1086.4" y1="-953.8" x2="-1050.4" y2="-989.8"/>
		<line class="st6" x1="-1422.4" y1="-1318.8" x2="-1416.9" y2="-1324.3"/>
		<line class="st6" x1="-1420.4" y1="-1268.8" x2="-1366.4" y2="-1322.8"/>
		<line class="st6" x1="-1419.9" y1="-1216.3" x2="-1313.4" y2="-1322.8"/>
		<line class="st6" x1="-1420.9" y1="-1083.3" x2="-1181.4" y2="-1322.8"/>
		<line class="st6" x1="-1420.9" y1="-1032.3" x2="-1130.4" y2="-1322.8"/>
		<line class="st6" x1="-1419.4" y1="-981.8" x2="-1079.4" y2="-1321.8"/>
		<line class="st6" x1="-1420.9" y1="-1188.3" x2="-1285.9" y2="-1323.3"/>
		<line class="st6" x1="-1393.9" y1="-953.3" x2="-1050.9" y2="-1296.3"/>
		<line class="st6" x1="-1420.4" y1="-1241.8" x2="-1340.4" y2="-1321.8"/>
		<line class="st6" x1="-1291.4" y1="-953.8" x2="-1050.9" y2="-1194.3"/>
		<line class="st6" x1="-1421.9" y1="-1133.3" x2="-1232.4" y2="-1322.8"/>
		<line class="st6" x1="-1420.4" y1="-1295.8" x2="-1392.9" y2="-1323.3"/>
		<line class="st6" x1="-1342.4" y1="-953.8" x2="-1050.4" y2="-1245.8"/>
		<line class="st6" x1="-1238.9" y1="-953.3" x2="-1049.4" y2="-1142.8"/>
		<line class="st6" x1="-1186.4" y1="-954.8" x2="-1049.9" y2="-1091.3"/>
		<line class="st6" x1="-1137.9" y1="-952.3" x2="-1050.9" y2="-1039.3"/>
		<line class="st6" x1="-1062.4" y1="-952.8" x2="-1050.9" y2="-964.3"/>
	</g>
	<g class="st1">
		<line class="st6" x1="-740.6" y1="-61.6" x2="-1147.6" y2="-468.6"/>
		<line class="st6" x1="-797.8" y1="-61.6" x2="-1147" y2="-410.9"/>
		<line class="st6" x1="-853.3" y1="-61.1" x2="-1147.6" y2="-355.3"/>
		<line class="st6" x1="-910.5" y1="-61.1" x2="-1147" y2="-297.6"/>
		<line class="st6" x1="-740" y1="-289.9" x2="-917.7" y2="-467.5"/>
		<line class="st6" x1="-740" y1="-232.7" x2="-974.9" y2="-467.5"/>
		<line class="st6" x1="-740.6" y1="-177.1" x2="-1030.4" y2="-467"/>
		<line class="st6" x1="-740.6" y1="-119.9" x2="-1088.2" y2="-467.5"/>
		<line class="st6" x1="-968.8" y1="-62.2" x2="-1146.5" y2="-239.8"/>
		<line class="st6" x1="-1025.5" y1="-61.6" x2="-1148.1" y2="-184.3"/>
		<line class="st6" x1="-1082.7" y1="-62.7" x2="-1146.5" y2="-126.5"/>
		<line class="st6" x1="-1108" y1="-61.6" x2="-1147.6" y2="-101.2"/>
		<line class="st6" x1="-738.4" y1="-463.1" x2="-744.4" y2="-469.2"/>
		<line class="st6" x1="-740.6" y1="-408.1" x2="-800" y2="-467.5"/>
		<line class="st6" x1="-741.1" y1="-350.4" x2="-858.3" y2="-467.5"/>
		<line class="st6" x1="-740" y1="-204.1" x2="-1003.5" y2="-467.5"/>
		<line class="st6" x1="-740" y1="-148" x2="-1059.6" y2="-467.5"/>
		<line class="st6" x1="-741.7" y1="-92.4" x2="-1115.7" y2="-466.4"/>
		<line class="st6" x1="-740" y1="-319.6" x2="-888.5" y2="-468.1"/>
		<line class="st6" x1="-769.7" y1="-61.1" x2="-1147" y2="-438.4"/>
		<line class="st6" x1="-740.6" y1="-378.4" x2="-828.6" y2="-466.4"/>
		<line class="st6" x1="-882.5" y1="-61.6" x2="-1147" y2="-326.2"/>
		<line class="st6" x1="-738.9" y1="-259.1" x2="-947.4" y2="-467.5"/>
		<line class="st6" x1="-740.6" y1="-437.8" x2="-770.8" y2="-468.1"/>
		<line class="st6" x1="-826.4" y1="-61.6" x2="-1147.6" y2="-382.8"/>
		<line class="st6" x1="-940.2" y1="-61.1" x2="-1148.7" y2="-269.5"/>
		<line class="st6" x1="-998" y1="-62.7" x2="-1148.1" y2="-212.9"/>
		<line class="st6" x1="-1051.3" y1="-60" x2="-1147" y2="-155.7"/>
		<line class="st6" x1="-1134.4" y1="-60.5" x2="-1147" y2="-73.2"/>
	</g>
	<g class="st1">
		<line class="st6" x1="-1426.5" y1="782.3" x2="-1014.2" y2="370"/>
		<line class="st6" x1="-1368.6" y1="782.3" x2="-1014.8" y2="428.5"/>
		<line class="st6" x1="-1312.3" y1="782.9" x2="-1014.2" y2="484.8"/>
		<line class="st6" x1="-1254.4" y1="782.9" x2="-1014.8" y2="543.3"/>
		<line class="st6" x1="-1427.1" y1="551.1" x2="-1247.1" y2="371.1"/>
		<line class="st6" x1="-1427.1" y1="609.1" x2="-1189.2" y2="371.1"/>
		<line class="st6" x1="-1426.5" y1="665.3" x2="-1132.9" y2="371.7"/>
		<line class="st6" x1="-1426.5" y1="723.3" x2="-1074.4" y2="371.1"/>
		<line class="st6" x1="-1195.3" y1="781.8" x2="-1015.3" y2="601.8"/>
		<line class="st6" x1="-1137.9" y1="782.3" x2="-1013.7" y2="658.1"/>
		<line class="st6" x1="-1080" y1="781.2" x2="-1015.3" y2="716.6"/>
		<line class="st6" x1="-1054.3" y1="782.3" x2="-1014.2" y2="742.2"/>
		<line class="st6" x1="-1428.8" y1="375.6" x2="-1422.6" y2="369.5"/>
		<line class="st6" x1="-1426.5" y1="431.3" x2="-1366.4" y2="371.1"/>
		<line class="st6" x1="-1426" y1="489.8" x2="-1307.3" y2="371.1"/>
		<line class="st6" x1="-1427.1" y1="638" x2="-1160.2" y2="371.1"/>
		<line class="st6" x1="-1427.1" y1="694.9" x2="-1103.4" y2="371.1"/>
		<line class="st6" x1="-1425.4" y1="751.1" x2="-1046.5" y2="372.3"/>
		<line class="st6" x1="-1427.1" y1="521" x2="-1276.7" y2="370.6"/>
		<line class="st6" x1="-1397" y1="782.9" x2="-1014.8" y2="400.7"/>
		<line class="st6" x1="-1426.5" y1="461.4" x2="-1337.4" y2="372.3"/>
		<line class="st6" x1="-1282.8" y1="782.3" x2="-1014.8" y2="514.3"/>
		<line class="st6" x1="-1428.2" y1="582.3" x2="-1217" y2="371.1"/>
		<line class="st6" x1="-1426.5" y1="401.2" x2="-1395.9" y2="370.6"/>
		<line class="st6" x1="-1339.6" y1="782.3" x2="-1014.2" y2="456.9"/>
		<line class="st6" x1="-1224.3" y1="782.9" x2="-1013.1" y2="571.7"/>
		<line class="st6" x1="-1165.8" y1="781.2" x2="-1013.7" y2="629.1"/>
		<line class="st6" x1="-1111.7" y1="784" x2="-1014.8" y2="687.1"/>
		<line class="st6" x1="-1027.6" y1="783.4" x2="-1014.8" y2="770.6"/>
	</g>
</g>
</svg>
