<?xml version="1.0" encoding="utf-8"?>
<!-- Generator: Adobe Illustrator 21.1.0, SVG Export Plug-In . SVG Version: 6.00 Build 0)  -->
<svg version="1.1" xmlns="http://www.w3.org/2000/svg" xmlns:xlink="http://www.w3.org/1999/xlink" x="0px" y="0px"
	 viewBox="0 0 1298.6 2862.9" style="enable-background:new 0 0 1298.6 2862.9;" xml:space="preserve">
<style type="text/css">
	.st0{display:none;}
	.st1{display:inline;}
	.st2{fill:#5E5CA9;}
	.st3{fill:#658298;}
	.st4{fill:none;stroke:#658298;stroke-miterlimit:10;}
	.st5{fill:#141B21;}
	.st6{fill:none;stroke:#5A9FAF;stroke-width:2;stroke-miterlimit:10;}
</style>
<g id="Layer_1" class="st0">
	<g class="st1">
		<rect x="1758.2" y="1851.6" class="st2" width="33" height="2.8"/>
		<rect x="1758.2" y="1857.2" class="st2" width="33" height="2.8"/>
		<rect x="1758.2" y="1862.8" class="st2" width="33" height="2.8"/>
	</g>
</g>
<g id="Layer_2" class="st0">
	<g class="st1">
		<rect x="1758.2" y="1851.6" class="st3" width="33" height="2.8"/>
		<rect x="1758.2" y="1857.2" class="st3" width="33" height="2.8"/>
		<rect x="1758.2" y="1862.8" class="st3" width="33" height="2.8"/>
	</g>
</g>
<g id="Layer_3" class="st0">
	<g class="st1">
		<path class="st4" d="M1779.9,1853.2c-0.2,0-0.3,0-0.5,0v11.4h-10.9c0.1,6.2,5.1,11.2,11.3,11.2c6.3,0,11.3-5.1,11.3-11.3
			C1791.2,1858.3,1786.1,1853.2,1779.9,1853.2z"/>
		<path class="st3" d="M1779.4,1853.2v-9.8h-21.3v21.3h10.4c0,0,0-0.1,0-0.1C1768.5,1858.4,1773.4,1853.5,1779.4,1853.2z"/>
	</g>
</g>
<g id="Layer_4">
	<rect x="0.3" y="0.7" class="st5" width="1298" height="2881"/>
	<g>
		<line class="st6" x1="311.8" y1="850.2" x2="681.8" y2="480.2"/>
		<line class="st6" x1="363.8" y1="850.2" x2="681.3" y2="532.7"/>
		<line class="st6" x1="414.3" y1="850.7" x2="681.8" y2="583.2"/>
		<line class="st6" x1="466.3" y1="850.7" x2="681.3" y2="635.7"/>
		<line class="st6" x1="311.3" y1="642.7" x2="472.8" y2="481.2"/>
		<line class="st6" x1="311.3" y1="694.7" x2="524.8" y2="481.2"/>
		<line class="st6" x1="311.8" y1="745.2" x2="575.3" y2="481.7"/>
		<line class="st6" x1="311.8" y1="797.2" x2="627.8" y2="481.2"/>
		<line class="st6" x1="519.3" y1="849.7" x2="680.8" y2="688.2"/>
		<line class="st6" x1="570.8" y1="850.2" x2="682.3" y2="738.7"/>
		<line class="st6" x1="622.8" y1="849.2" x2="680.8" y2="791.2"/>
		<line class="st6" x1="645.8" y1="850.2" x2="681.8" y2="814.2"/>
		<line class="st6" x1="309.8" y1="485.2" x2="315.3" y2="479.7"/>
		<line class="st6" x1="311.8" y1="535.2" x2="365.8" y2="481.2"/>
		<line class="st6" x1="312.3" y1="587.7" x2="418.8" y2="481.2"/>
		<line class="st6" x1="311.3" y1="720.7" x2="550.8" y2="481.2"/>
		<line class="st6" x1="311.3" y1="771.7" x2="601.8" y2="481.2"/>
		<line class="st6" x1="312.8" y1="822.2" x2="652.8" y2="482.2"/>
		<line class="st6" x1="311.3" y1="615.7" x2="446.3" y2="480.7"/>
		<line class="st6" x1="338.3" y1="850.7" x2="681.3" y2="507.7"/>
		<line class="st6" x1="311.8" y1="562.2" x2="391.8" y2="482.2"/>
		<line class="st6" x1="440.8" y1="850.2" x2="681.3" y2="609.7"/>
		<line class="st6" x1="310.3" y1="670.7" x2="499.8" y2="481.2"/>
		<line class="st6" x1="311.8" y1="508.2" x2="339.3" y2="480.7"/>
		<line class="st6" x1="389.8" y1="850.2" x2="681.8" y2="558.2"/>
		<line class="st6" x1="493.3" y1="850.7" x2="682.8" y2="661.2"/>
		<line class="st6" x1="545.8" y1="849.2" x2="682.3" y2="712.7"/>
		<line class="st6" x1="594.3" y1="851.7" x2="681.3" y2="764.7"/>
		<line class="st6" x1="669.8" y1="851.2" x2="681.3" y2="839.7"/>
	</g>
	<g>
		<line class="st6" x1="991.6" y1="1742.4" x2="584.6" y2="1335.4"/>
		<line class="st6" x1="934.4" y1="1742.4" x2="585.2" y2="1393.2"/>
		<line class="st6" x1="878.9" y1="1742.9" x2="584.6" y2="1448.7"/>
		<line class="st6" x1="821.7" y1="1742.9" x2="585.2" y2="1506.4"/>
		<line class="st6" x1="992.2" y1="1514.2" x2="814.5" y2="1336.5"/>
		<line class="st6" x1="992.2" y1="1571.3" x2="757.3" y2="1336.5"/>
		<line class="st6" x1="991.6" y1="1626.9" x2="701.8" y2="1337"/>
		<line class="st6" x1="991.6" y1="1684.1" x2="644" y2="1336.5"/>
		<line class="st6" x1="763.4" y1="1741.8" x2="585.7" y2="1564.2"/>
		<line class="st6" x1="706.7" y1="1742.4" x2="584.1" y2="1619.8"/>
		<line class="st6" x1="649.5" y1="1741.3" x2="585.7" y2="1677.5"/>
		<line class="st6" x1="624.2" y1="1742.4" x2="584.6" y2="1702.8"/>
		<line class="st6" x1="993.8" y1="1340.9" x2="987.8" y2="1334.8"/>
		<line class="st6" x1="991.6" y1="1395.9" x2="932.2" y2="1336.5"/>
		<line class="st6" x1="991.1" y1="1453.7" x2="873.9" y2="1336.5"/>
		<line class="st6" x1="992.2" y1="1599.9" x2="728.7" y2="1336.5"/>
		<line class="st6" x1="992.2" y1="1656" x2="672.6" y2="1336.5"/>
		<line class="st6" x1="990.5" y1="1711.6" x2="616.5" y2="1337.6"/>
		<line class="st6" x1="992.2" y1="1484.4" x2="843.7" y2="1335.9"/>
		<line class="st6" x1="962.5" y1="1742.9" x2="585.2" y2="1365.7"/>
		<line class="st6" x1="991.6" y1="1425.6" x2="903.6" y2="1337.6"/>
		<line class="st6" x1="849.7" y1="1742.4" x2="585.2" y2="1477.8"/>
		<line class="st6" x1="993.3" y1="1544.9" x2="784.8" y2="1336.5"/>
		<line class="st6" x1="991.6" y1="1366.2" x2="961.4" y2="1335.9"/>
		<line class="st6" x1="905.8" y1="1742.4" x2="584.6" y2="1421.2"/>
		<line class="st6" x1="792" y1="1742.9" x2="583.5" y2="1534.5"/>
		<line class="st6" x1="734.2" y1="1741.3" x2="584.1" y2="1591.2"/>
		<line class="st6" x1="680.9" y1="1744" x2="585.2" y2="1648.3"/>
		<line class="st6" x1="597.8" y1="1743.5" x2="585.2" y2="1730.8"/>
	</g>
	<g>
		<line class="st6" x1="305.6" y1="2586.3" x2="717.9" y2="2174"/>
		<line class="st6" x1="363.6" y1="2586.3" x2="717.4" y2="2232.5"/>
		<line class="st6" x1="419.9" y1="2586.9" x2="717.9" y2="2288.8"/>
		<line class="st6" x1="477.8" y1="2586.9" x2="717.4" y2="2347.3"/>
		<line class="st6" x1="305.1" y1="2355.1" x2="485.1" y2="2175.1"/>
		<line class="st6" x1="305.1" y1="2413.1" x2="543" y2="2175.1"/>
		<line class="st6" x1="305.6" y1="2469.3" x2="599.3" y2="2175.7"/>
		<line class="st6" x1="305.6" y1="2527.3" x2="657.8" y2="2175.1"/>
		<line class="st6" x1="536.9" y1="2585.8" x2="716.8" y2="2405.8"/>
		<line class="st6" x1="594.3" y1="2586.3" x2="718.5" y2="2462.1"/>
		<line class="st6" x1="652.2" y1="2585.2" x2="716.8" y2="2520.6"/>
		<line class="st6" x1="677.8" y1="2586.3" x2="717.9" y2="2546.2"/>
		<line class="st6" x1="303.4" y1="2179.6" x2="309.5" y2="2173.5"/>
		<line class="st6" x1="305.6" y1="2235.3" x2="365.8" y2="2175.1"/>
		<line class="st6" x1="306.2" y1="2293.8" x2="424.9" y2="2175.1"/>
		<line class="st6" x1="305.1" y1="2442" x2="572" y2="2175.1"/>
		<line class="st6" x1="305.1" y1="2498.9" x2="628.8" y2="2175.1"/>
		<line class="st6" x1="306.8" y1="2555.1" x2="685.6" y2="2176.3"/>
		<line class="st6" x1="305.1" y1="2325" x2="455.5" y2="2174.6"/>
		<line class="st6" x1="335.2" y1="2586.9" x2="717.4" y2="2204.7"/>
		<line class="st6" x1="305.6" y1="2265.4" x2="394.8" y2="2176.3"/>
		<line class="st6" x1="449.4" y1="2586.3" x2="717.4" y2="2318.3"/>
		<line class="st6" x1="304" y1="2386.3" x2="515.1" y2="2175.1"/>
		<line class="st6" x1="305.6" y1="2205.2" x2="336.3" y2="2174.6"/>
		<line class="st6" x1="392.6" y1="2586.3" x2="717.9" y2="2260.9"/>
		<line class="st6" x1="507.9" y1="2586.9" x2="719.1" y2="2375.7"/>
		<line class="st6" x1="566.4" y1="2585.2" x2="718.5" y2="2433.1"/>
		<line class="st6" x1="620.4" y1="2588" x2="717.4" y2="2491.1"/>
		<line class="st6" x1="704.6" y1="2587.4" x2="717.4" y2="2574.6"/>
	</g>
</g>
</svg>
