<svg xmlns="http://www.w3.org/2000/svg" viewBox="0 0 16.41 16.4"><defs><style>.cls-1{fill:#f6f1ee;}</style></defs><title>facebook-white</title><g id="Layer_2" data-name="Layer 2"><g id="Layer_4" data-name="Layer 4"><g id="Layer_2-2" data-name="Layer 2"><g id="Layer_1-2" data-name="Layer 1-2"><path class="cls-1" d="M10.71,10.55H12.5a.53.53,0,0,0,.61-.54c0-.37.08-.93.15-1.39s-.14-.7-.65-.68-1.24,0-1.9,0v-2a.86.86,0,0,1,.8-.8h.41c.41-.06,1.12,0,1.17-.21a6,6,0,0,0,.07-1.84c0-.09-.3-.26-.45-.26a15.61,15.61,0,0,0-2.16.09A2.71,2.71,0,0,0,8.2,5.34c-.1.83-.09,1.67-.14,2.6H6.93c-.55-.05-.74.2-.7.72s0,.82,0,1.23.16.69.66.66.77,0,1.19,0v5.79a1.1,1.1,0,0,1-.26.06H2.25A2.18,2.18,0,0,1,0,14.28V2.3A2.19,2.19,0,0,1,2.06,0H14.13A2.18,2.18,0,0,1,16.4,2.09a.48.48,0,0,1,0,.17V14.15a2.11,2.11,0,0,1-1.92,2.21c-1.24.08-2.49,0-3.77,0Z"/></g></g></g></g></svg>