<svg xmlns="http://www.w3.org/2000/svg" viewBox="0 0 16.22 16.23"><defs><style>.cls-1{fill:#f6f1ee;}</style></defs><title>insta-white</title><g id="Layer_2" data-name="Layer 2"><g id="Layer_4" data-name="Layer 4"><g id="Layer_2-2" data-name="Layer 2"><g id="Layer_1-2" data-name="Layer 1-2"><path class="cls-1" d="M.07,8.12A34.88,34.88,0,0,1,.1,4,4.65,4.65,0,0,1,4.61,0q3.48-.06,7,0a4.74,4.74,0,0,1,4.58,4.59q.07,3.48,0,7a4.75,4.75,0,0,1-4.63,4.59c-2.31,0-4.62.05-6.93,0A4.78,4.78,0,0,1,0,11.62Zm1.54,0v3.19a3.22,3.22,0,0,0,3.13,3.31h6.47a3.2,3.2,0,0,0,3.35-3V5A3.21,3.21,0,0,0,11.5,1.67H4.94a3.22,3.22,0,0,0-3.33,3.1V8.12Z"/><path class="cls-1" d="M8.1,4A4.18,4.18,0,1,1,3.91,8.14h0A4.16,4.16,0,0,1,8.07,4Zm2.54,4.19a2.52,2.52,0,1,0,0,.05Z"/><path class="cls-1" d="M13.27,4a1,1,0,1,1-1-1A1,1,0,0,1,13.27,4Z"/></g></g></g></g></svg>