<svg xmlns="http://www.w3.org/2000/svg" viewBox="0 0 108 84"><defs><style>.cls-1{fill:#10627f;}.cls-2{fill:#666;}.cls-3{fill:#005670;}.cls-4{fill:#e8e8e8;}.cls-5{fill:#ea3a29;}</style></defs><title>laptop-1_1</title><g id="Layer_2" data-name="Layer 2"><g id="Layer_4" data-name="Layer 4"><path class="cls-1" d="M12.36,0h84A3.61,3.61,0,0,1,100,3.61V59a0,0,0,0,1,0,0H8a0,0,0,0,1,0,0V4.36A4.36,4.36,0,0,1,12.36,0Z"/><rect class="cls-2" x="14" y="6" width="80" height="48"/><polygon class="cls-3" points="108 73 0 73 8 62 100 62 108 73"/><path class="cls-1" d="M0,73v5s0,6,8,6H99.43a11.38,11.38,0,0,0,5.07-1.12C106.25,82,108,80.5,108,78V73Z"/><path class="cls-4" d="M40.85,73S40,75,44,75H65s2.13,0,2.07-2Z"/><circle class="cls-5" cx="101.5" cy="77.5" r="2"/><polygon class="cls-3" points="108 73 0 73 8 62 100 62 108 73"/><path class="cls-1" d="M0,73v5s0,6,8,6H99.43a11.38,11.38,0,0,0,5.07-1.12C106.25,82,108,80.5,108,78V73Z"/><path class="cls-4" d="M40.85,73S40,75,44,75H65s2.13,0,2.07-2Z"/><circle class="cls-5" cx="101" cy="78" r="2"/></g></g></svg>