<svg xmlns="http://www.w3.org/2000/svg" viewBox="0 0 159.16 14.24"><defs><style>.cls-1{fill:#f6f1ee;}</style></defs><title>logo-2</title><g id="Layer_2" data-name="Layer 2"><g id="Layer_2-2" data-name="Layer 2"><path class="cls-1" d="M66.83.05v2.5H62.36V14.2H59.21V2.55H54.72V.05Z"/><path class="cls-1" d="M70.34.05h3.53L79.16,14.2H75.78l-1-2.91H69.28l-1,2.91H65Zm-.21,8.8H74L72.07,3.28Z"/><path class="cls-1" d="M80,.05h3.13v11.6h7.46V14.2H80Z"/><path class="cls-1" d="M91.68.05h3.08V5.88L100.53.05h4L98.43,5.87l6.45,8.33h-4L96.26,8l-1.5,1.44V14.2H91.68Z"/><path class="cls-1" d="M0,14.24v-2.5H4.49V.1H7.64V11.74h4.47v2.5Z"/><path class="cls-1" d="M10.28.1h3.27l1,2.9h5.51l1-2.9h3.38L19.15,14.24H15.62ZM17.35,11l1.89-5.57H15.41Z"/><path class="cls-1" d="M25.29.1H35.87V2.64H28.41v11.6H25.29Z"/><path class="cls-1" d="M37,.1H40V4.83l1.5,1.44L46.15.1h4L43.72,8.43l6.13,5.81h-4L40,8.41v5.83H37Z"/><path class="cls-1" d="M159.16,0V2.51h-4.49V14.15h-3.14V2.51h-4.47V0Z"/><path class="cls-1" d="M148.88,14.15h-3.27l-1-2.91h-5.5l-1,2.91h-3.39L140,0h3.54ZM141.81,3.23,139.92,8.8h3.83Z"/><path class="cls-1" d="M133.88,14.15H123.29V11.61h7.47V0h3.12Z"/><path class="cls-1" d="M122.2,14.15h-3.07V9.42L117.62,8,113,14.15h-4l6.45-8.33L109.31,0h4l5.78,5.83V0h3.07Z"/></g></g></svg>