<svg xmlns="http://www.w3.org/2000/svg" viewBox="0 0 19.62 19.61"><defs><style>.cls-1{fill:#f6f1ee;}</style></defs><title>map</title><g id="Layer_2" data-name="Layer 2"><g id="Layer_2-2" data-name="Layer 2"><path class="cls-1" d="M0,0,5.22,2.24a.11.11,0,0,0,.12,0l1.8-.9.07,0-.07.12A4.45,4.45,0,0,0,6.6,3.13a.25.25,0,0,1-.17.25c-.22.09-.42.21-.64.3a1.52,1.52,0,0,1-1.2-.07l-3-1.3-.05,0V9l.34,0a5.83,5.83,0,0,1,1.84.44,5,5,0,0,1,1.54,1,.21.21,0,0,0,.13.05,1.87,1.87,0,0,1,1.56.91c.16.28.31.58.45.87a3,3,0,0,0,.63.9,1.55,1.55,0,0,0,.79.39,1.16,1.16,0,0,0,.49-.06l.09,0a1.32,1.32,0,0,1,.65-.12,4.54,4.54,0,0,1,1.5.29,3.7,3.7,0,0,1,1.75,1.45A5.85,5.85,0,0,1,14,16.91c.05.21.09.41.14.62a.12.12,0,0,0,0,0l.81.34h.08l3-1.48a.09.09,0,0,0,.05-.1V2.45l-2.05,1a5,5,0,0,0-.33-1.54L19.62,0V17.27a.12.12,0,0,1-.08.12l-4.39,2.2a.13.13,0,0,1-.12,0L10.9,17.82l-1.05-.45a.08.08,0,0,0-.09,0q-2.22,1.1-4.42,2.21a.13.13,0,0,1-.12,0L2.47,18.41,0,17.35Z"/><path class="cls-1" d="M11.79,12h-.94a2.09,2.09,0,0,1,0-.25,6.58,6.58,0,0,0-.45-1.81A25.28,25.28,0,0,0,9.27,7.59C9,7.06,8.71,6.53,8.44,6a8.92,8.92,0,0,1-.59-1.39,3.2,3.2,0,0,1,.09-2.24A3.55,3.55,0,0,1,9.75.43,3.48,3.48,0,0,1,11.63.09a3.63,3.63,0,0,1,3.16,2.53A3.58,3.58,0,0,1,15,3.7a3,3,0,0,1-.2,1,12,12,0,0,1-.7,1.55c-.42.82-.85,1.62-1.26,2.44A13.39,13.39,0,0,0,12,10.51,5.2,5.2,0,0,0,11.79,12Zm-.47-9.88a1.59,1.59,0,1,0,1.6,1.58A1.6,1.6,0,0,0,11.32,2.12Z"/></g></g></svg>