<svg xmlns="http://www.w3.org/2000/svg" viewBox="0 0 17.09 17.1"><defs><style>.cls-1{fill:#f6f1ee;}</style></defs><title>transport</title><g id="Layer_2" data-name="Layer 2"><g id="Layer_2-2" data-name="Layer 2"><path class="cls-1" d="M0,3.28A8.24,8.24,0,0,1,.43,2,3.63,3.63,0,0,1,3.75,0C5.58,0,7.4,0,9.22,0A3.75,3.75,0,0,1,13,3.82c0,1.53,0,3.06,0,4.59a.26.26,0,0,1,0,.1H11.29V4.69c0-.69-.24-.94-.94-.94H2.65c-.72,0-1,.25-1,1v4c0,.73.23,1,1,1H8.81A7.32,7.32,0,0,0,7.59,15H3.79c-.18,1.22-.36,1.37-1.57,1.37-.28,0-.56,0-.84,0a1,1,0,0,1-1-1A3.53,3.53,0,0,0,0,13.6Zm6.68-.53H8.73c.85,0,.85,0,.84-.86,0-.44-.07-.51-.51-.51-1.49,0-3,0-4.47,0-.81,0-.86-.06-.85.9,0,.32.14.48.48.47ZM4.1,12.16a1.2,1.2,0,1,0-2.4,0,1.26,1.26,0,0,0,1.22,1.2A1.22,1.22,0,0,0,4.1,12.16Z"/><path class="cls-1" d="M8.66,17.1a.88.88,0,0,1-.47-.87c0-1.05,0-2.1,0-3.15a2,2,0,0,1,.08-.6c.36-.83.7-1.67,1.12-2.48a1.4,1.4,0,0,1,1.32-.74h3.79a1.6,1.6,0,0,1,1.51,1c.34.67.64,1.37.93,2.07a2.49,2.49,0,0,1,.13.77c0,1,0,2.1,0,3.15a.91.91,0,0,1-.46.88H15.19c-.5-.17-.49-.61-.5-1H10.58c0,.44,0,.84-.48,1Zm4-4.43h2.81c.4,0,.49-.12.53-.52a3.19,3.19,0,0,0-.5-1.53,1.1,1.1,0,0,0-1.1-.71c-1.16,0-2.33,0-3.49,0a1.22,1.22,0,0,0-.86.37,2.94,2.94,0,0,0-.72,1.82c0,.46.1.56.56.56Zm-1.75,1.41A.68.68,0,1,0,9.57,14a.69.69,0,0,0,.64.75A.7.7,0,0,0,10.93,14.08Zm4.1-.75a.7.7,0,0,0-.68.72.69.69,0,0,0,.69.66.69.69,0,0,0,0-1.38Z"/></g></g></svg>