<svg xmlns="http://www.w3.org/2000/svg" viewBox="0 0 18.56 15.53"><defs><style>.cls-1{fill:#f6f1ee;}</style></defs><title>twitter-white</title><g id="Layer_2" data-name="Layer 2"><g id="Layer_4" data-name="Layer 4"><g id="Layer_2-2" data-name="Layer 2"><g id="Layer_1-2" data-name="Layer 1-2"><path class="cls-1" d="M0,13.73A7.77,7.77,0,0,0,5.47,12.1,4,4,0,0,1,1.91,9.38H3.39A4.31,4.31,0,0,1,.53,5.49L2,5.88A4.29,4.29,0,0,1,1.08.65,11.63,11.63,0,0,0,4.62,3.54,10.31,10.31,0,0,0,9,4.73,12.29,12.29,0,0,1,9.12,3,3.82,3.82,0,0,1,13.65.08a3.94,3.94,0,0,1,1.72.86.62.62,0,0,0,.74.16L18.05.35a5.09,5.09,0,0,1-1.39,2l1.81-.41.09.09c-.49.5-1,1-1.47,1.52a1.28,1.28,0,0,0-.35.73c-.16,4-1.7,7.33-5.11,9.51a10.63,10.63,0,0,1-11.41.15L0,13.84Z"/></g></g></g></g></svg>