<svg xmlns="http://www.w3.org/2000/svg" viewBox="0 0 20.18 16.41"><defs><style>.cls-1,.cls-2{fill:#f6f1ee;}.cls-1{stroke:#f2f2f2;stroke-miterlimit:10;}</style></defs><title>web-white</title><g id="Layer_2" data-name="Layer 2"><g id="Layer_4" data-name="Layer 4"><path class="cls-1" d="M10.12.5h8.77c.76,0,.79,0,.79.77V11.32c0,.76-.07.83-.85.83H1.34c-.77,0-.84-.07-.84-.85V1.2C.5.56.56.5,1.21.5Zm-8.84.73c0,.2,0,.37,0,.53,0,3,0,5.94,0,8.92,0,.46.13.57.57.57,5.52,0,11,0,16.56,0h.54v-10Z"/><path class="cls-2" d="M13,16.41H7.21c.06-.14.07-.27.14-.32a2,2,0,0,0,.76-1.77c0-.47.16-.65.67-.63,1,.05,1.9,0,2.86,0,.26,0,.39.08.41.36a2.42,2.42,0,0,0,.87,2.13S12.94,16.28,13,16.41Z"/></g></g></svg>