<?xml version="1.0" encoding="utf-8"?>
<!-- Generator: Adobe Illustrator 21.1.0, SVG Export Plug-In . SVG Version: 6.00 Build 0)  -->
<svg version="1.1" id="Layer_1" xmlns="http://www.w3.org/2000/svg" xmlns:xlink="http://www.w3.org/1999/xlink" x="0px" y="0px"
	 viewBox="0 0 849 1189" style="enable-background:new 0 0 849 1189;" xml:space="preserve">
<style type="text/css">
	.st0{fill:#FFFFFF;stroke:#000000;stroke-width:0.4592;stroke-miterlimit:10;}
	.st1{fill:#F6D681;}
	.st2{fill:#F26C58;}
	.st3{fill:#E298C2;}
	.st4{fill:#78C582;}
	.st5{fill:#8170B3;}
	.st6{fill:#49C8F0;}
	.st7{fill:#F8BDD6;}
	.st8{fill:#FEDB2B;}
	.st9{fill:#BBE2DD;}
	.st10{fill:none;stroke:#000000;stroke-width:0.5;stroke-miterlimit:10;}
	.st11{fill:none;stroke:#FFFFFF;stroke-width:0.5;stroke-miterlimit:10;}
	.st12{fill:#FFFFFF;stroke:#000000;stroke-width:0.5838;stroke-miterlimit:10;}
	.st13{fill:none;stroke:#205C2E;stroke-width:0.5838;stroke-miterlimit:10;}
</style>
<rect x="-0.1" y="0" width="848.7" height="1189.6"/>
<path class="st0" d="M2724.3-68.5c-0.3-19.9-25-37.6-64.8-50c44-13.9,71.6-33.4,71.2-54.7c-0.4-27.9-48.8-51.4-119.1-62.3
	c12.7-8,20.1-17.5,19.9-27.7c-0.4-26.6-52.5-47.4-116.4-46.4s-115.3,23.4-114.9,50.1c0.2,9.6,7,18.4,18.7,25.8
	c-74.3,12.7-125.5,38.4-125.1,67.4c0.3,19.9,25,37.6,64.8,50c-44,13.9-71.6,33.4-71.2,54.7c0.3,19.3,23.5,36.5,61.1,48.9
	c-41.2,13.8-66.8,32.7-66.5,53.1c0.3,20.3,25.9,38.2,66.9,50.7c-37.8,13.6-61,31.6-60.7,51.1c0.3,20.7,26.9,38.9,69.3,51.4
	c-40.6,13.8-65.7,32.5-65.3,52.8c0.3,20.5,26.4,38.6,68.1,51c-41.3,13.8-66.8,32.7-66.5,53.2c0.3,19.8,24.7,37.3,64,49.8
	c-43.8,13.9-71.1,33.4-70.8,54.6c0.5,30.9,59.7,56.4,142.6,65.3c-20,9-32.2,21-32,34.1c0.4,26.6,52.5,47.4,116.4,46.4
	c63.9-1,115.3-23.4,114.9-50.1c-0.2-13.7-14-25.8-36.1-34.2c77.6-12.3,131.6-38.7,131.1-68.4c-0.3-19.8-24.7-37.3-64-49.8
	c43.8-13.9,71.1-33.4,70.8-54.6c-0.3-20.5-26.4-38.6-68.1-51c41.3-13.8,66.8-32.7,66.5-53.2c-0.3-20.7-26.9-38.9-69.3-51.4
	c40.6-13.8,65.7-32.5,65.3-52.8c-0.3-20.3-25.9-38.2-66.9-50.7c37.8-13.6,61-31.6,60.7-51.1c-0.3-19.3-23.5-36.5-61.1-48.9
	C2699.1-29.2,2724.6-48.1,2724.3-68.5z"/>
<ellipse transform="matrix(0.9999 -1.565677e-02 1.565677e-02 0.9999 -9.5128 2.8875)" class="st1" cx="179.7" cy="609" rx="14" ry="14"/>
<ellipse transform="matrix(0.9999 -1.565677e-02 1.565677e-02 0.9999 -12.0423 1.444)" class="st2" cx="86.2" cy="769.8" rx="21.5" ry="21.5"/>
<g>
	<g>
		<path class="st3" d="M130.6,1051.1c-19.3-5.4-39.9,5.7-46.3,24.6c-1.8,5.4-2.6,11.1-5.4,16.1c-2.4,4.3-5.5,8.1-9.4,11.1
			c-8.9,6.8-20.4,8.4-31.1,5.4c-8.5-2.4-12.1,10.8-3.6,13.2c21.5,6.2,45.1-2.9,56-22.7c5-9.1,4.8-20.8,12.4-28.3
			c6.3-6.1,15.4-8.5,23.8-6.1C135.4,1066.7,139,1053.5,130.6,1051.1L130.6,1051.1z"/>
	</g>
</g>
<ellipse transform="matrix(0.9999 -1.565677e-02 1.565677e-02 0.9999 -3.9995 2.1405)" class="st4" cx="134.7" cy="256.5" rx="18" ry="18"/>
<g>
	<g>
		<path class="st5" d="M52.8,130.4c15.5,1.9,29.3-9.1,35.2-22.8c3.3-7.7,4.5-16.1,4.6-24.5c0.1-6.9-0.2-14.8-7-18.6
			c-12.7-7.1-31.5,12-20.6,23.4c11.5,12,31.2,3.1,39.2-8.1c9.9-13.8,12-37.2-4.9-46.6c-5.7-3.1-10.7,5.5-5.1,8.7
			c11.9,6.6,8.1,23.8,1.3,32.9c-3.5,4.7-8.7,8.1-14.6,8.5c-2.2,0.2-6.9,0.1-8.4-1.9c-1.8-2.3,1.3-5.7,3.1-7c7.2-5.3,6.9,5.3,6.8,9.6
			c-0.1,6.2-1,12.4-3.1,18.2c-4.2,11.1-14.3,19.7-26.6,18.2C46.4,119.5,46.5,129.6,52.8,130.4L52.8,130.4z"/>
	</g>
</g>
<g>
	<g>
		<path class="st6" d="M504.7,1134.4c7.1-14.4,1.9-31.2-9.8-41.5c-6-5.4-13.2-9.1-20.7-11.9c-6.8-2.6-15.5-5.5-21.5,0.5
			c-10.3,10.4,2.7,33.9,17,26.1s12.1-28.5,3.8-39.6c-10.3-13.7-31.2-22.7-45.7-9.9c-4.8,4.3,2.3,11.4,7.1,7.1
			c9.8-8.6,24.6,0.4,30.9,9.1c3.3,4.6,5.2,10.3,4.1,15.9c-0.5,2.6-1.8,6.2-4,7.8c-2.8,2.1-5-0.9-6.2-3.5c-1.1-2.4-1.5-5.8,1.6-6.7
			c2.4-0.7,6.6,1.4,8.7,2.2c5.6,2,11.1,4.6,15.8,8.3c9.1,7,15.7,19.7,10.1,31C493.2,1135.1,501.8,1140.2,504.7,1134.4L504.7,1134.4z
			"/>
	</g>
</g>
<ellipse class="st7" cx="768.4" cy="277.7" rx="39.7" ry="39.5"/>
<g>
	<g>
		<path class="st8" d="M769.5,741.8c10.9-8.3,15.8-24.7,10.5-37.6c-2.5-6.1-7.2-10.6-12.2-14.7c-5.3-4.4-12-10-12.5-17.6
			c-0.4-6.5,6.7-10.1,9.1-15.6c2.4-5.4,2.7-11.6,1.6-17.4c-1.2-6.5-4.3-12.5-9.3-17c-5.7-5.1-11.8-8.5-14.8-16
			c-7-17.7,1.3-34.6,10.6-49.5c2.9-4.7-4.5-9-7.4-4.3c-7.7,12.3-14.6,25.3-14.4,40.2c0.1,6.7,1.5,13.4,4.4,19.5
			c3.2,6.6,8.5,10.5,14.1,15c5.5,4.4,8.5,10.2,8.8,17.3c0.3,7.2-2.9,10.7-7.1,15.9c-8.9,10.9-1.6,24.9,7.6,32.9
			c5.7,4.9,12.5,9.4,14.4,17.2c2,8.2-1,19.1-7.8,24.3C760.9,737.7,765.1,745.2,769.5,741.8L769.5,741.8z"/>
	</g>
</g>
<g>
	<g>
		<path class="st4" d="M593.5,103.4c7.3,10.1,23.7,17.6,33.9,6.9c4.9-5.2,6.3-12.9,11.6-17.6c7.5-6.6,12,4.4,18.4,7.2
			c5.4,2.3,12,2,17.2-0.9c6.8-3.8,7.8-11.1,12.1-17c10.9-14.9,31.5-0.8,41.8,6.9c3.7,2.8,7.3-3.5,3.7-6.2c-11-8.2-23.5-16.6-38-13.4
			c-5.9,1.3-11.1,4.8-14.4,9.9c-4.1,6.6-5.5,15.3-15.3,15c-7.6-0.3-9.9-8-16.5-10.4c-6-2.2-11.9,1-15.8,5.4
			c-4.3,4.9-5.7,12-10.5,16.5c-6.8,6.3-17.6,0.3-22.1-5.9C597.1,96,590.8,99.6,593.5,103.4L593.5,103.4z"/>
	</g>
</g>
<ellipse class="st9" cx="793.6" cy="1014.5" rx="28.8" ry="28.5"/>
<g id="Layer_2">
</g>
<g id="Layer_3">
</g>
<g id="Layer_1_1_">
	<g>
		<ellipse class="st10" cx="1176.5" cy="840.9" rx="9.6" ry="10"/>
		<ellipse class="st10" cx="1175.6" cy="725.9" rx="9.6" ry="10"/>
		<ellipse class="st10" cx="1175.5" cy="618.6" rx="9.6" ry="10"/>
		<ellipse class="st10" cx="1175.4" cy="516" rx="9.6" ry="10"/>
		<ellipse class="st10" cx="1175.4" cy="413.3" rx="9.6" ry="10"/>
		<ellipse class="st10" cx="1175.4" cy="310.7" rx="9.6" ry="10"/>
		<ellipse class="st10" cx="1175.4" cy="208" rx="9.6" ry="10"/>
		<ellipse class="st10" cx="1175.4" cy="105.4" rx="9.6" ry="10"/>
		<path class="st10" d="M1175.9,14.1l-0.8,90.9c-0.4,3.8-190.2-7.5-199,53.1c-8.6,59.5,191.2,43.4,199,49.5
			c1.8,3.7,182.8-13,192.2,51.3c9.5,64.7-185.8,47.6-192.2,51.3c-3.7,5-198.9-7.6-204.6,53c-5.7,60.7,197.5,40.8,204.6,49.7
			c0,0,177.6-7.7,182.3,50c4.6,57.7-182.2,52.6-182.2,52.6s-211.4,6.3-202.9,60s202.8,42.7,202.8,42.7
			c13.6,0.8,196.9-5.7,190.9,55.4c-6,61.7-189.9,52.4-189.9,52.4s-222-1.3-211.3,60.4c9.4,54.2,217,47.7,212.4,53.8l-0.5,99.6"/>
	</g>
	<line class="st11" x1="1176" y1="1068.7" x2="1177.2" y2="930.8"/>
	<line class="st11" x1="1175.6" y1="16.6" x2="1176.8" y2="-121.4"/>
</g>
<g id="Layer_3_1_">
</g>
<path class="st12" d="M269.2,85.2c0,0,48.6-6.9,83.4,34.7s41.7,83.4,83.4,111.2s41.7,27.8,76.4,41.7
	c34.7,13.9,125.1,76.4,69.5,180.7s6.9,145.9,6.9,145.9s104.2,62.5,41.7,132s-20.8,125.1,27.8,139c0,0,97.3,27.8,76.4,111.2
	s-125.1,48.6-152.9-6.9c-27.8-55.6-104.2-76.4-152.9-62.5s-97.3,13.9-152.9-13.9s-76.4-139-13.9-166.8s97.3,6.9,132-62.5
	s-20.8-90.3-69.5-90.3s-139-34.7-90.3-145.9s-41.7-104.2-55.6-166.8C164.9,203.3,151,113,269.2,85.2z"/>
<path class="st12" d="M218.8,107.1c0,0-21,162.8,105.1,189.6s204.2,15.6,196.3,89.4s-222.1,36-223.7,103.6s143.9,27.4,176.9,68.2
	c33,40.9,6.4,81.1,41,109.4c34.6,28.3,19.6,83.2-27.7,100.7c-47.2,17.5-198.5,23.6-153.9,76.1c44.6,52.5,195.8-12.2,245.7,28.9
	c0,0,105.8,70.8,125.9,151.2"/>
<circle class="st13" cx="-526.6" cy="171.8" r="12.2"/>
<circle class="st13" cx="-380.7" cy="280.8" r="7.5"/>
<circle class="st13" cx="-234.3" cy="354" r="16.9"/>
<circle class="st13" cx="-457.6" cy="458.1" r="9.5"/>
<circle class="st13" cx="-276.4" cy="537.6" r="8.7"/>
<circle class="st13" cx="-227.5" cy="656.8" r="15.1"/>
<circle class="st13" cx="-425.5" cy="801.2" r="18.3"/>
<circle class="st13" cx="-200.9" cy="835.6" r="7.9"/>
<circle class="st13" cx="-91.2" cy="922.3" r="7.2"/>
</svg>
