<?xml version="1.0" encoding="utf-8"?>
<!-- Generator: Adobe Illustrator 21.1.0, SVG Export Plug-In . SVG Version: 6.00 Build 0)  -->
<svg version="1.1" id="Layer_1" xmlns="http://www.w3.org/2000/svg" xmlns:xlink="http://www.w3.org/1999/xlink" x="0px" y="0px"
	 viewBox="0 0 1200 2188" style="enable-background:new 0 0 1200 2188;" xml:space="preserve">
<style type="text/css">
	.st0{fill:#BBE2DD;}
	.st1{fill:#F6D681;}
	.st2{fill:#F26C58;}
	.st3{fill:#F8BDD6;}
	.st4{fill:#78C582;}
	.st5{fill:#FBAD2B;}
	.st6{fill:#8170B3;}
	.st7{fill:#49C8F0;}
	.st8{fill:#FEDB2B;}
	.st9{fill:#E298C2;}
	.st10{fill:#FFFFFF;}
	.st11{font-family:'Apercu-Bold';}
	.st12{font-size:15px;}
	.st13{fill:#88CA8D;}
</style>
<rect x="-1672" y="-921.4" width="1204" height="2202"/>
<circle class="st0" cx="585.8" cy="130.6" r="28.5"/>
<circle class="st1" cx="861.3" cy="221.1" r="14"/>
<ellipse transform="matrix(0.988 -0.1543 0.1543 0.988 -85.7322 69.8024)" class="st2" cx="406.8" cy="587.2" rx="21.5" ry="21.5"/>
<circle class="st3" cx="80.3" cy="702.1" r="22"/>
<circle class="st4" cx="791.3" cy="621.1" r="18"/>
<circle class="st3" cx="1083.3" cy="728.1" r="18"/>
<g>
	<g>
		<path class="st5" d="M581.7,607.4c-19.6-0.7-35.8,14.9-37.2,34.1c-0.4,5.9,0,11.7-1.8,17.5c-1.5,5-4.1,9.6-7.5,13.5
			c-7.5,8.5-18.4,12.6-29.6,12.2c-6.4-0.3-6.4,9.7,0,10c21.2,0.9,40.6-12.6,46.8-33c3-10.1-0.1-21.7,5.4-31
			c4.9-8.5,14.2-13.6,23.9-13.3C588.1,617.6,588.1,607.6,581.7,607.4L581.7,607.4z"/>
	</g>
</g>
<g>
	<g>
		<path class="st6" d="M67.8,116.7c-1.9,15.5,9.1,29.2,22.8,35c7.7,3.3,16.1,4.5,24.4,4.6c6.9,0.1,14.8-0.2,18.6-6.9
			c7.1-12.7-12-31.3-23.4-20.5c-12,11.4-3.1,31,8.1,39c13.8,9.8,37.2,11.9,46.6-4.9c3.1-5.6-5.5-10.7-8.6-5
			c-6.6,11.9-23.8,8-32.9,1.3c-4.6-3.5-8.1-8.6-8.5-14.5c-0.2-2.2,0-6.8,2-8.4c2.3-1.8,5.7,1.3,7,3.1c5.3,7.1-5.3,6.8-9.6,6.8
			c-6.2-0.1-12.4-1-18.2-3.1C85,139.1,76.4,129,77.9,116.7C78.5,110.3,68.5,110.4,67.8,116.7L67.8,116.7z"/>
	</g>
</g>
<g>
	<g>
		<path class="st7" d="M1001.9,414.1c14.4,7.1,31.1,1.9,41.5-9.7c5.4-6,9.1-13.1,11.9-20.6c2.6-6.8,5.5-15.4-0.5-21.3
			c-10.4-10.2-33.9,2.7-26.1,16.9c7.8,14.2,28.5,12.1,39.6,3.8c13.7-10.3,22.8-31,9.9-45.5c-4.3-4.8-11.3,2.3-7.1,7.1
			c8.6,9.7-0.4,24.5-9.1,30.7c-4.6,3.3-10.3,5.2-16,4.1c-2.6-0.5-6.2-1.7-7.8-4c-2.1-2.8,0.9-4.9,3.5-6.1c2.4-1.1,5.8-1.6,6.7,1.6
			c0.7,2.3-1.4,6.5-2.2,8.6c-2,5.6-4.6,11-8.3,15.7c-7.1,9.1-19.8,15.6-31,10.1C1001.2,402.7,996.1,411.3,1001.9,414.1L1001.9,414.1
			z"/>
	</g>
</g>
<circle class="st3" cx="224" cy="378" r="38"/>
<g>
	<g>
		<path class="st8" d="M916.3,599.4c4.6,14.1,18.7,28.2,34.7,25.2c7.2-1.3,12.8-6.3,17.7-11.3c4.6-4.7,11.8-13.2,19.4-11.2
			c3.5,0.9,5,4.7,6.5,7.6c1.7,3.3,3.4,6.6,6,9.2c4.7,4.6,11.1,7.2,17.6,7.6c7.2,0.4,13.8-2.3,19-7.1c5.9-5.4,9.8-12.5,18.1-14.4
			c19.8-4.6,34.4,14.6,44.5,28.5c3.8,5.1,12.4,0.2,8.6-5c-9.3-12.7-19.3-26.1-34.6-31.6c-6.9-2.5-14.8-3.2-21.9-1.3
			c-7.7,2-12.8,7.1-17.9,12.8c-5,5.6-10.5,9.5-18.3,7.7c-7.9-1.8-10.2-7.7-13.8-14.1c-8.4-15-25-10.7-35.6-0.6
			c-5.8,5.6-12.1,14.9-21.4,13.4c-9.1-1.5-16.3-9.7-19.1-18.1C924,590.7,914.3,593.3,916.3,599.4L916.3,599.4z"/>
	</g>
</g>
<g>
	<g>
		<path class="st9" d="M962.6,72.7c-5.6,14.5-2.5,35.9,12.8,43.4c7.1,3.5,14.8,2.9,22.4,2.1c5.5-0.6,13.1-1.8,17.9,1.9
			c2.7,2.1,2.2,4.9,1.5,7.9c-0.8,4.1-2,8-1.8,12.2c0.5,7,3.6,13.7,8.6,18.6c5.5,5.4,12.9,8.2,20.5,7.9c7.9-0.3,15.8-3.6,23.3,0.3
			c17.4,9.2,15.9,32.7,14.9,49.3c-0.5,8.8,13.1,8.7,13.6,0c1-16.3,1.5-34.3-8.1-48.4c-4.1-6-9.5-11-16.2-13.9
			c-7.9-3.4-15.4-2.4-23.8-1.3c-7.1,1-13.4-0.4-17.3-7c-4.1-7,0.2-13.8,0.4-21.2c0.3-15.4-15.9-21.5-28.9-20.5
			c-7.1,0.5-17.3,3.7-23.3-1.7c-7.1-6.4-6.5-18-3.4-26C978.9,68.1,965.7,64.6,962.6,72.7L962.6,72.7z"/>
	</g>
</g>
<g>
	<g>
		<path class="st4" d="M547.3,304.2c-5.3,13.7-2.7,34.2,11.9,41.3c6.8,3.3,14.2,2.7,21.5,1.9c6.1-0.7,14-1.7,19.2,2.4
			c6,4.8-0.1,15.1,0.3,21.4c0.5,6.5,3.4,12.8,8.1,17.4c5.2,5,12,7.6,19.3,7.3c8.3-0.4,16.4-3.7,24.2,0.6c18,9.7,16.8,33.4,15.8,50.8
			c-0.4,6.4,9.6,6.4,10,0c0.9-16,1.6-33.6-7.9-47.5c-3.9-5.6-9-10.4-15.3-13.2c-7.5-3.3-14.7-2.3-22.6-1.2
			c-7.9,1.1-15.1-0.5-19.4-7.8c-4.4-7.5,0-14.2,0.1-22.1c0.3-14.4-15.1-19.6-27.1-18.7c-7.7,0.6-18.1,3.7-24.5-2.2
			c-7.5-6.9-7.3-19.1-3.9-27.8C559.3,300.8,549.6,298.2,547.3,304.2L547.3,304.2z"/>
	</g>
</g>
<rect x="1112.9" y="44.7" class="st10" width="46.5" height="4.2"/>
<rect x="1113.1" y="53.3" class="st10" width="46.5" height="4.2"/>
<rect x="1112.8" y="62.6" class="st10" width="46.5" height="4.2"/>
<text transform="matrix(1 0 0 1 1115.1523 39.6812)" class="st10 st11 st12">Menu</text>
<circle class="st0" cx="733.5" cy="841.5" r="28.5"/>
<circle class="st1" cx="318" cy="1078" r="14"/>
<circle class="st3" cx="1119.5" cy="1561.6" r="22"/>
<circle class="st4" cx="408.5" cy="1480.6" r="18"/>
<circle class="st4" cx="907" cy="1706" r="18"/>
<circle class="st3" cx="116.5" cy="1587.6" r="18"/>
<g>
	<g>
		<path class="st5" d="M618.1,1476.9c9.5-0.3,18.6,4.5,23.6,12.7c5.9,9.5,2.6,21.2,5.7,31.6c6.1,20.4,25.5,33.9,46.8,33
			c6.4-0.3,6.4-10.3,0-10c-11,0.5-21.6-3.4-29.1-11.6c-3.7-4-6.4-8.9-8-14.1c-1.7-5.8-1.4-11.6-1.8-17.5
			c-1.4-19.2-17.6-34.8-37.2-34.1C611.7,1467.1,611.7,1477.1,618.1,1476.9L618.1,1476.9z"/>
	</g>
</g>
<g>
	<g>
		<path class="st6" d="M1016.1,908.2c1.5,12.3-7.2,22.3-18.2,26.5c-5.5,2.1-11.5,2.9-17.4,3.1c-4.2,0.1-16,0.8-10.4-6.7
			c1.4-1.9,4.6-4.8,7-3.1c1.8,1.3,2.1,5.7,2,7.6c-0.2,6.2-3.7,11.6-8.6,15.2c-9,6.8-26.3,10.5-32.9-1.3c-3.1-5.6-11.8-0.6-8.6,5
			c16.7,29.9,73.1,1.7,57.8-29.7c-7.5-15.4-29.1-3.6-28.1,10.7c1.2,17.2,27.8,12.9,38.7,9.8c16.2-4.7,30.9-19.1,28.7-37.1
			C1025.3,901.9,1015.3,901.8,1016.1,908.2L1016.1,908.2z"/>
	</g>
</g>
<circle class="st3" cx="1043.3" cy="1211" r="39.5"/>
<g>
	<g>
		<path class="st8" d="M273.8,1456.3c-2.5,7.6-8.1,14.3-15.6,17.2c-8.7,3.3-14.9-2.4-20.6-8.2c-9.1-9.3-25-21-36.6-8.2
			c-4.7,5.3-5.6,13-12.1,16.8c-6,3.5-13.5,3-18.8-1.4c-6-5-9.8-11.8-17-15.3c-6.6-3.2-14.2-3.7-21.4-2.3
			c-18.4,3.5-30.2,19-40.5,33.2c-3.8,5.2,4.9,10.2,8.6,5c9.4-12.9,20.9-28.5,38.5-29c8.8-0.2,14.2,4.1,19.8,10.4
			c5,5.6,10.4,10.2,18.1,11.4c6.5,1,13.4-0.4,18.9-4c6.4-4.2,8.2-10.3,12.1-16.3c5.2-8,14.7-1.7,19.7,3.2
			c5.1,5.1,9.9,10.9,16.6,13.9c17.3,7.8,34.9-7.8,40-23.5C285.5,1452.8,275.8,1450.2,273.8,1456.3L273.8,1456.3z"/>
	</g>
</g>
<g>
	<g>
		<path class="st13" d="M224.1,935.8c2.9,7.5,3.3,16.1-1.1,23.1c-4.3,6.9-12.2,6-19.3,5.3c-12.4-1.3-29.4-0.9-34.2,13.4
			c-2.7,8,2.6,15.2,1.2,23c-1.1,5.9-6.1,11.1-12.2,12c-4.1,0.6-8.5-0.7-12.5-1.2c-4.3-0.6-8.4-0.7-12.7,0.2c-6.9,1.5-13.3,5.7-18,11
			c-13.1,14.7-13,34.7-11.9,53.2c0.5,8.7,14.2,8.8,13.6,0c-0.9-15.6-2.4-34.7,10.5-46.2c6.1-5.5,12.6-5.4,20.4-4.3
			c8.2,1.2,16.2,1.3,23.3-3.4c5.8-3.8,10.3-9.7,12.2-16.5c0.9-3.3,1.2-6.7,0.8-10.1c-0.5-3.9-3-9.1-2-13c1.4-5.2,9.7-5.5,13.9-5.3
			c7.6,0.4,14.9,2.1,22.5,0.5c19.7-4,25-29.1,18.6-45.4C234.1,924.1,220.9,927.6,224.1,935.8L224.1,935.8z"/>
	</g>
</g>
<g>
	<g>
		<path class="st4" d="M663.9,1175.3c3.1,7.9,3.3,17.1-1.3,24.5c-4.7,7.6-13,7-20.9,6.2c-11.4-1.2-28-1.4-32.5,12.1
			c-2.6,7.9,2.7,15.2,1.2,23c-1.3,6.5-6.8,12.2-13.4,13.3c-8.4,1.3-16.6-2.8-25.2-1c-6.6,1.4-12.7,5.5-17.2,10.5
			c-12.7,14.3-12.4,33.9-11.4,52c0.4,6.4,10.4,6.4,10,0c-1-16.2-2.2-35.5,11-47.5c6.6-6,13.7-6,22.1-4.8c7.7,1.1,15.2,1.2,21.9-3.2
			c5.4-3.6,9.6-9.1,11.4-15.4c0.9-3,1.1-6.3,0.8-9.4c-0.5-4.3-3.1-9.4-2-13.7c1.5-6.2,10.6-6.9,15.7-6.7c7.4,0.4,14.6,2.1,22,0.6
			c18.8-3.8,23.4-27.8,17.4-43.2C671.2,1166.7,661.5,1169.3,663.9,1175.3L663.9,1175.3z"/>
	</g>
</g>
<g>
	<g>
		<path class="st4" d="M900.9,1782.3c3.1,7.9,3.3,17.1-1.3,24.5c-4.7,7.6-13,7-20.9,6.2c-11.4-1.2-28-1.4-32.5,12.1
			c-2.6,7.9,2.7,15.2,1.2,23c-1.3,6.5-6.8,12.2-13.4,13.3c-8.4,1.3-16.6-2.8-25.2-1c-6.6,1.4-12.7,5.5-17.2,10.5
			c-12.7,14.3-12.4,33.9-11.4,52c0.4,6.4,10.4,6.4,10,0c-1-16.2-2.2-35.5,11-47.5c6.6-6,13.7-6,22.1-4.8c7.7,1.1,15.2,1.2,21.9-3.2
			c5.4-3.6,9.6-9.1,11.4-15.4c0.9-3,1.1-6.3,0.8-9.4c-0.5-4.3-3.1-9.4-2-13.7c1.5-6.2,10.6-6.9,15.7-6.7c7.4,0.4,14.6,2.1,22,0.6
			c18.8-3.8,23.4-27.8,17.4-43.2C908.2,1773.7,898.5,1776.3,900.9,1782.3L900.9,1782.3z"/>
	</g>
</g>
<circle class="st0" cx="554.5" cy="1706.5" r="28.5"/>
<circle class="st1" cx="1133" cy="1770" r="14"/>
<circle class="st3" cx="128.5" cy="1796.5" r="22"/>
<g>
	<g>
		<path class="st8" d="M404.2,1909.9c2.5-7.6,8.1-14.3,15.6-17.2c8.7-3.3,14.9,2.4,20.6,8.2c9.1,9.3,25,21,36.6,8.2
			c4.7-5.3,5.6-13,12.1-16.8c6-3.5,13.5-3,18.8,1.4c6,5,9.8,11.8,17,15.3c6.6,3.2,14.2,3.7,21.4,2.3c18.4-3.5,30.2-19,40.5-33.2
			c3.8-5.2-4.9-10.2-8.6-5c-9.4,12.9-20.9,28.5-38.5,29c-8.8,0.2-14.2-4.1-19.8-10.4c-5-5.6-10.4-10.2-18.1-11.4
			c-6.5-1-13.4,0.4-18.9,4c-6.4,4.2-8.2,10.3-12.1,16.3c-5.2,8-14.7,1.7-19.7-3.2c-5.1-5.1-9.9-10.9-16.6-13.9
			c-17.3-7.8-34.9,7.8-40,23.5C392.6,1913.3,402.2,1916,404.2,1909.9L404.2,1909.9z"/>
	</g>
</g>
</svg>
