<?xml version="1.0" encoding="utf-8"?>
<!-- Generator: Adobe Illustrator 21.1.0, SVG Export Plug-In . SVG Version: 6.00 Build 0)  -->
<svg version="1.1" id="Layer_1" xmlns="http://www.w3.org/2000/svg" xmlns:xlink="http://www.w3.org/1999/xlink" x="0px" y="0px"
	 viewBox="0 0 826 1225" style="enable-background:new 0 0 826 1225;" xml:space="preserve">
<style type="text/css">
	.st0{fill:#FFFFFF;}
	.st1{fill:#BBE2DD;}
	.st2{fill:#F8BDD6;}
	.st3{fill:#78C582;}
	.st4{fill:#49C8F0;}
	.st5{fill:#FEDB2B;}
	.st6{fill:none;stroke:#FFFFFF;stroke-width:3.72;stroke-miterlimit:10;}
	.st7{fill:#F6D681;}
	.st8{fill:#FBAD2B;}
	.st9{fill:#8170B3;}
	.st10{fill:#E298C2;}
	.st11{fill:#F26C58;}
</style>
<rect x="-14" y="-13" width="850" height="1251"/>
<path class="st0" d="M162.5,156.6c39-20.8,113.1-39.9,225.4,11.9c0,0,135.1,81.7,176.6,91.7c41.5,10,176.8,112.4,198.1,195
	s63.8,216.7-17.9,351.9s-112.6,145.7-153.6,197.8c-41,52.1-164.1,177.2-289.2,54S228.5,935.3,166,884.1s-73.6-154.6-84.6-227
	S49.3,512.5,38.7,491.9c-9.5-18.7-45.9-215.3,54.6-291.5C103.8,192.5,140.2,168.5,162.5,156.6z"/>
<ellipse transform="matrix(1 -7.917898e-03 7.917898e-03 1 -6.8831 0.4588)" class="st1" cx="54.5" cy="869.5" rx="28.5" ry="28.5"/>
<ellipse transform="matrix(1 -7.917898e-03 7.917898e-03 1 -6.273 6.5693)" class="st2" cx="826.5" cy="795.5" rx="57.5" ry="57.5"/>
<ellipse transform="matrix(1 -7.917898e-03 7.917898e-03 1 -0.7382 4.5361)" class="st3" cx="572.5" cy="95.5" rx="21.5" ry="21.5"/>
<ellipse transform="matrix(1 -7.917898e-03 7.917898e-03 1 -9.3162 4.8987)" class="st4" cx="614" cy="1179" rx="17" ry="17"/>
<g>
	<g>
		<path class="st5" d="M715,234.1c4.7,14,18.9,28,34.9,25c7.2-1.3,12.7-6.4,17.6-11.5c4.6-4.7,11.7-13.3,19.3-11.4
			c3.5,0.9,5.1,4.6,6.6,7.6c1.7,3.3,3.4,6.6,6.1,9.2c4.7,4.6,11.2,7.1,17.7,7.5c7.2,0.4,13.8-2.4,19-7.2c5.8-5.4,9.7-12.5,17.9-14.5
			c19.8-4.8,34.5,14.3,44.8,28.1c3.8,5.1,12.5,0.1,8.6-5c-9.4-12.6-19.5-25.9-34.9-31.4c-6.9-2.4-14.8-3.1-21.9-1.1
			c-7.7,2.1-12.7,7.2-17.9,13c-5,5.6-10.4,9.6-18.2,7.9c-7.9-1.7-10.3-7.5-13.9-13.9c-8.5-14.9-25.1-10.6-35.6-0.4
			c-5.8,5.6-12,15-21.2,13.6c-9.1-1.4-16.5-9.6-19.3-18C722.6,225.4,712.9,228,715,234.1L715,234.1z"/>
	</g>
</g>
<polyline class="st6" points="388.3,643.3 397.9,652.8 407.7,643 "/>
<ellipse transform="matrix(1 -7.917898e-03 7.917898e-03 1 -1.5558 3.0389)" class="st1" cx="383" cy="198" rx="15" ry="15"/>
<ellipse transform="matrix(1 -7.917898e-03 7.917898e-03 1 -2.822 4.2118)" class="st7" cx="530.5" cy="358.5" rx="7.5" ry="7.5"/>
<ellipse transform="matrix(1 -7.917898e-03 7.917898e-03 1 -5.0514 1.1088)" class="st2" cx="137.5" cy="638.5" rx="11.5" ry="11.5"/>
<ellipse transform="matrix(1 -7.917898e-03 7.917898e-03 1 -5.2473 5.6388)" class="st3" cx="709.5" cy="665.5" rx="9.5" ry="9.5"/>
<ellipse transform="matrix(1 -7.917898e-03 7.917898e-03 1 -6.8727 5.0989)" class="st2" cx="640.5" cy="870.5" rx="9.5" ry="9.5"/>
<g>
	<g>
		<path class="st8" d="M230.1,788.8c-8.4-2.2-17.8,1.3-22.1,9c-2.9,5.3-2.9,11.2-7.3,15.9c-5.2,5.5-12.7,7-19.8,5.1
			c-3.3-0.9-4.7,4.2-1.4,5.1c10.2,2.8,21.2-0.5,27.4-9.3c3.3-4.7,3.3-10.6,6.4-15.2c3.4-5,9.8-7,15.4-5.5
			C232,794.8,233.4,789.7,230.1,788.8L230.1,788.8z"/>
	</g>
</g>
<g>
	<g>
		<path class="st9" d="M205.9,202.1c-1.1,12.6,10.7,19.7,21.8,20.7c4.3,0.4,10.8,0.9,13.3-3.6c2.4-4.3-0.7-9.4-4.6-11.5
			c-4.1-2.2-8.1-0.4-9.8,3.7c-1.9,4.6-0.6,10,2.3,13.8c6.7,8.7,22.5,11.6,28.8,1.1c1.8-2.9-2.8-5.6-4.6-2.7
			c-3.4,5.7-11.2,4.6-16.1,1.7c-2.5-1.5-4.7-3.7-5.5-6.5c-0.2-0.8-0.9-3.6-0.3-4.3c1.4-0.3,2.9-0.6,4.3-0.9c1,2.7,0.6,3.9-1.2,3.9
			c-3.9,1.6-11.7-0.5-15.2-2.3c-5.1-2.6-8.4-7.4-7.9-13.1C211.5,198.7,206.2,198.8,205.9,202.1L205.9,202.1z"/>
	</g>
</g>
<g>
	<g>
		<path class="st4" d="M681.5,523.4c11.5,5.1,22.3-2.7,27-13.1c1.8-4.1,4.8-10.4,1.1-14.3c-3.4-3.5-9.2-2.2-12.4,0.9
			c-3.3,3.2-2.8,7.6,0.6,10.5c4,3.4,9.9,3.8,14.6,1.9c10.1-4,17.1-17.5,9.4-26.7c-2.2-2.6-5.9,1.1-3.8,3.8
			c4.1,4.9,0.6,11.6-3.5,15.3c-1.9,1.8-4.5,3.2-7.1,3.4c-1.2,0.1-2.5,0-3.6-0.3c-2.2-0.7-5.8-5.5-0.6-2.9c2.8,1.4,2.4,1.1,1.6,3.5
			c-0.5,1.3-1,2.6-1.6,3.8c-1.1,2.2-2.4,4.2-4.1,6c-3.8,4-9.7,6.1-14.9,3.8C681.1,517.4,678.4,522,681.5,523.4L681.5,523.4z"/>
	</g>
</g>
<ellipse transform="matrix(1 -7.917898e-03 7.917898e-03 1 -3.1644 0.741)" class="st4" cx="92" cy="400" rx="21" ry="21"/>
<g>
	<g>
		<path class="st5" d="M516.7,737.4c2.9,8.2,11.9,16.5,21.1,12.5c4.3-1.9,6.8-5.9,10.3-8.8c3.6-2.9,7.6-3.5,10,1.1
			c1.1,2,2,4,3.7,5.6c6.5,6,15.4,4,21-2c2.3-2.5,4.2-5,7.7-5.9c3.4-0.8,7.1-0.1,10.2,1.4c5.8,2.8,9.9,8.4,13.6,13.5
			c2,2.7,6.6,0.1,4.6-2.7c-5.8-7.8-12.3-16.2-22.6-17.6c-4.5-0.6-9.1,0.1-12.7,2.9c-4.5,3.4-7,9.8-13.7,8.7c-5.8-1-6.1-6.4-9.5-10
			c-2.8-3-6.9-3.4-10.6-2c-4.5,1.7-7.1,5.3-10.5,8.4c-6.8,6.1-14.8,1.3-17.5-6.4C520.7,732.8,515.5,734.2,516.7,737.4L516.7,737.4z"
			/>
	</g>
</g>
<g>
	<g>
		<path class="st10" d="M572,292.5c-3.1,8.7-0.7,21.3,9.5,24c5,1.3,9.9-0.8,14.9-0.2c3.1,0.3,4.9,1.2,4.9,4.6c0,2.8-1.2,5.3-0.9,8.2
			c1.2,9.8,10.1,13.9,19,12.7c6.6-0.9,11.7,0.4,14.9,6.9c3,6,2.5,13.2,2.1,19.7c-0.2,4.7,7,4.7,7.3,0c0.5-10.2,0.5-21.5-7.4-29.1
			c-3-2.9-6.7-4.8-10.9-5.2c-5.9-0.5-13.2,3.5-16.9-3.1c-2.6-4.7,1.4-10-0.5-15c-1.3-3.3-4.4-5.4-7.8-6.4c-4.7-1.3-9.3,0.1-14,0.1
			c-8.3,0-9.5-8.9-7.3-15.3C580.5,290,573.5,288.1,572,292.5L572,292.5z"/>
	</g>
</g>
<g>
	<g>
		<path class="st3" d="M202.2,445.5c-2.9,8.2-0.9,20.3,8.8,22.8c4.9,1.3,9.9-0.7,14.8-0.2c3.6,0.4,5.8,1.7,5.7,5.6
			c-0.1,2.8-1.2,5.2-0.9,8.1c1.2,9.1,9.5,12.9,17.8,11.8c7.1-0.9,12.5,0.5,16,7.3c3.1,6.1,2.6,13.6,2.3,20.2c-0.2,3.4,5.1,3.4,5.3,0
			c0.5-9.9,0.6-21-7.1-28.5c-2.8-2.7-6.3-4.6-10.2-4.9c-6.3-0.5-13.7,3.5-17.7-3.6c-2.8-4.9,1.4-10.1-0.6-15.2
			c-1.2-3-4.1-4.8-7.1-5.7c-4.6-1.3-9.1,0.1-13.8,0.1c-8.9,0-10.6-9.5-8.2-16.5C208.4,443.7,203.3,442.3,202.2,445.5L202.2,445.5z"
			/>
	</g>
</g>
<g>
	<g>
		<path class="st9" d="M767.9,1080.4c-2.8-11.2-14.5-22.8-26.7-17.4c-6.2,2.7-10.1,9-16.4,11.3c-8.7,3.1-8.6-7-12.8-11.8
			c-3.4-3.9-8.7-6.2-13.9-6.1c-6.8,0.1-10.9,4.3-15.7,8.5c-15,13.1-29.3-6.1-36.5-17.8c-2.3-3.7-8.1-0.3-5.8,3.4
			c6.9,11.3,15.3,23.6,29.5,25.2c6.1,0.7,11.8-1,16.5-5c5.3-4.5,10.3-10.3,17.8-6.2c5.7,3.1,5.3,10.2,9.8,14.3
			c3.9,3.6,9.5,3.3,14.1,1.4c6-2.5,9.7-8.2,15.5-11c8.7-4.1,16.2,5.2,18.1,12.7C762.4,1086.4,768.9,1084.6,767.9,1080.4
			L767.9,1080.4z"/>
	</g>
</g>
<path class="st11" d="M284,973.4c0.1,8.6-6.6,15.6-14.9,15.6s-15.1-6.8-15.1-15.4c-0.1-8.6,6.6-15.6,14.9-15.6
	S283.9,964.8,284,973.4z"/>
<path class="st11" d="M104.9,89.6c0.1,8.6-6.6,15.6-14.9,15.6s-15.1-6.8-15.1-15.4c-0.1-8.6,6.6-15.6,14.9-15.6S104.8,81,104.9,89.6
	z"/>
<g id="Layer_2">
</g>
<g id="Layer_3">
</g>
<g>
	<g>
		<path class="st3" d="M72,1136.6c14.4,7,31.2,1.7,41.4-10c5.3-6.1,9-13.2,11.8-20.8c2.5-6.8,5.3-15.5-0.7-21.4
			c-10.5-10.3-33.7,2.9-26,17.1c7.7,14.3,28.7,11.9,39.6,3.5c13.6-10.4,22.5-31.4,9.6-45.8c-4.3-4.8-11.4,2.3-7.1,7.1
			c8.7,9.7-0.1,24.6-8.8,31c-4.6,3.4-10.2,5.3-15.9,4.3c-2.6-0.5-6.2-1.7-7.9-3.9c-2.1-2.8,0.8-5,3.4-6.2c2.2-1,5.8-1.7,6.7,1.3
			c0.8,2.4-1.3,6.7-2.1,8.9c-2,5.6-4.5,11.1-8.1,15.9c-6.9,9.2-19.6,15.9-30.9,10.4C71.3,1125.2,66.2,1133.8,72,1136.6L72,1136.6z"
			/>
	</g>
</g>
</svg>
