<?xml version="1.0" encoding="utf-8"?>
<!-- Generator: Adobe Illustrator 21.1.0, SVG Export Plug-In . SVG Version: 6.00 Build 0)  -->
<svg version="1.1" id="Layer_1" xmlns="http://www.w3.org/2000/svg" xmlns:xlink="http://www.w3.org/1999/xlink" x="0px" y="0px"
	 viewBox="0 0 1200 800" style="enable-background:new 0 0 1200 800;" xml:space="preserve">
<style type="text/css">
	.st0{fill:#BBE2DD;}
	.st1{fill:#F6D681;}
	.st2{fill:#49C8F0;}
	.st3{fill:#80C342;}
	.st4{fill:#F26C58;}
	.st5{fill:#F8BDD6;}
	.st6{fill:#FBAD2B;}
	.st7{fill:#8170B3;}
	.st8{fill:#FEDB2B;}
	.st9{fill:#E298C2;}
	.st10{fill:#78C582;}
</style>
<title>img-partten-2</title>
<circle class="st0" cx="580.8" cy="130.6" r="28.5"/>
<circle class="st1" cx="856.3" cy="221.1" r="14"/>
<circle class="st2" cx="79" cy="660" r="14"/>
<circle class="st3" cx="720.4" cy="616.9" r="14"/>
<circle class="st4" cx="287" cy="593" r="21.5"/>
<circle class="st5" cx="1070" cy="678" r="18"/>
<path class="st6" d="M531,640.9c-10-0.2-19.4,6.9-21.3,16.9c-1.3,6.9,0,13.1-4.4,19.3s-11.3,9-18.6,8.8c-3.7-0.1-3.7,5.7,0,5.8
	c11.2,0.3,21.7-5.8,26.1-16.3c2.6-6.1,1-12.6,3.1-18.6c2.4-6.2,8.4-10.2,15-10C534.7,646.8,534.7,640.9,531,640.9L531,640.9z"/>
<path class="st7" d="M151.8,107.7c-1.9,15.5,9.1,29.2,22.8,35c7.7,3.3,16.1,4.5,24.4,4.6c6.9,0.1,14.8-0.2,18.6-6.9
	c7.1-12.7-12-31.3-23.4-20.5c-12,11.4-3.1,31,8.1,39c13.8,9.8,37.2,11.9,46.6-4.9c3.1-5.6-5.5-10.7-8.6-5c-6.6,11.9-23.8,8-32.9,1.3
	c-4.6-3.5-8.1-8.6-8.5-14.5c-0.2-2.2,0-6.8,2-8.4c2.3-1.8,5.7,1.3,7,3.1c5.3,7.1-5.3,6.9-9.6,6.8c-6.2,0-12.4-1.1-18.2-3.1
	c-11.1-4.1-19.7-14.2-18.2-26.5C162.6,101.3,152.6,101.4,151.8,107.7L151.8,107.7z"/>
<path class="st2" d="M1027.9,428.1c14.4,7.1,31.1,1.9,41.5-9.7c5.4-6,9.1-13.1,11.9-20.6c2.6-6.8,5.4-15.4-0.5-21.3
	c-10.4-10.2-33.9,2.7-26.1,16.9s28.5,12.1,39.6,3.8c13.7-10.3,22.8-31,9.9-45.5c-4.3-4.8-11.3,2.3-7.1,7.1
	c8.6,9.7-0.4,24.5-9.1,30.7c-4.6,3.3-10.3,5.2-16,4.1c-2.6-0.5-6.2-1.7-7.8-4c-2.1-2.8,0.9-4.9,3.5-6.1c2.3-1.1,5.8-1.5,6.7,1.6
	c0.7,2.3-1.4,6.5-2.2,8.6c-1.9,5.6-4.7,10.9-8.3,15.7c-7.1,9.1-19.8,15.6-31,10C1027.2,416.7,1022.1,425.3,1027.9,428.1
	L1027.9,428.1z"/>
<circle class="st5" cx="98" cy="350.8" r="39.5"/>
<path class="st8" d="M851.6,645.7c10.7,10.2,29.8,15.9,42.5,5.8c5.7-4.5,8.3-11.6,10.3-18.4c1.8-6.3,4.1-17.2,11.8-19
	c3.5-0.8,6.6,1.7,9.3,3.7c3,2.2,6.1,4.2,9.7,5.3c6.4,1.8,13.2,1.2,19.1-1.7c6.3-3.1,11.2-8.6,13.4-15.3c2.6-7.5,2.7-15.6,9.1-21.2
	c15.3-13.4,37.2-3.4,52.7,4c5.7,2.8,11-5.7,5.2-8.5c-14.2-6.8-29.3-13.9-45.5-11.5c-7.4,1-14.4,4.2-19.9,9.2
	c-5.8,5.4-7.9,12.3-9.7,19.8c-1.8,7.5-4.7,13.3-12.5,15.5c-7.7,2.2-12.6-1.9-18.8-5.9c-14.5-9.3-27.1,2.4-31.7,16.3
	c-2.5,7.7-3.6,18.9-12.5,21.9c-8.9,3.1-19-0.8-25.4-7C854.1,634.5,846.9,641.3,851.6,645.7L851.6,645.7z"/>
<path class="st9" d="M996.9,128.2c-5.8,15.1,0.7,35.6,18.8,36.8c7.1,0.5,14.9-2.7,21.7,0c3.3,1.3,3.8,3.3,3.3,6.6
	c-0.6,4.1-1.9,7.7-1.4,11.9c0.9,7,5,13.2,11,16.8c7.9,4.7,15.2,1.7,23.6,1.6c20.3-0.3,19.8,27.3,19,41c-0.4,7,10.5,7,10.9,0
	c0.9-16.1,0.8-34.3-12.6-45.5c-5.8-4.9-13.4-7.1-20.9-6c-7.8,0.9-16.2,2.5-19.6-6.7c-2.7-7.1,3.3-14.3-0.2-21.8
	c-2.8-6-9.1-8.7-15.3-9.5c-7.2-0.9-15.9,2.9-22.6,0c-8.1-3.6-7.7-15.5-5.1-22.3C1009.8,124.6,999.3,121.7,996.9,128.2L996.9,128.2z"
	/>
<path class="st10" d="M509.3,211.3c-6.9-12.7-24.8-21.9-37-10.7c-5.7,5.2-8.4,14.4-15.7,17.9c-8,3.8-11.7-8-17.7-11.4
	c-5.8-3.2-12.7-3.6-18.9-1.1c-7.4,3-9.8,9.7-14.4,15.6c-5.4,7-15,7.8-22.9,5.1c-9-3-16-10.1-22.7-16.5c-3.7-3.6-9.4,2.1-5.6,5.6
	c11.3,10.8,24.5,22.4,41.3,19.9c7.3-1,13.7-5.2,17.7-11.3c4.5-6.6,8.1-13.5,17.4-11.8c8,1.4,9.6,10,16.2,13.5s13.8,0.1,18.8-4.5
	c5.3-4.9,7.9-13.7,14.6-17c8.5-4.3,18.2,3.8,22,10.8c2.4,4.5,9.3,0.5,6.9-4L509.3,211.3z"/>
</svg>
