<?xml version="1.0" encoding="utf-8"?>
<!-- Generator: Adobe Illustrator 21.1.0, SVG Export Plug-In . SVG Version: 6.00 Build 0)  -->
<svg version="1.1" id="Layer_1" xmlns="http://www.w3.org/2000/svg" xmlns:xlink="http://www.w3.org/1999/xlink" x="0px" y="0px"
	 viewBox="0 0 1697 1838" style="enable-background:new 0 0 1697 1838;" xml:space="preserve">
<style type="text/css">
	.st0{fill:#F26C58;}
	.st1{fill:#F8BDD6;}
	.st2{fill:#F6D681;}
	.st3{fill:#8170B3;}
	.st4{fill:#78C582;}
	.st5{fill:#BBE2DD;}
	.st6{fill:#FFFFFF;stroke:#000000;stroke-width:1.0452;stroke-miterlimit:10;}
</style>
<rect x="-54" y="-27" width="1784" height="1906"/>
<ellipse transform="matrix(0.988 -0.1543 0.1543 0.988 -133.9574 220.6407)" class="st0" cx="1354.4" cy="973.3" rx="21.5" ry="21.5"/>
<circle class="st1" cx="1543" cy="264" r="38"/>
<circle class="st2" cx="88" cy="1104" r="14"/>
<g>
	<g>
		<path class="st3" d="M1613.1,737.2c1.5,12.3-7.2,22.3-18.2,26.5c-5.5,2.1-11.5,2.9-17.4,3.1c-4.2,0.1-16,0.8-10.4-6.7
			c1.4-1.9,4.6-4.8,7-3.1c1.8,1.3,2.1,5.7,2,7.6c-0.2,6.2-3.7,11.6-8.6,15.2c-9,6.8-26.3,10.5-32.9-1.3c-3.1-5.6-11.8-0.6-8.6,5
			c16.7,29.9,73.1,1.7,57.8-29.7c-7.5-15.4-29.1-3.6-28.1,10.7c1.2,17.2,27.8,12.9,38.7,9.8c16.2-4.7,30.9-19.1,28.7-37.1
			C1622.3,730.9,1612.3,730.8,1613.1,737.2L1613.1,737.2z"/>
	</g>
</g>
<circle class="st4" cx="284" cy="710" r="18"/>
<circle class="st5" cx="243.5" cy="150.5" r="28.5"/>
<circle class="st1" cx="1504" cy="1699" r="22"/>
<g>
	<g>
		<path class="st4" d="M246.5,1730.1c-7.8,3.3-17,3.9-24.6-0.5c-7.8-4.5-7.5-12.7-6.9-20.6c0.9-11.4,0.7-28-12.8-32.2
			c-8-2.5-15.1,3-22.9,1.8c-6.5-1-12.5-6.4-13.7-13c-1.6-8.4,2.3-16.7,0.3-25.2c-1.6-6.6-5.8-12.5-10.9-16.9
			c-14.7-12.4-34.2-11.6-52.2-10c-6.4,0.6-6.4,10.6,0,10c16.1-1.4,35.5-3.2,47.8,9.6c6,6.2,6.6,13.2,5.6,21.4
			c-1,7.9-1.1,15.5,3.6,22.4c3.7,5.3,9.3,9.4,15.6,11.1c3.1,0.8,6.3,1,9.4,0.6c4.3-0.6,9.3-3.3,13.7-2.4c6.3,1.3,7.3,10.2,7.2,15.4
			c-0.2,7.4-1.7,14.7,0,22c4.3,18.6,28.2,22.8,43.6,16.3C255,1737.2,252.4,1727.6,246.5,1730.1L246.5,1730.1z"/>
	</g>
</g>
<g id="Layer_2">
</g>
<g id="Layer_3">
	<path class="st6" d="M545.5,870.2c0,0,127-129.1,38.8-248.2c-9.9-13.5-52.8-45.5-72.9-56.3c-70-37.8-214.4-138.6-105.8-287.7
		c139.8-192.1,437.1,16,577.1,48s454.7,64,489.7,304.1c35,240.1-419.6,224.1-122.4,528.2s-314.8,736.3-856.9,544.2
		S545.5,870.2,545.5,870.2z"/>
</g>
</svg>
