<?xml version="1.0" encoding="utf-8"?>
<!-- Generator: Adobe Illustrator 21.1.0, SVG Export Plug-In . SVG Version: 6.00 Build 0)  -->
<svg version="1.1" id="Layer_1" xmlns="http://www.w3.org/2000/svg" xmlns:xlink="http://www.w3.org/1999/xlink" x="0px" y="0px"
	 viewBox="0 0 1204 849" style="enable-background:new 0 0 1204 849;" xml:space="preserve">
<style type="text/css">
	.st0{fill:#F6D681;}
	.st1{fill:#F26C58;}
	.st2{fill:#78C582;}
	.st3{fill:#8170B3;}
	.st4{fill:#F8BDD6;}
	.st5{fill:#FEDB2B;}
	.st6{fill:#E298C2;}
	.st7{fill:#BBE2DD;}
	.st8{fill:#FFFFFF;}
</style>
<g id="Layer_1_1_">
	<rect x="0.5" y="0.2" width="1203.4" height="848.7"/>
	<ellipse class="st0" cx="1143.3" cy="249.5" rx="14" ry="14.1"/>
	<ellipse class="st1" cx="349.7" cy="627.2" rx="21.5" ry="21.6"/>
	<ellipse class="st2" cx="551" cy="116" rx="18" ry="18.1"/>
	<g>
		<g>
			<path class="st3" d="M1023.7,71.6c-1.9,15.5,9.1,29.3,22.8,35.2c7.7,3.3,16.1,4.5,24.4,4.6c6.9,0.1,14.8-0.2,18.6-7
				c7.1-12.7-12-31.5-23.4-20.6c-12,11.4-3.1,31.2,8.1,39.2c13.8,9.9,37.2,12,46.6-4.9c3.1-5.7-5.5-10.7-8.7-5.1
				c-6.6,11.9-23.8,8.1-32.9,1.3c-4.7-3.5-8.1-8.7-8.5-14.6c-0.2-2.2-0.1-6.9,1.9-8.4c2.3-1.8,5.7,1.3,7,3.1
				c5.3,7.2-5.3,6.9-9.6,6.8c-6.2-0.1-12.4-1-18.2-3.1c-11.1-4.2-19.7-14.3-18.2-26.6C1034.5,65.2,1024.4,65.2,1023.7,71.6
				L1023.7,71.6z"/>
		</g>
	</g>
	<ellipse class="st4" cx="968" cy="773.7" rx="39.5" ry="39.7"/>
	<g>
		<g>
			<path class="st5" d="M434.2,802.2c8.3,10.9,24.7,15.8,37.6,10.5c6.1-2.5,10.6-7.2,14.7-12.2c4.4-5.3,10-12,17.6-12.5
				c6.5-0.4,10.1,6.7,15.6,9.1c5.4,2.4,11.6,2.7,17.4,1.6c6.5-1.2,12.5-4.3,17-9.3c5.1-5.7,8.5-11.8,16-14.8
				c17.7-7,34.6,1.3,49.5,10.6c4.7,2.9,9-4.5,4.3-7.4c-12.3-7.7-25.3-14.6-40.2-14.4c-6.7,0.1-13.4,1.5-19.5,4.4
				c-6.6,3.2-10.5,8.5-15,14c-4.4,5.5-10.2,8.5-17.3,8.8c-7.2,0.3-10.7-2.9-15.9-7.1c-10.9-8.9-24.9-1.6-32.9,7.6
				c-4.9,5.7-9.4,12.5-17.2,14.4c-8.2,2-19.1-1-24.3-7.8C438.3,793.5,430.8,797.8,434.2,802.2L434.2,802.2z"/>
		</g>
	</g>
	<g>
		<g>
			<path class="st6" d="M54.9,43.3c-7.9,13.3-9,34.1,4,44.8c6.2,5.1,14.2,6.2,22.1,6.7c5.8,0.3,13.1,0.2,17.7,4.4
				c5.1,4.7-1.7,12.9-2.7,18.3c-1.3,7,0.2,14.4,4,20.3c3.8,6,9.7,10.7,16.7,12.3c8.3,1.9,17.8-0.9,25.3,4
				c16.8,11,11.4,35.4,7.7,51.4c-2,8.6,11.2,12.2,13.2,3.6c3.9-17.2,7.4-35.5-0.8-52c-3.2-6.3-8.2-12.1-14.4-15.6
				c-7.5-4.3-15.4-3.8-23.7-4.2c-6.8-0.4-12.2-4-14.2-10.8c-2.2-7.4,3.2-13.4,4.3-20.4c2.4-15.7-13.1-23.5-26.3-24.6
				c-7.1-0.6-17.5,0.7-22-6.2c-4.9-7.4-3.1-17.9,1.2-25.1C71.3,42.6,59.4,35.7,54.9,43.3L54.9,43.3z"/>
		</g>
	</g>
	<g>
		<g>
			<path class="st2" d="M1051.2,550.3c-5.3,13.7-2.7,34.4,11.9,41.6c6.8,3.3,14.2,2.7,21.5,1.9c6.1-0.7,14-1.7,19.2,2.4
				c6,4.8-0.1,15.2,0.3,21.6c0.5,6.6,3.4,12.8,8.1,17.4c5.2,5.1,12,7.7,19.3,7.4c8.3-0.4,16.4-3.7,24.2,0.6
				c18.1,9.8,16.8,33.7,15.8,51.2c-0.4,6.4,9.7,6.4,10,0c0.9-16.1,1.6-33.8-7.9-47.8c-3.9-5.7-9-10.5-15.4-13.3
				c-7.5-3.3-14.7-2.3-22.6-1.2s-15.1-0.5-19.4-7.8c-4.4-7.6,0-14.3,0.1-22.3c0.3-14.5-15-19.7-27.1-18.8
				c-7.7,0.6-18.1,3.7-24.5-2.3c-7.5-6.9-7.3-19.2-3.9-28C1063.2,546.9,1053.5,544.3,1051.2,550.3L1051.2,550.3z"/>
		</g>
	</g>
	<ellipse class="st7" cx="121" cy="447" rx="28.5" ry="28.8"/>
</g>
<g id="Layer_2">
</g>
<g id="Layer_3">
	<path class="st8" d="M228.7,237.9c29.8-24.6,81.7-49.9,157.1-26.6c127.5,39.4,132.2,106.6,199.4,102S747.5,167.1,870.4,232
		s238.8,55.6,148.5,248.1S812.6,716.6,631.7,612.3S441.5,480.2,302.4,505.8c-105.8,19.4-111.1-126.1-107.5-196.9
		c0.2-3.2,3.5-21.1,6.6-32.2c1-3.7,6.5-13.6,8.5-16.4C216.7,250.7,224.4,241.4,228.7,237.9z"/>
</g>
</svg>
