<?xml version="1.0" encoding="utf-8"?>
<!-- Generator: Adobe Illustrator 22.0.1, SVG Export Plug-In . SVG Version: 6.00 Build 0)  -->
<svg version="1.1" xmlns="http://www.w3.org/2000/svg" xmlns:xlink="http://www.w3.org/1999/xlink" x="0px" y="0px"
	 viewBox="0 0 1200 840.1" style="enable-background:new 0 0 1200 840.1;" xml:space="preserve">
<style type="text/css">
	.st0{fill:none;}
	.st1{fill:none;stroke:#000000;stroke-width:1.5;stroke-miterlimit:10;}
	.st2{fill:none;stroke:#000000;stroke-width:0.8512;stroke-miterlimit:10;}
	.st3{fill:none;stroke:#000000;stroke-width:2.4925;stroke-miterlimit:10;}
	.st4{fill:url(#SVGID_1_);}
	.st5{fill:none;stroke:#000000;stroke-width:0.25;stroke-miterlimit:10;}
	.st6{fill:none;stroke:#000000;stroke-miterlimit:10;}
	.st7{fill:#4D4D4D;}
	.st8{fill:none;stroke:#000000;stroke-width:2;stroke-miterlimit:10;}
	.st9{fill:none;stroke:#000000;stroke-width:0.75;stroke-miterlimit:10;}
	.st10{fill:url(#SVGID_2_);}
	.st11{fill:url(#SVGID_3_);}
	.st12{fill:url(#SVGID_4_);}
	.st13{fill:url(#SVGID_5_);}
	.st14{fill:url(#SVGID_6_);}
	.st15{fill:url(#SVGID_7_);}
	.st16{fill:url(#SVGID_8_);}
	.st17{fill:url(#SVGID_9_);}
	.st18{fill:url(#SVGID_10_);}
	.st19{fill:url(#SVGID_11_);}
	.st20{fill:#FFFFFF;}
	.st21{fill:url(#SVGID_12_);}
	.st22{fill:url(#SVGID_13_);}
	.st23{fill:url(#SVGID_14_);}
	.st24{fill:url(#SVGID_15_);}
	.st25{fill:url(#SVGID_16_);}
	.st26{fill:url(#SVGID_17_);}
	.st27{fill:url(#SVGID_18_);}
	.st28{fill:url(#SVGID_19_);}
	.st29{fill:url(#SVGID_20_);}
	.st30{fill:none;stroke:#000000;stroke-width:0.6466;stroke-miterlimit:10;}
	.st31{fill:url(#SVGID_21_);}
	.st32{fill:url(#SVGID_22_);}
	.st33{fill:url(#SVGID_23_);}
	.st34{fill:url(#SVGID_24_);}
	.st35{fill:url(#SVGID_25_);}
	.st36{fill:url(#SVGID_26_);}
	.st37{fill:url(#SVGID_27_);}
	.st38{fill:url(#SVGID_28_);}
	.st39{fill:url(#SVGID_29_);}
	.st40{fill:url(#SVGID_30_);}
	.st41{fill:url(#SVGID_31_);}
	.st42{fill:url(#SVGID_32_);}
	.st43{fill:none;stroke:#000000;stroke-width:0.4967;stroke-miterlimit:10;}
	.st44{fill:none;stroke:#000000;stroke-width:0.3726;stroke-miterlimit:10;}
	.st45{fill:url(#SVGID_33_);}
	.st46{fill:url(#SVGID_34_);}
	.st47{fill:url(#SVGID_35_);}
	.st48{fill:url(#SVGID_36_);}
	.st49{fill:none;stroke:#000000;stroke-width:0.4849;stroke-miterlimit:10;}
	.st50{fill:url(#SVGID_37_);}
	.st51{opacity:0.2;fill:url(#SVGID_38_);}
	.st52{fill:url(#SVGID_39_);}
	.st53{fill:url(#SVGID_40_);}
	.st54{fill:url(#SVGID_41_);}
	.st55{fill:url(#SVGID_42_);}
	.st56{fill:url(#SVGID_43_);}
	.st57{fill:url(#SVGID_44_);}
	.st58{fill:url(#SVGID_45_);}
	.st59{fill:url(#SVGID_46_);}
</style>
<g id="Design">
	<line class="st9" x1="726.5" y1="125.9" x2="1134.5" y2="125.9"/>
	<g>
		<path d="M81.2,123v-13.3h-5V108h11.9v1.8h-5V123H81.2z"/>
		<path d="M90.1,123v-15h2v6.2h7.8V108h2v15h-2V116h-7.8v7.1H90.1z"/>
		<path d="M105.2,123v-15H116v1.8h-8.9v4.6h8.3v1.8h-8.3v5.1h9.2v1.8H105.2z"/>
		<path d="M135.4,117.8l2,0.5c-0.4,1.6-1.2,2.9-2.3,3.7c-1.1,0.9-2.4,1.3-4,1.3c-1.6,0-2.9-0.3-4-1c-1-0.7-1.8-1.6-2.3-2.9
			c-0.5-1.2-0.8-2.6-0.8-4c0-1.6,0.3-2.9,0.9-4.1c0.6-1.2,1.4-2.1,2.6-2.7c1.1-0.6,2.3-0.9,3.6-0.9c1.5,0,2.8,0.4,3.8,1.1
			c1,0.8,1.7,1.8,2.1,3.2l-2,0.5c-0.3-1.1-0.9-1.9-1.5-2.4s-1.5-0.7-2.5-0.7c-1.2,0-2.1,0.3-2.9,0.8c-0.8,0.6-1.3,1.3-1.6,2.2
			c-0.3,0.9-0.5,1.9-0.5,2.9c0,1.3,0.2,2.4,0.6,3.3c0.4,1,1,1.7,1.7,2.1s1.6,0.7,2.6,0.7c1.1,0,2.1-0.3,2.8-1
			C134.6,120,135.2,119,135.4,117.8z"/>
		<path d="M139.8,123v-15h2v6.2h7.8V108h2v15h-2V116h-7.8v7.1H139.8z"/>
		<path d="M153.1,123l5.8-15h2.1l6.2,15h-2.3l-1.8-4.6h-6.3l-1.7,4.6H153.1z M157.5,116.9h5.1l-1.6-4.2c-0.5-1.3-0.8-2.3-1.1-3.1
			c-0.2,1-0.5,1.9-0.8,2.9L157.5,116.9z"/>
		<path d="M168.7,123v-15h6.7c1.3,0,2.4,0.1,3.1,0.4c0.7,0.3,1.3,0.7,1.7,1.4c0.4,0.7,0.6,1.4,0.6,2.3c0,1.1-0.3,2-1,2.7
			c-0.7,0.7-1.8,1.2-3.2,1.4c0.5,0.3,0.9,0.5,1.2,0.7c0.6,0.5,1.1,1.2,1.7,2l2.6,4.1h-2.5l-2-3.1c-0.6-0.9-1.1-1.6-1.4-2.1
			c-0.4-0.5-0.7-0.8-1-1c-0.3-0.2-0.6-0.3-0.9-0.4c-0.2,0-0.6-0.1-1.1-0.1h-2.3v6.7H168.7z M170.7,114.6h4.3c0.9,0,1.6-0.1,2.1-0.3
			c0.5-0.2,0.9-0.5,1.2-0.9c0.3-0.4,0.4-0.9,0.4-1.3c0-0.7-0.3-1.3-0.8-1.8c-0.5-0.5-1.3-0.7-2.4-0.7h-4.8V114.6z"/>
		<path d="M183.6,123v-15h2v13.3h7.4v1.8H183.6z"/>
		<path d="M195.3,123v-15h10.9v1.8h-8.9v4.6h8.3v1.8h-8.3v5.1h9.2v1.8H195.3z"/>
		<path d="M208.5,118.2l1.9-0.2c0.1,0.8,0.3,1.4,0.6,1.9c0.3,0.5,0.8,0.9,1.5,1.2c0.7,0.3,1.5,0.4,2.3,0.4c0.8,0,1.4-0.1,2-0.3
			c0.6-0.2,1-0.5,1.3-0.9c0.3-0.4,0.4-0.8,0.4-1.3c0-0.5-0.1-0.9-0.4-1.2c-0.3-0.4-0.7-0.6-1.4-0.9c-0.4-0.2-1.3-0.4-2.7-0.7
			c-1.4-0.3-2.3-0.6-2.9-0.9c-0.7-0.4-1.3-0.8-1.6-1.4c-0.4-0.6-0.5-1.2-0.5-1.9c0-0.8,0.2-1.5,0.6-2.1c0.4-0.7,1.1-1.2,1.9-1.5
			s1.7-0.5,2.8-0.5c1.1,0,2.1,0.2,2.9,0.5c0.9,0.4,1.5,0.9,2,1.6s0.7,1.5,0.7,2.4l-1.9,0.1c-0.1-0.9-0.4-1.7-1-2.2s-1.5-0.7-2.6-0.7
			c-1.2,0-2.1,0.2-2.6,0.7c-0.6,0.4-0.8,1-0.8,1.6c0,0.5,0.2,1,0.6,1.3c0.4,0.3,1.4,0.7,3,1.1c1.6,0.4,2.7,0.7,3.3,1
			c0.9,0.4,1.5,0.9,1.9,1.5c0.4,0.6,0.6,1.3,0.6,2.1c0,0.8-0.2,1.6-0.7,2.3c-0.5,0.7-1.1,1.3-2,1.7c-0.9,0.4-1.8,0.6-2.9,0.6
			c-1.4,0-2.5-0.2-3.4-0.6c-0.9-0.4-1.6-1-2.2-1.8C208.8,120.1,208.5,119.2,208.5,118.2z"/>
		<path d="M232.2,123v-13.3h-5V108h11.9v1.8h-5V123H232.2z"/>
		<path d="M241.1,123v-15h2v6.2h7.8V108h2v15h-2V116h-7.8v7.1H241.1z"/>
		<path d="M256.1,123v-15H267v1.8h-8.9v4.6h8.3v1.8h-8.3v5.1h9.2v1.8H256.1z"/>
		<path d="M268.3,123l5.8-15h2.1l6.2,15h-2.3l-1.8-4.6h-6.3l-1.7,4.6H268.3z M272.7,116.9h5.1l-1.6-4.2c-0.5-1.3-0.8-2.3-1.1-3.1
			c-0.2,1-0.5,1.9-0.8,2.9L272.7,116.9z"/>
		<path d="M286.1,123v-13.3h-5V108h11.9v1.8h-5V123H286.1z"/>
		<path d="M295,123v-15h6.7c1.3,0,2.4,0.1,3.1,0.4c0.7,0.3,1.3,0.7,1.7,1.4c0.4,0.7,0.6,1.4,0.6,2.3c0,1.1-0.3,2-1,2.7
			c-0.7,0.7-1.8,1.2-3.2,1.4c0.5,0.3,0.9,0.5,1.2,0.7c0.6,0.5,1.1,1.2,1.7,2l2.6,4.1h-2.5l-2-3.1c-0.6-0.9-1.1-1.6-1.4-2.1
			c-0.4-0.5-0.7-0.8-1-1c-0.3-0.2-0.6-0.3-0.9-0.4c-0.2,0-0.6-0.1-1.1-0.1H297v6.7H295z M297,114.6h4.3c0.9,0,1.6-0.1,2.1-0.3
			c0.5-0.2,0.9-0.5,1.2-0.9c0.3-0.4,0.4-0.9,0.4-1.3c0-0.7-0.3-1.3-0.8-1.8c-0.5-0.5-1.3-0.7-2.4-0.7H297V114.6z"/>
		<path d="M310.1,123v-15h10.9v1.8h-8.9v4.6h8.3v1.8h-8.3v5.1h9.2v1.8H310.1z"/>
	</g>
	<g>
		<path d="M731.5,123.9H730v-5.7c-0.6,0.5-1.2,0.9-1.9,1.1V118c0.4-0.1,0.8-0.4,1.3-0.7c0.5-0.4,0.8-0.8,1-1.3h1.2V123.9z"/>
		<path d="M733.9,117.5v-1.4h5.2v1.1c-0.4,0.4-0.9,1-1.3,1.8s-0.8,1.6-1,2.5c-0.2,0.9-0.3,1.7-0.3,2.4H735c0-1.1,0.2-2.2,0.7-3.3
			c0.4-1.1,1-2.1,1.7-3H733.9z"/>
		<path d="M744.1,123.9h-1.5v-5.7c-0.6,0.5-1.2,0.9-2,1.1V118c0.4-0.1,0.8-0.4,1.3-0.7c0.5-0.4,0.8-0.8,1-1.3h1.2V123.9z"/>
		<path d="M749.7,123.9h-1.5v-5.7c-0.6,0.5-1.2,0.9-2,1.1V118c0.4-0.1,0.8-0.4,1.3-0.7c0.5-0.4,0.8-0.8,1-1.3h1.2V123.9z"/>
		<path d="M755.7,123.9V116h1.5l3.2,5.3V116h1.5v7.9h-1.6l-3.2-5.1v5.1H755.7z"/>
		<path d="M772.1,121l1.5,0.5c-0.2,0.9-0.6,1.5-1.2,1.9s-1.2,0.6-2.1,0.6c-1,0-1.9-0.4-2.6-1.1c-0.7-0.7-1-1.7-1-2.9
			c0-1.3,0.3-2.3,1-3.1c0.7-0.7,1.6-1.1,2.7-1.1c1,0,1.7,0.3,2.3,0.9c0.4,0.3,0.6,0.8,0.8,1.5l-1.6,0.4c-0.1-0.4-0.3-0.7-0.6-1
			c-0.3-0.2-0.7-0.4-1.1-0.4c-0.6,0-1.1,0.2-1.4,0.6c-0.4,0.4-0.5,1.1-0.5,2c0,1,0.2,1.7,0.5,2.1s0.8,0.6,1.4,0.6
			c0.4,0,0.8-0.1,1.1-0.4C771.7,122,771.9,121.6,772.1,121z"/>
		<path d="M776.6,116v2.9c0.5-0.6,1.1-0.9,1.7-0.9c0.3,0,0.7,0.1,0.9,0.2s0.5,0.3,0.6,0.5c0.1,0.2,0.2,0.4,0.3,0.7
			c0.1,0.2,0.1,0.6,0.1,1.1v3.3h-1.5v-3c0-0.6,0-1-0.1-1.1c-0.1-0.2-0.2-0.3-0.3-0.4s-0.3-0.1-0.5-0.1c-0.3,0-0.5,0.1-0.7,0.2
			c-0.2,0.1-0.3,0.3-0.4,0.6c-0.1,0.2-0.1,0.6-0.1,1.1v2.9h-1.5V116H776.6z"/>
		<path d="M783.1,119.9l-1.4-0.2c0.2-0.6,0.4-1,0.8-1.2s0.9-0.4,1.7-0.4c0.7,0,1.2,0.1,1.5,0.2s0.6,0.4,0.7,0.6
			c0.1,0.2,0.2,0.7,0.2,1.4l0,1.8c0,0.5,0,0.9,0.1,1.1c0,0.2,0.1,0.5,0.3,0.8h-1.5c0-0.1-0.1-0.2-0.1-0.4c0-0.1,0-0.1-0.1-0.2
			c-0.3,0.3-0.5,0.4-0.8,0.6c-0.3,0.1-0.6,0.2-0.9,0.2c-0.6,0-1-0.2-1.4-0.5c-0.3-0.3-0.5-0.7-0.5-1.2c0-0.3,0.1-0.6,0.2-0.9
			c0.2-0.3,0.4-0.4,0.6-0.6c0.3-0.1,0.7-0.3,1.2-0.4c0.7-0.1,1.2-0.3,1.5-0.4V120c0-0.3-0.1-0.5-0.2-0.6c-0.1-0.1-0.4-0.2-0.8-0.2
			c-0.3,0-0.5,0.1-0.6,0.2S783.2,119.7,783.1,119.9z M785.2,121.2c-0.2,0.1-0.5,0.1-0.9,0.2c-0.4,0.1-0.7,0.2-0.8,0.3
			c-0.2,0.1-0.3,0.3-0.3,0.5c0,0.2,0.1,0.4,0.2,0.5c0.2,0.2,0.4,0.2,0.6,0.2c0.3,0,0.5-0.1,0.8-0.3c0.2-0.1,0.3-0.3,0.4-0.5
			c0-0.1,0.1-0.4,0.1-0.7V121.2z"/>
		<path d="M789.7,123.9h-1.5v-5.7h1.4v0.8c0.2-0.4,0.5-0.6,0.6-0.8s0.4-0.2,0.7-0.2c0.3,0,0.7,0.1,1,0.3l-0.5,1.3
			c-0.3-0.2-0.5-0.2-0.7-0.2c-0.2,0-0.4,0.1-0.5,0.2c-0.1,0.1-0.3,0.3-0.3,0.6c-0.1,0.3-0.1,0.9-0.1,1.9V123.9z"/>
		<path d="M792.7,123.9V116h1.5v7.9H792.7z"/>
		<path d="M799.3,122.1l1.5,0.3c-0.2,0.6-0.5,1-0.9,1.3c-0.4,0.3-0.9,0.4-1.6,0.4c-1,0-1.7-0.3-2.2-1c-0.4-0.5-0.6-1.2-0.6-2
			c0-0.9,0.2-1.7,0.7-2.2s1.1-0.8,1.9-0.8c0.8,0,1.5,0.3,2,0.8c0.5,0.6,0.7,1.4,0.7,2.6h-3.8c0,0.4,0.1,0.8,0.4,1s0.5,0.4,0.9,0.4
			c0.2,0,0.4-0.1,0.6-0.2C799.1,122.6,799.2,122.4,799.3,122.1z M799.4,120.6c0-0.4-0.1-0.8-0.3-1s-0.5-0.3-0.8-0.3
			c-0.3,0-0.6,0.1-0.8,0.4s-0.3,0.6-0.3,1H799.4z"/>
		<path d="M801.7,122.3l1.5-0.2c0.1,0.3,0.2,0.5,0.4,0.7c0.2,0.2,0.5,0.2,0.8,0.2c0.4,0,0.7-0.1,0.9-0.2c0.1-0.1,0.2-0.2,0.2-0.4
			c0-0.1,0-0.2-0.1-0.3c-0.1-0.1-0.2-0.1-0.5-0.2c-1.2-0.3-2-0.5-2.3-0.7c-0.5-0.3-0.7-0.7-0.7-1.3c0-0.5,0.2-0.9,0.6-1.2
			s1-0.5,1.8-0.5c0.8,0,1.4,0.1,1.7,0.4c0.4,0.3,0.6,0.6,0.8,1.1l-1.4,0.3c-0.1-0.2-0.2-0.4-0.3-0.5c-0.2-0.1-0.4-0.2-0.7-0.2
			c-0.4,0-0.7,0.1-0.9,0.2c-0.1,0.1-0.2,0.2-0.2,0.3c0,0.1,0.1,0.2,0.2,0.3c0.1,0.1,0.6,0.2,1.4,0.4c0.8,0.2,1.4,0.4,1.7,0.7
			c0.3,0.3,0.5,0.6,0.5,1.1c0,0.5-0.2,1-0.7,1.3c-0.4,0.4-1.1,0.6-1.9,0.6c-0.8,0-1.4-0.2-1.8-0.5S801.9,122.8,801.7,122.3z"/>
		<path d="M811.4,121.3l1.5-0.2c0.1,0.5,0.3,0.9,0.6,1.1c0.3,0.2,0.7,0.4,1.2,0.4c0.5,0,0.9-0.1,1.2-0.3s0.4-0.5,0.4-0.8
			c0-0.2-0.1-0.3-0.2-0.5c-0.1-0.1-0.3-0.2-0.6-0.3c-0.2-0.1-0.6-0.2-1.3-0.3c-0.9-0.2-1.5-0.5-1.8-0.8c-0.5-0.4-0.7-1-0.7-1.6
			c0-0.4,0.1-0.8,0.3-1.1c0.2-0.3,0.6-0.6,1-0.8s0.9-0.3,1.5-0.3c1,0,1.7,0.2,2.2,0.6c0.5,0.4,0.8,1,0.8,1.7l-1.6,0.1
			c-0.1-0.4-0.2-0.7-0.4-0.9c-0.2-0.2-0.6-0.3-1-0.3c-0.5,0-0.8,0.1-1.1,0.3c-0.2,0.1-0.3,0.3-0.3,0.5c0,0.2,0.1,0.3,0.2,0.5
			c0.2,0.2,0.7,0.3,1.5,0.5c0.8,0.2,1.3,0.4,1.7,0.6c0.4,0.2,0.7,0.5,0.9,0.8c0.2,0.3,0.3,0.8,0.3,1.3c0,0.5-0.1,0.9-0.4,1.3
			c-0.2,0.4-0.6,0.7-1.1,0.9s-1,0.3-1.7,0.3c-1,0-1.8-0.2-2.3-0.7S811.5,122.2,811.4,121.3z"/>
		<path d="M821.9,118.2v1.2h-1v2.3c0,0.5,0,0.7,0,0.8c0,0.1,0.1,0.1,0.1,0.2c0.1,0,0.2,0.1,0.3,0.1c0.1,0,0.3,0,0.6-0.1l0.1,1.2
			c-0.4,0.2-0.7,0.2-1.2,0.2c-0.3,0-0.5,0-0.7-0.1c-0.2-0.1-0.4-0.2-0.5-0.4c-0.1-0.1-0.2-0.3-0.2-0.6c0-0.2,0-0.5,0-1.1v-2.5h-0.7
			v-1.2h0.7v-1.1l1.5-0.9v2H821.9z"/>
	</g>
	<g>
		<path d="M848,116h3.1c0.6,0,1.1,0,1.4,0.1c0.3,0.1,0.6,0.2,0.8,0.3c0.2,0.2,0.4,0.4,0.6,0.7c0.2,0.3,0.2,0.6,0.2,0.9
			c0,0.4-0.1,0.7-0.3,1c-0.2,0.3-0.5,0.5-0.8,0.7c0.5,0.1,0.8,0.4,1.1,0.7s0.4,0.7,0.4,1.2c0,0.4-0.1,0.7-0.2,1
			c-0.2,0.3-0.4,0.6-0.7,0.8s-0.6,0.3-1.1,0.4c-0.3,0-0.9,0-1.9,0.1H848V116z M849.6,117.3v1.8h1c0.6,0,1,0,1.2,0
			c0.3,0,0.5-0.1,0.6-0.3c0.2-0.2,0.2-0.4,0.2-0.6c0-0.2-0.1-0.4-0.2-0.6c-0.1-0.2-0.3-0.2-0.6-0.3c-0.2,0-0.6,0-1.4,0H849.6z
			 M849.6,120.5v2.1h1.5c0.6,0,0.9,0,1.1,0c0.2,0,0.4-0.1,0.6-0.3c0.1-0.2,0.2-0.4,0.2-0.7c0-0.2-0.1-0.4-0.2-0.6
			c-0.1-0.2-0.3-0.3-0.5-0.4s-0.7-0.1-1.4-0.1H849.6z"/>
		<path d="M857.2,119.9l-1.4-0.2c0.2-0.6,0.4-1,0.8-1.2s0.9-0.4,1.7-0.4c0.7,0,1.2,0.1,1.5,0.2s0.6,0.4,0.7,0.6
			c0.1,0.2,0.2,0.7,0.2,1.4l0,1.8c0,0.5,0,0.9,0.1,1.1c0,0.2,0.1,0.5,0.3,0.8h-1.5c0-0.1-0.1-0.2-0.1-0.4c0-0.1,0-0.1-0.1-0.2
			c-0.3,0.3-0.5,0.4-0.8,0.6c-0.3,0.1-0.6,0.2-0.9,0.2c-0.6,0-1-0.2-1.4-0.5c-0.3-0.3-0.5-0.7-0.5-1.2c0-0.3,0.1-0.6,0.2-0.9
			c0.2-0.3,0.4-0.4,0.6-0.6c0.3-0.1,0.7-0.3,1.2-0.4c0.7-0.1,1.2-0.3,1.5-0.4V120c0-0.3-0.1-0.5-0.2-0.6c-0.1-0.1-0.4-0.2-0.8-0.2
			c-0.3,0-0.5,0.1-0.6,0.2S857.3,119.7,857.2,119.9z M859.2,121.2c-0.2,0.1-0.5,0.1-0.9,0.2c-0.4,0.1-0.7,0.2-0.8,0.3
			c-0.2,0.1-0.3,0.3-0.3,0.5c0,0.2,0.1,0.4,0.2,0.5c0.2,0.2,0.4,0.2,0.6,0.2c0.3,0,0.5-0.1,0.8-0.3c0.2-0.1,0.3-0.3,0.4-0.5
			c0-0.1,0.1-0.4,0.1-0.7V121.2z"/>
		<path d="M862.3,123.9V116h1.5v7.9H862.3z"/>
		<path d="M868.2,118.2v1.2h-1v2.3c0,0.5,0,0.7,0,0.8s0.1,0.1,0.1,0.2c0.1,0,0.2,0.1,0.3,0.1c0.1,0,0.3,0,0.6-0.1l0.1,1.2
			c-0.4,0.2-0.7,0.2-1.2,0.2c-0.3,0-0.5,0-0.7-0.1c-0.2-0.1-0.4-0.2-0.5-0.4c-0.1-0.1-0.2-0.3-0.2-0.6c0-0.2,0-0.5,0-1.1v-2.5h-0.7
			v-1.2h0.7v-1.1l1.5-0.9v2H868.2z"/>
		<path d="M869.4,117.4V116h1.5v1.4H869.4z M869.4,123.9v-5.7h1.5v5.7H869.4z"/>
		<path d="M872.5,118.2h1.4v0.8c0.5-0.6,1.1-0.9,1.8-0.9c0.4,0,0.7,0.1,1,0.2c0.3,0.2,0.5,0.4,0.7,0.7c0.3-0.3,0.5-0.5,0.8-0.7
			c0.3-0.2,0.6-0.2,0.9-0.2c0.4,0,0.8,0.1,1.1,0.3s0.5,0.4,0.6,0.8c0.1,0.2,0.2,0.6,0.2,1.2v3.6h-1.5v-3.3c0-0.6-0.1-0.9-0.2-1.1
			c-0.1-0.2-0.4-0.3-0.6-0.3c-0.2,0-0.4,0.1-0.6,0.2c-0.2,0.1-0.3,0.3-0.4,0.6s-0.1,0.6-0.1,1.2v2.7h-1.5v-3.1c0-0.6,0-0.9-0.1-1.1
			c-0.1-0.2-0.1-0.3-0.2-0.4c-0.1-0.1-0.3-0.1-0.5-0.1c-0.2,0-0.4,0.1-0.6,0.2s-0.3,0.3-0.4,0.5c-0.1,0.2-0.1,0.6-0.1,1.2v2.8h-1.5
			V118.2z"/>
		<path d="M882.2,121c0-0.5,0.1-1,0.4-1.5c0.2-0.5,0.6-0.8,1.1-1.1c0.5-0.2,1-0.4,1.5-0.4c0.9,0,1.6,0.3,2.1,0.8s0.8,1.3,0.8,2.1
			c0,0.9-0.3,1.6-0.8,2.1s-1.3,0.9-2.1,0.9c-0.5,0-1-0.1-1.5-0.4s-0.8-0.6-1.1-1C882.3,122.2,882.2,121.6,882.2,121z M883.8,121
			c0,0.6,0.1,1,0.4,1.3c0.3,0.3,0.6,0.5,1,0.5s0.7-0.2,1-0.5s0.4-0.7,0.4-1.3c0-0.6-0.1-1-0.4-1.3s-0.6-0.5-1-0.5s-0.7,0.2-1,0.5
			C883.9,120,883.8,120.5,883.8,121z"/>
		<path d="M890.9,123.9h-1.5v-5.7h1.4v0.8c0.2-0.4,0.5-0.6,0.6-0.8s0.4-0.2,0.7-0.2c0.3,0,0.7,0.1,1,0.3l-0.5,1.3
			c-0.3-0.2-0.5-0.2-0.7-0.2c-0.2,0-0.4,0.1-0.5,0.2s-0.3,0.3-0.3,0.6s-0.1,0.9-0.1,1.9V123.9z"/>
		<path d="M897.2,122.1l1.5,0.3c-0.2,0.6-0.5,1-0.9,1.3s-0.9,0.4-1.6,0.4c-1,0-1.7-0.3-2.2-1c-0.4-0.5-0.6-1.2-0.6-2
			c0-0.9,0.2-1.7,0.7-2.2s1.1-0.8,1.9-0.8c0.8,0,1.5,0.3,2,0.8s0.7,1.4,0.7,2.6H895c0,0.4,0.1,0.8,0.4,1c0.2,0.2,0.5,0.4,0.9,0.4
			c0.2,0,0.4-0.1,0.6-0.2S897.1,122.4,897.2,122.1z M897.3,120.6c0-0.4-0.1-0.8-0.3-1s-0.5-0.3-0.8-0.3c-0.3,0-0.6,0.1-0.8,0.4
			s-0.3,0.6-0.3,1H897.3z"/>
		<path d="M900.1,122.4h1.5v1.1c0,0.4,0,0.8-0.1,1c-0.1,0.3-0.2,0.5-0.4,0.7c-0.2,0.2-0.5,0.4-0.8,0.5L900,125
			c0.3-0.1,0.5-0.2,0.6-0.4s0.2-0.4,0.2-0.7h-0.7V122.4z"/>
		<path d="M906.6,123.9V116h2.4l1.4,5.4l1.4-5.4h2.4v7.9h-1.5v-6.2l-1.6,6.2h-1.5l-1.6-6.2v6.2H906.6z"/>
		<path d="M915.9,116h2.9c0.7,0,1.2,0,1.5,0.2c0.5,0.1,0.9,0.4,1.2,0.7c0.3,0.3,0.6,0.8,0.8,1.3s0.3,1.1,0.3,1.9
			c0,0.6-0.1,1.2-0.2,1.7c-0.2,0.6-0.5,1-0.8,1.4c-0.3,0.3-0.6,0.5-1.1,0.6c-0.4,0.1-0.8,0.2-1.4,0.2h-3V116z M917.5,117.4v5.2h1.2
			c0.4,0,0.8,0,1-0.1c0.3-0.1,0.5-0.2,0.6-0.3s0.3-0.4,0.4-0.8s0.2-0.8,0.2-1.4s-0.1-1.1-0.2-1.4c-0.1-0.3-0.3-0.6-0.5-0.8
			c-0.2-0.2-0.4-0.3-0.7-0.4c-0.2,0-0.7-0.1-1.3-0.1H917.5z"/>
		<path d="M932,122.5v1.4h-5.3c0.1-0.5,0.2-1,0.5-1.5c0.3-0.5,0.9-1.1,1.7-1.9c0.7-0.6,1.1-1.1,1.3-1.3c0.2-0.3,0.3-0.6,0.3-0.9
			c0-0.3-0.1-0.6-0.3-0.8s-0.4-0.3-0.7-0.3c-0.3,0-0.6,0.1-0.8,0.3s-0.3,0.5-0.3,0.9l-1.5-0.2c0.1-0.8,0.4-1.4,0.8-1.8
			c0.5-0.4,1.1-0.5,1.8-0.5c0.8,0,1.4,0.2,1.8,0.6c0.4,0.4,0.7,0.9,0.7,1.6c0,0.4-0.1,0.7-0.2,1s-0.3,0.7-0.6,1
			c-0.2,0.2-0.5,0.6-1,1c-0.5,0.4-0.8,0.7-0.9,0.9c-0.1,0.1-0.2,0.3-0.3,0.4H932z"/>
		<path d="M937.1,123.9h-1.5v-5.7c-0.6,0.5-1.2,0.9-2,1.1V118c0.4-0.1,0.8-0.4,1.3-0.7c0.5-0.4,0.8-0.8,1-1.3h1.2V123.9z"/>
		<path d="M944.6,122.5v1.4h-5.3c0.1-0.5,0.2-1,0.5-1.5c0.3-0.5,0.9-1.1,1.7-1.9c0.7-0.6,1.1-1.1,1.3-1.3c0.2-0.3,0.3-0.6,0.3-0.9
			c0-0.3-0.1-0.6-0.3-0.8s-0.4-0.3-0.7-0.3c-0.3,0-0.6,0.1-0.8,0.3s-0.3,0.5-0.3,0.9l-1.5-0.2c0.1-0.8,0.4-1.4,0.8-1.8
			c0.5-0.4,1.1-0.5,1.8-0.5c0.8,0,1.4,0.2,1.8,0.6c0.4,0.4,0.7,0.9,0.7,1.6c0,0.4-0.1,0.7-0.2,1s-0.3,0.7-0.6,1
			c-0.2,0.2-0.5,0.6-1,1c-0.5,0.4-0.8,0.7-0.9,0.9c-0.1,0.1-0.2,0.3-0.3,0.4H944.6z"/>
		<path d="M948.3,116c0.8,0,1.4,0.3,1.8,0.8c0.5,0.6,0.8,1.7,0.8,3.2c0,1.5-0.3,2.6-0.8,3.2c-0.4,0.5-1,0.8-1.8,0.8
			c-0.8,0-1.4-0.3-1.9-0.9c-0.5-0.6-0.7-1.6-0.7-3.2c0-1.5,0.3-2.5,0.8-3.2C947,116.3,947.6,116,948.3,116z M948.3,117.2
			c-0.2,0-0.3,0.1-0.5,0.2c-0.1,0.1-0.3,0.3-0.3,0.6c-0.1,0.4-0.2,1-0.2,2s0,1.6,0.1,1.9s0.2,0.6,0.4,0.7s0.3,0.2,0.5,0.2
			s0.3-0.1,0.5-0.2c0.1-0.1,0.3-0.3,0.3-0.6c0.1-0.4,0.2-1,0.2-2s0-1.6-0.1-1.9s-0.2-0.6-0.4-0.7S948.5,117.2,948.3,117.2z"/>
		<path d="M955.9,123.9h-1.5v-5.7c-0.6,0.5-1.2,0.9-2,1.1V118c0.4-0.1,0.8-0.4,1.3-0.7c0.5-0.4,0.8-0.8,1-1.3h1.2V123.9z"/>
	</g>
	<g>
		<path d="M1002.7,118.8l2-0.2c0.1,0.8,0.3,1.4,0.6,1.9c0.3,0.5,0.9,0.9,1.6,1.2c0.7,0.3,1.5,0.5,2.4,0.5c0.8,0,1.5-0.1,2.1-0.4
			c0.6-0.2,1.1-0.6,1.4-1c0.3-0.4,0.4-0.9,0.4-1.3c0-0.5-0.1-0.9-0.4-1.3c-0.3-0.4-0.8-0.7-1.4-0.9c-0.4-0.2-1.4-0.4-2.8-0.8
			c-1.4-0.3-2.5-0.7-3-1c-0.8-0.4-1.3-0.9-1.7-1.5c-0.4-0.6-0.6-1.2-0.6-2c0-0.8,0.2-1.5,0.7-2.2c0.5-0.7,1.1-1.2,2-1.6
			s1.8-0.5,2.9-0.5c1.2,0,2.2,0.2,3.1,0.6c0.9,0.4,1.6,0.9,2.1,1.7s0.7,1.6,0.8,2.5l-2,0.2c-0.1-1-0.5-1.7-1.1-2.3s-1.5-0.8-2.7-0.8
			c-1.3,0-2.2,0.2-2.8,0.7c-0.6,0.5-0.9,1-0.9,1.7c0,0.6,0.2,1,0.6,1.4c0.4,0.4,1.4,0.7,3.1,1.1c1.7,0.4,2.9,0.7,3.5,1
			c0.9,0.4,1.6,1,2,1.6c0.4,0.6,0.7,1.4,0.7,2.2c0,0.8-0.2,1.6-0.7,2.4c-0.5,0.7-1.2,1.3-2.1,1.7c-0.9,0.4-1.9,0.6-3,0.6
			c-1.4,0-2.6-0.2-3.6-0.6s-1.7-1-2.3-1.9C1003,120.8,1002.7,119.9,1002.7,118.8z"/>
		<path d="M1029.3,118.4l2.1,0.5c-0.4,1.7-1.2,3-2.4,3.9c-1.1,0.9-2.5,1.3-4.2,1.3c-1.7,0-3.1-0.3-4.1-1c-1.1-0.7-1.9-1.7-2.4-3
			s-0.8-2.7-0.8-4.2c0-1.6,0.3-3.1,0.9-4.3c0.6-1.2,1.5-2.1,2.7-2.8c1.2-0.6,2.4-1,3.8-1c1.6,0,2.9,0.4,4,1.2s1.8,1.9,2.2,3.4
			l-2.1,0.5c-0.4-1.1-0.9-2-1.6-2.5c-0.7-0.5-1.6-0.8-2.6-0.8c-1.2,0-2.2,0.3-3,0.9s-1.4,1.4-1.7,2.3c-0.3,1-0.5,2-0.5,3
			c0,1.3,0.2,2.5,0.6,3.5c0.4,1,1,1.7,1.8,2.2c0.8,0.5,1.7,0.7,2.7,0.7c1.2,0,2.2-0.3,3-1S1029,119.7,1029.3,118.4z"/>
		<path d="M1034,123.9v-15.7h7c1.4,0,2.5,0.1,3.2,0.4c0.7,0.3,1.3,0.8,1.8,1.5s0.7,1.5,0.7,2.4c0,1.1-0.4,2.1-1.1,2.8
			s-1.8,1.3-3.4,1.5c0.6,0.3,1,0.5,1.3,0.8c0.6,0.6,1.2,1.3,1.7,2.1l2.7,4.3h-2.6l-2.1-3.3c-0.6-0.9-1.1-1.7-1.5-2.2
			c-0.4-0.5-0.7-0.9-1.1-1.1c-0.3-0.2-0.6-0.3-1-0.4c-0.2,0-0.6-0.1-1.2-0.1h-2.4v7H1034z M1036.1,115.1h4.5c1,0,1.7-0.1,2.2-0.3
			c0.5-0.2,0.9-0.5,1.2-0.9c0.3-0.4,0.4-0.9,0.4-1.4c0-0.7-0.3-1.4-0.8-1.8c-0.5-0.5-1.4-0.7-2.6-0.7h-5V115.1z"/>
		<path d="M1049.9,123.9v-15.7h11.4v1.9h-9.3v4.8h8.7v1.8h-8.7v5.4h9.7v1.9H1049.9z"/>
		<path d="M1064.6,123.9v-15.7h11.4v1.9h-9.3v4.8h8.7v1.8h-8.7v5.4h9.7v1.9H1064.6z"/>
		<path d="M1079.2,123.9v-15.7h2.1l8.3,12.4v-12.4h2v15.7h-2.1l-8.3-12.4v12.4H1079.2z"/>
		<path d="M1095.4,123.9v-15.7h2.1v15.7H1095.4z"/>
		<path d="M1101.2,123.9v-15.7h2.1l8.3,12.4v-12.4h2v15.7h-2.1l-8.3-12.4v12.4H1101.2z"/>
		<path d="M1124.4,117.7v-1.8l6.7,0v5.8c-1,0.8-2.1,1.4-3.2,1.8c-1.1,0.4-2.2,0.6-3.4,0.6c-1.5,0-3-0.3-4.2-1
			c-1.3-0.7-2.2-1.6-2.9-2.9s-1-2.7-1-4.2c0-1.5,0.3-3,1-4.3c0.6-1.3,1.6-2.3,2.8-3s2.6-1,4.2-1c1.1,0,2.2,0.2,3.1,0.6
			c0.9,0.4,1.6,0.9,2.2,1.5s0.9,1.5,1.2,2.6l-1.9,0.5c-0.2-0.8-0.5-1.4-0.9-1.9s-0.9-0.8-1.5-1.1c-0.7-0.3-1.4-0.4-2.2-0.4
			c-1,0-1.8,0.1-2.5,0.4c-0.7,0.3-1.3,0.7-1.7,1.1c-0.4,0.5-0.8,1-1,1.6c-0.4,1-0.6,2-0.6,3.2c0,1.4,0.2,2.6,0.7,3.5
			c0.5,0.9,1.2,1.6,2.1,2.1s1.9,0.7,2.9,0.7c0.9,0,1.8-0.2,2.6-0.5c0.9-0.3,1.5-0.7,2-1.1v-2.9H1124.4z"/>
		<path d="M988.6,142.4c-0.6-0.7-1.1-1.6-1.5-2.6s-0.6-2-0.6-3.1c0-0.9,0.2-1.8,0.5-2.7c0.4-1,0.9-2,1.6-3h0.8
			c-0.5,0.8-0.8,1.4-0.9,1.7c-0.2,0.5-0.4,1.1-0.6,1.7c-0.2,0.7-0.3,1.5-0.3,2.2c0,1.9,0.6,3.8,1.8,5.6H988.6z"/>
		<path d="M990.7,139.9v-8.6h1.7l2,6.1c0.2,0.6,0.3,1,0.4,1.3c0.1-0.3,0.2-0.8,0.5-1.4l2.1-6h1.5v8.6h-1.1v-7.2l-2.5,7.2h-1
			l-2.5-7.3v7.3H990.7z"/>
		<path d="M1004.6,139.1c-0.4,0.3-0.8,0.6-1.1,0.7s-0.7,0.2-1.2,0.2c-0.7,0-1.2-0.2-1.6-0.5s-0.6-0.8-0.6-1.3c0-0.3,0.1-0.6,0.2-0.8
			s0.3-0.5,0.5-0.6s0.5-0.3,0.8-0.3c0.2-0.1,0.5-0.1,0.9-0.2c0.9-0.1,1.5-0.2,1.9-0.4c0-0.1,0-0.2,0-0.3c0-0.4-0.1-0.7-0.3-0.9
			c-0.3-0.2-0.7-0.4-1.2-0.4c-0.5,0-0.9,0.1-1.1,0.3s-0.4,0.5-0.5,0.9l-1-0.1c0.1-0.4,0.2-0.8,0.5-1.1s0.5-0.5,0.9-0.6
			s0.9-0.2,1.4-0.2c0.5,0,1,0.1,1.3,0.2s0.6,0.3,0.7,0.5s0.3,0.4,0.3,0.7c0,0.2,0.1,0.5,0.1,1v1.4c0,1,0,1.6,0.1,1.9
			s0.1,0.5,0.3,0.7h-1.1C1004.7,139.7,1004.6,139.4,1004.6,139.1z M1004.5,136.8c-0.4,0.2-1,0.3-1.7,0.4c-0.4,0.1-0.7,0.1-0.9,0.2
			s-0.3,0.2-0.4,0.3s-0.1,0.3-0.1,0.5c0,0.3,0.1,0.5,0.3,0.7s0.5,0.3,0.9,0.3c0.4,0,0.8-0.1,1.1-0.3s0.5-0.4,0.7-0.7
			c0.1-0.2,0.2-0.6,0.2-1.1V136.8z"/>
		<path d="M1007.2,139.9v-6.2h0.9v0.9c0.2-0.4,0.5-0.7,0.7-0.9s0.4-0.2,0.7-0.2c0.4,0,0.7,0.1,1.1,0.3l-0.4,1
			c-0.3-0.2-0.5-0.2-0.8-0.2c-0.2,0-0.4,0.1-0.6,0.2s-0.3,0.3-0.4,0.6c-0.1,0.4-0.2,0.8-0.2,1.2v3.3H1007.2z"/>
		<path d="M1015.3,137.6l1,0.1c-0.1,0.7-0.4,1.3-0.9,1.7s-1,0.6-1.7,0.6c-0.9,0-1.5-0.3-2.1-0.8s-0.8-1.4-0.8-2.4
			c0-0.7,0.1-1.3,0.3-1.8s0.6-0.9,1-1.1s1-0.4,1.5-0.4c0.7,0,1.2,0.2,1.7,0.5s0.7,0.8,0.8,1.5l-1,0.2c-0.1-0.4-0.3-0.7-0.5-0.9
			s-0.5-0.3-0.9-0.3c-0.5,0-1,0.2-1.3,0.6s-0.5,1-0.5,1.8c0,0.8,0.2,1.4,0.5,1.8s0.7,0.6,1.3,0.6c0.4,0,0.8-0.1,1-0.4
			S1015.2,138.1,1015.3,137.6z"/>
		<path d="M1017.2,139.9v-8.6h1.1v3.1c0.5-0.6,1.1-0.9,1.9-0.9c0.5,0,0.9,0.1,1.2,0.3s0.6,0.4,0.7,0.8s0.2,0.8,0.2,1.4v3.9h-1.1V136
			c0-0.5-0.1-0.9-0.3-1.2s-0.6-0.4-1-0.4c-0.3,0-0.6,0.1-0.9,0.2s-0.5,0.4-0.6,0.7s-0.2,0.7-0.2,1.1v3.4H1017.2z"/>
		<path d="M1030.9,139.9h-1.1v-6.7c-0.3,0.2-0.6,0.5-1,0.7s-0.8,0.4-1.1,0.5v-1c0.6-0.3,1.1-0.6,1.5-1s0.8-0.8,0.9-1.1h0.7V139.9z"
			/>
		<path d="M1033.6,135.7c0-1,0.1-1.8,0.3-2.5s0.5-1.1,0.9-1.4s0.9-0.5,1.6-0.5c0.5,0,0.9,0.1,1.2,0.3s0.6,0.5,0.9,0.8
			s0.4,0.8,0.5,1.3s0.2,1.2,0.2,2c0,1-0.1,1.8-0.3,2.4s-0.5,1.1-0.9,1.4s-0.9,0.5-1.6,0.5c-0.8,0-1.5-0.3-2-0.9
			C1033.9,138.4,1033.6,137.3,1033.6,135.7z M1034.7,135.7c0,1.4,0.2,2.3,0.5,2.8s0.7,0.7,1.2,0.7s0.9-0.2,1.2-0.7s0.5-1.4,0.5-2.8
			c0-1.4-0.2-2.4-0.5-2.8s-0.7-0.7-1.2-0.7c-0.5,0-0.9,0.2-1.2,0.6C1034.9,133.3,1034.7,134.3,1034.7,135.7z"/>
		<path d="M1042.9,139l0.2,0.9c-0.3,0.1-0.6,0.1-0.8,0.1c-0.4,0-0.7-0.1-0.9-0.2s-0.4-0.3-0.4-0.5s-0.1-0.6-0.1-1.2v-3.6h-0.8v-0.8
			h0.8v-1.5l1-0.6v2.2h1.1v0.8h-1.1v3.6c0,0.3,0,0.5,0.1,0.6s0.1,0.2,0.2,0.2s0.2,0.1,0.4,0.1C1042.5,139,1042.7,139,1042.9,139z"/>
		<path d="M1043.9,139.9v-8.6h1.1v3.1c0.5-0.6,1.1-0.9,1.9-0.9c0.5,0,0.9,0.1,1.2,0.3s0.6,0.4,0.7,0.8s0.2,0.8,0.2,1.4v3.9h-1.1V136
			c0-0.5-0.1-0.9-0.3-1.2s-0.6-0.4-1-0.4c-0.3,0-0.6,0.1-0.9,0.2s-0.5,0.4-0.6,0.7s-0.2,0.7-0.2,1.1v3.4H1043.9z"/>
		<path d="M1053.1,137.2v-0.8h12v0.8H1053.1z"/>
		<path d="M1069.4,139.9v-8.6h1.7l2,6.1c0.2,0.6,0.3,1,0.4,1.3c0.1-0.3,0.2-0.8,0.5-1.4l2.1-6h1.5v8.6h-1.1v-7.2l-2.5,7.2h-1
			l-2.5-7.3v7.3H1069.4z"/>
		<path d="M1083.3,139.1c-0.4,0.3-0.8,0.6-1.1,0.7s-0.7,0.2-1.2,0.2c-0.7,0-1.2-0.2-1.6-0.5s-0.6-0.8-0.6-1.3c0-0.3,0.1-0.6,0.2-0.8
			s0.3-0.5,0.5-0.6s0.5-0.3,0.8-0.3c0.2-0.1,0.5-0.1,0.9-0.2c0.9-0.1,1.5-0.2,1.9-0.4c0-0.1,0-0.2,0-0.3c0-0.4-0.1-0.7-0.3-0.9
			c-0.3-0.2-0.7-0.4-1.2-0.4c-0.5,0-0.9,0.1-1.1,0.3s-0.4,0.5-0.5,0.9l-1-0.1c0.1-0.4,0.2-0.8,0.5-1.1s0.5-0.5,0.9-0.6
			s0.9-0.2,1.4-0.2c0.5,0,1,0.1,1.3,0.2s0.6,0.3,0.7,0.5s0.3,0.4,0.3,0.7c0,0.2,0.1,0.5,0.1,1v1.4c0,1,0,1.6,0.1,1.9
			s0.1,0.5,0.3,0.7h-1.1C1083.4,139.7,1083.3,139.4,1083.3,139.1z M1083.2,136.8c-0.4,0.2-1,0.3-1.7,0.4c-0.4,0.1-0.7,0.1-0.9,0.2
			s-0.3,0.2-0.4,0.3s-0.1,0.3-0.1,0.5c0,0.3,0.1,0.5,0.3,0.7s0.5,0.3,0.9,0.3c0.4,0,0.8-0.1,1.1-0.3s0.5-0.4,0.7-0.7
			c0.1-0.2,0.2-0.6,0.2-1.1V136.8z"/>
		<path d="M1085.9,139.9v-6.2h0.9v0.9c0.2-0.4,0.5-0.7,0.7-0.9s0.4-0.2,0.7-0.2c0.4,0,0.7,0.1,1.1,0.3l-0.4,1
			c-0.3-0.2-0.5-0.2-0.8-0.2c-0.2,0-0.4,0.1-0.6,0.2s-0.3,0.3-0.4,0.6c-0.1,0.4-0.2,0.8-0.2,1.2v3.3H1085.9z"/>
		<path d="M1094,137.6l1,0.1c-0.1,0.7-0.4,1.3-0.9,1.7s-1,0.6-1.7,0.6c-0.9,0-1.5-0.3-2.1-0.8s-0.8-1.4-0.8-2.4
			c0-0.7,0.1-1.3,0.3-1.8s0.6-0.9,1-1.1s1-0.4,1.5-0.4c0.7,0,1.2,0.2,1.7,0.5s0.7,0.8,0.8,1.5l-1,0.2c-0.1-0.4-0.3-0.7-0.5-0.9
			s-0.5-0.3-0.9-0.3c-0.5,0-1,0.2-1.3,0.6s-0.5,1-0.5,1.8c0,0.8,0.2,1.4,0.5,1.8s0.7,0.6,1.3,0.6c0.4,0,0.8-0.1,1-0.4
			S1093.9,138.1,1094,137.6z"/>
		<path d="M1095.9,139.9v-8.6h1.1v3.1c0.5-0.6,1.1-0.9,1.9-0.9c0.5,0,0.9,0.1,1.2,0.3s0.6,0.4,0.7,0.8s0.2,0.8,0.2,1.4v3.9h-1.1V136
			c0-0.5-0.1-0.9-0.3-1.2s-0.6-0.4-1-0.4c-0.3,0-0.6,0.1-0.9,0.2s-0.5,0.4-0.6,0.7s-0.2,0.7-0.2,1.1v3.4H1095.9z"/>
		<path d="M1109.6,139.9h-1.1v-6.7c-0.3,0.2-0.6,0.5-1,0.7s-0.8,0.4-1.1,0.5v-1c0.6-0.3,1.1-0.6,1.5-1s0.8-0.8,0.9-1.1h0.7V139.9z"
			/>
		<path d="M1115.7,139.9v-2.1h-3.7v-1l3.9-5.6h0.9v5.6h1.2v1h-1.2v2.1H1115.7z M1115.7,136.9V133l-2.7,3.9H1115.7z"/>
		<path d="M1121.6,139l0.2,0.9c-0.3,0.1-0.6,0.1-0.8,0.1c-0.4,0-0.7-0.1-0.9-0.2s-0.4-0.3-0.4-0.5s-0.1-0.6-0.1-1.2v-3.6h-0.8v-0.8
			h0.8v-1.5l1-0.6v2.2h1.1v0.8h-1.1v3.6c0,0.3,0,0.5,0.1,0.6s0.1,0.2,0.2,0.2s0.2,0.1,0.4,0.1C1121.2,139,1121.4,139,1121.6,139z"/>
		<path d="M1122.6,139.9v-8.6h1.1v3.1c0.5-0.6,1.1-0.9,1.9-0.9c0.5,0,0.9,0.1,1.2,0.3s0.6,0.4,0.7,0.8s0.2,0.8,0.2,1.4v3.9h-1.1V136
			c0-0.5-0.1-0.9-0.3-1.2s-0.6-0.4-1-0.4c-0.3,0-0.6,0.1-0.9,0.2s-0.5,0.4-0.6,0.7s-0.2,0.7-0.2,1.1v3.4H1122.6z"/>
		<path d="M1130,142.4h-0.8c1.2-1.9,1.8-3.8,1.8-5.6c0-0.7-0.1-1.5-0.3-2.2c-0.1-0.6-0.3-1.1-0.6-1.7c-0.2-0.4-0.5-0.9-0.9-1.8h0.8
			c0.7,1,1.3,2,1.6,3c0.3,0.9,0.5,1.7,0.5,2.7c0,1.1-0.2,2.1-0.6,3.1S1130.6,141.7,1130,142.4z"/>
	</g>
	<g>
		<circle class="st6" cx="600" cy="57.9" r="12"/>
		<path class="st6" d="M963.5,61.9h-43c-2.8,0-5-2.2-5-5v0c0-2.7,2.2-5,5-5h43c2.8,0,5,2.2,5,5v0C968.5,59.7,966.2,61.9,963.5,61.9z
			"/>
		<path class="st6" d="M280.5,61.9h-43c-2.8,0-5-2.2-5-5v0c0-2.7,2.2-5,5-5h43c2.8,0,5,2.2,5,5v0C285.5,59.7,283.2,61.9,280.5,61.9z
			"/>
	</g>
	<line class="st9" x1="726.5" y1="125.9" x2="1134.5" y2="125.9"/>
	<g>
		<circle class="st6" cx="600" cy="57.9" r="12"/>
		<path class="st6" d="M963.5,61.9h-43c-2.8,0-5-2.2-5-5v0c0-2.7,2.2-5,5-5h43c2.8,0,5,2.2,5,5v0C968.5,59.7,966.2,61.9,963.5,61.9z
			"/>
		<path class="st6" d="M280.5,61.9h-43c-2.8,0-5-2.2-5-5v0c0-2.7,2.2-5,5-5h43c2.8,0,5,2.2,5,5v0C285.5,59.7,283.2,61.9,280.5,61.9z
			"/>
	</g>
	<line class="st9" x1="726.5" y1="125.9" x2="1134.5" y2="125.9"/>
	<g>
		<line class="st8" x1="751.5" y1="435.9" x2="447.5" y2="435.9"/>
		<g>
			<path d="M500.2,393.7c0,0.9-1.1,1.6-3.4,1.9l1.8,22.6c2.4,0.3,3.5,0.8,3.5,1.8l-3.6-0.4h-3.7l-3.8,0.4c0-0.9,1.2-1.5,3.7-1.8
				l-1.8-21.5h-0.3l-7.1,23.1h-4.1l-7.2-23.1h-0.3l-1.8,21.5c2.4,0.3,3.6,0.8,3.6,1.8l-3.5-0.4h-1.8l-3.6,0.4c0-0.9,1.2-1.5,3.5-1.8
				l1.8-22.6c-2.3-0.4-3.4-1-3.4-1.9l3.5,0.4h4.9l7.2,23.3l7.2-23.3h5L500.2,393.7z"/>
			<path d="M510.4,418.2c1.8,0.4,2.6,1,2.6,1.9l-2.7-0.4h-3.2l-2.9,0.4c0-0.9,0.9-1.5,2.8-1.9v-14.8c-1.9-0.4-2.9-1-2.9-1.9l3.1,0.4
				h3.2V418.2z M510.1,393.1c0.5,0.5,0.7,1,0.7,1.7c0,0.6-0.2,1.2-0.7,1.6c-0.5,0.5-1,0.7-1.6,0.7c-0.6,0-1.2-0.2-1.6-0.7
				c-0.5-0.5-0.7-1-0.7-1.6c0-0.6,0.2-1.2,0.7-1.7c0.5-0.5,1-0.7,1.6-0.7C509.1,392.4,509.7,392.6,510.1,393.1z"/>
			<path d="M522.8,419.8l-6.5-16.3c-1.5-0.3-2.3-1-2.3-1.8v-0.1l2.5,0.4h3.6l2.1-0.4c-0.1,0.9-0.8,1.5-2.3,1.9l4.7,11.8l4.6-11.8
				c-1.4-0.3-2.1-0.9-2.1-1.8v-0.1l2,0.4h1.8l2.2-0.4c-0.1,0.9-0.9,1.5-2.6,1.9l-8.2,21c-0.7,1.6-1.5,2.7-2.5,3.2
				c-0.6,0.3-1.2,0.4-1.9,0.4c-1.6,0-2.5-0.5-2.5-1.4c0.1-1.1,0.7-1.6,1.9-1.6c0.7,0,1.3,0.4,1.7,1.2h0c0.6,0,1.2-0.8,2-2.5
				L522.8,419.8L522.8,419.8z"/>
			<path d="M537.7,403.6c-0.5,2.3-1.3,3.4-2.5,3.4l0.4-4.2c1.1-1,2.5-1.5,4.5-1.5c1.3,0,2.5,0.2,3.5,0.5c0.9,0.3,1.8,0.9,2.7,1.6
				c1.2,1.1,1.7,2.8,1.7,5.2v9.2c2,0.4,3,1.1,3,2.1l-2.8-0.4h-3.4l-0.2-1.8c-0.9,1.6-2.4,2.4-4.6,2.4c-2.1,0-3.7-0.6-4.7-1.8
				c-0.6-0.8-1-1.6-1-2.6c0-2.6,1.8-4.6,5.5-6c1.8-0.7,3.3-1.1,4.8-1.3v-1.5c-0.1-2.9-1.7-4.3-4.5-4.3
				C538.9,402.8,538.1,403.1,537.7,403.6z M544.6,410c-1.3,0.2-2.5,0.6-3.5,1c-2.1,1.2-3.1,2.6-3.1,4.1c0,0.7,0.2,1.3,0.6,1.8
				c0.7,0.7,1.8,1,3.2,1c1.2,0,2.1-0.8,2.8-2.2V410z"/>
			<path d="M563.7,403.4h-8.4c-0.3,2.6-1,3.9-2.1,3.9l0.4-5.4h13.9v1.4l-11,14.9h9.2c0.3-3.1,1-4.7,2.1-4.7l-0.4,6.1H553v-1.9
				L563.7,403.4z"/>
			<path d="M574.6,403.6c-0.5,2.3-1.3,3.4-2.5,3.4l0.4-4.2c1.1-1,2.5-1.5,4.5-1.5c1.3,0,2.5,0.2,3.5,0.5c0.9,0.3,1.8,0.9,2.7,1.6
				c1.2,1.1,1.7,2.8,1.7,5.2v9.2c2,0.4,3,1.1,3,2.1l-2.8-0.4h-3.4l-0.2-1.8c-0.9,1.6-2.4,2.4-4.6,2.4c-2.1,0-3.7-0.6-4.7-1.8
				c-0.6-0.8-1-1.6-1-2.6c0-2.6,1.8-4.6,5.5-6c1.8-0.7,3.3-1.1,4.8-1.3v-1.5c-0.1-2.9-1.7-4.3-4.5-4.3
				C575.8,402.8,575.1,403.1,574.6,403.6z M581.5,410c-1.3,0.2-2.5,0.6-3.5,1c-2.1,1.2-3.1,2.6-3.1,4.1c0,0.7,0.2,1.3,0.6,1.8
				c0.7,0.7,1.8,1,3.2,1c1.2,0,2.1-0.8,2.8-2.2V410z"/>
			<path d="M595.9,418.2c1.4,0.3,2.1,0.9,2.1,1.9l-2.2-0.4h-3.3l-2.8,0.4c0-1,0.9-1.6,2.8-1.9v-24.9c-2.1-0.3-3.1-0.9-3.1-1.9
				l3.2,0.4h3.3V418.2z M602.8,403.4c-1.4-0.3-2.1-0.9-2.1-1.9l2.2,0.4h1.7l2.7-0.4c0,1-0.9,1.6-2.8,1.9l-4.6,5.3l7.4,9.4
				c1.6,0.3,2.5,0.9,2.5,1.9l-2.5-0.4h-2.8L597,410L602.8,403.4z"/>
			<path d="M617.4,418.2c1.8,0.4,2.6,1,2.6,1.9l-2.7-0.4h-3.2l-2.9,0.4c0-0.9,0.9-1.5,2.8-1.9v-14.8c-1.9-0.4-2.9-1-2.9-1.9l3.1,0.4
				h3.2V418.2z M617.1,393.1c0.5,0.5,0.7,1,0.7,1.7c0,0.6-0.2,1.2-0.7,1.6c-0.5,0.5-1,0.7-1.6,0.7c-0.6,0-1.2-0.2-1.6-0.7
				c-0.5-0.5-0.7-1-0.7-1.6c0-0.6,0.2-1.2,0.7-1.7c0.5-0.5,1-0.7,1.6-0.7C616.1,392.4,616.7,392.6,617.1,393.1z"/>
			<path d="M639.6,407.2v10.9c2.4,0.4,3.6,1,3.6,1.9l-3.6-0.4h-3.9l-3.4,0.4c0-0.9,1.2-1.6,3.5-1.9v-22.4c-2.3-0.4-3.5-1-3.5-1.9
				l3.5,0.4h3.7l3.5-0.4c0,0.9-1.1,1.6-3.4,1.9v9.9h12v-9.9c-2.2-0.4-3.4-1-3.4-1.9l3.3,0.4h3.9l3.5-0.4c0,0.9-1.2,1.6-3.5,1.9v22.4
				c2.3,0.4,3.5,1,3.5,1.9l-3.4-0.4h-4l-3.5,0.4c0-0.9,1.2-1.6,3.6-1.9v-10.9H639.6z"/>
			<path d="M664.5,403.6c-0.5,2.3-1.3,3.4-2.5,3.4l0.4-4.2c1.1-1,2.5-1.5,4.5-1.5c1.3,0,2.5,0.2,3.5,0.5c0.9,0.3,1.8,0.9,2.7,1.6
				c1.2,1.1,1.7,2.8,1.7,5.2v9.2c2,0.4,3,1.1,3,2.1l-2.8-0.4h-3.4l-0.2-1.8c-0.9,1.6-2.4,2.4-4.6,2.4c-2.1,0-3.7-0.6-4.7-1.8
				c-0.6-0.8-1-1.6-1-2.6c0-2.6,1.8-4.6,5.5-6c1.8-0.7,3.3-1.1,4.8-1.3v-1.5c-0.1-2.9-1.7-4.3-4.5-4.3
				C665.7,402.8,664.9,403.1,664.5,403.6z M671.4,410c-1.3,0.2-2.5,0.6-3.5,1c-2.1,1.2-3.1,2.6-3.1,4.1c0,0.7,0.2,1.3,0.6,1.8
				c0.7,0.7,1.8,1,3.2,1c1.2,0,2.1-0.8,2.8-2.2V410z"/>
			<path d="M686.4,419.8l-6.5-16.3c-1.5-0.3-2.3-1-2.3-1.8v-0.1l2.5,0.4h3.6l2.1-0.4c-0.1,0.9-0.8,1.5-2.3,1.9l4.7,11.8l4.6-11.8
				c-1.4-0.3-2.1-0.9-2.1-1.8v-0.1l2,0.4h1.8l2.2-0.4c-0.1,0.9-0.9,1.5-2.6,1.9l-8.2,21c-0.7,1.6-1.5,2.7-2.5,3.2
				c-0.6,0.3-1.2,0.4-1.9,0.4c-1.6,0-2.5-0.5-2.5-1.4c0.1-1.1,0.7-1.6,1.9-1.6c0.7,0,1.3,0.4,1.7,1.2h0c0.6,0,1.2-0.8,2-2.5
				L686.4,419.8L686.4,419.8z"/>
			<path d="M701.4,403.6c-0.5,2.3-1.3,3.4-2.5,3.4l0.4-4.2c1.1-1,2.5-1.5,4.5-1.5c1.3,0,2.5,0.2,3.5,0.5c0.9,0.3,1.8,0.9,2.7,1.6
				c1.2,1.1,1.7,2.8,1.7,5.2v9.2c2,0.4,3,1.1,3,2.1l-2.8-0.4h-3.4l-0.2-1.8c-0.9,1.6-2.4,2.4-4.6,2.4c-2.1,0-3.7-0.6-4.7-1.8
				c-0.6-0.8-1-1.6-1-2.6c0-2.6,1.8-4.6,5.5-6c1.8-0.7,3.3-1.1,4.8-1.3v-1.5c-0.1-2.9-1.7-4.3-4.5-4.3
				C702.6,402.8,701.8,403.1,701.4,403.6z M708.2,410c-1.3,0.2-2.5,0.6-3.5,1c-2.1,1.2-3.1,2.6-3.1,4.1c0,0.7,0.2,1.3,0.6,1.8
				c0.7,0.7,1.8,1,3.2,1c1.2,0,2.1-0.8,2.8-2.2V410z"/>
			<path d="M733.3,410.8L733.3,410.8c-0.5,6.3-3.3,9.4-8.7,9.4c-5.3,0-8.3-3.1-8.7-9.4v0c0.5-6.3,3.4-9.4,8.7-9.4
				C729.9,401.4,732.8,404.5,733.3,410.8z M725.4,402.8c-0.3,0-0.5-0.1-0.8-0.1c-0.3,0-0.6,0-0.8,0.1c-2.7,0.4-4.1,3.1-4.1,8
				c0,4.9,1.4,7.6,4.1,8c0.3,0,0.5,0.1,0.8,0.1c0.3,0,0.5,0,0.8-0.1c2.7-0.4,4.1-3.1,4.1-8C729.5,405.9,728.1,403.2,725.4,402.8z"/>
		</g>
		<g>
			<path d="M475.4,474.9v1.2c-2.6-0.1-4.4-0.1-5.2-0.1l-5.7,0.1v-1.2c1.5,0,2.3-0.1,2.7-0.2c0.3-0.1,0.5-0.2,0.7-0.4
				c0.1-0.2,0.2-0.8,0.3-1.8c0-0.3,0-2,0.1-5.3v-8.6c0-1.7,0-3.3-0.1-4.9c0-1.2-0.1-1.9-0.3-2.1s-0.4-0.4-0.7-0.5
				c-0.3-0.1-1.2-0.2-2.7-0.2v-1.2c2.4,0.1,4.2,0.1,5.5,0.1c1.2,0,3.1,0,5.5-0.1v1.2c-1.5,0-2.4,0.1-2.7,0.2
				c-0.3,0.1-0.5,0.2-0.7,0.4c-0.1,0.2-0.2,0.8-0.3,1.8c0,0.2,0,2-0.1,5.3v8.6c0,1.7,0,3.3,0.1,4.9c0,1.2,0.1,1.9,0.3,2.1
				s0.4,0.4,0.7,0.5C473,474.8,473.9,474.9,475.4,474.9z"/>
			<path d="M480.3,476.1v-1.2c1.3,0,2.2-0.1,2.6-0.3c0.2-0.1,0.3-0.2,0.4-0.4c0.1-0.2,0.2-0.9,0.3-1.9c0.1-1.6,0.1-3,0.1-4.2V453
				c0-0.4,0-0.7-0.1-0.8c-0.1-0.2-0.3-0.5-0.7-0.8c-0.2-0.2-0.5-0.3-0.8-0.4s-0.9-0.1-1.9-0.1v-1.2c2.1,0.1,3.4,0.1,3.9,0.1
				c0.9,0,1.8,0,2.7-0.1c1.1,1.4,1.8,2.4,2.3,3l3.8,4.7l5.6,6.8c1.8,2.2,3.2,3.8,4.3,5.1c0.7,0.8,1.3,1.5,1.7,1.9v-13.6
				c0-1.2,0-2.6-0.1-4.3c-0.1-1-0.1-1.7-0.2-1.9c-0.1-0.2-0.2-0.3-0.4-0.4c-0.4-0.2-1.3-0.3-2.5-0.3v-1.2c1.5,0.1,2.9,0.1,4.4,0.1
				c1.4,0,2.7,0,3.8-0.1v1.2c-1.3,0-2.1,0.1-2.5,0.3c-0.2,0.1-0.3,0.2-0.4,0.4c-0.1,0.2-0.2,0.9-0.3,1.9c-0.1,1.6-0.1,3-0.1,4.2v8.9
				c0,1.8,0,5.2,0.1,10.1l-1.9-0.6l-0.4-0.1c-0.1,0-0.1-0.1-0.2-0.1c-0.1-0.1-0.3-0.3-0.7-0.7c-1-1.2-1.8-2-2.3-2.6l-2.4-3
				l-13.2-15.7v14.2c0,1.2,0,2.6,0.1,4.3c0,1,0.1,1.7,0.2,1.9c0.1,0.2,0.2,0.3,0.4,0.4c0.4,0.2,1.3,0.3,2.5,0.3v1.2
				c-1.1-0.1-2.3-0.1-3.6-0.1C483.6,476,482,476,480.3,476.1z"/>
			<path d="M515.8,455.9h-1.2c0-3-0.1-5-0.2-6.1c1.3,0.1,3.5,0.1,6.3,0.2c2.3,0.1,3.9,0.1,4.7,0.1c0.8,0,2.8,0,5.8-0.1
				c2.2,0,3.8-0.1,4.8-0.1c-0.1,1.4-0.2,3.4-0.3,6.1h-1.2l-0.1-1.8c-0.1-1.1-0.2-1.7-0.2-1.8s-0.1-0.3-0.2-0.3
				c-0.1-0.1-0.2-0.1-0.3-0.1c-0.2,0-0.8-0.1-1.9-0.1c-1.1-0.1-1.9-0.1-2.5-0.1h-2.3c-0.1,1.2-0.2,2.8-0.2,4.8v10.9
				c0,1.7,0,3.3,0.1,4.9c0,1.2,0.1,1.9,0.3,2.1c0.1,0.2,0.4,0.4,0.7,0.5c0.3,0.1,1.2,0.2,2.7,0.2v1.2c-2.2-0.1-3.9-0.1-5-0.1
				c-0.5,0-2.4,0-5.8,0.1v-1.2c1.5,0,2.4-0.1,2.7-0.2c0.3-0.1,0.5-0.2,0.6-0.4c0.2-0.2,0.3-0.8,0.3-1.8c0-0.3,0-2,0.1-5.3v-10.8
				c0-0.5,0-1.1,0-1.7l-0.1-3.1h-2.8c-1.6,0-2.9,0.1-3.8,0.2c-0.3,0-0.5,0.1-0.6,0.2c-0.1,0.2-0.3,0.9-0.4,2L515.8,455.9z"/>
			<path d="M541.1,476.1v-1.2c1.3,0,2.2-0.1,2.6-0.3c0.2-0.1,0.3-0.2,0.4-0.4c0.1-0.2,0.2-0.9,0.3-1.9c0.1-1.6,0.1-3,0.1-4.2v-9.5
				c0-1.7,0-3.3-0.1-4.9c0-1.2-0.1-1.9-0.3-2.1c-0.1-0.2-0.4-0.4-0.7-0.5c-0.3-0.1-1.2-0.2-2.7-0.2v-1.2l5.3,0.1l5.6-0.1
				c2.7,0,4.6-0.1,5.8-0.1c1.2,0,2.4,0.1,3.5,0.2c-0.2,0.7-0.3,1.3-0.4,1.8c0,0.1-0.1,1.4-0.3,3.9H559c0-1.3-0.1-2.4-0.2-3.5
				c-0.7-0.3-1.4-0.5-2.2-0.6c-1.4-0.2-2.8-0.3-4.2-0.3c-0.3,0-1,0-2,0.1c-1,0-1.8,0.1-2.2,0.1c0,1.4-0.1,2.7-0.1,3.9l-0.1,6.3
				c1.4,0.1,2.8,0.1,4,0.1c1.5,0,2.7-0.1,3.8-0.2c0.4,0,0.6-0.1,0.8-0.3s0.2-0.7,0.3-1.5l0.1-1.3h1.1v0.4l-0.1,3.9l0.1,4.3h-1.3
				l-0.1-1.3c0-0.9-0.1-1.5-0.3-1.7s-0.4-0.4-0.8-0.5c-0.7-0.1-2.1-0.2-4.1-0.2c-0.8,0-2,0-3.5,0.1c-0.1,1.2-0.1,3.1-0.1,5.5
				c0,2.3,0,4,0.1,5.2c1.8,0.1,3.8,0.2,6,0.2c1.6,0,2.7,0,3.4-0.1c0.7-0.1,1.3-0.3,1.9-0.5c0.1-0.4,0.3-0.9,0.4-1.6
				c0.3-1.1,0.5-1.9,0.5-2.5h1.2c-0.3,2.5-0.5,4.6-0.5,6.2c-1.1,0.2-2.4,0.2-3.9,0.2l-11.1-0.1C545.8,475.9,544.2,476,541.1,476.1z"
				/>
			<path d="M566.7,450.9v-1.2c0.5,0,1.2,0,2.2,0.1l3.6,0.1c0.7,0,1.8,0,3.3-0.1c1.9-0.1,3-0.1,3.4-0.1c2.4,0,4.1,0.2,5.2,0.6
				c1.1,0.4,1.9,1.1,2.5,2.1s0.9,2,0.9,3.1c0,1-0.3,2.1-0.8,3.1c-0.6,1-1.4,1.9-2.4,2.6c-1.1,0.7-2.4,1.2-4.1,1.6
				c0.3,0.4,1,1.4,2.2,2.9l4.7,6.2c1.3,1.7,2.1,2.7,2.3,2.9c0.1,0.1,0.2,0.1,0.3,0.2c0.2,0.1,0.6,0.1,1.2,0.1v1.2
				c-0.9-0.1-1.8-0.1-2.5-0.1c-0.7,0-1.6,0-2.7,0.1c-0.8-0.9-2.2-2.7-4-5.4c-1.1-1.5-2-2.7-2.8-3.7c-1.3-1.7-2.5-3.2-3.7-4.5
				l0.2-0.6c0.6,0,1.1,0.1,1.5,0.1c2.2,0,4-0.5,5.1-1.6c1.2-1.1,1.7-2.5,1.7-4.2c0-1.5-0.5-2.7-1.5-3.6c-1-0.9-2.5-1.3-4.5-1.3
				c-1.3,0-2.5,0.2-3.7,0.6c-0.1,0.7-0.1,1.3-0.1,1.9c0,0.2-0.1,2-0.1,5.4v8.2c0,1.7,0,3.3,0.1,4.9c0,1.2,0.1,1.9,0.3,2.1
				c0.1,0.2,0.4,0.4,0.7,0.5c0.3,0.1,1.2,0.2,2.7,0.2v1.2c-1.8-0.1-3.4-0.1-4.8-0.1c-1.2,0-3.2,0-6,0.1v-1.2c1.5,0,2.3-0.1,2.7-0.2
				c0.3-0.1,0.5-0.2,0.7-0.4c0.1-0.2,0.2-0.8,0.3-1.8c0-0.3,0-2,0.1-5.3v-8.6c0-1.7,0-3.3-0.1-4.9c0-1.2-0.1-1.9-0.3-2.1
				s-0.4-0.4-0.7-0.5S568.2,450.9,566.7,450.9z"/>
			<path d="M595.3,475.2c0.2-1.2,0.3-3.1,0.4-5.8h1.3c0.1,1.8,0.2,2.9,0.3,3.2c0.1,0.3,0.5,0.7,1,1s1.3,0.7,2.2,1
				c0.9,0.3,1.8,0.4,2.7,0.4c1.2,0,2.4-0.3,3.5-0.9c1.1-0.6,1.8-1.3,2.3-2.3s0.7-1.9,0.7-3c0-0.8-0.1-1.5-0.4-2.1
				c-0.2-0.6-0.6-1.1-1.1-1.4c-0.5-0.4-1.1-0.6-1.8-0.8c-0.5-0.1-1.4-0.2-2.7-0.4c-1.4-0.2-2.5-0.4-3.5-0.6
				c-1.3-0.4-2.2-0.9-2.8-1.4c-0.6-0.5-1.1-1.2-1.5-2.1c-0.4-0.9-0.6-1.8-0.6-2.8c0-1.5,0.4-2.8,1.1-4.1c0.8-1.3,1.9-2.3,3.4-3
				c1.5-0.7,3.1-1.1,4.9-1.1c1.1,0,2.2,0.1,3.4,0.4c1.2,0.3,2.4,0.7,3.5,1.2c-0.2,0.8-0.3,1.5-0.4,2.2c-0.1,0.7-0.1,1.7-0.2,3h-1.3
				c0-1.9-0.1-2.9-0.2-3.1c-0.3-0.4-0.7-0.8-1.3-1.2c-1.3-0.7-2.6-1.1-4-1.1c-1.8,0-3.2,0.5-4.3,1.6c-1.1,1.1-1.6,2.5-1.6,4.3
				c0,1.1,0.2,1.9,0.6,2.4s1.1,1,2.1,1.4c0.7,0.2,1.8,0.5,3.3,0.7c1.5,0.2,2.9,0.4,4.2,0.7c1.2,0.3,2,0.8,2.6,1.2s1,1.1,1.4,1.9
				c0.4,0.8,0.5,1.7,0.5,2.7c0,2.5-1,4.6-3.1,6.4c-2,1.8-4.7,2.7-7.9,2.7C599.5,476.6,597.3,476.1,595.3,475.2z"/>
			<path d="M619,455.9h-1.2c0-3-0.1-5-0.2-6.1c1.3,0.1,3.5,0.1,6.3,0.2c2.3,0.1,3.9,0.1,4.7,0.1c0.8,0,2.8,0,5.8-0.1
				c2.2,0,3.8-0.1,4.8-0.1c-0.1,1.4-0.2,3.4-0.3,6.1h-1.2l-0.1-1.8c-0.1-1.1-0.2-1.7-0.2-1.8s-0.1-0.3-0.2-0.3
				c-0.1-0.1-0.2-0.1-0.3-0.1c-0.2,0-0.8-0.1-1.9-0.1c-1.1-0.1-1.9-0.1-2.5-0.1h-2.3c-0.1,1.2-0.2,2.8-0.2,4.8v10.9
				c0,1.7,0,3.3,0.1,4.9c0,1.2,0.1,1.9,0.3,2.1s0.4,0.4,0.7,0.5s1.2,0.2,2.7,0.2v1.2c-2.2-0.1-3.9-0.1-5-0.1c-0.5,0-2.4,0-5.8,0.1
				v-1.2c1.5,0,2.4-0.1,2.7-0.2c0.3-0.1,0.5-0.2,0.7-0.4c0.2-0.2,0.3-0.8,0.3-1.8c0-0.3,0-2,0.1-5.3v-10.8c0-0.5,0-1.1,0-1.7
				l-0.1-3.1H624c-1.6,0-2.9,0.1-3.8,0.2c-0.3,0-0.5,0.1-0.6,0.2c-0.1,0.2-0.3,0.9-0.4,2L619,455.9z"/>
			<path d="M654.8,474.9v1.2c-2.6-0.1-4.4-0.1-5.2-0.1l-5.7,0.1v-1.2c1.5,0,2.4-0.1,2.7-0.2s0.5-0.2,0.7-0.4
				c0.1-0.2,0.2-0.8,0.3-1.8c0-0.3,0-2,0.1-5.3v-8.6c0-1.7,0-3.3-0.1-4.9c0-1.2-0.1-1.9-0.3-2.1c-0.1-0.2-0.4-0.4-0.7-0.5
				c-0.3-0.1-1.2-0.2-2.7-0.2v-1.2c2.4,0.1,4.2,0.1,5.5,0.1c1.2,0,3.1,0,5.5-0.1v1.2c-1.5,0-2.4,0.1-2.7,0.2
				c-0.3,0.1-0.5,0.2-0.7,0.4c-0.1,0.2-0.2,0.8-0.3,1.8c0,0.2,0,2-0.1,5.3v8.6c0,1.7,0,3.3,0.1,4.9c0,1.2,0.1,1.9,0.3,2.1
				c0.1,0.2,0.4,0.4,0.7,0.5C652.5,474.8,653.4,474.9,654.8,474.9z"/>
			<path d="M684.6,472.8l-0.7,1.7c-1.4,0.7-2.9,1.3-4.2,1.6s-2.9,0.5-4.5,0.5c-1.9,0-3.7-0.2-5.3-0.7s-3.1-1.2-4.3-2.1
				c-1.2-0.9-2.2-1.9-3-3s-1.4-2.3-1.8-3.6s-0.6-2.7-0.6-4.3c0-3.9,1.4-7.2,4.1-9.8s6.5-3.9,11.3-3.9c1.1,0,2.2,0.1,3.1,0.2
				s2.1,0.4,3.5,0.7c1.4,0.4,2.2,0.6,2.5,0.6c-0.3,0.7-0.5,1.3-0.6,2c-0.2,1.1-0.3,2.3-0.4,3.7h-1.2l0-2.2c-0.1-1.2-0.8-2.1-2-2.7
				s-3-0.9-5.4-0.9c-1.8,0-3.2,0.2-4.5,0.7s-2.3,1.1-3.2,2s-1.7,2.1-2.3,3.5c-0.6,1.4-0.9,3.2-0.9,5.3c0,3.7,1.1,6.8,3.4,9
				c2.3,2.3,5.3,3.4,9.1,3.4c1.7,0,3.3-0.2,4.7-0.7c1-0.3,2-0.8,3-1.5L684.6,472.8z"/>
			<path d="M689.8,476.1v-1.2c1.3,0,2.2-0.1,2.6-0.3c0.2-0.1,0.3-0.2,0.4-0.4c0.1-0.2,0.2-0.9,0.3-1.9c0.1-1.6,0.1-3,0.1-4.2v-9.5
				c0-1.7,0-3.3-0.1-4.9c0-1.2-0.1-1.9-0.3-2.1c-0.1-0.2-0.4-0.4-0.7-0.5s-1.2-0.2-2.7-0.2v-1.2l5.3,0.1l5.6-0.1
				c2.7,0,4.6-0.1,5.8-0.1c1.2,0,2.4,0.1,3.5,0.2c-0.2,0.7-0.3,1.3-0.4,1.8c0,0.1-0.1,1.4-0.3,3.9h-1.2c0-1.3-0.1-2.4-0.2-3.5
				c-0.7-0.3-1.4-0.5-2.2-0.6c-1.4-0.2-2.8-0.3-4.2-0.3c-0.3,0-1,0-2,0.1c-1,0-1.8,0.1-2.2,0.1c0,1.4-0.1,2.7-0.1,3.9l-0.1,6.3
				c1.4,0.1,2.8,0.1,4,0.1c1.5,0,2.7-0.1,3.8-0.2c0.4,0,0.7-0.1,0.8-0.3s0.2-0.7,0.3-1.5l0.1-1.3h1.1v0.4l-0.1,3.9l0.1,4.3h-1.3
				l-0.1-1.3c0-0.9-0.1-1.5-0.2-1.7s-0.4-0.4-0.8-0.5c-0.7-0.1-2.1-0.2-4.1-0.2c-0.8,0-2,0-3.5,0.1c-0.1,1.2-0.1,3.1-0.1,5.5
				c0,2.3,0,4,0.1,5.2c1.8,0.1,3.8,0.2,6,0.2c1.6,0,2.7,0,3.4-0.1c0.7-0.1,1.3-0.3,1.9-0.5c0.1-0.4,0.3-0.9,0.4-1.6
				c0.3-1.1,0.5-1.9,0.5-2.5h1.2c-0.3,2.5-0.5,4.6-0.5,6.2c-1.1,0.2-2.4,0.2-3.9,0.2l-11.1-0.1C694.5,475.9,692.9,476,689.8,476.1z"
				/>
			<path d="M715.8,475.2c0.2-1.2,0.3-3.1,0.4-5.8h1.3c0.1,1.8,0.2,2.9,0.3,3.2c0.1,0.3,0.5,0.7,1,1c0.5,0.4,1.3,0.7,2.2,1
				c0.9,0.3,1.8,0.4,2.7,0.4c1.2,0,2.4-0.3,3.5-0.9s1.8-1.3,2.3-2.3s0.7-1.9,0.7-3c0-0.8-0.1-1.5-0.4-2.1c-0.2-0.6-0.6-1.1-1.1-1.4
				c-0.5-0.4-1.1-0.6-1.8-0.8c-0.5-0.1-1.4-0.2-2.7-0.4c-1.4-0.2-2.5-0.4-3.5-0.6c-1.3-0.4-2.2-0.9-2.8-1.4
				c-0.6-0.5-1.1-1.2-1.5-2.1c-0.4-0.9-0.6-1.8-0.6-2.8c0-1.5,0.4-2.8,1.1-4.1c0.8-1.3,1.9-2.3,3.4-3c1.5-0.7,3.1-1.1,4.9-1.1
				c1.1,0,2.2,0.1,3.4,0.4c1.2,0.3,2.4,0.7,3.5,1.2c-0.2,0.8-0.3,1.5-0.4,2.2c-0.1,0.7-0.1,1.7-0.2,3h-1.3c0-1.9-0.1-2.9-0.2-3.1
				c-0.3-0.4-0.7-0.8-1.3-1.2c-1.3-0.7-2.6-1.1-4-1.1c-1.8,0-3.2,0.5-4.3,1.6s-1.6,2.5-1.6,4.3c0,1.1,0.2,1.9,0.6,2.4
				c0.4,0.6,1.1,1,2.1,1.4c0.7,0.2,1.8,0.5,3.3,0.7c1.5,0.2,2.9,0.4,4.2,0.7c1.2,0.3,2,0.8,2.6,1.2s1,1.1,1.4,1.9
				c0.4,0.8,0.5,1.7,0.5,2.7c0,2.5-1,4.6-3.1,6.4c-2,1.8-4.7,2.7-7.9,2.7C720,476.6,717.8,476.1,715.8,475.2z"/>
		</g>
	</g>
	<g>
		<path d="M463.6,614.3c0-0.7,0.1-1.4,0.3-2c0.2-0.6,0.6-1.2,1.1-1.6c0.5-0.5,1.1-0.9,1.8-1.1s1.4-0.4,2.3-0.4
			c0.8,0,1.5,0.1,2.1,0.3c0.6,0.2,1.2,0.5,1.6,0.8c0.4,0.3,0.7,0.7,1,1.1c0.2,0.3,0.3,0.7,0.4,1.1c0.1,0.4,0.2,0.9,0.2,1.3
			c0,1.5-0.5,2.8-1.6,3.8c-1.1,1-2.4,1.5-4.1,1.5c-0.7,0-1.4-0.1-2.1-0.3c-0.6-0.2-1.2-0.6-1.6-1s-0.8-1-1-1.7
			C463.7,615.6,463.6,614.9,463.6,614.3z M465.1,613.7c0,0.4,0,0.9,0.1,1.3c0.1,0.4,0.2,0.8,0.3,1.2c0.2,0.5,0.5,1,0.9,1.4
			c0.4,0.4,0.8,0.6,1.2,0.8s1,0.3,1.5,0.3c0.8,0,1.4-0.2,2-0.5s1-0.9,1.3-1.5c0.3-0.6,0.4-1.4,0.4-2.2c0-0.7-0.1-1.4-0.3-2
			c-0.1-0.4-0.3-0.7-0.5-1c-0.2-0.3-0.4-0.6-0.7-0.8c-0.3-0.2-0.6-0.4-1.1-0.6c-0.5-0.2-0.9-0.2-1.5-0.2c-0.8,0-1.4,0.2-2,0.5
			c-0.6,0.3-1,0.8-1.3,1.4C465.2,612.3,465.1,612.9,465.1,613.7z"/>
		<path d="M476.3,609.8v-0.4c1,0,1.7,0,2.3,0c0.4,0,0.8,0,1.2,0l1.1,0c0.1,0,0.2,0,0.3,0c0.8,0,1.3,0.1,1.8,0.2
			c0.4,0.2,0.8,0.4,1,0.8c0.2,0.3,0.4,0.7,0.4,1.2c0,0.4-0.1,0.8-0.3,1.2s-0.5,0.7-0.9,1s-0.8,0.5-1.2,0.6c-0.3,0.1-0.6,0.1-1,0.1
			c-0.3,0-0.6,0-1-0.1l-0.1-0.5c0.4,0.1,0.8,0.1,1,0.1c0.4,0,0.7-0.1,1-0.2s0.6-0.4,0.7-0.8c0.2-0.3,0.3-0.7,0.3-1.1
			c0-0.4-0.1-0.7-0.3-1.1c-0.2-0.3-0.4-0.6-0.8-0.7c-0.4-0.2-0.8-0.2-1.3-0.2c-0.5,0-0.9,0.1-1.4,0.2c0,0.5-0.1,1.2-0.1,2.3v3.4
			c0,0.6,0,1.2,0,1.8c0,0.4,0,0.7,0.1,0.8c0.1,0.1,0.1,0.1,0.3,0.2c0.1,0,0.5,0.1,1,0.1v0.4c-0.9,0-1.5-0.1-1.9-0.1
			c-0.2,0-0.9,0-2.2,0.1v-0.4c0.6,0,0.9,0,1-0.1s0.2-0.1,0.3-0.2c0.1-0.1,0.1-0.3,0.1-0.7c0-0.1,0-0.7,0-1.9v-3.2c0-0.6,0-1.2,0-1.8
			c0-0.4,0-0.7-0.1-0.8s-0.1-0.1-0.3-0.2C477.2,609.8,476.9,609.8,476.3,609.8z"/>
		<path d="M486.4,619.1v-0.4c0.5,0,0.8,0,1-0.1c0.1,0,0.1-0.1,0.1-0.1c0-0.1,0.1-0.3,0.1-0.7c0-0.6,0-1.1,0-1.6v-3.5
			c0-0.6,0-1.2,0-1.8c0-0.4,0-0.7-0.1-0.8s-0.1-0.1-0.3-0.2c-0.1,0-0.5-0.1-1-0.1v-0.4l2,0l2.1,0c1,0,1.8,0,2.2,0
			c0.5,0,0.9,0,1.3,0.1c-0.1,0.3-0.1,0.5-0.2,0.7c0,0-0.1,0.5-0.1,1.4h-0.4c0-0.5,0-0.9-0.1-1.3c-0.3-0.1-0.5-0.2-0.9-0.2
			c-0.5-0.1-1.1-0.1-1.6-0.1c-0.1,0-0.4,0-0.8,0c-0.4,0-0.7,0-0.8,0c0,0.5,0,1,0,1.4l0,2.3c0.6,0,1.1,0,1.5,0c0.6,0,1,0,1.4-0.1
			c0.2,0,0.2-0.1,0.3-0.1c0-0.1,0.1-0.2,0.1-0.6l0-0.5h0.4v0.1l0,1.4l0,1.6h-0.5l0-0.5c0-0.3,0-0.5-0.1-0.6
			c-0.1-0.1-0.2-0.1-0.3-0.2c-0.3-0.1-0.8-0.1-1.6-0.1c-0.3,0-0.8,0-1.3,0c0,0.5,0,1.1,0,2c0,0.8,0,1.5,0,1.9c0.7,0,1.4,0.1,2.3,0.1
			c0.6,0,1,0,1.3-0.1c0.3,0,0.5-0.1,0.7-0.2c0.1-0.1,0.1-0.3,0.2-0.6c0.1-0.4,0.2-0.7,0.2-0.9h0.5c-0.1,0.9-0.2,1.7-0.2,2.3
			c-0.4,0.1-0.9,0.1-1.5,0.1l-4.2-0.1C488.2,619,487.6,619,486.4,619.1z"/>
		<path d="M496.4,619.1v-0.4c0.5,0,0.8,0,1-0.1c0.1,0,0.1-0.1,0.1-0.1c0-0.1,0.1-0.3,0.1-0.7c0-0.6,0-1.1,0-1.6v-5.6
			c0-0.2,0-0.2,0-0.3c0-0.1-0.1-0.2-0.3-0.3c-0.1-0.1-0.2-0.1-0.3-0.1c-0.1,0-0.4,0-0.7,0v-0.4c0.8,0,1.3,0,1.5,0c0.3,0,0.7,0,1,0
			c0.4,0.5,0.7,0.9,0.9,1.1l1.5,1.7l2.1,2.5c0.7,0.8,1.2,1.4,1.7,1.9c0.3,0.3,0.5,0.5,0.7,0.7v-5c0-0.4,0-1,0-1.6
			c0-0.4,0-0.6-0.1-0.7c0-0.1-0.1-0.1-0.1-0.1c-0.2-0.1-0.5-0.1-1-0.1v-0.4c0.6,0,1.1,0,1.7,0c0.5,0,1,0,1.5,0v0.4
			c-0.5,0-0.8,0-1,0.1c-0.1,0-0.1,0.1-0.1,0.1c0,0.1-0.1,0.3-0.1,0.7c0,0.6,0,1.1,0,1.6v3.3c0,0.7,0,1.9,0,3.7l-0.7-0.2l-0.2,0
			c0,0-0.1,0-0.1,0c0,0-0.1-0.1-0.3-0.3c-0.4-0.4-0.7-0.8-0.9-1l-0.9-1.1l-5-5.8v5.2c0,0.4,0,1,0,1.6c0,0.4,0,0.6,0.1,0.7
			c0,0.1,0.1,0.1,0.1,0.1c0.2,0.1,0.5,0.1,1,0.1v0.4c-0.4,0-0.9,0-1.4,0C497.7,619,497.1,619,496.4,619.1z"/>
		<path d="M513.9,618.6v0.4c-1,0-1.7-0.1-2-0.1l-2.2,0.1v-0.4c0.6,0,0.9,0,1-0.1s0.2-0.1,0.3-0.2c0.1-0.1,0.1-0.3,0.1-0.7
			c0-0.1,0-0.7,0-1.9v-3.2c0-0.6,0-1.2,0-1.8c0-0.4,0-0.7-0.1-0.8s-0.1-0.1-0.3-0.2s-0.5-0.1-1-0.1v-0.4c0.9,0,1.6,0,2.1,0
			c0.5,0,1.2,0,2.1,0v0.4c-0.6,0-0.9,0-1,0.1s-0.2,0.1-0.3,0.2c-0.1,0.1-0.1,0.3-0.1,0.7c0,0.1,0,0.7,0,1.9v3.2c0,0.6,0,1.2,0,1.8
			c0,0.4,0,0.7,0.1,0.8s0.1,0.1,0.3,0.2S513.3,618.6,513.9,618.6z"/>
		<path d="M515.9,619.1v-0.4c0.5,0,0.8,0,1-0.1c0.1,0,0.1-0.1,0.1-0.1c0-0.1,0.1-0.3,0.1-0.7c0-0.6,0-1.1,0-1.6v-5.6
			c0-0.2,0-0.2,0-0.3c0-0.1-0.1-0.2-0.3-0.3c-0.1-0.1-0.2-0.1-0.3-0.1c-0.1,0-0.4,0-0.7,0v-0.4c0.8,0,1.3,0,1.5,0c0.3,0,0.7,0,1,0
			c0.4,0.5,0.7,0.9,0.9,1.1l1.5,1.7l2.1,2.5c0.7,0.8,1.2,1.4,1.7,1.9c0.3,0.3,0.5,0.5,0.7,0.7v-5c0-0.4,0-1,0-1.6
			c0-0.4,0-0.6-0.1-0.7c0-0.1-0.1-0.1-0.1-0.1c-0.2-0.1-0.5-0.1-1-0.1v-0.4c0.6,0,1.1,0,1.7,0c0.5,0,1,0,1.5,0v0.4
			c-0.5,0-0.8,0-1,0.1c-0.1,0-0.1,0.1-0.1,0.1c0,0.1-0.1,0.3-0.1,0.7c0,0.6,0,1.1,0,1.6v3.3c0,0.7,0,1.9,0,3.7l-0.7-0.2l-0.2,0
			c0,0-0.1,0-0.1,0c0,0-0.1-0.1-0.3-0.3c-0.4-0.4-0.7-0.8-0.9-1l-0.9-1.1l-5-5.8v5.2c0,0.4,0,1,0,1.6c0,0.4,0,0.6,0.1,0.7
			c0,0.1,0.1,0.1,0.1,0.1c0.2,0.1,0.5,0.1,1,0.1v0.4c-0.4,0-0.9,0-1.4,0C517.1,619,516.5,619,515.9,619.1z"/>
		<path d="M538.9,618.5c-0.7,0.2-1.3,0.4-1.8,0.5c-0.8,0.2-1.6,0.2-2.3,0.2c-1.1,0-2.1-0.2-2.9-0.6c-0.9-0.4-1.5-1-2-1.7
			c-0.5-0.7-0.7-1.6-0.7-2.6c0-0.9,0.2-1.6,0.5-2.3s0.7-1.1,1.2-1.5c0.5-0.4,1-0.7,1.5-0.9c0.8-0.3,1.7-0.4,2.8-0.4
			c0.5,0,1.1,0.1,1.7,0.2c0.6,0.1,1.2,0.3,2,0.5c-0.1,0.2-0.1,0.5-0.2,0.7c0,0.2-0.1,0.7-0.1,1.4h-0.4l0-0.8c0-0.1,0-0.2,0-0.3
			c0-0.1,0-0.2-0.1-0.3c-0.1-0.2-0.3-0.3-0.6-0.4c-0.5-0.2-0.9-0.3-1.2-0.4c-0.3-0.1-0.7-0.1-1.1-0.1c-0.9,0-1.7,0.2-2.3,0.6
			s-1.2,0.9-1.5,1.6c-0.3,0.7-0.5,1.4-0.5,2.3c0,0.9,0.2,1.7,0.6,2.4c0.4,0.7,0.9,1.3,1.6,1.6s1.4,0.6,2.3,0.6c0.4,0,0.8,0,1.2-0.1
			c0.4-0.1,0.7-0.2,1-0.3c0-0.2,0.1-0.5,0.1-0.9v-0.8c0-0.4,0-0.6-0.1-0.7s-0.2-0.1-0.3-0.2c-0.2,0-0.6-0.1-1.3-0.1v-0.4l2.2,0
			c0.4,0,0.9,0,1.3,0l0,0.3l-0.5,0.3c-0.1,0.5-0.1,0.9-0.1,1.3S538.8,618.1,538.9,618.5z"/>
		<path d="M546.6,619.1v-0.3c0.3-0.2,0.5-0.3,0.7-0.4c0-0.3,0.1-0.7,0.1-1.3c0-0.9,0-1.6,0-2v-2.8c0-0.4,0-1,0-1.6
			c0-0.4-0.1-0.6-0.1-0.7c0-0.1-0.1-0.1-0.1-0.1c-0.2-0.1-0.5-0.1-1-0.1v-0.4c0.7,0,1.3,0,1.8,0c0.4,0,1,0,1.7,0c0.7,0,1.2,0,1.6,0
			c1.2,0,2.1,0.1,2.8,0.4c0.7,0.3,1.3,0.8,1.8,1.4s0.7,1.5,0.7,2.5c0,0.7-0.1,1.3-0.3,1.9c-0.2,0.6-0.5,1.1-0.9,1.6
			c-0.4,0.5-0.8,0.8-1.3,1.1c-0.5,0.3-0.9,0.5-1.4,0.6c-0.5,0.1-1.2,0.2-2.1,0.2c-0.3,0-0.7,0-1.2,0c-0.6,0-1.1,0-1.3,0
			C547.8,619,547.3,619,546.6,619.1z M548.8,618.3c0.5,0.1,1.1,0.1,1.6,0.1c0.6,0,1.1-0.1,1.6-0.2c0.5-0.1,0.8-0.2,1.2-0.4
			c0.3-0.2,0.6-0.5,0.9-0.8s0.5-0.8,0.7-1.4c0.2-0.6,0.2-1.1,0.2-1.7c0-0.8-0.2-1.6-0.5-2.2c-0.3-0.6-0.8-1.1-1.4-1.4
			c-0.6-0.3-1.5-0.5-2.6-0.5c-0.6,0-1.2,0-1.8,0.1c0,0.2,0,0.6,0,1.2l0,1v2.7l0,2.1C548.8,617.4,548.8,617.8,548.8,618.3z"/>
		<path d="M558.8,609.8v-0.4c0.2,0,0.5,0,0.8,0l1.4,0c0.3,0,0.7,0,1.3,0c0.7,0,1.2,0,1.3,0c0.9,0,1.6,0.1,2,0.2
			c0.4,0.2,0.7,0.4,1,0.8c0.2,0.3,0.3,0.7,0.3,1.1c0,0.4-0.1,0.8-0.3,1.1c-0.2,0.4-0.5,0.7-0.9,0.9c-0.4,0.3-0.9,0.4-1.6,0.6
			c0.1,0.2,0.4,0.5,0.8,1.1l1.8,2.3c0.5,0.6,0.8,1,0.9,1.1c0,0,0.1,0.1,0.1,0.1c0.1,0,0.2,0,0.5,0v0.4c-0.4,0-0.7,0-0.9,0
			c-0.3,0-0.6,0-1,0c-0.3-0.3-0.8-1-1.5-2c-0.4-0.6-0.8-1-1.1-1.4c-0.5-0.6-1-1.2-1.4-1.7l0.1-0.2c0.2,0,0.4,0,0.6,0
			c0.9,0,1.5-0.2,2-0.6c0.4-0.4,0.7-0.9,0.7-1.6c0-0.6-0.2-1-0.6-1.3c-0.4-0.3-1-0.5-1.7-0.5c-0.5,0-1,0.1-1.4,0.2
			c0,0.2,0,0.5,0,0.7c0,0.1,0,0.7,0,2v3c0,0.6,0,1.2,0,1.8c0,0.4,0,0.7,0.1,0.8s0.1,0.1,0.3,0.2s0.5,0.1,1,0.1v0.4
			c-0.7,0-1.3-0.1-1.9-0.1c-0.5,0-1.2,0-2.3,0.1v-0.4c0.6,0,0.9,0,1-0.1s0.2-0.1,0.3-0.2c0.1-0.1,0.1-0.3,0.1-0.7c0-0.1,0-0.7,0-1.9
			v-3.2c0-0.6,0-1.2,0-1.8c0-0.4,0-0.7-0.1-0.8c-0.1-0.1-0.1-0.1-0.3-0.2C559.7,609.8,559.3,609.8,558.8,609.8z"/>
		<path d="M569.9,619.1v-0.4c0.5,0,0.8,0,1-0.1c0.1,0,0.1-0.1,0.1-0.1c0-0.1,0.1-0.3,0.1-0.7c0-0.6,0-1.1,0-1.6v-3.5
			c0-0.6,0-1.2,0-1.8c0-0.4,0-0.7-0.1-0.8s-0.1-0.1-0.3-0.2c-0.1,0-0.5-0.1-1-0.1v-0.4l2,0l2.1,0c1,0,1.8,0,2.2,0
			c0.5,0,0.9,0,1.3,0.1c-0.1,0.3-0.1,0.5-0.2,0.7c0,0-0.1,0.5-0.1,1.4h-0.4c0-0.5,0-0.9-0.1-1.3c-0.3-0.1-0.5-0.2-0.9-0.2
			c-0.5-0.1-1.1-0.1-1.6-0.1c-0.1,0-0.4,0-0.8,0c-0.4,0-0.7,0-0.8,0c0,0.5,0,1,0,1.4l0,2.3c0.6,0,1.1,0,1.5,0c0.6,0,1,0,1.4-0.1
			c0.2,0,0.2-0.1,0.3-0.1c0-0.1,0.1-0.2,0.1-0.6l0-0.5h0.4v0.1l0,1.4l0,1.6h-0.5l0-0.5c0-0.3,0-0.5-0.1-0.6
			c-0.1-0.1-0.2-0.1-0.3-0.2c-0.3-0.1-0.8-0.1-1.6-0.1c-0.3,0-0.8,0-1.3,0c0,0.5,0,1.1,0,2c0,0.8,0,1.5,0,1.9c0.7,0,1.4,0.1,2.3,0.1
			c0.6,0,1,0,1.3-0.1c0.3,0,0.5-0.1,0.7-0.2c0.1-0.1,0.1-0.3,0.2-0.6c0.1-0.4,0.2-0.7,0.2-0.9h0.5c-0.1,0.9-0.2,1.7-0.2,2.3
			c-0.4,0.1-0.9,0.1-1.5,0.1l-4.2-0.1C571.7,619,571.1,619,569.9,619.1z"/>
		<path d="M579.7,619.1v-0.5c0.4,0,0.6,0,0.7,0s0.2-0.1,0.3-0.1s0.2-0.3,0.3-0.5c0.1-0.2,0.4-0.8,0.9-1.9l1.8-3.9
			c0.2-0.4,0.6-1.4,1.2-2.8h0.5l3,6.9c0.5,1.1,0.8,1.8,1,2.1c0.1,0.2,0.2,0.3,0.3,0.3c0.1,0,0.3,0.1,0.7,0.1v0.5
			c-0.7,0-1.3-0.1-1.5-0.1l-2.3,0.1v-0.5c0.5,0,0.9,0,1,0c0.1,0,0.2-0.1,0.2-0.1c0,0,0.1-0.1,0.1-0.2c0-0.1,0-0.2-0.1-0.4l-0.9-2.1
			h-4.1l-0.8,1.8c-0.1,0.3-0.2,0.5-0.2,0.7c0,0.1,0,0.1,0.1,0.2c0.1,0.1,0.1,0.1,0.2,0.1c0.2,0,0.5,0.1,0.9,0.1v0.5
			c-0.8,0-1.4-0.1-1.8-0.1C580.8,619,580.3,619,579.7,619.1z M583,615.2h3.6l-1.8-4.1L583,615.2z"/>
		<path d="M592.3,609.8v-0.4c0.5,0,1,0,1.4,0c0.5,0,0.9,0,1.3,0c0.4,0.9,0.8,1.7,1.1,2.4l2.7,5.3l2.4-4.9c0.7-1.3,1.1-2.3,1.3-2.8
			c0.5,0,0.9,0,1.3,0c0.3,0,0.8,0,1.5,0v0.4c-0.6,0-0.9,0-1,0.1s-0.2,0.1-0.3,0.2c-0.1,0.1-0.1,0.3-0.1,0.7c0,0.1,0,0.7,0,1.9v3.2
			c0,0.6,0,1.2,0,1.8c0,0.4,0,0.7,0.1,0.8s0.1,0.1,0.3,0.2s0.5,0.1,1,0.1v0.4c-1,0-1.6-0.1-2-0.1c-0.3,0-1,0-2.1,0.1v-0.4
			c0.6,0,0.9,0,1-0.1s0.2-0.1,0.2-0.2c0.1-0.1,0.1-0.3,0.1-0.7c0-0.1,0-0.7,0-1.9v-5l-2.5,4.9c-0.4,0.8-0.7,1.4-0.9,1.9
			c-0.2,0.3-0.4,0.9-0.7,1.6h-0.3c-0.1-0.2-0.1-0.3-0.2-0.4l-0.5-1l-3.4-6.8v4.8c0,0.6,0,1.2,0,1.8c0,0.4,0,0.7,0.1,0.8
			s0.1,0.1,0.3,0.2c0.1,0,0.5,0.1,1,0.1v0.4l-1.7-0.1l-1.8,0.1v-0.4c0.6,0,0.9,0,1-0.1s0.2-0.1,0.3-0.2c0.1-0.1,0.1-0.3,0.1-0.7
			c0-0.1,0-0.7,0-1.9v-3.2c0-0.6,0-1.2,0-1.8c0-0.4,0-0.7-0.1-0.8c-0.1-0.1-0.1-0.1-0.3-0.2C593.2,609.8,592.9,609.8,592.3,609.8z"
			/>
		<path d="M607.5,618.7c0.1-0.4,0.1-1.1,0.1-2.1h0.5c0,0.7,0.1,1.1,0.1,1.2c0.1,0.1,0.2,0.2,0.4,0.4c0.2,0.1,0.5,0.3,0.8,0.4
			c0.3,0.1,0.7,0.2,1,0.2c0.5,0,0.9-0.1,1.3-0.3c0.4-0.2,0.7-0.5,0.9-0.8c0.2-0.3,0.3-0.7,0.3-1.1c0-0.3,0-0.6-0.1-0.8
			c-0.1-0.2-0.2-0.4-0.4-0.5c-0.2-0.1-0.4-0.2-0.7-0.3c-0.2,0-0.5-0.1-1.1-0.1c-0.5-0.1-1-0.1-1.3-0.2c-0.5-0.1-0.9-0.3-1.1-0.5
			c-0.2-0.2-0.4-0.5-0.6-0.8c-0.1-0.3-0.2-0.7-0.2-1c0-0.5,0.1-1,0.4-1.5c0.3-0.5,0.7-0.8,1.3-1.1c0.6-0.3,1.2-0.4,1.9-0.4
			c0.4,0,0.8,0.1,1.3,0.2c0.5,0.1,0.9,0.3,1.3,0.5c-0.1,0.3-0.1,0.6-0.1,0.8s0,0.6-0.1,1.1H613c0-0.7,0-1.1-0.1-1.1
			c-0.1-0.2-0.3-0.3-0.5-0.4c-0.5-0.3-1-0.4-1.5-0.4c-0.7,0-1.2,0.2-1.6,0.6c-0.4,0.4-0.6,0.9-0.6,1.6c0,0.4,0.1,0.7,0.2,0.9
			c0.1,0.2,0.4,0.4,0.8,0.5c0.3,0.1,0.7,0.2,1.3,0.2c0.6,0.1,1.1,0.2,1.6,0.2c0.4,0.1,0.8,0.3,1,0.5c0.2,0.2,0.4,0.4,0.5,0.7
			s0.2,0.6,0.2,1c0,0.9-0.4,1.7-1.2,2.4c-0.8,0.7-1.8,1-3,1C609.1,619.3,608.2,619.1,607.5,618.7z"/>
		<path d="M620.4,619.1v-0.5c0.4,0,0.6,0,0.7,0s0.2-0.1,0.3-0.1s0.2-0.3,0.3-0.5c0.1-0.2,0.4-0.8,0.9-1.9l1.8-3.9
			c0.2-0.4,0.6-1.4,1.2-2.8h0.5l3,6.9c0.5,1.1,0.8,1.8,1,2.1c0.1,0.2,0.2,0.3,0.3,0.3c0.1,0,0.3,0.1,0.7,0.1v0.5
			c-0.7,0-1.3-0.1-1.5-0.1l-2.3,0.1v-0.5c0.5,0,0.9,0,1,0c0.1,0,0.2-0.1,0.2-0.1c0,0,0.1-0.1,0.1-0.2c0-0.1,0-0.2-0.1-0.4l-0.9-2.1
			h-4.1l-0.8,1.8c-0.1,0.3-0.2,0.5-0.2,0.7c0,0.1,0,0.1,0.1,0.2c0.1,0.1,0.1,0.1,0.2,0.1c0.2,0,0.5,0.1,0.9,0.1v0.5
			c-0.8,0-1.4-0.1-1.8-0.1C621.5,619,621,619,620.4,619.1z M623.7,615.2h3.6l-1.8-4.1L623.7,615.2z"/>
		<path d="M633.1,619.1v-0.4c0.5,0,0.8,0,1-0.1c0.1,0,0.1-0.1,0.1-0.1c0-0.1,0.1-0.3,0.1-0.7c0-0.6,0-1.1,0-1.6v-5.6
			c0-0.2,0-0.2,0-0.3c0-0.1-0.1-0.2-0.3-0.3c-0.1-0.1-0.2-0.1-0.3-0.1c-0.1,0-0.4,0-0.7,0v-0.4c0.8,0,1.3,0,1.5,0c0.3,0,0.7,0,1,0
			c0.4,0.5,0.7,0.9,0.9,1.1l1.5,1.7l2.1,2.5c0.7,0.8,1.2,1.4,1.7,1.9c0.3,0.3,0.5,0.5,0.7,0.7v-5c0-0.4,0-1,0-1.6
			c0-0.4,0-0.6-0.1-0.7c0-0.1-0.1-0.1-0.1-0.1c-0.2-0.1-0.5-0.1-1-0.1v-0.4c0.6,0,1.1,0,1.7,0c0.5,0,1,0,1.5,0v0.4
			c-0.5,0-0.8,0-1,0.1c-0.1,0-0.1,0.1-0.1,0.1c0,0.1-0.1,0.3-0.1,0.7c0,0.6,0,1.1,0,1.6v3.3c0,0.7,0,1.9,0,3.7l-0.7-0.2l-0.2,0
			c0,0-0.1,0-0.1,0c0,0-0.1-0.1-0.3-0.3c-0.4-0.4-0.7-0.8-0.9-1l-0.9-1.1l-5-5.8v5.2c0,0.4,0,1,0,1.6c0,0.4,0,0.6,0.1,0.7
			c0,0.1,0.1,0.1,0.1,0.1c0.2,0.1,0.5,0.1,1,0.1v0.4c-0.4,0-0.9,0-1.4,0C634.4,619,633.8,619,633.1,619.1z"/>
		<path d="M646.7,619.1v-0.3c0.3-0.2,0.5-0.3,0.7-0.4c0-0.3,0.1-0.7,0.1-1.3c0-0.9,0-1.6,0-2v-2.8c0-0.4,0-1,0-1.6
			c0-0.4-0.1-0.6-0.1-0.7c0-0.1-0.1-0.1-0.1-0.1c-0.2-0.1-0.5-0.1-1-0.1v-0.4c0.7,0,1.3,0,1.8,0c0.4,0,1,0,1.7,0c0.7,0,1.2,0,1.6,0
			c1.2,0,2.1,0.1,2.8,0.4c0.7,0.3,1.3,0.8,1.8,1.4s0.7,1.5,0.7,2.5c0,0.7-0.1,1.3-0.3,1.9c-0.2,0.6-0.5,1.1-0.9,1.6
			c-0.4,0.5-0.8,0.8-1.3,1.1c-0.5,0.3-0.9,0.5-1.4,0.6c-0.5,0.1-1.2,0.2-2.1,0.2c-0.3,0-0.7,0-1.2,0c-0.6,0-1.1,0-1.3,0
			C647.9,619,647.4,619,646.7,619.1z M648.9,618.3c0.5,0.1,1.1,0.1,1.6,0.1c0.6,0,1.1-0.1,1.6-0.2c0.5-0.1,0.8-0.2,1.2-0.4
			c0.3-0.2,0.6-0.5,0.9-0.8s0.5-0.8,0.7-1.4c0.2-0.6,0.2-1.1,0.2-1.7c0-0.8-0.2-1.6-0.5-2.2c-0.3-0.6-0.8-1.1-1.4-1.4
			c-0.6-0.3-1.5-0.5-2.6-0.5c-0.6,0-1.2,0-1.8,0.1c0,0.2,0,0.6,0,1.2l0,1v2.7l0,2.1C648.8,617.4,648.9,617.8,648.9,618.3z"/>
		<path d="M663.7,609.8v-0.4c0.2,0,0.5,0,0.8,0l1.4,0c0.3,0,0.7,0,1.3,0c0.7,0,1.2,0,1.3,0c0.9,0,1.6,0.1,2,0.2
			c0.4,0.2,0.7,0.4,1,0.8c0.2,0.3,0.3,0.7,0.3,1.1c0,0.4-0.1,0.8-0.3,1.1c-0.2,0.4-0.5,0.7-0.9,0.9c-0.4,0.3-0.9,0.4-1.6,0.6
			c0.1,0.2,0.4,0.5,0.8,1.1l1.8,2.3c0.5,0.6,0.8,1,0.9,1.1c0,0,0.1,0.1,0.1,0.1c0.1,0,0.2,0,0.5,0v0.4c-0.4,0-0.7,0-0.9,0
			c-0.3,0-0.6,0-1,0c-0.3-0.3-0.8-1-1.5-2c-0.4-0.6-0.8-1-1.1-1.4c-0.5-0.6-1-1.2-1.4-1.7l0.1-0.2c0.2,0,0.4,0,0.6,0
			c0.9,0,1.5-0.2,2-0.6c0.4-0.4,0.7-0.9,0.7-1.6c0-0.6-0.2-1-0.6-1.3c-0.4-0.3-1-0.5-1.7-0.5c-0.5,0-1,0.1-1.4,0.2
			c0,0.2,0,0.5,0,0.7c0,0.1,0,0.7,0,2v3c0,0.6,0,1.2,0,1.8c0,0.4,0,0.7,0.1,0.8s0.1,0.1,0.3,0.2s0.5,0.1,1,0.1v0.4
			c-0.7,0-1.3-0.1-1.9-0.1c-0.5,0-1.2,0-2.3,0.1v-0.4c0.6,0,0.9,0,1-0.1s0.2-0.1,0.3-0.2c0.1-0.1,0.1-0.3,0.1-0.7c0-0.1,0-0.7,0-1.9
			v-3.2c0-0.6,0-1.2,0-1.8c0-0.4,0-0.7-0.1-0.8c-0.1-0.1-0.1-0.1-0.3-0.2C664.6,609.8,664.3,609.8,663.7,609.8z"/>
		<path d="M674.8,619.1v-0.4c0.5,0,0.8,0,1-0.1c0.1,0,0.1-0.1,0.1-0.1c0-0.1,0.1-0.3,0.1-0.7c0-0.6,0-1.1,0-1.6v-3.5
			c0-0.6,0-1.2,0-1.8c0-0.4,0-0.7-0.1-0.8s-0.1-0.1-0.3-0.2c-0.1,0-0.5-0.1-1-0.1v-0.4l2,0l2.1,0c1,0,1.8,0,2.2,0
			c0.5,0,0.9,0,1.3,0.1c-0.1,0.3-0.1,0.5-0.2,0.7c0,0-0.1,0.5-0.1,1.4h-0.4c0-0.5,0-0.9-0.1-1.3c-0.3-0.1-0.5-0.2-0.9-0.2
			c-0.5-0.1-1.1-0.1-1.6-0.1c-0.1,0-0.4,0-0.8,0c-0.4,0-0.7,0-0.8,0c0,0.5,0,1,0,1.4l0,2.3c0.6,0,1.1,0,1.5,0c0.6,0,1,0,1.4-0.1
			c0.2,0,0.2-0.1,0.3-0.1c0-0.1,0.1-0.2,0.1-0.6l0-0.5h0.4v0.1l0,1.4l0,1.6h-0.5l0-0.5c0-0.3,0-0.5-0.1-0.6
			c-0.1-0.1-0.2-0.1-0.3-0.2c-0.3-0.1-0.8-0.1-1.6-0.1c-0.3,0-0.8,0-1.3,0c0,0.5,0,1.1,0,2c0,0.8,0,1.5,0,1.9c0.7,0,1.4,0.1,2.3,0.1
			c0.6,0,1,0,1.3-0.1c0.3,0,0.5-0.1,0.7-0.2c0.1-0.1,0.1-0.3,0.2-0.6c0.1-0.4,0.2-0.7,0.2-0.9h0.5c-0.1,0.9-0.2,1.7-0.2,2.3
			c-0.4,0.1-0.9,0.1-1.5,0.1l-4.2-0.1C676.6,619,676,619,674.8,619.1z"/>
		<path d="M684.7,619.1v-0.5c0.4,0,0.6,0,0.7,0s0.2-0.1,0.3-0.1s0.2-0.3,0.3-0.5c0.1-0.2,0.4-0.8,0.9-1.9l1.8-3.9
			c0.2-0.4,0.6-1.4,1.2-2.8h0.5l3,6.9c0.5,1.1,0.8,1.8,1,2.1c0.1,0.2,0.2,0.3,0.3,0.3c0.1,0,0.3,0.1,0.7,0.1v0.5
			c-0.7,0-1.3-0.1-1.5-0.1l-2.3,0.1v-0.5c0.5,0,0.9,0,1,0c0.1,0,0.2-0.1,0.2-0.1c0,0,0.1-0.1,0.1-0.2c0-0.1,0-0.2-0.1-0.4l-0.9-2.1
			h-4.1l-0.8,1.8c-0.1,0.3-0.2,0.5-0.2,0.7c0,0.1,0,0.1,0.1,0.2c0.1,0.1,0.1,0.1,0.2,0.1c0.2,0,0.5,0.1,0.9,0.1v0.5
			c-0.8,0-1.4-0.1-1.8-0.1C685.7,619,685.2,619,684.7,619.1z M688,615.2h3.6l-1.8-4.1L688,615.2z"/>
		<path d="M697.9,619.1v-0.4c0.3-0.1,0.5-0.2,0.6-0.3c0,0,0.1-0.1,0.1-0.2c0-0.1,0.1-0.4,0.1-0.8c0-0.6,0-1,0-1.1v-3.7
			c0-0.6,0-1.2,0-1.8c0-0.4,0-0.7-0.1-0.8s-0.1-0.1-0.3-0.2c-0.1,0-0.5-0.1-1-0.1v-0.4c1.2,0,1.9,0.1,2.1,0.1c0.3,0,1,0,2-0.1v0.4
			c-0.6,0-0.9,0-1,0.1c-0.1,0-0.2,0.1-0.3,0.2c-0.1,0.1-0.1,0.3-0.1,0.7c0,0.1,0,0.7,0,1.9v4.6c0,0.5,0,0.9,0,1.2c0.5,0,1.1,0,1.6,0
			c1.3,0,2.3-0.1,2.8-0.2c0.1-0.1,0.1-0.3,0.2-0.5l0.3-1.1h0.5c-0.1,0.7-0.2,1.5-0.3,2.4c-0.2,0-0.3,0.1-0.5,0.1c-0.2,0-0.6,0-1.1,0
			l-4.2-0.1C698.8,619,698.3,619,697.9,619.1z"/>
		<path d="M711.6,618.6v0.4c-1,0-1.7-0.1-2-0.1l-2.2,0.1v-0.4c0.6,0,0.9,0,1-0.1s0.2-0.1,0.3-0.2c0.1-0.1,0.1-0.3,0.1-0.7
			c0-0.1,0-0.7,0-1.9v-3.2c0-0.6,0-1.2,0-1.8c0-0.4,0-0.7-0.1-0.8s-0.1-0.1-0.3-0.2s-0.5-0.1-1-0.1v-0.4c0.9,0,1.6,0,2.1,0
			c0.5,0,1.2,0,2.1,0v0.4c-0.6,0-0.9,0-1,0.1s-0.2,0.1-0.3,0.2c-0.1,0.1-0.1,0.3-0.1,0.7c0,0.1,0,0.7,0,1.9v3.2c0,0.6,0,1.2,0,1.8
			c0,0.4,0,0.7,0.1,0.8s0.1,0.1,0.3,0.2S711,618.6,711.6,618.6z"/>
		<path d="M714,611.6h-0.4c0-1.1,0-1.8-0.1-2.3c0.5,0,1.3,0,2.4,0.1c0.9,0,1.5,0,1.8,0c0.3,0,1.1,0,2.2,0c0.8,0,1.5,0,1.9-0.1
			c-0.1,0.5-0.1,1.3-0.1,2.3h-0.5l-0.1-0.7c0-0.4-0.1-0.6-0.1-0.7c0-0.1,0-0.1-0.1-0.1c0,0-0.1,0-0.1-0.1c-0.1,0-0.3,0-0.7-0.1
			c-0.4,0-0.7,0-1,0h-0.9c0,0.4-0.1,1-0.1,1.8v4c0,0.6,0,1.2,0,1.8c0,0.4,0,0.7,0.1,0.8c0.1,0.1,0.1,0.1,0.3,0.2
			c0.1,0,0.5,0.1,1,0.1v0.4c-0.8,0-1.5-0.1-1.9-0.1c-0.2,0-0.9,0-2.2,0.1v-0.4c0.6,0,0.9,0,1-0.1s0.2-0.1,0.2-0.2
			c0.1-0.1,0.1-0.3,0.1-0.7c0-0.1,0-0.7,0-1.9v-4c0-0.2,0-0.4,0-0.6l0-1.2h-1.1c-0.6,0-1.1,0-1.5,0.1c-0.1,0-0.2,0-0.2,0.1
			c-0.1,0.1-0.1,0.3-0.1,0.7L714,611.6z"/>
		<path d="M723.5,610v-0.4l1.7-0.3c0.2,0.1,0.3,0.1,0.4,0.2c0.1,0.1,0.2,0.2,0.4,0.5c0.3,0.4,0.7,1,1.2,1.8c0.4,0.7,0.9,1.6,1.4,2.6
			c0.5-0.7,1-1.5,1.5-2.4l1.5-2.5h1.1v0.2c-0.3,0.3-0.7,0.9-1.4,1.8c-0.4,0.5-0.9,1.3-1.6,2.3c-0.4,0.6-0.6,1-0.7,1.2
			s-0.1,0.3-0.1,0.4v0.5c0,0.6,0,1.2,0,1.8c0,0.4,0,0.7,0.1,0.8c0.1,0.1,0.1,0.1,0.3,0.2c0.1,0,0.5,0.1,1,0.1v0.4
			c-0.8,0-1.4-0.1-2-0.1c-0.5,0-1.3,0-2.1,0.1v-0.4c0.6,0,0.9,0,1-0.1s0.2-0.1,0.2-0.2c0.1-0.1,0.1-0.3,0.1-0.7c0-0.1,0-0.7,0-1.9
			V615c-0.1-0.2-0.2-0.4-0.3-0.6c-0.1-0.1-0.3-0.5-0.7-1.2l-0.5-0.7c-0.4-0.6-0.6-1-0.8-1.2c-0.3-0.5-0.6-0.8-0.9-1
			c-0.1-0.1-0.3-0.2-0.4-0.2C724,610,723.8,610,723.5,610z"/>
	</g>
	<rect x="62.5" y="146.9" class="st6" width="1075" height="579.5"/>
	<g>
		<path d="M731.5,123.9H730v-5.7c-0.6,0.5-1.2,0.9-1.9,1.1V118c0.4-0.1,0.8-0.4,1.3-0.7c0.5-0.4,0.8-0.8,1-1.3h1.2V123.9z"/>
		<path d="M733.9,117.5v-1.4h5.2v1.1c-0.4,0.4-0.9,1-1.3,1.8s-0.8,1.6-1,2.5c-0.2,0.9-0.3,1.7-0.3,2.4H735c0-1.1,0.2-2.2,0.7-3.3
			c0.4-1.1,1-2.1,1.7-3H733.9z"/>
		<path d="M744.1,123.9h-1.5v-5.7c-0.6,0.5-1.2,0.9-2,1.1V118c0.4-0.1,0.8-0.4,1.3-0.7c0.5-0.4,0.8-0.8,1-1.3h1.2V123.9z"/>
		<path d="M749.7,123.9h-1.5v-5.7c-0.6,0.5-1.2,0.9-2,1.1V118c0.4-0.1,0.8-0.4,1.3-0.7c0.5-0.4,0.8-0.8,1-1.3h1.2V123.9z"/>
		<path d="M755.7,123.9V116h1.5l3.2,5.3V116h1.5v7.9h-1.6l-3.2-5.1v5.1H755.7z"/>
		<path d="M772.1,121l1.5,0.5c-0.2,0.9-0.6,1.5-1.2,1.9s-1.2,0.6-2.1,0.6c-1,0-1.9-0.4-2.6-1.1c-0.7-0.7-1-1.7-1-2.9
			c0-1.3,0.3-2.3,1-3.1c0.7-0.7,1.6-1.1,2.7-1.1c1,0,1.7,0.3,2.3,0.9c0.4,0.3,0.6,0.8,0.8,1.5l-1.6,0.4c-0.1-0.4-0.3-0.7-0.6-1
			c-0.3-0.2-0.7-0.4-1.1-0.4c-0.6,0-1.1,0.2-1.4,0.6c-0.4,0.4-0.5,1.1-0.5,2c0,1,0.2,1.7,0.5,2.1s0.8,0.6,1.4,0.6
			c0.4,0,0.8-0.1,1.1-0.4C771.7,122,771.9,121.6,772.1,121z"/>
		<path d="M776.6,116v2.9c0.5-0.6,1.1-0.9,1.7-0.9c0.3,0,0.7,0.1,0.9,0.2s0.5,0.3,0.6,0.5c0.1,0.2,0.2,0.4,0.3,0.7
			c0.1,0.2,0.1,0.6,0.1,1.1v3.3h-1.5v-3c0-0.6,0-1-0.1-1.1c-0.1-0.2-0.2-0.3-0.3-0.4s-0.3-0.1-0.5-0.1c-0.3,0-0.5,0.1-0.7,0.2
			c-0.2,0.1-0.3,0.3-0.4,0.6c-0.1,0.2-0.1,0.6-0.1,1.1v2.9h-1.5V116H776.6z"/>
		<path d="M783.1,119.9l-1.4-0.2c0.2-0.6,0.4-1,0.8-1.2s0.9-0.4,1.7-0.4c0.7,0,1.2,0.1,1.5,0.2s0.6,0.4,0.7,0.6
			c0.1,0.2,0.2,0.7,0.2,1.4l0,1.8c0,0.5,0,0.9,0.1,1.1c0,0.2,0.1,0.5,0.3,0.8h-1.5c0-0.1-0.1-0.2-0.1-0.4c0-0.1,0-0.1-0.1-0.2
			c-0.3,0.3-0.5,0.4-0.8,0.6c-0.3,0.1-0.6,0.2-0.9,0.2c-0.6,0-1-0.2-1.4-0.5c-0.3-0.3-0.5-0.7-0.5-1.2c0-0.3,0.1-0.6,0.2-0.9
			c0.2-0.3,0.4-0.4,0.6-0.6c0.3-0.1,0.7-0.3,1.2-0.4c0.7-0.1,1.2-0.3,1.5-0.4V120c0-0.3-0.1-0.5-0.2-0.6c-0.1-0.1-0.4-0.2-0.8-0.2
			c-0.3,0-0.5,0.1-0.6,0.2S783.2,119.7,783.1,119.9z M785.2,121.2c-0.2,0.1-0.5,0.1-0.9,0.2c-0.4,0.1-0.7,0.2-0.8,0.3
			c-0.2,0.1-0.3,0.3-0.3,0.5c0,0.2,0.1,0.4,0.2,0.5c0.2,0.2,0.4,0.2,0.6,0.2c0.3,0,0.5-0.1,0.8-0.3c0.2-0.1,0.3-0.3,0.4-0.5
			c0-0.1,0.1-0.4,0.1-0.7V121.2z"/>
		<path d="M789.7,123.9h-1.5v-5.7h1.4v0.8c0.2-0.4,0.5-0.6,0.6-0.8s0.4-0.2,0.7-0.2c0.3,0,0.7,0.1,1,0.3l-0.5,1.3
			c-0.3-0.2-0.5-0.2-0.7-0.2c-0.2,0-0.4,0.1-0.5,0.2c-0.1,0.1-0.3,0.3-0.3,0.6c-0.1,0.3-0.1,0.9-0.1,1.9V123.9z"/>
		<path d="M792.7,123.9V116h1.5v7.9H792.7z"/>
		<path d="M799.3,122.1l1.5,0.3c-0.2,0.6-0.5,1-0.9,1.3c-0.4,0.3-0.9,0.4-1.6,0.4c-1,0-1.7-0.3-2.2-1c-0.4-0.5-0.6-1.2-0.6-2
			c0-0.9,0.2-1.7,0.7-2.2s1.1-0.8,1.9-0.8c0.8,0,1.5,0.3,2,0.8c0.5,0.6,0.7,1.4,0.7,2.6h-3.8c0,0.4,0.1,0.8,0.4,1s0.5,0.4,0.9,0.4
			c0.2,0,0.4-0.1,0.6-0.2C799.1,122.6,799.2,122.4,799.3,122.1z M799.4,120.6c0-0.4-0.1-0.8-0.3-1s-0.5-0.3-0.8-0.3
			c-0.3,0-0.6,0.1-0.8,0.4s-0.3,0.6-0.3,1H799.4z"/>
		<path d="M801.7,122.3l1.5-0.2c0.1,0.3,0.2,0.5,0.4,0.7c0.2,0.2,0.5,0.2,0.8,0.2c0.4,0,0.7-0.1,0.9-0.2c0.1-0.1,0.2-0.2,0.2-0.4
			c0-0.1,0-0.2-0.1-0.3c-0.1-0.1-0.2-0.1-0.5-0.2c-1.2-0.3-2-0.5-2.3-0.7c-0.5-0.3-0.7-0.7-0.7-1.3c0-0.5,0.2-0.9,0.6-1.2
			s1-0.5,1.8-0.5c0.8,0,1.4,0.1,1.7,0.4c0.4,0.3,0.6,0.6,0.8,1.1l-1.4,0.3c-0.1-0.2-0.2-0.4-0.3-0.5c-0.2-0.1-0.4-0.2-0.7-0.2
			c-0.4,0-0.7,0.1-0.9,0.2c-0.1,0.1-0.2,0.2-0.2,0.3c0,0.1,0.1,0.2,0.2,0.3c0.1,0.1,0.6,0.2,1.4,0.4c0.8,0.2,1.4,0.4,1.7,0.7
			c0.3,0.3,0.5,0.6,0.5,1.1c0,0.5-0.2,1-0.7,1.3c-0.4,0.4-1.1,0.6-1.9,0.6c-0.8,0-1.4-0.2-1.8-0.5S801.9,122.8,801.7,122.3z"/>
		<path d="M811.4,121.3l1.5-0.2c0.1,0.5,0.3,0.9,0.6,1.1c0.3,0.2,0.7,0.4,1.2,0.4c0.5,0,0.9-0.1,1.2-0.3s0.4-0.5,0.4-0.8
			c0-0.2-0.1-0.3-0.2-0.5c-0.1-0.1-0.3-0.2-0.6-0.3c-0.2-0.1-0.6-0.2-1.3-0.3c-0.9-0.2-1.5-0.5-1.8-0.8c-0.5-0.4-0.7-1-0.7-1.6
			c0-0.4,0.1-0.8,0.3-1.1c0.2-0.3,0.6-0.6,1-0.8s0.9-0.3,1.5-0.3c1,0,1.7,0.2,2.2,0.6c0.5,0.4,0.8,1,0.8,1.7l-1.6,0.1
			c-0.1-0.4-0.2-0.7-0.4-0.9c-0.2-0.2-0.6-0.3-1-0.3c-0.5,0-0.8,0.1-1.1,0.3c-0.2,0.1-0.3,0.3-0.3,0.5c0,0.2,0.1,0.3,0.2,0.5
			c0.2,0.2,0.7,0.3,1.5,0.5c0.8,0.2,1.3,0.4,1.7,0.6c0.4,0.2,0.7,0.5,0.9,0.8c0.2,0.3,0.3,0.8,0.3,1.3c0,0.5-0.1,0.9-0.4,1.3
			c-0.2,0.4-0.6,0.7-1.1,0.9s-1,0.3-1.7,0.3c-1,0-1.8-0.2-2.3-0.7S811.5,122.2,811.4,121.3z"/>
		<path d="M821.9,118.2v1.2h-1v2.3c0,0.5,0,0.7,0,0.8c0,0.1,0.1,0.1,0.1,0.2c0.1,0,0.2,0.1,0.3,0.1c0.1,0,0.3,0,0.6-0.1l0.1,1.2
			c-0.4,0.2-0.7,0.2-1.2,0.2c-0.3,0-0.5,0-0.7-0.1c-0.2-0.1-0.4-0.2-0.5-0.4c-0.1-0.1-0.2-0.3-0.2-0.6c0-0.2,0-0.5,0-1.1v-2.5h-0.7
			v-1.2h0.7v-1.1l1.5-0.9v2H821.9z"/>
	</g>
	<g>
		<path d="M848,116h3.1c0.6,0,1.1,0,1.4,0.1c0.3,0.1,0.6,0.2,0.8,0.3c0.2,0.2,0.4,0.4,0.6,0.7c0.2,0.3,0.2,0.6,0.2,0.9
			c0,0.4-0.1,0.7-0.3,1c-0.2,0.3-0.5,0.5-0.8,0.7c0.5,0.1,0.8,0.4,1.1,0.7s0.4,0.7,0.4,1.2c0,0.4-0.1,0.7-0.2,1
			c-0.2,0.3-0.4,0.6-0.7,0.8s-0.6,0.3-1.1,0.4c-0.3,0-0.9,0-1.9,0.1H848V116z M849.6,117.3v1.8h1c0.6,0,1,0,1.2,0
			c0.3,0,0.5-0.1,0.6-0.3c0.2-0.2,0.2-0.4,0.2-0.6c0-0.2-0.1-0.4-0.2-0.6c-0.1-0.2-0.3-0.2-0.6-0.3c-0.2,0-0.6,0-1.4,0H849.6z
			 M849.6,120.5v2.1h1.5c0.6,0,0.9,0,1.1,0c0.2,0,0.4-0.1,0.6-0.3c0.1-0.2,0.2-0.4,0.2-0.7c0-0.2-0.1-0.4-0.2-0.6
			c-0.1-0.2-0.3-0.3-0.5-0.4s-0.7-0.1-1.4-0.1H849.6z"/>
		<path d="M857.2,119.9l-1.4-0.2c0.2-0.6,0.4-1,0.8-1.2s0.9-0.4,1.7-0.4c0.7,0,1.2,0.1,1.5,0.2s0.6,0.4,0.7,0.6
			c0.1,0.2,0.2,0.7,0.2,1.4l0,1.8c0,0.5,0,0.9,0.1,1.1c0,0.2,0.1,0.5,0.3,0.8h-1.5c0-0.1-0.1-0.2-0.1-0.4c0-0.1,0-0.1-0.1-0.2
			c-0.3,0.3-0.5,0.4-0.8,0.6c-0.3,0.1-0.6,0.2-0.9,0.2c-0.6,0-1-0.2-1.4-0.5c-0.3-0.3-0.5-0.7-0.5-1.2c0-0.3,0.1-0.6,0.2-0.9
			c0.2-0.3,0.4-0.4,0.6-0.6c0.3-0.1,0.7-0.3,1.2-0.4c0.7-0.1,1.2-0.3,1.5-0.4V120c0-0.3-0.1-0.5-0.2-0.6c-0.1-0.1-0.4-0.2-0.8-0.2
			c-0.3,0-0.5,0.1-0.6,0.2S857.3,119.7,857.2,119.9z M859.2,121.2c-0.2,0.1-0.5,0.1-0.9,0.2c-0.4,0.1-0.7,0.2-0.8,0.3
			c-0.2,0.1-0.3,0.3-0.3,0.5c0,0.2,0.1,0.4,0.2,0.5c0.2,0.2,0.4,0.2,0.6,0.2c0.3,0,0.5-0.1,0.8-0.3c0.2-0.1,0.3-0.3,0.4-0.5
			c0-0.1,0.1-0.4,0.1-0.7V121.2z"/>
		<path d="M862.3,123.9V116h1.5v7.9H862.3z"/>
		<path d="M868.2,118.2v1.2h-1v2.3c0,0.5,0,0.7,0,0.8s0.1,0.1,0.1,0.2c0.1,0,0.2,0.1,0.3,0.1c0.1,0,0.3,0,0.6-0.1l0.1,1.2
			c-0.4,0.2-0.7,0.2-1.2,0.2c-0.3,0-0.5,0-0.7-0.1c-0.2-0.1-0.4-0.2-0.5-0.4c-0.1-0.1-0.2-0.3-0.2-0.6c0-0.2,0-0.5,0-1.1v-2.5h-0.7
			v-1.2h0.7v-1.1l1.5-0.9v2H868.2z"/>
		<path d="M869.4,117.4V116h1.5v1.4H869.4z M869.4,123.9v-5.7h1.5v5.7H869.4z"/>
		<path d="M872.5,118.2h1.4v0.8c0.5-0.6,1.1-0.9,1.8-0.9c0.4,0,0.7,0.1,1,0.2c0.3,0.2,0.5,0.4,0.7,0.7c0.3-0.3,0.5-0.5,0.8-0.7
			c0.3-0.2,0.6-0.2,0.9-0.2c0.4,0,0.8,0.1,1.1,0.3s0.5,0.4,0.6,0.8c0.1,0.2,0.2,0.6,0.2,1.2v3.6h-1.5v-3.3c0-0.6-0.1-0.9-0.2-1.1
			c-0.1-0.2-0.4-0.3-0.6-0.3c-0.2,0-0.4,0.1-0.6,0.2c-0.2,0.1-0.3,0.3-0.4,0.6s-0.1,0.6-0.1,1.2v2.7h-1.5v-3.1c0-0.6,0-0.9-0.1-1.1
			c-0.1-0.2-0.1-0.3-0.2-0.4c-0.1-0.1-0.3-0.1-0.5-0.1c-0.2,0-0.4,0.1-0.6,0.2s-0.3,0.3-0.4,0.5c-0.1,0.2-0.1,0.6-0.1,1.2v2.8h-1.5
			V118.2z"/>
		<path d="M882.2,121c0-0.5,0.1-1,0.4-1.5c0.2-0.5,0.6-0.8,1.1-1.1c0.5-0.2,1-0.4,1.5-0.4c0.9,0,1.6,0.3,2.1,0.8s0.8,1.3,0.8,2.1
			c0,0.9-0.3,1.6-0.8,2.1s-1.3,0.9-2.1,0.9c-0.5,0-1-0.1-1.5-0.4s-0.8-0.6-1.1-1C882.3,122.2,882.2,121.6,882.2,121z M883.8,121
			c0,0.6,0.1,1,0.4,1.3c0.3,0.3,0.6,0.5,1,0.5s0.7-0.2,1-0.5s0.4-0.7,0.4-1.3c0-0.6-0.1-1-0.4-1.3s-0.6-0.5-1-0.5s-0.7,0.2-1,0.5
			C883.9,120,883.8,120.5,883.8,121z"/>
		<path d="M890.9,123.9h-1.5v-5.7h1.4v0.8c0.2-0.4,0.5-0.6,0.6-0.8s0.4-0.2,0.7-0.2c0.3,0,0.7,0.1,1,0.3l-0.5,1.3
			c-0.3-0.2-0.5-0.2-0.7-0.2c-0.2,0-0.4,0.1-0.5,0.2s-0.3,0.3-0.3,0.6s-0.1,0.9-0.1,1.9V123.9z"/>
		<path d="M897.2,122.1l1.5,0.3c-0.2,0.6-0.5,1-0.9,1.3s-0.9,0.4-1.6,0.4c-1,0-1.7-0.3-2.2-1c-0.4-0.5-0.6-1.2-0.6-2
			c0-0.9,0.2-1.7,0.7-2.2s1.1-0.8,1.9-0.8c0.8,0,1.5,0.3,2,0.8s0.7,1.4,0.7,2.6H895c0,0.4,0.1,0.8,0.4,1c0.2,0.2,0.5,0.4,0.9,0.4
			c0.2,0,0.4-0.1,0.6-0.2S897.1,122.4,897.2,122.1z M897.3,120.6c0-0.4-0.1-0.8-0.3-1s-0.5-0.3-0.8-0.3c-0.3,0-0.6,0.1-0.8,0.4
			s-0.3,0.6-0.3,1H897.3z"/>
		<path d="M900.1,122.4h1.5v1.1c0,0.4,0,0.8-0.1,1c-0.1,0.3-0.2,0.5-0.4,0.7c-0.2,0.2-0.5,0.4-0.8,0.5L900,125
			c0.3-0.1,0.5-0.2,0.6-0.4s0.2-0.4,0.2-0.7h-0.7V122.4z"/>
		<path d="M906.6,123.9V116h2.4l1.4,5.4l1.4-5.4h2.4v7.9h-1.5v-6.2l-1.6,6.2h-1.5l-1.6-6.2v6.2H906.6z"/>
		<path d="M915.9,116h2.9c0.7,0,1.2,0,1.5,0.2c0.5,0.1,0.9,0.4,1.2,0.7c0.3,0.3,0.6,0.8,0.8,1.3s0.3,1.1,0.3,1.9
			c0,0.6-0.1,1.2-0.2,1.7c-0.2,0.6-0.5,1-0.8,1.4c-0.3,0.3-0.6,0.5-1.1,0.6c-0.4,0.1-0.8,0.2-1.4,0.2h-3V116z M917.5,117.4v5.2h1.2
			c0.4,0,0.8,0,1-0.1c0.3-0.1,0.5-0.2,0.6-0.3s0.3-0.4,0.4-0.8s0.2-0.8,0.2-1.4s-0.1-1.1-0.2-1.4c-0.1-0.3-0.3-0.6-0.5-0.8
			c-0.2-0.2-0.4-0.3-0.7-0.4c-0.2,0-0.7-0.1-1.3-0.1H917.5z"/>
		<path d="M932,122.5v1.4h-5.3c0.1-0.5,0.2-1,0.5-1.5c0.3-0.5,0.9-1.1,1.7-1.9c0.7-0.6,1.1-1.1,1.3-1.3c0.2-0.3,0.3-0.6,0.3-0.9
			c0-0.3-0.1-0.6-0.3-0.8s-0.4-0.3-0.7-0.3c-0.3,0-0.6,0.1-0.8,0.3s-0.3,0.5-0.3,0.9l-1.5-0.2c0.1-0.8,0.4-1.4,0.8-1.8
			c0.5-0.4,1.1-0.5,1.8-0.5c0.8,0,1.4,0.2,1.8,0.6c0.4,0.4,0.7,0.9,0.7,1.6c0,0.4-0.1,0.7-0.2,1s-0.3,0.7-0.6,1
			c-0.2,0.2-0.5,0.6-1,1c-0.5,0.4-0.8,0.7-0.9,0.9c-0.1,0.1-0.2,0.3-0.3,0.4H932z"/>
		<path d="M937.1,123.9h-1.5v-5.7c-0.6,0.5-1.2,0.9-2,1.1V118c0.4-0.1,0.8-0.4,1.3-0.7c0.5-0.4,0.8-0.8,1-1.3h1.2V123.9z"/>
		<path d="M944.6,122.5v1.4h-5.3c0.1-0.5,0.2-1,0.5-1.5c0.3-0.5,0.9-1.1,1.7-1.9c0.7-0.6,1.1-1.1,1.3-1.3c0.2-0.3,0.3-0.6,0.3-0.9
			c0-0.3-0.1-0.6-0.3-0.8s-0.4-0.3-0.7-0.3c-0.3,0-0.6,0.1-0.8,0.3s-0.3,0.5-0.3,0.9l-1.5-0.2c0.1-0.8,0.4-1.4,0.8-1.8
			c0.5-0.4,1.1-0.5,1.8-0.5c0.8,0,1.4,0.2,1.8,0.6c0.4,0.4,0.7,0.9,0.7,1.6c0,0.4-0.1,0.7-0.2,1s-0.3,0.7-0.6,1
			c-0.2,0.2-0.5,0.6-1,1c-0.5,0.4-0.8,0.7-0.9,0.9c-0.1,0.1-0.2,0.3-0.3,0.4H944.6z"/>
		<path d="M948.3,116c0.8,0,1.4,0.3,1.8,0.8c0.5,0.6,0.8,1.7,0.8,3.2c0,1.5-0.3,2.6-0.8,3.2c-0.4,0.5-1,0.8-1.8,0.8
			c-0.8,0-1.4-0.3-1.9-0.9c-0.5-0.6-0.7-1.6-0.7-3.2c0-1.5,0.3-2.5,0.8-3.2C947,116.3,947.6,116,948.3,116z M948.3,117.2
			c-0.2,0-0.3,0.1-0.5,0.2c-0.1,0.1-0.3,0.3-0.3,0.6c-0.1,0.4-0.2,1-0.2,2s0,1.6,0.1,1.9s0.2,0.6,0.4,0.7s0.3,0.2,0.5,0.2
			s0.3-0.1,0.5-0.2c0.1-0.1,0.3-0.3,0.3-0.6c0.1-0.4,0.2-1,0.2-2s0-1.6-0.1-1.9s-0.2-0.6-0.4-0.7S948.5,117.2,948.3,117.2z"/>
		<path d="M955.9,123.9h-1.5v-5.7c-0.6,0.5-1.2,0.9-2,1.1V118c0.4-0.1,0.8-0.4,1.3-0.7c0.5-0.4,0.8-0.8,1-1.3h1.2V123.9z"/>
	</g>
	<g>
		<path d="M1002.7,118.8l2-0.2c0.1,0.8,0.3,1.4,0.6,1.9c0.3,0.5,0.9,0.9,1.6,1.2c0.7,0.3,1.5,0.5,2.4,0.5c0.8,0,1.5-0.1,2.1-0.4
			c0.6-0.2,1.1-0.6,1.4-1c0.3-0.4,0.4-0.9,0.4-1.3c0-0.5-0.1-0.9-0.4-1.3c-0.3-0.4-0.8-0.7-1.4-0.9c-0.4-0.2-1.4-0.4-2.8-0.8
			c-1.4-0.3-2.5-0.7-3-1c-0.8-0.4-1.3-0.9-1.7-1.5c-0.4-0.6-0.6-1.2-0.6-2c0-0.8,0.2-1.5,0.7-2.2c0.5-0.7,1.1-1.2,2-1.6
			s1.8-0.5,2.9-0.5c1.2,0,2.2,0.2,3.1,0.6c0.9,0.4,1.6,0.9,2.1,1.7s0.7,1.6,0.8,2.5l-2,0.2c-0.1-1-0.5-1.7-1.1-2.3s-1.5-0.8-2.7-0.8
			c-1.3,0-2.2,0.2-2.8,0.7c-0.6,0.5-0.9,1-0.9,1.7c0,0.6,0.2,1,0.6,1.4c0.4,0.4,1.4,0.7,3.1,1.1c1.7,0.4,2.9,0.7,3.5,1
			c0.9,0.4,1.6,1,2,1.6c0.4,0.6,0.7,1.4,0.7,2.2c0,0.8-0.2,1.6-0.7,2.4c-0.5,0.7-1.2,1.3-2.1,1.7c-0.9,0.4-1.9,0.6-3,0.6
			c-1.4,0-2.6-0.2-3.6-0.6s-1.7-1-2.3-1.9C1003,120.8,1002.7,119.9,1002.7,118.8z"/>
		<path d="M1029.3,118.4l2.1,0.5c-0.4,1.7-1.2,3-2.4,3.9c-1.1,0.9-2.5,1.3-4.2,1.3c-1.7,0-3.1-0.3-4.1-1c-1.1-0.7-1.9-1.7-2.4-3
			s-0.8-2.7-0.8-4.2c0-1.6,0.3-3.1,0.9-4.3c0.6-1.2,1.5-2.1,2.7-2.8c1.2-0.6,2.4-1,3.8-1c1.6,0,2.9,0.4,4,1.2s1.8,1.9,2.2,3.4
			l-2.1,0.5c-0.4-1.1-0.9-2-1.6-2.5c-0.7-0.5-1.6-0.8-2.6-0.8c-1.2,0-2.2,0.3-3,0.9s-1.4,1.4-1.7,2.3c-0.3,1-0.5,2-0.5,3
			c0,1.3,0.2,2.5,0.6,3.5c0.4,1,1,1.7,1.8,2.2c0.8,0.5,1.7,0.7,2.7,0.7c1.2,0,2.2-0.3,3-1S1029,119.7,1029.3,118.4z"/>
		<path d="M1034,123.9v-15.7h7c1.4,0,2.5,0.1,3.2,0.4c0.7,0.3,1.3,0.8,1.8,1.5s0.7,1.5,0.7,2.4c0,1.1-0.4,2.1-1.1,2.8
			s-1.8,1.3-3.4,1.5c0.6,0.3,1,0.5,1.3,0.8c0.6,0.6,1.2,1.3,1.7,2.1l2.7,4.3h-2.6l-2.1-3.3c-0.6-0.9-1.1-1.7-1.5-2.2
			c-0.4-0.5-0.7-0.9-1.1-1.1c-0.3-0.2-0.6-0.3-1-0.4c-0.2,0-0.6-0.1-1.2-0.1h-2.4v7H1034z M1036.1,115.1h4.5c1,0,1.7-0.1,2.2-0.3
			c0.5-0.2,0.9-0.5,1.2-0.9c0.3-0.4,0.4-0.9,0.4-1.4c0-0.7-0.3-1.4-0.8-1.8c-0.5-0.5-1.4-0.7-2.6-0.7h-5V115.1z"/>
		<path d="M1049.9,123.9v-15.7h11.4v1.9h-9.3v4.8h8.7v1.8h-8.7v5.4h9.7v1.9H1049.9z"/>
		<path d="M1064.6,123.9v-15.7h11.4v1.9h-9.3v4.8h8.7v1.8h-8.7v5.4h9.7v1.9H1064.6z"/>
		<path d="M1079.2,123.9v-15.7h2.1l8.3,12.4v-12.4h2v15.7h-2.1l-8.3-12.4v12.4H1079.2z"/>
		<path d="M1095.4,123.9v-15.7h2.1v15.7H1095.4z"/>
		<path d="M1101.2,123.9v-15.7h2.1l8.3,12.4v-12.4h2v15.7h-2.1l-8.3-12.4v12.4H1101.2z"/>
		<path d="M1124.4,117.7v-1.8l6.7,0v5.8c-1,0.8-2.1,1.4-3.2,1.8c-1.1,0.4-2.2,0.6-3.4,0.6c-1.5,0-3-0.3-4.2-1
			c-1.3-0.7-2.2-1.6-2.9-2.9s-1-2.7-1-4.2c0-1.5,0.3-3,1-4.3c0.6-1.3,1.6-2.3,2.8-3s2.6-1,4.2-1c1.1,0,2.2,0.2,3.1,0.6
			c0.9,0.4,1.6,0.9,2.2,1.5s0.9,1.5,1.2,2.6l-1.9,0.5c-0.2-0.8-0.5-1.4-0.9-1.9s-0.9-0.8-1.5-1.1c-0.7-0.3-1.4-0.4-2.2-0.4
			c-1,0-1.8,0.1-2.5,0.4c-0.7,0.3-1.3,0.7-1.7,1.1c-0.4,0.5-0.8,1-1,1.6c-0.4,1-0.6,2-0.6,3.2c0,1.4,0.2,2.6,0.7,3.5
			c0.5,0.9,1.2,1.6,2.1,2.1s1.9,0.7,2.9,0.7c0.9,0,1.8-0.2,2.6-0.5c0.9-0.3,1.5-0.7,2-1.1v-2.9H1124.4z"/>
		<path d="M988.6,142.4c-0.6-0.7-1.1-1.6-1.5-2.6s-0.6-2-0.6-3.1c0-0.9,0.2-1.8,0.5-2.7c0.4-1,0.9-2,1.6-3h0.8
			c-0.5,0.8-0.8,1.4-0.9,1.7c-0.2,0.5-0.4,1.1-0.6,1.7c-0.2,0.7-0.3,1.5-0.3,2.2c0,1.9,0.6,3.8,1.8,5.6H988.6z"/>
		<path d="M990.7,139.9v-8.6h1.7l2,6.1c0.2,0.6,0.3,1,0.4,1.3c0.1-0.3,0.2-0.8,0.5-1.4l2.1-6h1.5v8.6h-1.1v-7.2l-2.5,7.2h-1
			l-2.5-7.3v7.3H990.7z"/>
		<path d="M1004.6,139.1c-0.4,0.3-0.8,0.6-1.1,0.7s-0.7,0.2-1.2,0.2c-0.7,0-1.2-0.2-1.6-0.5s-0.6-0.8-0.6-1.3c0-0.3,0.1-0.6,0.2-0.8
			s0.3-0.5,0.5-0.6s0.5-0.3,0.8-0.3c0.2-0.1,0.5-0.1,0.9-0.2c0.9-0.1,1.5-0.2,1.9-0.4c0-0.1,0-0.2,0-0.3c0-0.4-0.1-0.7-0.3-0.9
			c-0.3-0.2-0.7-0.4-1.2-0.4c-0.5,0-0.9,0.1-1.1,0.3s-0.4,0.5-0.5,0.9l-1-0.1c0.1-0.4,0.2-0.8,0.5-1.1s0.5-0.5,0.9-0.6
			s0.9-0.2,1.4-0.2c0.5,0,1,0.1,1.3,0.2s0.6,0.3,0.7,0.5s0.3,0.4,0.3,0.7c0,0.2,0.1,0.5,0.1,1v1.4c0,1,0,1.6,0.1,1.9
			s0.1,0.5,0.3,0.7h-1.1C1004.7,139.7,1004.6,139.4,1004.6,139.1z M1004.5,136.8c-0.4,0.2-1,0.3-1.7,0.4c-0.4,0.1-0.7,0.1-0.9,0.2
			s-0.3,0.2-0.4,0.3s-0.1,0.3-0.1,0.5c0,0.3,0.1,0.5,0.3,0.7s0.5,0.3,0.9,0.3c0.4,0,0.8-0.1,1.1-0.3s0.5-0.4,0.7-0.7
			c0.1-0.2,0.2-0.6,0.2-1.1V136.8z"/>
		<path d="M1007.2,139.9v-6.2h0.9v0.9c0.2-0.4,0.5-0.7,0.7-0.9s0.4-0.2,0.7-0.2c0.4,0,0.7,0.1,1.1,0.3l-0.4,1
			c-0.3-0.2-0.5-0.2-0.8-0.2c-0.2,0-0.4,0.1-0.6,0.2s-0.3,0.3-0.4,0.6c-0.1,0.4-0.2,0.8-0.2,1.2v3.3H1007.2z"/>
		<path d="M1015.3,137.6l1,0.1c-0.1,0.7-0.4,1.3-0.9,1.7s-1,0.6-1.7,0.6c-0.9,0-1.5-0.3-2.1-0.8s-0.8-1.4-0.8-2.4
			c0-0.7,0.1-1.3,0.3-1.8s0.6-0.9,1-1.1s1-0.4,1.5-0.4c0.7,0,1.2,0.2,1.7,0.5s0.7,0.8,0.8,1.5l-1,0.2c-0.1-0.4-0.3-0.7-0.5-0.9
			s-0.5-0.3-0.9-0.3c-0.5,0-1,0.2-1.3,0.6s-0.5,1-0.5,1.8c0,0.8,0.2,1.4,0.5,1.8s0.7,0.6,1.3,0.6c0.4,0,0.8-0.1,1-0.4
			S1015.2,138.1,1015.3,137.6z"/>
		<path d="M1017.2,139.9v-8.6h1.1v3.1c0.5-0.6,1.1-0.9,1.9-0.9c0.5,0,0.9,0.1,1.2,0.3s0.6,0.4,0.7,0.8s0.2,0.8,0.2,1.4v3.9h-1.1V136
			c0-0.5-0.1-0.9-0.3-1.2s-0.6-0.4-1-0.4c-0.3,0-0.6,0.1-0.9,0.2s-0.5,0.4-0.6,0.7s-0.2,0.7-0.2,1.1v3.4H1017.2z"/>
		<path d="M1030.9,139.9h-1.1v-6.7c-0.3,0.2-0.6,0.5-1,0.7s-0.8,0.4-1.1,0.5v-1c0.6-0.3,1.1-0.6,1.5-1s0.8-0.8,0.9-1.1h0.7V139.9z"
			/>
		<path d="M1033.6,135.7c0-1,0.1-1.8,0.3-2.5s0.5-1.1,0.9-1.4s0.9-0.5,1.6-0.5c0.5,0,0.9,0.1,1.2,0.3s0.6,0.5,0.9,0.8
			s0.4,0.8,0.5,1.3s0.2,1.2,0.2,2c0,1-0.1,1.8-0.3,2.4s-0.5,1.1-0.9,1.4s-0.9,0.5-1.6,0.5c-0.8,0-1.5-0.3-2-0.9
			C1033.9,138.4,1033.6,137.3,1033.6,135.7z M1034.7,135.7c0,1.4,0.2,2.3,0.5,2.8s0.7,0.7,1.2,0.7s0.9-0.2,1.2-0.7s0.5-1.4,0.5-2.8
			c0-1.4-0.2-2.4-0.5-2.8s-0.7-0.7-1.2-0.7c-0.5,0-0.9,0.2-1.2,0.6C1034.9,133.3,1034.7,134.3,1034.7,135.7z"/>
		<path d="M1042.9,139l0.2,0.9c-0.3,0.1-0.6,0.1-0.8,0.1c-0.4,0-0.7-0.1-0.9-0.2s-0.4-0.3-0.4-0.5s-0.1-0.6-0.1-1.2v-3.6h-0.8v-0.8
			h0.8v-1.5l1-0.6v2.2h1.1v0.8h-1.1v3.6c0,0.3,0,0.5,0.1,0.6s0.1,0.2,0.2,0.2s0.2,0.1,0.4,0.1C1042.5,139,1042.7,139,1042.9,139z"/>
		<path d="M1043.9,139.9v-8.6h1.1v3.1c0.5-0.6,1.1-0.9,1.9-0.9c0.5,0,0.9,0.1,1.2,0.3s0.6,0.4,0.7,0.8s0.2,0.8,0.2,1.4v3.9h-1.1V136
			c0-0.5-0.1-0.9-0.3-1.2s-0.6-0.4-1-0.4c-0.3,0-0.6,0.1-0.9,0.2s-0.5,0.4-0.6,0.7s-0.2,0.7-0.2,1.1v3.4H1043.9z"/>
		<path d="M1053.1,137.2v-0.8h12v0.8H1053.1z"/>
		<path d="M1069.4,139.9v-8.6h1.7l2,6.1c0.2,0.6,0.3,1,0.4,1.3c0.1-0.3,0.2-0.8,0.5-1.4l2.1-6h1.5v8.6h-1.1v-7.2l-2.5,7.2h-1
			l-2.5-7.3v7.3H1069.4z"/>
		<path d="M1083.3,139.1c-0.4,0.3-0.8,0.6-1.1,0.7s-0.7,0.2-1.2,0.2c-0.7,0-1.2-0.2-1.6-0.5s-0.6-0.8-0.6-1.3c0-0.3,0.1-0.6,0.2-0.8
			s0.3-0.5,0.5-0.6s0.5-0.3,0.8-0.3c0.2-0.1,0.5-0.1,0.9-0.2c0.9-0.1,1.5-0.2,1.9-0.4c0-0.1,0-0.2,0-0.3c0-0.4-0.1-0.7-0.3-0.9
			c-0.3-0.2-0.7-0.4-1.2-0.4c-0.5,0-0.9,0.1-1.1,0.3s-0.4,0.5-0.5,0.9l-1-0.1c0.1-0.4,0.2-0.8,0.5-1.1s0.5-0.5,0.9-0.6
			s0.9-0.2,1.4-0.2c0.5,0,1,0.1,1.3,0.2s0.6,0.3,0.7,0.5s0.3,0.4,0.3,0.7c0,0.2,0.1,0.5,0.1,1v1.4c0,1,0,1.6,0.1,1.9
			s0.1,0.5,0.3,0.7h-1.1C1083.4,139.7,1083.3,139.4,1083.3,139.1z M1083.2,136.8c-0.4,0.2-1,0.3-1.7,0.4c-0.4,0.1-0.7,0.1-0.9,0.2
			s-0.3,0.2-0.4,0.3s-0.1,0.3-0.1,0.5c0,0.3,0.1,0.5,0.3,0.7s0.5,0.3,0.9,0.3c0.4,0,0.8-0.1,1.1-0.3s0.5-0.4,0.7-0.7
			c0.1-0.2,0.2-0.6,0.2-1.1V136.8z"/>
		<path d="M1085.9,139.9v-6.2h0.9v0.9c0.2-0.4,0.5-0.7,0.7-0.9s0.4-0.2,0.7-0.2c0.4,0,0.7,0.1,1.1,0.3l-0.4,1
			c-0.3-0.2-0.5-0.2-0.8-0.2c-0.2,0-0.4,0.1-0.6,0.2s-0.3,0.3-0.4,0.6c-0.1,0.4-0.2,0.8-0.2,1.2v3.3H1085.9z"/>
		<path d="M1094,137.6l1,0.1c-0.1,0.7-0.4,1.3-0.9,1.7s-1,0.6-1.7,0.6c-0.9,0-1.5-0.3-2.1-0.8s-0.8-1.4-0.8-2.4
			c0-0.7,0.1-1.3,0.3-1.8s0.6-0.9,1-1.1s1-0.4,1.5-0.4c0.7,0,1.2,0.2,1.7,0.5s0.7,0.8,0.8,1.5l-1,0.2c-0.1-0.4-0.3-0.7-0.5-0.9
			s-0.5-0.3-0.9-0.3c-0.5,0-1,0.2-1.3,0.6s-0.5,1-0.5,1.8c0,0.8,0.2,1.4,0.5,1.8s0.7,0.6,1.3,0.6c0.4,0,0.8-0.1,1-0.4
			S1093.9,138.1,1094,137.6z"/>
		<path d="M1095.9,139.9v-8.6h1.1v3.1c0.5-0.6,1.1-0.9,1.9-0.9c0.5,0,0.9,0.1,1.2,0.3s0.6,0.4,0.7,0.8s0.2,0.8,0.2,1.4v3.9h-1.1V136
			c0-0.5-0.1-0.9-0.3-1.2s-0.6-0.4-1-0.4c-0.3,0-0.6,0.1-0.9,0.2s-0.5,0.4-0.6,0.7s-0.2,0.7-0.2,1.1v3.4H1095.9z"/>
		<path d="M1109.6,139.9h-1.1v-6.7c-0.3,0.2-0.6,0.5-1,0.7s-0.8,0.4-1.1,0.5v-1c0.6-0.3,1.1-0.6,1.5-1s0.8-0.8,0.9-1.1h0.7V139.9z"
			/>
		<path d="M1115.7,139.9v-2.1h-3.7v-1l3.9-5.6h0.9v5.6h1.2v1h-1.2v2.1H1115.7z M1115.7,136.9V133l-2.7,3.9H1115.7z"/>
		<path d="M1121.6,139l0.2,0.9c-0.3,0.1-0.6,0.1-0.8,0.1c-0.4,0-0.7-0.1-0.9-0.2s-0.4-0.3-0.4-0.5s-0.1-0.6-0.1-1.2v-3.6h-0.8v-0.8
			h0.8v-1.5l1-0.6v2.2h1.1v0.8h-1.1v3.6c0,0.3,0,0.5,0.1,0.6s0.1,0.2,0.2,0.2s0.2,0.1,0.4,0.1C1121.2,139,1121.4,139,1121.6,139z"/>
		<path d="M1122.6,139.9v-8.6h1.1v3.1c0.5-0.6,1.1-0.9,1.9-0.9c0.5,0,0.9,0.1,1.2,0.3s0.6,0.4,0.7,0.8s0.2,0.8,0.2,1.4v3.9h-1.1V136
			c0-0.5-0.1-0.9-0.3-1.2s-0.6-0.4-1-0.4c-0.3,0-0.6,0.1-0.9,0.2s-0.5,0.4-0.6,0.7s-0.2,0.7-0.2,1.1v3.4H1122.6z"/>
		<path d="M1130,142.4h-0.8c1.2-1.9,1.8-3.8,1.8-5.6c0-0.7-0.1-1.5-0.3-2.2c-0.1-0.6-0.3-1.1-0.6-1.7c-0.2-0.4-0.5-0.9-0.9-1.8h0.8
			c0.7,1,1.3,2,1.6,3c0.3,0.9,0.5,1.7,0.5,2.7c0,1.1-0.2,2.1-0.6,3.1S1130.6,141.7,1130,142.4z"/>
	</g>
	<g>
		<path d="M81.2,123v-13.3h-5V108h11.9v1.8h-5V123H81.2z"/>
		<path d="M90.1,123v-15h2v6.2h7.8V108h2v15h-2V116h-7.8v7.1H90.1z"/>
		<path d="M105.2,123v-15H116v1.8h-8.9v4.6h8.3v1.8h-8.3v5.1h9.2v1.8H105.2z"/>
		<path d="M135.4,117.8l2,0.5c-0.4,1.6-1.2,2.9-2.3,3.7c-1.1,0.9-2.4,1.3-4,1.3c-1.6,0-2.9-0.3-4-1c-1-0.7-1.8-1.6-2.3-2.9
			c-0.5-1.2-0.8-2.6-0.8-4c0-1.6,0.3-2.9,0.9-4.1c0.6-1.2,1.4-2.1,2.6-2.7c1.1-0.6,2.3-0.9,3.6-0.9c1.5,0,2.8,0.4,3.8,1.1
			c1,0.8,1.7,1.8,2.1,3.2l-2,0.5c-0.3-1.1-0.9-1.9-1.5-2.4s-1.5-0.7-2.5-0.7c-1.2,0-2.1,0.3-2.9,0.8c-0.8,0.6-1.3,1.3-1.6,2.2
			c-0.3,0.9-0.5,1.9-0.5,2.9c0,1.3,0.2,2.4,0.6,3.3c0.4,1,1,1.7,1.7,2.1s1.6,0.7,2.6,0.7c1.1,0,2.1-0.3,2.8-1
			C134.6,120,135.2,119,135.4,117.8z"/>
		<path d="M139.8,123v-15h2v6.2h7.8V108h2v15h-2V116h-7.8v7.1H139.8z"/>
		<path d="M153.1,123l5.8-15h2.1l6.2,15h-2.3l-1.8-4.6h-6.3l-1.7,4.6H153.1z M157.5,116.9h5.1l-1.6-4.2c-0.5-1.3-0.8-2.3-1.1-3.1
			c-0.2,1-0.5,1.9-0.8,2.9L157.5,116.9z"/>
		<path d="M168.7,123v-15h6.7c1.3,0,2.4,0.1,3.1,0.4c0.7,0.3,1.3,0.7,1.7,1.4c0.4,0.7,0.6,1.4,0.6,2.3c0,1.1-0.3,2-1,2.7
			c-0.7,0.7-1.8,1.2-3.2,1.4c0.5,0.3,0.9,0.5,1.2,0.7c0.6,0.5,1.1,1.2,1.7,2l2.6,4.1h-2.5l-2-3.1c-0.6-0.9-1.1-1.6-1.4-2.1
			c-0.4-0.5-0.7-0.8-1-1c-0.3-0.2-0.6-0.3-0.9-0.4c-0.2,0-0.6-0.1-1.1-0.1h-2.3v6.7H168.7z M170.7,114.6h4.3c0.9,0,1.6-0.1,2.1-0.3
			c0.5-0.2,0.9-0.5,1.2-0.9c0.3-0.4,0.4-0.9,0.4-1.3c0-0.7-0.3-1.3-0.8-1.8c-0.5-0.5-1.3-0.7-2.4-0.7h-4.8V114.6z"/>
		<path d="M183.6,123v-15h2v13.3h7.4v1.8H183.6z"/>
		<path d="M195.3,123v-15h10.9v1.8h-8.9v4.6h8.3v1.8h-8.3v5.1h9.2v1.8H195.3z"/>
		<path d="M208.5,118.2l1.9-0.2c0.1,0.8,0.3,1.4,0.6,1.9c0.3,0.5,0.8,0.9,1.5,1.2c0.7,0.3,1.5,0.4,2.3,0.4c0.8,0,1.4-0.1,2-0.3
			c0.6-0.2,1-0.5,1.3-0.9c0.3-0.4,0.4-0.8,0.4-1.3c0-0.5-0.1-0.9-0.4-1.2c-0.3-0.4-0.7-0.6-1.4-0.9c-0.4-0.2-1.3-0.4-2.7-0.7
			c-1.4-0.3-2.3-0.6-2.9-0.9c-0.7-0.4-1.3-0.8-1.6-1.4c-0.4-0.6-0.5-1.2-0.5-1.9c0-0.8,0.2-1.5,0.6-2.1c0.4-0.7,1.1-1.2,1.9-1.5
			s1.7-0.5,2.8-0.5c1.1,0,2.1,0.2,2.9,0.5c0.9,0.4,1.5,0.9,2,1.6s0.7,1.5,0.7,2.4l-1.9,0.1c-0.1-0.9-0.4-1.7-1-2.2s-1.5-0.7-2.6-0.7
			c-1.2,0-2.1,0.2-2.6,0.7c-0.6,0.4-0.8,1-0.8,1.6c0,0.5,0.2,1,0.6,1.3c0.4,0.3,1.4,0.7,3,1.1c1.6,0.4,2.7,0.7,3.3,1
			c0.9,0.4,1.5,0.9,1.9,1.5c0.4,0.6,0.6,1.3,0.6,2.1c0,0.8-0.2,1.6-0.7,2.3c-0.5,0.7-1.1,1.3-2,1.7c-0.9,0.4-1.8,0.6-2.9,0.6
			c-1.4,0-2.5-0.2-3.4-0.6c-0.9-0.4-1.6-1-2.2-1.8C208.8,120.1,208.5,119.2,208.5,118.2z"/>
		<path d="M232.2,123v-13.3h-5V108h11.9v1.8h-5V123H232.2z"/>
		<path d="M241.1,123v-15h2v6.2h7.8V108h2v15h-2V116h-7.8v7.1H241.1z"/>
		<path d="M256.1,123v-15H267v1.8h-8.9v4.6h8.3v1.8h-8.3v5.1h9.2v1.8H256.1z"/>
		<path d="M268.3,123l5.8-15h2.1l6.2,15h-2.3l-1.8-4.6h-6.3l-1.7,4.6H268.3z M272.7,116.9h5.1l-1.6-4.2c-0.5-1.3-0.8-2.3-1.1-3.1
			c-0.2,1-0.5,1.9-0.8,2.9L272.7,116.9z"/>
		<path d="M286.1,123v-13.3h-5V108h11.9v1.8h-5V123H286.1z"/>
		<path d="M295,123v-15h6.7c1.3,0,2.4,0.1,3.1,0.4c0.7,0.3,1.3,0.7,1.7,1.4c0.4,0.7,0.6,1.4,0.6,2.3c0,1.1-0.3,2-1,2.7
			c-0.7,0.7-1.8,1.2-3.2,1.4c0.5,0.3,0.9,0.5,1.2,0.7c0.6,0.5,1.1,1.2,1.7,2l2.6,4.1h-2.5l-2-3.1c-0.6-0.9-1.1-1.6-1.4-2.1
			c-0.4-0.5-0.7-0.8-1-1c-0.3-0.2-0.6-0.3-0.9-0.4c-0.2,0-0.6-0.1-1.1-0.1H297v6.7H295z M297,114.6h4.3c0.9,0,1.6-0.1,2.1-0.3
			c0.5-0.2,0.9-0.5,1.2-0.9c0.3-0.4,0.4-0.9,0.4-1.3c0-0.7-0.3-1.3-0.8-1.8c-0.5-0.5-1.3-0.7-2.4-0.7H297V114.6z"/>
		<path d="M310.1,123v-15h10.9v1.8h-8.9v4.6h8.3v1.8h-8.3v5.1h9.2v1.8H310.1z"/>
	</g>
	<line class="st9" x1="726.5" y1="125.9" x2="1134.5" y2="125.9"/>
	<rect x="144.9" y="189.6" class="st6" width="910.1" height="493.9"/>
	<line class="st6" x1="742.9" y1="787.4" x2="1133.5" y2="787.4"/>
	<g>
		<path d="M773.8,778.4c-0.1-1.9-0.2-4.1-0.2-5.8h-0.1c-0.5,1.6-1,3.3-1.7,5.1l-2.4,6.5h-1.3l-2.2-6.4c-0.6-1.9-1.2-3.6-1.6-5.2h0
			c0,1.7-0.1,3.9-0.3,6l-0.4,5.8h-1.7l0.9-13.5h2.2l2.3,6.5c0.6,1.7,1,3.1,1.4,4.5h0.1c0.3-1.4,0.8-2.8,1.4-4.5l2.4-6.5h2.2
			l0.8,13.5h-1.7L773.8,778.4z"/>
		<path d="M780.3,770.8v13.5h-1.7v-13.5H780.3z"/>
		<path d="M786.2,784.3v-5.7l-4.3-7.8h2l1.9,3.7c0.5,1,0.9,1.8,1.3,2.8h0c0.4-0.9,0.8-1.8,1.4-2.8l1.9-3.7h2l-4.5,7.7v5.7H786.2z"/>
		<path d="M794.6,780.1l-1.4,4.2h-1.8l4.6-13.5h2.1l4.6,13.5h-1.9l-1.4-4.2H794.6z M799,778.7l-1.3-3.9c-0.3-0.9-0.5-1.7-0.7-2.5h0
			c-0.2,0.8-0.4,1.6-0.7,2.4l-1.3,3.9H799z"/>
		<path d="M803.7,783.3l7.5-10.9v-0.1h-6.8v-1.5h9.1v1.1l-7.4,10.9v0.1h7.5v1.5h-9.8V783.3z"/>
		<path d="M817.9,780.1l-1.4,4.2h-1.8l4.6-13.5h2.1l4.6,13.5h-1.9l-1.4-4.2H817.9z M822.3,778.7l-1.3-3.9c-0.3-0.9-0.5-1.7-0.7-2.5
			h0c-0.2,0.8-0.4,1.6-0.7,2.4l-1.3,3.9H822.3z"/>
		<path d="M827.9,770.8h1.7v6.5h0.1c0.4-0.5,0.7-1,1.1-1.4l4.1-5.1h2.2l-4.9,5.7l5.3,7.8h-2.1l-4.4-6.6l-1.3,1.5v5.1h-1.7V770.8z"/>
		<path d="M840.5,770.8v13.5h-1.7v-13.5H840.5z"/>
		<path d="M849.5,770.8v5.6h6.5v-5.6h1.8v13.5h-1.8V778h-6.5v6.3h-1.7v-13.5H849.5z"/>
		<path d="M863,780.1l-1.4,4.2h-1.8l4.6-13.5h2.1l4.6,13.5h-1.9l-1.4-4.2H863z M867.4,778.7l-1.3-3.9c-0.3-0.9-0.5-1.7-0.7-2.5h0
			c-0.2,0.8-0.4,1.6-0.7,2.4l-1.3,3.9H867.4z"/>
		<path d="M874.5,784.3v-5.7l-4.3-7.8h2l1.9,3.7c0.5,1,0.9,1.8,1.3,2.8h0c0.4-0.9,0.8-1.8,1.4-2.8l1.9-3.7h2l-4.5,7.7v5.7H874.5z"/>
		<path d="M882.9,780.1l-1.4,4.2h-1.8l4.6-13.5h2.1l4.6,13.5h-1.9l-1.4-4.2H882.9z M887.3,778.7l-1.3-3.9c-0.3-0.9-0.5-1.7-0.7-2.5
			h0c-0.2,0.8-0.4,1.6-0.7,2.4l-1.3,3.9H887.3z"/>
		<path d="M904.2,777.4c0,4.6-2.8,7.1-6.3,7.1c-3.6,0-6.1-2.8-6.1-6.8c0-4.3,2.7-7.1,6.3-7.1C901.8,770.6,904.2,773.4,904.2,777.4z
			 M893.7,777.7c0,2.9,1.6,5.5,4.3,5.5c2.8,0,4.3-2.5,4.3-5.6c0-2.7-1.4-5.5-4.3-5.5C895.1,772,893.7,774.7,893.7,777.7z"/>
		<path d="M910.7,771c0.9-0.2,2.1-0.3,3.3-0.3c1.9,0,3.1,0.3,3.9,1.1c0.7,0.6,1.1,1.5,1.1,2.6c0,1.8-1.1,3-2.5,3.4v0.1
			c1,0.4,1.7,1.3,2,2.7c0.4,1.9,0.8,3.2,1,3.7h-1.8c-0.2-0.4-0.5-1.5-0.9-3.2c-0.4-1.9-1.1-2.6-2.7-2.6h-1.6v5.8h-1.7V771z
			 M912.4,777.2h1.8c1.9,0,3-1,3-2.6c0-1.7-1.3-2.5-3.1-2.5c-0.8,0-1.4,0.1-1.7,0.2V777.2z"/>
		<path d="M928.4,778h-5.2v4.9h5.8v1.5h-7.6v-13.5h7.3v1.5h-5.5v4.3h5.2V778z"/>
		<path d="M934.1,772.3H930v-1.5h10v1.5h-4.1v12h-1.8V772.3z"/>
		<path d="M941.5,771c0.9-0.2,2.1-0.3,3.3-0.3c1.9,0,3.1,0.3,3.9,1.1c0.7,0.6,1.1,1.5,1.1,2.6c0,1.8-1.1,3-2.5,3.4v0.1
			c1,0.4,1.7,1.3,2,2.7c0.4,1.9,0.8,3.2,1,3.7h-1.8c-0.2-0.4-0.5-1.5-0.9-3.2c-0.4-1.9-1.1-2.6-2.7-2.6h-1.6v5.8h-1.7V771z
			 M943.3,777.2h1.8c1.9,0,3-1,3-2.6c0-1.7-1.3-2.5-3.1-2.5c-0.8,0-1.4,0.1-1.7,0.2V777.2z"/>
		<path d="M963.9,777.4c0,4.6-2.8,7.1-6.3,7.1c-3.6,0-6.1-2.8-6.1-6.8c0-4.3,2.7-7.1,6.3-7.1C961.5,770.6,963.9,773.4,963.9,777.4z
			 M953.4,777.7c0,2.9,1.6,5.5,4.3,5.5c2.8,0,4.3-2.5,4.3-5.6c0-2.7-1.4-5.5-4.3-5.5C954.8,772,953.4,774.7,953.4,777.7z"/>
		<path d="M965.9,782.2c0.8,0.5,1.9,0.9,3.1,0.9c1.8,0,2.8-0.9,2.8-2.3c0-1.3-0.7-2-2.5-2.7c-2.2-0.8-3.6-1.9-3.6-3.8
			c0-2.1,1.7-3.7,4.4-3.7c1.4,0,2.4,0.3,3,0.7l-0.5,1.4c-0.4-0.2-1.3-0.6-2.6-0.6c-1.8,0-2.5,1.1-2.5,2c0,1.3,0.8,1.9,2.7,2.6
			c2.3,0.9,3.4,2,3.4,4c0,2.1-1.5,3.9-4.7,3.9c-1.3,0-2.7-0.4-3.4-0.9L965.9,782.2z"/>
		<path d="M976,771c0.8-0.1,1.9-0.3,3.3-0.3c1.7,0,3,0.4,3.8,1.1c0.7,0.6,1.2,1.6,1.2,2.8c0,1.2-0.4,2.2-1,2.9
			c-0.9,1-2.4,1.5-4.1,1.5c-0.5,0-1,0-1.4-0.1v5.4H976V771z M977.7,777.5c0.4,0.1,0.9,0.1,1.4,0.1c2.1,0,3.4-1,3.4-2.9
			c0-1.8-1.3-2.6-3.2-2.6c-0.8,0-1.3,0.1-1.6,0.1V777.5z"/>
		<path d="M993.6,778h-5.2v4.9h5.8v1.5h-7.6v-13.5h7.3v1.5h-5.5v4.3h5.2V778z"/>
		<path d="M1005.9,783.9c-0.6,0.3-1.9,0.6-3.6,0.6c-3.8,0-6.7-2.4-6.7-6.8c0-4.2,2.9-7.1,7-7.1c1.7,0,2.7,0.4,3.2,0.6l-0.4,1.4
			c-0.7-0.3-1.6-0.6-2.7-0.6c-3.2,0-5.3,2-5.3,5.6c0,3.3,1.9,5.4,5.2,5.4c1.1,0,2.1-0.2,2.8-0.6L1005.9,783.9z"/>
		<path d="M1011.2,772.3h-4.1v-1.5h10v1.5h-4.1v12h-1.8V772.3z"/>
		<path d="M1017.6,776.2c0-0.7,0.5-1.3,1.2-1.3s1.2,0.5,1.2,1.3c0,0.7-0.5,1.2-1.2,1.2C1018,777.5,1017.6,776.9,1017.6,776.2z
			 M1017.6,783.3c0-0.7,0.5-1.3,1.2-1.3s1.2,0.5,1.2,1.3c0,0.7-0.5,1.2-1.2,1.2C1018,784.5,1017.6,784,1017.6,783.3z"/>
		<path d="M1028.2,770.8v13.5h-1.7v-13.5H1028.2z"/>
		<path d="M1031.2,784.3v-13.5h1.9l4.3,6.8c1,1.6,1.8,3,2.4,4.4l0,0c-0.2-1.8-0.2-3.4-0.2-5.5v-5.6h1.6v13.5h-1.8l-4.3-6.8
			c-0.9-1.5-1.8-3-2.5-4.5l-0.1,0c0.1,1.7,0.1,3.3,0.1,5.6v5.8H1031.2z"/>
		<path d="M1046.9,772.3h-4.1v-1.5h10v1.5h-4.1v12h-1.8V772.3z"/>
		<path d="M1061.3,778h-5.2v4.9h5.8v1.5h-7.6v-13.5h7.3v1.5h-5.5v4.3h5.2V778z"/>
		<path d="M1064.1,771c0.9-0.2,2.1-0.3,3.3-0.3c1.9,0,3.1,0.3,3.9,1.1c0.7,0.6,1.1,1.5,1.1,2.6c0,1.8-1.1,3-2.5,3.4v0.1
			c1,0.4,1.7,1.3,2,2.7c0.4,1.9,0.8,3.2,1,3.7h-1.8c-0.2-0.4-0.5-1.5-0.9-3.2c-0.4-1.9-1.1-2.6-2.7-2.6h-1.6v5.8h-1.7V771z
			 M1065.9,777.2h1.8c1.9,0,3-1,3-2.6c0-1.7-1.3-2.5-3.1-2.5c-0.8,0-1.4,0.1-1.7,0.2V777.2z"/>
		<path d="M1074.6,782.2c0.8,0.5,1.9,0.9,3.1,0.9c1.8,0,2.8-0.9,2.8-2.3c0-1.3-0.7-2-2.5-2.7c-2.2-0.8-3.6-1.9-3.6-3.8
			c0-2.1,1.7-3.7,4.4-3.7c1.4,0,2.4,0.3,3,0.7l-0.5,1.4c-0.4-0.2-1.3-0.6-2.6-0.6c-1.8,0-2.5,1.1-2.5,2c0,1.3,0.8,1.9,2.7,2.6
			c2.3,0.9,3.4,2,3.4,4c0,2.1-1.5,3.9-4.7,3.9c-1.3,0-2.7-0.4-3.4-0.9L1074.6,782.2z"/>
		<path d="M1087.3,772.3h-4.1v-1.5h10v1.5h-4.1v12h-1.8V772.3z"/>
		<path d="M1096.4,770.8v13.5h-1.7v-13.5H1096.4z"/>
		<path d="M1108.9,783.9c-0.6,0.3-1.9,0.6-3.6,0.6c-3.8,0-6.7-2.4-6.7-6.8c0-4.2,2.9-7.1,7-7.1c1.7,0,2.7,0.4,3.2,0.6l-0.4,1.4
			c-0.7-0.3-1.6-0.6-2.7-0.6c-3.2,0-5.3,2-5.3,5.6c0,3.3,1.9,5.4,5.2,5.4c1.1,0,2.1-0.2,2.8-0.6L1108.9,783.9z"/>
		<path d="M1118.1,778h-5.2v4.9h5.8v1.5h-7.6v-13.5h7.3v1.5h-5.5v4.3h5.2V778z"/>
		<path d="M1120.7,782.2c0.8,0.5,1.9,0.9,3.1,0.9c1.8,0,2.8-0.9,2.8-2.3c0-1.3-0.7-2-2.5-2.7c-2.2-0.8-3.6-1.9-3.6-3.8
			c0-2.1,1.7-3.7,4.4-3.7c1.4,0,2.4,0.3,3,0.7l-0.5,1.4c-0.4-0.2-1.3-0.6-2.6-0.6c-1.8,0-2.5,1.1-2.5,2c0,1.3,0.8,1.9,2.7,2.6
			c2.3,0.9,3.4,2,3.4,4c0,2.1-1.5,3.9-4.7,3.9c-1.3,0-2.7-0.4-3.4-0.9L1120.7,782.2z"/>
	</g>
	<line class="st8" x1="750.5" y1="435.9" x2="446.5" y2="435.9"/>
	<g>
		<path d="M500.2,393.7c0,0.9-1.1,1.6-3.4,1.9l1.8,22.6c2.4,0.3,3.5,0.8,3.5,1.8l-3.6-0.4h-3.7l-3.8,0.4c0-0.9,1.2-1.5,3.7-1.8
			l-1.8-21.5h-0.3l-7.1,23.1h-4.1l-7.2-23.1h-0.3l-1.8,21.5c2.4,0.3,3.6,0.8,3.6,1.8l-3.5-0.4h-1.8l-3.6,0.4c0-0.9,1.2-1.5,3.5-1.8
			l1.8-22.6c-2.3-0.4-3.4-1-3.4-1.9l3.5,0.4h4.9l7.2,23.3l7.2-23.3h5L500.2,393.7z"/>
		<path d="M510.4,418.2c1.8,0.4,2.6,1,2.6,1.9l-2.7-0.4h-3.2l-2.9,0.4c0-0.9,0.9-1.5,2.8-1.9v-14.8c-1.9-0.4-2.9-1-2.9-1.9l3.1,0.4
			h3.2V418.2z M510.1,393.1c0.5,0.5,0.7,1,0.7,1.7c0,0.6-0.2,1.2-0.7,1.6c-0.5,0.5-1,0.7-1.6,0.7c-0.6,0-1.2-0.2-1.6-0.7
			c-0.5-0.5-0.7-1-0.7-1.6c0-0.6,0.2-1.2,0.7-1.7c0.5-0.5,1-0.7,1.6-0.7C509.1,392.4,509.7,392.6,510.1,393.1z"/>
		<path d="M522.8,419.8l-6.5-16.3c-1.5-0.3-2.3-1-2.3-1.8v-0.1l2.5,0.4h3.6l2.1-0.4c-0.1,0.9-0.8,1.5-2.3,1.9l4.7,11.8l4.6-11.8
			c-1.4-0.3-2.1-0.9-2.1-1.8v-0.1l2,0.4h1.8l2.2-0.4c-0.1,0.9-0.9,1.5-2.6,1.9l-8.2,21c-0.7,1.6-1.5,2.7-2.5,3.2
			c-0.6,0.3-1.2,0.4-1.9,0.4c-1.6,0-2.5-0.5-2.5-1.4c0.1-1.1,0.7-1.6,1.9-1.6c0.7,0,1.3,0.4,1.7,1.2h0c0.6,0,1.2-0.8,2-2.5
			L522.8,419.8L522.8,419.8z"/>
		<path d="M537.7,403.6c-0.5,2.3-1.3,3.4-2.5,3.4l0.4-4.2c1.1-1,2.5-1.5,4.5-1.5c1.3,0,2.5,0.2,3.5,0.5c0.9,0.3,1.8,0.9,2.7,1.6
			c1.2,1.1,1.7,2.8,1.7,5.2v9.2c2,0.4,3,1.1,3,2.1l-2.8-0.4h-3.4l-0.2-1.8c-0.9,1.6-2.4,2.4-4.6,2.4c-2.1,0-3.7-0.6-4.7-1.8
			c-0.6-0.8-1-1.6-1-2.6c0-2.6,1.8-4.6,5.5-6c1.8-0.7,3.3-1.1,4.8-1.3v-1.5c-0.1-2.9-1.7-4.3-4.5-4.3
			C538.9,402.8,538.1,403.1,537.7,403.6z M544.6,410c-1.3,0.2-2.5,0.6-3.5,1c-2.1,1.2-3.1,2.6-3.1,4.1c0,0.7,0.2,1.3,0.6,1.8
			c0.7,0.7,1.8,1,3.2,1c1.2,0,2.1-0.8,2.8-2.2V410z"/>
		<path d="M563.7,403.4h-8.4c-0.3,2.6-1,3.9-2.1,3.9l0.4-5.4h13.9v1.4l-11,14.9h9.2c0.3-3.1,1-4.7,2.1-4.7l-0.4,6.1H553v-1.9
			L563.7,403.4z"/>
		<path d="M574.6,403.6c-0.5,2.3-1.3,3.4-2.5,3.4l0.4-4.2c1.1-1,2.5-1.5,4.5-1.5c1.3,0,2.5,0.2,3.5,0.5c0.9,0.3,1.8,0.9,2.7,1.6
			c1.2,1.1,1.7,2.8,1.7,5.2v9.2c2,0.4,3,1.1,3,2.1l-2.8-0.4h-3.4l-0.2-1.8c-0.9,1.6-2.4,2.4-4.6,2.4c-2.1,0-3.7-0.6-4.7-1.8
			c-0.6-0.8-1-1.6-1-2.6c0-2.6,1.8-4.6,5.5-6c1.8-0.7,3.3-1.1,4.8-1.3v-1.5c-0.1-2.9-1.7-4.3-4.5-4.3
			C575.8,402.8,575.1,403.1,574.6,403.6z M581.5,410c-1.3,0.2-2.5,0.6-3.5,1c-2.1,1.2-3.1,2.6-3.1,4.1c0,0.7,0.2,1.3,0.6,1.8
			c0.7,0.7,1.8,1,3.2,1c1.2,0,2.1-0.8,2.8-2.2V410z"/>
		<path d="M595.9,418.2c1.4,0.3,2.1,0.9,2.1,1.9l-2.2-0.4h-3.3l-2.8,0.4c0-1,0.9-1.6,2.8-1.9v-24.9c-2.1-0.3-3.1-0.9-3.1-1.9
			l3.2,0.4h3.3V418.2z M602.8,403.4c-1.4-0.3-2.1-0.9-2.1-1.9l2.2,0.4h1.7l2.7-0.4c0,1-0.9,1.6-2.8,1.9l-4.6,5.3l7.4,9.4
			c1.6,0.3,2.5,0.9,2.5,1.9l-2.5-0.4h-2.8L597,410L602.8,403.4z"/>
		<path d="M617.4,418.2c1.8,0.4,2.6,1,2.6,1.9l-2.7-0.4h-3.2l-2.9,0.4c0-0.9,0.9-1.5,2.8-1.9v-14.8c-1.9-0.4-2.9-1-2.9-1.9l3.1,0.4
			h3.2V418.2z M617.1,393.1c0.5,0.5,0.7,1,0.7,1.7c0,0.6-0.2,1.2-0.7,1.6c-0.5,0.5-1,0.7-1.6,0.7c-0.6,0-1.2-0.2-1.6-0.7
			c-0.5-0.5-0.7-1-0.7-1.6c0-0.6,0.2-1.2,0.7-1.7c0.5-0.5,1-0.7,1.6-0.7C616.1,392.4,616.7,392.6,617.1,393.1z"/>
		<path d="M639.6,407.2v10.9c2.4,0.4,3.6,1,3.6,1.9l-3.6-0.4h-3.9l-3.4,0.4c0-0.9,1.2-1.6,3.5-1.9v-22.4c-2.3-0.4-3.5-1-3.5-1.9
			l3.5,0.4h3.7l3.5-0.4c0,0.9-1.1,1.6-3.4,1.9v9.9h12v-9.9c-2.2-0.4-3.4-1-3.4-1.9l3.3,0.4h3.9l3.5-0.4c0,0.9-1.2,1.6-3.5,1.9v22.4
			c2.3,0.4,3.5,1,3.5,1.9l-3.4-0.4h-4l-3.5,0.4c0-0.9,1.2-1.6,3.6-1.9v-10.9H639.6z"/>
		<path d="M664.5,403.6c-0.5,2.3-1.3,3.4-2.5,3.4l0.4-4.2c1.1-1,2.5-1.5,4.5-1.5c1.3,0,2.5,0.2,3.5,0.5c0.9,0.3,1.8,0.9,2.7,1.6
			c1.2,1.1,1.7,2.8,1.7,5.2v9.2c2,0.4,3,1.1,3,2.1l-2.8-0.4h-3.4l-0.2-1.8c-0.9,1.6-2.4,2.4-4.6,2.4c-2.1,0-3.7-0.6-4.7-1.8
			c-0.6-0.8-1-1.6-1-2.6c0-2.6,1.8-4.6,5.5-6c1.8-0.7,3.3-1.1,4.8-1.3v-1.5c-0.1-2.9-1.7-4.3-4.5-4.3
			C665.7,402.8,664.9,403.1,664.5,403.6z M671.4,410c-1.3,0.2-2.5,0.6-3.5,1c-2.1,1.2-3.1,2.6-3.1,4.1c0,0.7,0.2,1.3,0.6,1.8
			c0.7,0.7,1.8,1,3.2,1c1.2,0,2.1-0.8,2.8-2.2V410z"/>
		<path d="M686.4,419.8l-6.5-16.3c-1.5-0.3-2.3-1-2.3-1.8v-0.1l2.5,0.4h3.6l2.1-0.4c-0.1,0.9-0.8,1.5-2.3,1.9l4.7,11.8l4.6-11.8
			c-1.4-0.3-2.1-0.9-2.1-1.8v-0.1l2,0.4h1.8l2.2-0.4c-0.1,0.9-0.9,1.5-2.6,1.9l-8.2,21c-0.7,1.6-1.5,2.7-2.5,3.2
			c-0.6,0.3-1.2,0.4-1.9,0.4c-1.6,0-2.5-0.5-2.5-1.4c0.1-1.1,0.7-1.6,1.9-1.6c0.7,0,1.3,0.4,1.7,1.2h0c0.6,0,1.2-0.8,2-2.5
			L686.4,419.8L686.4,419.8z"/>
		<path d="M701.4,403.6c-0.5,2.3-1.3,3.4-2.5,3.4l0.4-4.2c1.1-1,2.5-1.5,4.5-1.5c1.3,0,2.5,0.2,3.5,0.5c0.9,0.3,1.8,0.9,2.7,1.6
			c1.2,1.1,1.7,2.8,1.7,5.2v9.2c2,0.4,3,1.1,3,2.1l-2.8-0.4h-3.4l-0.2-1.8c-0.9,1.6-2.4,2.4-4.6,2.4c-2.1,0-3.7-0.6-4.7-1.8
			c-0.6-0.8-1-1.6-1-2.6c0-2.6,1.8-4.6,5.5-6c1.8-0.7,3.3-1.1,4.8-1.3v-1.5c-0.1-2.9-1.7-4.3-4.5-4.3
			C702.6,402.8,701.8,403.1,701.4,403.6z M708.2,410c-1.3,0.2-2.5,0.6-3.5,1c-2.1,1.2-3.1,2.6-3.1,4.1c0,0.7,0.2,1.3,0.6,1.8
			c0.7,0.7,1.8,1,3.2,1c1.2,0,2.1-0.8,2.8-2.2V410z"/>
		<path d="M733.3,410.8L733.3,410.8c-0.5,6.3-3.3,9.4-8.7,9.4c-5.3,0-8.3-3.1-8.7-9.4v0c0.5-6.3,3.4-9.4,8.7-9.4
			C729.9,401.4,732.8,404.5,733.3,410.8z M725.4,402.8c-0.3,0-0.5-0.1-0.8-0.1c-0.3,0-0.6,0-0.8,0.1c-2.7,0.4-4.1,3.1-4.1,8
			c0,4.9,1.4,7.6,4.1,8c0.3,0,0.5,0.1,0.8,0.1c0.3,0,0.5,0,0.8-0.1c2.7-0.4,4.1-3.1,4.1-8C729.5,405.9,728.1,403.2,725.4,402.8z"/>
	</g>
	<g>
		<path d="M475.4,474.9v1.2c-2.6-0.1-4.4-0.1-5.2-0.1l-5.7,0.1v-1.2c1.5,0,2.3-0.1,2.7-0.2c0.3-0.1,0.5-0.2,0.7-0.4
			c0.1-0.2,0.2-0.8,0.3-1.8c0-0.3,0-2,0.1-5.3v-8.6c0-1.7,0-3.3-0.1-4.9c0-1.2-0.1-1.9-0.3-2.1s-0.4-0.4-0.7-0.5
			c-0.3-0.1-1.2-0.2-2.7-0.2v-1.2c2.4,0.1,4.2,0.1,5.5,0.1c1.2,0,3.1,0,5.5-0.1v1.2c-1.5,0-2.4,0.1-2.7,0.2
			c-0.3,0.1-0.5,0.2-0.7,0.4c-0.1,0.2-0.2,0.8-0.3,1.8c0,0.2,0,2-0.1,5.3v8.6c0,1.7,0,3.3,0.1,4.9c0,1.2,0.1,1.9,0.3,2.1
			s0.4,0.4,0.7,0.5C473,474.8,473.9,474.9,475.4,474.9z"/>
		<path d="M480.3,476.1v-1.2c1.3,0,2.2-0.1,2.6-0.3c0.2-0.1,0.3-0.2,0.4-0.4c0.1-0.2,0.2-0.9,0.3-1.9c0.1-1.6,0.1-3,0.1-4.2V453
			c0-0.4,0-0.7-0.1-0.8c-0.1-0.2-0.3-0.5-0.7-0.8c-0.2-0.2-0.5-0.3-0.8-0.4s-0.9-0.1-1.9-0.1v-1.2c2.1,0.1,3.4,0.1,3.9,0.1
			c0.9,0,1.8,0,2.7-0.1c1.1,1.4,1.8,2.4,2.3,3l3.8,4.7l5.6,6.8c1.8,2.2,3.2,3.8,4.3,5.1c0.7,0.8,1.3,1.5,1.7,1.9v-13.6
			c0-1.2,0-2.6-0.1-4.3c-0.1-1-0.1-1.7-0.2-1.9c-0.1-0.2-0.2-0.3-0.4-0.4c-0.4-0.2-1.3-0.3-2.5-0.3v-1.2c1.5,0.1,2.9,0.1,4.4,0.1
			c1.4,0,2.7,0,3.8-0.1v1.2c-1.3,0-2.1,0.1-2.5,0.3c-0.2,0.1-0.3,0.2-0.4,0.4c-0.1,0.2-0.2,0.9-0.3,1.9c-0.1,1.6-0.1,3-0.1,4.2v8.9
			c0,1.8,0,5.2,0.1,10.1l-1.9-0.6l-0.4-0.1c-0.1,0-0.1-0.1-0.2-0.1c-0.1-0.1-0.3-0.3-0.7-0.7c-1-1.2-1.8-2-2.3-2.6l-2.4-3
			l-13.2-15.7v14.2c0,1.2,0,2.6,0.1,4.3c0,1,0.1,1.7,0.2,1.9c0.1,0.2,0.2,0.3,0.4,0.4c0.4,0.2,1.3,0.3,2.5,0.3v1.2
			c-1.1-0.1-2.3-0.1-3.6-0.1C483.6,476,482,476,480.3,476.1z"/>
		<path d="M515.8,455.9h-1.2c0-3-0.1-5-0.2-6.1c1.3,0.1,3.5,0.1,6.3,0.2c2.3,0.1,3.9,0.1,4.7,0.1c0.8,0,2.8,0,5.8-0.1
			c2.2,0,3.8-0.1,4.8-0.1c-0.1,1.4-0.2,3.4-0.3,6.1h-1.2l-0.1-1.8c-0.1-1.1-0.2-1.7-0.2-1.8s-0.1-0.3-0.2-0.3
			c-0.1-0.1-0.2-0.1-0.3-0.1c-0.2,0-0.8-0.1-1.9-0.1c-1.1-0.1-1.9-0.1-2.5-0.1h-2.3c-0.1,1.2-0.2,2.8-0.2,4.8v10.9
			c0,1.7,0,3.3,0.1,4.9c0,1.2,0.1,1.9,0.3,2.1c0.1,0.2,0.4,0.4,0.7,0.5c0.3,0.1,1.2,0.2,2.7,0.2v1.2c-2.2-0.1-3.9-0.1-5-0.1
			c-0.5,0-2.4,0-5.8,0.1v-1.2c1.5,0,2.4-0.1,2.7-0.2c0.3-0.1,0.5-0.2,0.6-0.4c0.2-0.2,0.3-0.8,0.3-1.8c0-0.3,0-2,0.1-5.3v-10.8
			c0-0.5,0-1.1,0-1.7l-0.1-3.1h-2.8c-1.6,0-2.9,0.1-3.8,0.2c-0.3,0-0.5,0.1-0.6,0.2c-0.1,0.2-0.3,0.9-0.4,2L515.8,455.9z"/>
		<path d="M541.1,476.1v-1.2c1.3,0,2.2-0.1,2.6-0.3c0.2-0.1,0.3-0.2,0.4-0.4c0.1-0.2,0.2-0.9,0.3-1.9c0.1-1.6,0.1-3,0.1-4.2v-9.5
			c0-1.7,0-3.3-0.1-4.9c0-1.2-0.1-1.9-0.3-2.1c-0.1-0.2-0.4-0.4-0.7-0.5c-0.3-0.1-1.2-0.2-2.7-0.2v-1.2l5.3,0.1l5.6-0.1
			c2.7,0,4.6-0.1,5.8-0.1c1.2,0,2.4,0.1,3.5,0.2c-0.2,0.7-0.3,1.3-0.4,1.8c0,0.1-0.1,1.4-0.3,3.9H559c0-1.3-0.1-2.4-0.2-3.5
			c-0.7-0.3-1.4-0.5-2.2-0.6c-1.4-0.2-2.8-0.3-4.2-0.3c-0.3,0-1,0-2,0.1c-1,0-1.8,0.1-2.2,0.1c0,1.4-0.1,2.7-0.1,3.9l-0.1,6.3
			c1.4,0.1,2.8,0.1,4,0.1c1.5,0,2.7-0.1,3.8-0.2c0.4,0,0.6-0.1,0.8-0.3s0.2-0.7,0.3-1.5l0.1-1.3h1.1v0.4l-0.1,3.9l0.1,4.3h-1.3
			l-0.1-1.3c0-0.9-0.1-1.5-0.3-1.7s-0.4-0.4-0.8-0.5c-0.7-0.1-2.1-0.2-4.1-0.2c-0.8,0-2,0-3.5,0.1c-0.1,1.2-0.1,3.1-0.1,5.5
			c0,2.3,0,4,0.1,5.2c1.8,0.1,3.8,0.2,6,0.2c1.6,0,2.7,0,3.4-0.1c0.7-0.1,1.3-0.3,1.9-0.5c0.1-0.4,0.3-0.9,0.4-1.6
			c0.3-1.1,0.5-1.9,0.5-2.5h1.2c-0.3,2.5-0.5,4.6-0.5,6.2c-1.1,0.2-2.4,0.2-3.9,0.2l-11.1-0.1C545.8,475.9,544.2,476,541.1,476.1z"
			/>
		<path d="M566.7,450.9v-1.2c0.5,0,1.2,0,2.2,0.1l3.6,0.1c0.7,0,1.8,0,3.3-0.1c1.9-0.1,3-0.1,3.4-0.1c2.4,0,4.1,0.2,5.2,0.6
			c1.1,0.4,1.9,1.1,2.5,2.1s0.9,2,0.9,3.1c0,1-0.3,2.1-0.8,3.1c-0.6,1-1.4,1.9-2.4,2.6c-1.1,0.7-2.4,1.2-4.1,1.6
			c0.3,0.4,1,1.4,2.2,2.9l4.7,6.2c1.3,1.7,2.1,2.7,2.3,2.9c0.1,0.1,0.2,0.1,0.3,0.2c0.2,0.1,0.6,0.1,1.2,0.1v1.2
			c-0.9-0.1-1.8-0.1-2.5-0.1c-0.7,0-1.6,0-2.7,0.1c-0.8-0.9-2.2-2.7-4-5.4c-1.1-1.5-2-2.7-2.8-3.7c-1.3-1.7-2.5-3.2-3.7-4.5l0.2-0.6
			c0.6,0,1.1,0.1,1.5,0.1c2.2,0,4-0.5,5.1-1.6c1.2-1.1,1.7-2.5,1.7-4.2c0-1.5-0.5-2.7-1.5-3.6c-1-0.9-2.5-1.3-4.5-1.3
			c-1.3,0-2.5,0.2-3.7,0.6c-0.1,0.7-0.1,1.3-0.1,1.9c0,0.2-0.1,2-0.1,5.4v8.2c0,1.7,0,3.3,0.1,4.9c0,1.2,0.1,1.9,0.3,2.1
			c0.1,0.2,0.4,0.4,0.7,0.5c0.3,0.1,1.2,0.2,2.7,0.2v1.2c-1.8-0.1-3.4-0.1-4.8-0.1c-1.2,0-3.2,0-6,0.1v-1.2c1.5,0,2.3-0.1,2.7-0.2
			c0.3-0.1,0.5-0.2,0.7-0.4c0.1-0.2,0.2-0.8,0.3-1.8c0-0.3,0-2,0.1-5.3v-8.6c0-1.7,0-3.3-0.1-4.9c0-1.2-0.1-1.9-0.3-2.1
			s-0.4-0.4-0.7-0.5S568.2,450.9,566.7,450.9z"/>
		<path d="M595.3,475.2c0.2-1.2,0.3-3.1,0.4-5.8h1.3c0.1,1.8,0.2,2.9,0.3,3.2c0.1,0.3,0.5,0.7,1,1s1.3,0.7,2.2,1
			c0.9,0.3,1.8,0.4,2.7,0.4c1.2,0,2.4-0.3,3.5-0.9c1.1-0.6,1.8-1.3,2.3-2.3s0.7-1.9,0.7-3c0-0.8-0.1-1.5-0.4-2.1
			c-0.2-0.6-0.6-1.1-1.1-1.4c-0.5-0.4-1.1-0.6-1.8-0.8c-0.5-0.1-1.4-0.2-2.7-0.4c-1.4-0.2-2.5-0.4-3.5-0.6c-1.3-0.4-2.2-0.9-2.8-1.4
			c-0.6-0.5-1.1-1.2-1.5-2.1c-0.4-0.9-0.6-1.8-0.6-2.8c0-1.5,0.4-2.8,1.1-4.1c0.8-1.3,1.9-2.3,3.4-3c1.5-0.7,3.1-1.1,4.9-1.1
			c1.1,0,2.2,0.1,3.4,0.4c1.2,0.3,2.4,0.7,3.5,1.2c-0.2,0.8-0.3,1.5-0.4,2.2c-0.1,0.7-0.1,1.7-0.2,3h-1.3c0-1.9-0.1-2.9-0.2-3.1
			c-0.3-0.4-0.7-0.8-1.3-1.2c-1.3-0.7-2.6-1.1-4-1.1c-1.8,0-3.2,0.5-4.3,1.6c-1.1,1.1-1.6,2.5-1.6,4.3c0,1.1,0.2,1.9,0.6,2.4
			s1.1,1,2.1,1.4c0.7,0.2,1.8,0.5,3.3,0.7c1.5,0.2,2.9,0.4,4.2,0.7c1.2,0.3,2,0.8,2.6,1.2s1,1.1,1.4,1.9c0.4,0.8,0.5,1.7,0.5,2.7
			c0,2.5-1,4.6-3.1,6.4c-2,1.8-4.7,2.7-7.9,2.7C599.5,476.6,597.3,476.1,595.3,475.2z"/>
		<path d="M619,455.9h-1.2c0-3-0.1-5-0.2-6.1c1.3,0.1,3.5,0.1,6.3,0.2c2.3,0.1,3.9,0.1,4.7,0.1c0.8,0,2.8,0,5.8-0.1
			c2.2,0,3.8-0.1,4.8-0.1c-0.1,1.4-0.2,3.4-0.3,6.1h-1.2l-0.1-1.8c-0.1-1.1-0.2-1.7-0.2-1.8s-0.1-0.3-0.2-0.3
			c-0.1-0.1-0.2-0.1-0.3-0.1c-0.2,0-0.8-0.1-1.9-0.1c-1.1-0.1-1.9-0.1-2.5-0.1h-2.3c-0.1,1.2-0.2,2.8-0.2,4.8v10.9
			c0,1.7,0,3.3,0.1,4.9c0,1.2,0.1,1.9,0.3,2.1s0.4,0.4,0.7,0.5s1.2,0.2,2.7,0.2v1.2c-2.2-0.1-3.9-0.1-5-0.1c-0.5,0-2.4,0-5.8,0.1
			v-1.2c1.5,0,2.4-0.1,2.7-0.2c0.3-0.1,0.5-0.2,0.7-0.4c0.2-0.2,0.3-0.8,0.3-1.8c0-0.3,0-2,0.1-5.3v-10.8c0-0.5,0-1.1,0-1.7
			l-0.1-3.1H624c-1.6,0-2.9,0.1-3.8,0.2c-0.3,0-0.5,0.1-0.6,0.2c-0.1,0.2-0.3,0.9-0.4,2L619,455.9z"/>
		<path d="M654.8,474.9v1.2c-2.6-0.1-4.4-0.1-5.2-0.1l-5.7,0.1v-1.2c1.5,0,2.4-0.1,2.7-0.2s0.5-0.2,0.7-0.4c0.1-0.2,0.2-0.8,0.3-1.8
			c0-0.3,0-2,0.1-5.3v-8.6c0-1.7,0-3.3-0.1-4.9c0-1.2-0.1-1.9-0.3-2.1c-0.1-0.2-0.4-0.4-0.7-0.5c-0.3-0.1-1.2-0.2-2.7-0.2v-1.2
			c2.4,0.1,4.2,0.1,5.5,0.1c1.2,0,3.1,0,5.5-0.1v1.2c-1.5,0-2.4,0.1-2.7,0.2c-0.3,0.1-0.5,0.2-0.7,0.4c-0.1,0.2-0.2,0.8-0.3,1.8
			c0,0.2,0,2-0.1,5.3v8.6c0,1.7,0,3.3,0.1,4.9c0,1.2,0.1,1.9,0.3,2.1c0.1,0.2,0.4,0.4,0.7,0.5C652.5,474.8,653.4,474.9,654.8,474.9z
			"/>
		<path d="M684.6,472.8l-0.7,1.7c-1.4,0.7-2.9,1.3-4.2,1.6s-2.9,0.5-4.5,0.5c-1.9,0-3.7-0.2-5.3-0.7s-3.1-1.2-4.3-2.1
			c-1.2-0.9-2.2-1.9-3-3s-1.4-2.3-1.8-3.6s-0.6-2.7-0.6-4.3c0-3.9,1.4-7.2,4.1-9.8s6.5-3.9,11.3-3.9c1.1,0,2.2,0.1,3.1,0.2
			s2.1,0.4,3.5,0.7c1.4,0.4,2.2,0.6,2.5,0.6c-0.3,0.7-0.5,1.3-0.6,2c-0.2,1.1-0.3,2.3-0.4,3.7h-1.2l0-2.2c-0.1-1.2-0.8-2.1-2-2.7
			s-3-0.9-5.4-0.9c-1.8,0-3.2,0.2-4.5,0.7s-2.3,1.1-3.2,2s-1.7,2.1-2.3,3.5c-0.6,1.4-0.9,3.2-0.9,5.3c0,3.7,1.1,6.8,3.4,9
			c2.3,2.3,5.3,3.4,9.1,3.4c1.7,0,3.3-0.2,4.7-0.7c1-0.3,2-0.8,3-1.5L684.6,472.8z"/>
		<path d="M689.8,476.1v-1.2c1.3,0,2.2-0.1,2.6-0.3c0.2-0.1,0.3-0.2,0.4-0.4c0.1-0.2,0.2-0.9,0.3-1.9c0.1-1.6,0.1-3,0.1-4.2v-9.5
			c0-1.7,0-3.3-0.1-4.9c0-1.2-0.1-1.9-0.3-2.1c-0.1-0.2-0.4-0.4-0.7-0.5s-1.2-0.2-2.7-0.2v-1.2l5.3,0.1l5.6-0.1
			c2.7,0,4.6-0.1,5.8-0.1c1.2,0,2.4,0.1,3.5,0.2c-0.2,0.7-0.3,1.3-0.4,1.8c0,0.1-0.1,1.4-0.3,3.9h-1.2c0-1.3-0.1-2.4-0.2-3.5
			c-0.7-0.3-1.4-0.5-2.2-0.6c-1.4-0.2-2.8-0.3-4.2-0.3c-0.3,0-1,0-2,0.1c-1,0-1.8,0.1-2.2,0.1c0,1.4-0.1,2.7-0.1,3.9l-0.1,6.3
			c1.4,0.1,2.8,0.1,4,0.1c1.5,0,2.7-0.1,3.8-0.2c0.4,0,0.7-0.1,0.8-0.3s0.2-0.7,0.3-1.5l0.1-1.3h1.1v0.4l-0.1,3.9l0.1,4.3h-1.3
			l-0.1-1.3c0-0.9-0.1-1.5-0.2-1.7s-0.4-0.4-0.8-0.5c-0.7-0.1-2.1-0.2-4.1-0.2c-0.8,0-2,0-3.5,0.1c-0.1,1.2-0.1,3.1-0.1,5.5
			c0,2.3,0,4,0.1,5.2c1.8,0.1,3.8,0.2,6,0.2c1.6,0,2.7,0,3.4-0.1c0.7-0.1,1.3-0.3,1.9-0.5c0.1-0.4,0.3-0.9,0.4-1.6
			c0.3-1.1,0.5-1.9,0.5-2.5h1.2c-0.3,2.5-0.5,4.6-0.5,6.2c-1.1,0.2-2.4,0.2-3.9,0.2l-11.1-0.1C694.5,475.9,692.9,476,689.8,476.1z"
			/>
		<path d="M715.8,475.2c0.2-1.2,0.3-3.1,0.4-5.8h1.3c0.1,1.8,0.2,2.9,0.3,3.2c0.1,0.3,0.5,0.7,1,1c0.5,0.4,1.3,0.7,2.2,1
			c0.9,0.3,1.8,0.4,2.7,0.4c1.2,0,2.4-0.3,3.5-0.9s1.8-1.3,2.3-2.3s0.7-1.9,0.7-3c0-0.8-0.1-1.5-0.4-2.1c-0.2-0.6-0.6-1.1-1.1-1.4
			c-0.5-0.4-1.1-0.6-1.8-0.8c-0.5-0.1-1.4-0.2-2.7-0.4c-1.4-0.2-2.5-0.4-3.5-0.6c-1.3-0.4-2.2-0.9-2.8-1.4c-0.6-0.5-1.1-1.2-1.5-2.1
			c-0.4-0.9-0.6-1.8-0.6-2.8c0-1.5,0.4-2.8,1.1-4.1c0.8-1.3,1.9-2.3,3.4-3c1.5-0.7,3.1-1.1,4.9-1.1c1.1,0,2.2,0.1,3.4,0.4
			c1.2,0.3,2.4,0.7,3.5,1.2c-0.2,0.8-0.3,1.5-0.4,2.2c-0.1,0.7-0.1,1.7-0.2,3h-1.3c0-1.9-0.1-2.9-0.2-3.1c-0.3-0.4-0.7-0.8-1.3-1.2
			c-1.3-0.7-2.6-1.1-4-1.1c-1.8,0-3.2,0.5-4.3,1.6s-1.6,2.5-1.6,4.3c0,1.1,0.2,1.9,0.6,2.4c0.4,0.6,1.1,1,2.1,1.4
			c0.7,0.2,1.8,0.5,3.3,0.7c1.5,0.2,2.9,0.4,4.2,0.7c1.2,0.3,2,0.8,2.6,1.2s1,1.1,1.4,1.9c0.4,0.8,0.5,1.7,0.5,2.7
			c0,2.5-1,4.6-3.1,6.4c-2,1.8-4.7,2.7-7.9,2.7C720,476.6,717.8,476.1,715.8,475.2z"/>
	</g>
</g>
<g id="Layer_6">
</g>
<g id="Layer_7">
</g>
</svg>
