<svg xmlns="http://www.w3.org/2000/svg" viewBox="0 0 16.4 16.4"><defs><style>.cls-1{fill:#666;}</style></defs><title>Asset 4</title><g id="Layer_2" data-name="Layer 2"><g id="Layer_1-2" data-name="Layer 1"><path class="cls-1" d="M10.7,10.55h1.79A.52.52,0,0,0,13.1,10a9.51,9.51,0,0,1,.15-1.4c.07-.47-.14-.7-.65-.68s-1.24,0-1.91,0v-2a.86.86,0,0,1,.81-.8h.41c.41-.06,1.12,0,1.16-.21a6.13,6.13,0,0,0,.07-1.84c0-.1-.29-.26-.45-.26a14.87,14.87,0,0,0-2.15.11A2.69,2.69,0,0,0,8.19,5.34c-.1.83-.1,1.67-.14,2.6H6.92c-.55,0-.74.2-.7.72a12,12,0,0,1,0,1.23c0,.46.16.69.65.66s.77,0,1.2,0v5.79a1.22,1.22,0,0,1-.27.06H2.24A2.18,2.18,0,0,1,0,14.29q0-.08,0-.15Q0,8.22,0,2.3A2.18,2.18,0,0,1,2.06,0H14.12a2.17,2.17,0,0,1,2.27,2.07q0,.09,0,.18V14.14a2.12,2.12,0,0,1-1.92,2.22c-1.24.08-2.49,0-3.77,0Z"/></g></g></svg>