<svg xmlns="http://www.w3.org/2000/svg" viewBox="0 0 67.5 67.55"><defs><style>.cls-1{fill:#fff;}.cls-2,.cls-3{fill:#bf2323;}.cls-2{stroke:#bf2323;stroke-miterlimit:10;stroke-width:0.12px;}</style></defs><title>Asset 66</title><g id="Layer_2" data-name="Layer 2"><g id="guides"><rect class="cls-1" x="46.38" y="28.39" width="9.36" height="9.23"/><path class="cls-2" d="M12.26,2.56H7.67v11.8H6V2.56H1.39V1.06H12.26Z"/><path class="cls-3" d="M28.32.06h1.42l5.43,13.3h-1.8l-1.57-3.9H26.23l-1.55,3.9h-1.8Zm3.11,8.09L29,2,26.56,8.15Z"/><path class="cls-2" d="M49.36.06h1.42l5.43,13.3h-1.8l-1.57-3.9H47.27l-1.55,3.9h-1.8Zm3.11,8.09L50.08,2,47.6,8.15Z"/><path class="cls-2" d="M5.54,26.7H7L12.39,40H10.6L9,36.1H3.44L1.89,40H.09Zm3.11,8.09-2.4-6.14L3.78,34.79Z"/><path class="cls-2" d="M26.71,40V26.7H28.4V38.5h7.42V40Z"/><path class="cls-2" d="M3.21,67.49V54.21H4.89v7.34l6.86-7.36h1.82L8.23,60l5.64,7.44H12L7.2,61l-2.3,2.4v4.06Z"/><path class="cls-2" d="M34.64,56.63a2.78,2.78,0,0,0-.61-.49,5.35,5.35,0,0,0-.85-.42,6,6,0,0,0-1-.29A5.38,5.38,0,0,0,31,55.34a3.62,3.62,0,0,0-2.26.64,1.93,1.93,0,0,0-.68,1.61,1.77,1.77,0,0,0,.23.89,1.69,1.69,0,0,0,.66.59,4.88,4.88,0,0,0,1.11.41q.66.17,1.56.35a16.2,16.2,0,0,1,1.88.47,5.45,5.45,0,0,1,1.44.68,2.89,2.89,0,0,1,.93,1,3.37,3.37,0,0,1,.35,1.51,3.47,3.47,0,0,1-.33,1.67,3.33,3.33,0,0,1-1,1.19,4.42,4.42,0,0,1-1.51.71,8,8,0,0,1-1.9.27,8.83,8.83,0,0,1-2.92-.4A8.15,8.15,0,0,1,26,65.62l.77-1.44a4.45,4.45,0,0,0,.79.62,6.35,6.35,0,0,0,1.1.54,8.08,8.08,0,0,0,1.32.38,6.64,6.64,0,0,0,1.47.12,4.08,4.08,0,0,0,2.2-.56,1.87,1.87,0,0,0,.47-2.48,2.14,2.14,0,0,0-.76-.65,5.74,5.74,0,0,0-1.22-.46q-.73-.2-1.65-.4a16.38,16.38,0,0,1-1.79-.48,4.83,4.83,0,0,1-1.3-.64,2.53,2.53,0,0,1-.8-.93,3.17,3.17,0,0,1-.3-1.34,3.79,3.79,0,0,1,.31-1.69,3.53,3.53,0,0,1,1-1.26,4.33,4.33,0,0,1,1.5-.8,6.88,6.88,0,0,1,6.31,1.1Z"/><path class="cls-1" d="M43.32,65.66a5.29,5.29,0,0,1,.07-.91,2.71,2.71,0,0,1,.28-.81,3,3,0,0,1,.57-.74,5.22,5.22,0,0,1,.95-.7l.7-.38a5.42,5.42,0,0,0,.65-.4,2.37,2.37,0,0,0,.48-.45.9.9,0,0,0,.19-.57,1,1,0,0,0-.09-.41,1.09,1.09,0,0,0-.26-.36,1.31,1.31,0,0,0-.43-.25,1.67,1.67,0,0,0-.59-.1,1.81,1.81,0,0,0-.63.1,2.18,2.18,0,0,0-.5.25,2.41,2.41,0,0,0-.38.32l-.26.3-.66-.78a3,3,0,0,1,.31-.3,3.71,3.71,0,0,1,.55-.38,3.87,3.87,0,0,1,.77-.33,3.21,3.21,0,0,1,1-.14,2.83,2.83,0,0,1,1,.15,2.09,2.09,0,0,1,.72.42,1.88,1.88,0,0,1,.45.62,1.83,1.83,0,0,1,.16.76,1.67,1.67,0,0,1-.2.82,2.56,2.56,0,0,1-.48.62,3.29,3.29,0,0,1-.6.45l-.57.32-.57.32a4.88,4.88,0,0,0-.6.42,2.87,2.87,0,0,0-.5.53,1.47,1.47,0,0,0-.27.63h3.92v1Z"/><path class="cls-1" d="M55.41,62.1a4.77,4.77,0,0,1-.22,1.47,3.68,3.68,0,0,1-.61,1.16,2.81,2.81,0,0,1-.93.76,2.5,2.5,0,0,1-1.15.27,2.53,2.53,0,0,1-1.17-.27,2.75,2.75,0,0,1-.92-.76,3.73,3.73,0,0,1-.6-1.16,5.08,5.08,0,0,1,0-2.95,3.73,3.73,0,0,1,.6-1.16,2.81,2.81,0,0,1,.92-.77,2.48,2.48,0,0,1,1.17-.28,2.46,2.46,0,0,1,1.15.28,2.88,2.88,0,0,1,.93.77,3.68,3.68,0,0,1,.61,1.16A4.76,4.76,0,0,1,55.41,62.1Zm-1,0A4.07,4.07,0,0,0,54.25,61a2.75,2.75,0,0,0-.39-.85,1.84,1.84,0,0,0-.6-.55,1.52,1.52,0,0,0-.76-.19,1.57,1.57,0,0,0-.78.19,1.76,1.76,0,0,0-.6.55,2.83,2.83,0,0,0-.39.85,4.42,4.42,0,0,0,0,2.19,2.75,2.75,0,0,0,.39.84,1.78,1.78,0,0,0,.6.55,1.58,1.58,0,0,0,.78.19,1.52,1.52,0,0,0,.76-.19,1.86,1.86,0,0,0,.6-.55,2.67,2.67,0,0,0,.39-.84A4.05,4.05,0,0,0,54.39,62.1Z"/><path class="cls-1" d="M60.92,64.69v1H56.8v-1h1.63V60a1.49,1.49,0,0,1-.32.31,3.41,3.41,0,0,1-.49.3,4,4,0,0,1-.56.24,1.61,1.61,0,0,1-.5.1v-1a1.29,1.29,0,0,0,.56-.15,4.19,4.19,0,0,0,.59-.35,4.62,4.62,0,0,0,.48-.39,1.22,1.22,0,0,0,.24-.26h1v6Z"/><path class="cls-1" d="M67.5,63.22a2.3,2.3,0,0,1-.24,1,2.45,2.45,0,0,1-.63.79,3,3,0,0,1-.92.51,3.35,3.35,0,0,1-1.11.18,3.14,3.14,0,0,1-1.13-.2,2.82,2.82,0,0,1-.9-.55,2.53,2.53,0,0,1-.6-.82,2.41,2.41,0,0,1-.22-1,2,2,0,0,1,.14-.74,2.46,2.46,0,0,1,.35-.61,2.51,2.51,0,0,1,.49-.47,2.54,2.54,0,0,1,.55-.31,2.25,2.25,0,0,1-.48-.28,2.12,2.12,0,0,1-.4-.4,1.83,1.83,0,0,1-.27-.49,1.65,1.65,0,0,1-.1-.57,1.93,1.93,0,0,1,.24-1,2.36,2.36,0,0,1,.61-.71,2.65,2.65,0,0,1,.83-.44,3,3,0,0,1,.92-.15,3.1,3.1,0,0,1,.92.15,2.69,2.69,0,0,1,.84.43,2.28,2.28,0,0,1,.61.7,1.93,1.93,0,0,1,.24,1,1.63,1.63,0,0,1-.38,1.07A2.42,2.42,0,0,1,66,61a3,3,0,0,1,.59.34,2.34,2.34,0,0,1,.49.48,2.38,2.38,0,0,1,.33.61A2.12,2.12,0,0,1,67.5,63.22Zm-1-.07a1.45,1.45,0,0,0-.17-.7,1.69,1.69,0,0,0-.43-.52,1.88,1.88,0,0,0-.6-.32,2.12,2.12,0,0,0-.67-.11,2,2,0,0,0-.67.12,1.86,1.86,0,0,0-.59.33,1.66,1.66,0,0,0-.41.53,1.51,1.51,0,0,0-.15.69,1.41,1.41,0,0,0,.17.69,1.63,1.63,0,0,0,.43.51,2.06,2.06,0,0,0,.59.32,2,2,0,0,0,.66.12,1.92,1.92,0,0,0,.67-.12,2,2,0,0,0,.59-.34,1.76,1.76,0,0,0,.42-.52A1.4,1.4,0,0,0,66.48,63.15Zm-3.42-3.81a1.13,1.13,0,0,0,.14.58,1.36,1.36,0,0,0,.37.42,1.66,1.66,0,0,0,.5.25,1.86,1.86,0,0,0,.55.08,1.76,1.76,0,0,0,.55-.09,1.79,1.79,0,0,0,.51-.26,1.34,1.34,0,0,0,.37-.42,1.16,1.16,0,0,0,.14-.58,1.12,1.12,0,0,0-.13-.55,1.32,1.32,0,0,0-.35-.41,1.61,1.61,0,0,0-.51-.26,2,2,0,0,0-.6-.09,1.91,1.91,0,0,0-.59.09,1.48,1.48,0,0,0-.49.27,1.39,1.39,0,0,0-.34.42A1.16,1.16,0,0,0,63.06,59.34Z"/></g></g></svg>