<svg xmlns="http://www.w3.org/2000/svg" viewBox="0 0 68.51 68.55"><defs><style>.cls-1{fill:#333;}.cls-2,.cls-3{fill:#bf2323;}.cls-2{stroke:#bf2323;stroke-miterlimit:10;stroke-width:0.12px;}</style></defs><title>Asset 89</title><g id="Layer_2" data-name="Layer 2"><g id="guides"><rect class="cls-1" x="47.07" y="28.81" width="9.5" height="9.37"/><path class="cls-2" d="M12.44,2.6H7.78v12H6.07V2.6H1.41V1.07h11Z"/><path class="cls-3" d="M28.74.06h1.45l5.51,13.5H33.88l-1.6-4H26.61l-1.58,4H23.21ZM31.9,8.27,29.47,2,27,8.27Z"/><path class="cls-2" d="M50.1.06h1.45l5.51,13.5H55.23l-1.6-4H48l-1.58,4H44.57Zm3.16,8.21L50.82,2,48.31,8.27Z"/><path class="cls-2" d="M5.62,27.09H7.07l5.51,13.5H10.75l-1.6-4H3.49l-1.58,4H.09ZM8.78,35.3,6.34,29.07,3.83,35.3Z"/><path class="cls-2" d="M27.11,40.59V27.1h1.71v12h7.53v1.52Z"/><path class="cls-2" d="M3.26,68.49V55H5v7.45l7-7.47h1.84L8.35,60.94l5.72,7.55H12.21L7.3,61.93,5,64.36v4.13Z"/><path class="cls-2" d="M35.15,57.47a2.83,2.83,0,0,0-.62-.5,5.43,5.43,0,0,0-.87-.42,6.06,6.06,0,0,0-1-.3,5.46,5.46,0,0,0-1.17-.09,3.67,3.67,0,0,0-2.29.65,2,2,0,0,0-.69,1.63,1.8,1.8,0,0,0,.23.91,1.71,1.71,0,0,0,.67.6,5,5,0,0,0,1.12.42q.67.17,1.59.36a16.44,16.44,0,0,1,1.9.47,5.53,5.53,0,0,1,1.46.69,2.94,2.94,0,0,1,.94,1,3.42,3.42,0,0,1,.35,1.53,3.52,3.52,0,0,1-.34,1.69,3.38,3.38,0,0,1-1,1.21,4.48,4.48,0,0,1-1.53.73,8.16,8.16,0,0,1-1.93.27,9,9,0,0,1-3-.41A8.27,8.27,0,0,1,26.4,66.6l.78-1.47a4.52,4.52,0,0,0,.81.63,6.45,6.45,0,0,0,1.12.55,8.2,8.2,0,0,0,1.34.38,6.74,6.74,0,0,0,1.5.12,4.14,4.14,0,0,0,2.23-.57,1.9,1.9,0,0,0,.47-2.51,2.17,2.17,0,0,0-.77-.66,5.83,5.83,0,0,0-1.24-.47q-.74-.2-1.67-.4a16.62,16.62,0,0,1-1.82-.48,4.9,4.9,0,0,1-1.32-.65,2.57,2.57,0,0,1-.81-.95,3.22,3.22,0,0,1-.3-1.36A3.85,3.85,0,0,1,27,57a3.58,3.58,0,0,1,1-1.28,4.39,4.39,0,0,1,1.52-.81,7,7,0,0,1,6.4,1.11Z"/><path class="cls-1" d="M44,66.63a5.37,5.37,0,0,1,.08-.92,2.75,2.75,0,0,1,.29-.82,3,3,0,0,1,.58-.75,5.3,5.3,0,0,1,1-.71l.71-.39a5.5,5.5,0,0,0,.66-.41,2.4,2.4,0,0,0,.49-.46.91.91,0,0,0,.19-.58,1,1,0,0,0-.09-.42,1.1,1.1,0,0,0-.27-.37,1.33,1.33,0,0,0-.44-.26,1.7,1.7,0,0,0-.6-.1,1.84,1.84,0,0,0-.64.1,2.21,2.21,0,0,0-.51.26,2.45,2.45,0,0,0-.38.33l-.27.31-.66-.79a3,3,0,0,1,.31-.3,3.76,3.76,0,0,1,.56-.39,3.93,3.93,0,0,1,.78-.34,3.26,3.26,0,0,1,1-.14,2.87,2.87,0,0,1,1,.15,2.12,2.12,0,0,1,.73.42,1.91,1.91,0,0,1,.46.63,1.86,1.86,0,0,1,.16.77,1.7,1.7,0,0,1-.2.84,2.6,2.6,0,0,1-.48.63,3.34,3.34,0,0,1-.61.46l-.58.33-.58.33a5,5,0,0,0-.61.43,2.91,2.91,0,0,0-.51.54,1.49,1.49,0,0,0-.27.64h4v1Z"/><path class="cls-1" d="M56.23,63a4.84,4.84,0,0,1-.22,1.5,3.73,3.73,0,0,1-.62,1.18,2.86,2.86,0,0,1-.94.78,2.54,2.54,0,0,1-1.17.28,2.57,2.57,0,0,1-1.18-.28,2.79,2.79,0,0,1-.93-.78,3.79,3.79,0,0,1-.61-1.18,5.15,5.15,0,0,1,0-3,3.79,3.79,0,0,1,.61-1.18,2.85,2.85,0,0,1,.93-.78,2.52,2.52,0,0,1,1.18-.28,2.49,2.49,0,0,1,1.17.28,2.92,2.92,0,0,1,.94.78A3.73,3.73,0,0,1,56,61.53,4.83,4.83,0,0,1,56.23,63Zm-1,0a4.13,4.13,0,0,0-.14-1.11,2.79,2.79,0,0,0-.4-.87,1.86,1.86,0,0,0-.61-.56,1.54,1.54,0,0,0-.77-.2,1.6,1.6,0,0,0-.79.2,1.79,1.79,0,0,0-.61.56,2.87,2.87,0,0,0-.39.87,4.48,4.48,0,0,0,0,2.22,2.79,2.79,0,0,0,.39.86,1.8,1.8,0,0,0,.61.55,1.6,1.6,0,0,0,.79.2,1.54,1.54,0,0,0,.77-.2,1.89,1.89,0,0,0,.61-.55,2.71,2.71,0,0,0,.4-.86A4.11,4.11,0,0,0,55.19,63Z"/><path class="cls-1" d="M61.82,65.64v1H57.64v-1H59.3v-4.8a1.51,1.51,0,0,1-.33.31,3.47,3.47,0,0,1-.5.31,4,4,0,0,1-.57.24,1.63,1.63,0,0,1-.51.1v-1a1.31,1.31,0,0,0,.57-.15,4.25,4.25,0,0,0,.6-.36,4.69,4.69,0,0,0,.49-.39,1.24,1.24,0,0,0,.24-.26h1v6Z"/><path class="cls-1" d="M68.51,64.16a2.33,2.33,0,0,1-.24,1.06,2.49,2.49,0,0,1-.64.81,3,3,0,0,1-.93.52,3.4,3.4,0,0,1-1.12.18,3.19,3.19,0,0,1-1.15-.2A2.86,2.86,0,0,1,63.5,66a2.57,2.57,0,0,1-.61-.83,2.44,2.44,0,0,1-.22-1,2,2,0,0,1,.14-.75,2.49,2.49,0,0,1,.36-.62,2.55,2.55,0,0,1,.5-.47,2.58,2.58,0,0,1,.56-.31,2.29,2.29,0,0,1-.49-.29,2.15,2.15,0,0,1-.41-.41,1.86,1.86,0,0,1-.27-.5,1.67,1.67,0,0,1-.1-.58,2,2,0,0,1,.24-1,2.39,2.39,0,0,1,.62-.72,2.68,2.68,0,0,1,.85-.44,3.08,3.08,0,0,1,.93-.15,3.14,3.14,0,0,1,.94.15,2.73,2.73,0,0,1,.85.44,2.31,2.31,0,0,1,.62.71,2,2,0,0,1,.24,1,1.65,1.65,0,0,1-.38,1.08,2.46,2.46,0,0,1-.91.7,3.07,3.07,0,0,1,.6.34,2.38,2.38,0,0,1,.5.49,2.41,2.41,0,0,1,.34.62A2.15,2.15,0,0,1,68.51,64.16Zm-1-.07a1.47,1.47,0,0,0-.17-.71,1.72,1.72,0,0,0-.44-.53,1.91,1.91,0,0,0-.61-.33,2.15,2.15,0,0,0-.68-.11,2,2,0,0,0-.68.12,1.89,1.89,0,0,0-.6.34,1.69,1.69,0,0,0-.42.54,1.53,1.53,0,0,0-.16.7,1.43,1.43,0,0,0,.17.7,1.65,1.65,0,0,0,.44.52,2.09,2.09,0,0,0,.6.33,2,2,0,0,0,.67.12,2,2,0,0,0,.68-.12,2,2,0,0,0,.59-.34,1.79,1.79,0,0,0,.43-.53A1.43,1.43,0,0,0,67.47,64.08ZM64,60.22a1.15,1.15,0,0,0,.15.58,1.38,1.38,0,0,0,.38.42,1.69,1.69,0,0,0,.51.26,1.89,1.89,0,0,0,.56.09,1.79,1.79,0,0,0,.56-.09,1.82,1.82,0,0,0,.51-.26,1.36,1.36,0,0,0,.38-.43,1.18,1.18,0,0,0,.15-.59,1.14,1.14,0,0,0-.13-.55,1.34,1.34,0,0,0-.36-.42,1.63,1.63,0,0,0-.51-.26,2,2,0,0,0-.61-.09A1.94,1.94,0,0,0,65,59a1.5,1.5,0,0,0-.5.27,1.41,1.41,0,0,0-.35.43A1.17,1.17,0,0,0,64,60.22Z"/></g></g></svg>