<svg xmlns="http://www.w3.org/2000/svg" xmlns:xlink="http://www.w3.org/1999/xlink" viewBox="0 0 414.2 1357.48"><defs><style>.cls-1,.cls-4{fill:#666;}.cls-1,.cls-2,.cls-3,.cls-7{stroke:#666;stroke-miterlimit:10;}.cls-1,.cls-7{stroke-width:1.8px;}.cls-2,.cls-3,.cls-7{fill:none;}.cls-2{stroke-width:1.34px;}.cls-3{stroke-width:1.35px;}.cls-5{opacity:0.6;}.cls-6{clip-path:url(#clip-path);}.cls-8{font-size:29px;fill:#80111b;font-family:GillSans, Gill Sans;letter-spacing:0.01em;}</style><clipPath id="clip-path"><polygon class="cls-1" points="206.7 1356.58 207.16 1356.58 205.13 62.58 206.13 62.58 206.7 1356.58"/></clipPath></defs><title>Asset 92</title><g id="Layer_2" data-name="Layer 2"><g id="guides"><line class="cls-2" x1="208.96" y1="120.44" x2="380.56" y2="120.44"/><line class="cls-2" x1="207.68" y1="486.66" x2="379.28" y2="486.66"/><line class="cls-3" x1="23.22" y1="670.45" x2="198.84" y2="670.45"/><line class="cls-2" x1="211.69" y1="859.07" x2="383.29" y2="859.07"/><line class="cls-3" x1="22.86" y1="1045.9" x2="198.48" y2="1045.9"/><line class="cls-2" x1="212.03" y1="1229.31" x2="383.63" y2="1229.31"/><rect class="cls-4" x="197.64" y="107.01" width="16.32" height="25.13" rx="6.86" ry="6.86"/><rect class="cls-4" x="196.69" y="287.14" width="16.32" height="25.13" rx="6.86" ry="6.86"/><rect class="cls-4" x="196.77" y="471.51" width="16.32" height="25.13" rx="6.86" ry="6.86"/><rect class="cls-4" x="197.47" y="656.98" width="16.32" height="25.13" rx="6.86" ry="6.86"/><rect class="cls-4" x="197.77" y="846.07" width="16.32" height="25.13" rx="6.86" ry="6.86"/><rect class="cls-4" x="197.63" y="1033.06" width="16.32" height="25.13" rx="6.86" ry="6.86"/><rect class="cls-4" x="197.92" y="1218.61" width="16.32" height="25.13" rx="6.86" ry="6.86"/><line class="cls-3" x1="21.52" y1="300.63" x2="197.14" y2="300.63"/><g class="cls-5"><polygon class="cls-4" points="206.7 1356.58 207.16 1356.58 205.13 62.58 206.13 62.58 206.7 1356.58"/><g class="cls-6"><line class="cls-1" x1="206.93" x2="206.93" y2="1356.58"/></g><polygon class="cls-7" points="206.7 1356.58 207.16 1356.58 205.13 62.58 206.13 62.58 206.7 1356.58"/></g><text class="cls-8" transform="translate(30.44 129.24) scale(0.86 1)">12pm-12:30pm </text><text class="cls-8" transform="translate(224.32 309.91) scale(0.86 1)">12:30pm-1:30pm </text><text class="cls-8" transform="translate(54.78 492.71) scale(0.86 1)">1:30pm-2pm </text><text class="cls-8" transform="translate(83.21 867.39) scale(0.86 1)">2pm-3pm <tspan x="56.91" y="34.8"> </tspan></text><text class="cls-8" transform="translate(227.66 1055.76) scale(0.86 1)"><tspan xml:space="preserve">3pm-3:30pm  </tspan></text><text class="cls-8" transform="translate(25.84 1239.73) scale(0.86 1)">3:30pm-4:30pm </text></g></g></svg>