<svg xmlns="http://www.w3.org/2000/svg" viewBox="0 0 18.52 15.57"><defs><style>.cls-1{fill:#666;}</style></defs><title>Asset 1</title><g id="Layer_2" data-name="Layer 2"><g id="Layer_1-2" data-name="Layer 1"><path class="cls-1" d="M0,13.8a7.82,7.82,0,0,0,5.47-1.63A4,4,0,0,1,1.91,9.44H3.39A4.32,4.32,0,0,1,.53,5.55L2,6A4.31,4.31,0,0,1,1,.72,11.85,11.85,0,0,0,4.62,3.61,10.27,10.27,0,0,0,9,4.79a11.83,11.83,0,0,1,.12-1.71A3.82,3.82,0,0,1,15.4,1a.65.65,0,0,0,.74.16C16.74.88,17.38.61,18,.41a5,5,0,0,1-1.38,2l1.81-.47.09.09c-.49.5-1,1-1.47,1.52a1.31,1.31,0,0,0-.35.73c-.16,4-1.7,7.33-5.12,9.51A10.6,10.6,0,0,1,.17,14L0,13.9Z"/></g></g></svg>