<?xml version="1.0" encoding="utf-8"?>
<!-- Generator: Adobe Illustrator 19.2.0, SVG Export Plug-In . SVG Version: 6.00 Build 0)  -->
<!DOCTYPE svg PUBLIC "-//W3C//DTD SVG 1.1//EN" "http://www.w3.org/Graphics/SVG/1.1/DTD/svg11.dtd">
<svg version="1.1" id="Layer_1" xmlns="http://www.w3.org/2000/svg" xmlns:xlink="http://www.w3.org/1999/xlink" x="0px" y="0px"
	 width="1000px" height="1000px" viewBox="0 0 1000 1000" style="enable-background:new 0 0 1000 1000;" xml:space="preserve">
<style type="text/css">
	.st0{fill:#333333;}
</style>
<path class="st0" d="M499.996,139.999C301.176,139.999,140,301.188,140,500.007c0.005,198.833,161.175,359.994,359.995,359.994
	c198.844,0,360.02-161.185,360.005-359.994C860,301.169,698.824,139.989,499.996,139.999 M407.175,205.465
	c0.188-3.09,2.353-4.175,4.171-0.559c1.836,2.893,3.602,5.129,5.81,10.596c2.527,6.397,3.725,12.756,4.246,24.099
	c2.808,63.569,5.068,176.167,5.636,312.801c-10.286-2.042-21.389-3.085-29.73-3.226
	C398.416,421.179,402.173,317.049,407.175,205.465 M295.812,306.303c0.211-2.354,2.325-2.625,4.039,0.089
	c1.456,2.32,2.301,4.771,4.546,8.67c2.78,4.762,5.354,9.173,5.561,17.814c1.278,52.509,3.354,112.462,4.105,218.076
	c-3.612,0.226-27.983,1.198-28.396,1.198C286.165,442.755,290.242,374.827,295.812,306.303 M314.092,651.325
	c-0.32,15.161-1.193,28.565-2.405,36.4c-0.507,3.62-1.648,4.394-4.969,3.042c-3.776-1.507-6.03-4.329-11.53-8.637
	c-7.651-6.03-8.374-15.391-9.135-33.606c-0.098-11.92-0.375-27.939-0.469-49.708c4.673,0.015,22.366-0.554,28.687-0.945
	C314.27,597.871,314.322,640.141,314.092,651.325 M426.323,727.78c-0.395,15.513-1.39,28.654-3.677,36.65
	c-0.719,2.366-2.452,3.226-5.214,1.838c-2.71-1.445-5.64-3.626-10.544-7.409c-4.96-3.7-7.528-10.648-8.172-21.888
	c-1.409-25.365-1.658-139.946-1.658-141.011c10.596-1.428,25.047-4.64,30.063-6.134v0.433
	C427.229,648.968,427.032,701.146,426.323,727.78 M443.221,569.551c-1.954,2.644-3.696,5.184-8.89,7.801
	c-5.941,2.978-22.009,6.542-39.114,8.994c-9.36,1.353-20.454,2.227-31.547,2.705c-15.006,0.535-30.303,0.445-44.877,1.038
	c-1.672,0.048-3.161,0.131-4.495,0.203c-6.349,0.422-24.065,0.98-28.72,0.971c-7.078,0-21.497-0.083-27.41-0.381
	c-11.258-0.521-17.57-1.802-26.691-4.916c-9.14-3.128-6.322-1.311-12.033-6.271c-5.223-3.442-5.72-1.802-10.243-5.142
	c-3.461-2.508-7.256-7.412-8.496-9.399c-1.165-1.892-1.362-2.69,0.807-2.562c23.446,1.521,44.177,0.62,73.109-1.546
	c3.241-0.229,84.103-3.951,104.228-3.951c6.636,0.015,19.285,0.31,19.708,0.325c9.881,0.262,19.434,1.451,28.49,3.325
	c5.092,1.141,10.15,2.607,15.649,4.651C445.082,566.25,444.833,567.437,443.221,569.551 M445.402,609.51
	c0-28.391,12.102-56.741,26.056-74.747c5.327-6.933,8.098-6.2,12.304-10.164c3.593-3.419,5.975-4.645,8.708-5.26
	c1.597-0.259,2.264,0.065,1.108,1.756c-22.291,33.458-32.477,93.12-20.181,118.652c-6.608,1.099-15.465,0.113-22.882-5.607
	C446.144,625.319,445.402,618.702,445.402,609.51 M490.549,666.787c-10.031,0-14.136-6.343-22.389-11.047
	c-4.913-2.833-8.923-6.539-12.088-10.794c6.311,4.242,13.615,6.426,21.933,3.903c1.762-0.352,3.427-1.254,5.054-2.634
	c8.914-6.849,14.071-23.907,15.432-45.864c0.024-0.565,0.048-1.113,0.081-1.686c-10.131-3.161-14.527-14.038-14.527-26.889
	c0-13.794,6.405-30.772,13.216-30.772c7.613,0,12.404,13.484,15.277,28.97c1.922,10.243,3.078,28.602,3.078,36.056
	C515.616,638.144,505.472,666.787,490.549,666.787 M533.764,580.035c-2.808,5.404-4.725,8.185-9.149,11.708
	c-0.565-5.848-1.198-11.78-2.042-17.288c6.227-5.106,9.215-11.625,12.553-21.479c6.961-21.13,8.975-41.763,12.212-58.811
	c0.399-2.255,1.893-2.809,3.133-0.676c1.07,1.761,3.048,3.56,4.016,5.241c1.311,2.1,2.042,5.415,2.056,11.799
	c-0.197,31.158-7.928,112.156,0.518,139.081c-5.449,4.975-13.494,5.482-19.493,1.367
	C526.771,631.998,530.813,608.523,533.764,580.035 M619.365,655.242c-3.277,5.428-6.612,8.565-9.956,8.565
	c-10.412,0-19.359-13.365-23.089-24.582c-0.751,23.741-7.725,41.748-17.503,41.748c-8.695,0-12.218-6.679-22.545-16.743
	c-1.442-1.391-2.76-2.845-3.968-4.376c5.391,2.282,11.676,2.774,17.031-0.03c0.647-0.352,1.257-0.745,1.85-1.198
	c10.083-5.354,15.808-40.747,18.057-70.11c2.166-28.154,2.044-57.995,6.116-72.428c1.724-6.012,4.298-6.012,6.937-2.94
	c2.871,3.842,4.771,4.833,7.074,8.032c3.183,4.396,4.531,8.863,4.141,17.781c-0.958,22.417-8.401,91.768-1.835,103.518
	c3.057-0.93,7.387-8.312,12.102-19.438c-0.834-2.626-1.521-5.129-2.085-7.5c-1.281-5.497-0.873-9.107-0.423-13.091
	c0.521-4.141-0.197-7.256,0.833-9.961c0.886-2.507,1.92-2.62,2.727-0.24c1.528,4.579,3.331,9.468,5.374,14.357
	c5.804-16.034,11.637-34.83,16.261-52.315c-5.178-16.494-9.823-34.195-7.934-50.517c2.446-20.933,15.808-38.565,23.447-37.71
	c6.17,0.672,5.723,9.896,3.554,31.463c-1.09,11.042-3.203,27.161-6.149,45.139c0,0.033,0.03,0.109,0.045,0.155
	c-5.806,33.069-17.041,85.541-25.672,103.591L619.365,655.242z M668.221,663.03c-4.877,7.531-8.22,10.556-13.839,10.556
	c-10.073,0-17.512-6.114-25.145-18.129c2.179-5.148,4.519-11.449,6.858-18.444c7.186,11.381,12.608,16.502,18.766,17.214
	c4.943-9.379,0.48-38.971-6.501-64.809c1.975-10.525,4.114-22.474,6.286-34.365c9.534,24.503,23.449,56.622,23.449,79.147
	C678.097,650.288,672.681,655.978,668.221,663.03 M688.37,637.998c-1.579-4.025-2.24-11.407-2.24-20.348
	c0-45.648,25.094-93.372,42.076-93.372c6.736,0,10.371,5.233,16.284,10.103c11.497,9.325,13.061,28.913,4.749,52.881
	c-7.797,23.521-18.149,32.786-31.928,31.054c-0.235-2.245-0.578-6.678,0-10.327c15.209-3.763,24.629-53.135,12.98-68.506
	c-10.657,8.036-19.556,40.973-20.393,70.731c-0.188,2.833-0.745,20.539,4.594,35.39c-0.366,0.06-0.718,0.131-1.07,0.17
	C704.374,647.103,693.414,644.848,688.37,637.998 M729.85,667.969c-10.538,0-14.822-2.059-23.953-8.145
	c-4.63-3.084-8.229-6.438-11.032-9.876c6.045,3.968,12.161,4.919,18.811,4.919c7.335,0,16.964-3.298,22.422-8.107h-0.006
	c23.983-19.976,44.879-72.616,51.022-99.965c0.605-2.967,1.877-2.888,2.83,0.349c1.016,3.286,1.284,7.472,1.499,12.623
	c0.277,8.032,1.221,14.269-2.526,29.539C781.348,620.233,759.898,667.969,729.85,667.969"/>
</svg>
